<svg id="ActivityReport-DQ" xmlns="http://www.w3.org/2000/svg" width="500" height="500" viewBox="0 0 500 500">
  <path id="ActivityRepot" d="M483.522,151.691H427.047V126.128a28.223,28.223,0,0,1,1-7.487,7.33,7.33,0,1,0-14.137-3.883,42.908,42.908,0,0,0-1.527,11.37V395.673a78.187,78.187,0,0,0,.891,8.686,7.315,7.315,0,0,0,.423,1.535l34.77,87.62a7.33,7.33,0,0,0,13.626,0l16.046-40.434a7.33,7.33,0,1,0-13.626-5.407l-9.232,23.265-27.659-69.7a45.4,45.4,0,0,1-.579-5.564V166.351h56.475V395.673a28.43,28.43,0,0,1-.516,5.407l-8.7,21.932a7.33,7.33,0,1,0,13.626,5.406l8.939-22.525a7.23,7.23,0,0,0,.352-1.159,42.893,42.893,0,0,0,.963-9.062V126.128A42.9,42.9,0,0,0,432.825,89.58a7.33,7.33,0,0,0,7.688,12.483,28.236,28.236,0,0,1,43.008,24.064v25.563ZM0,437.1V458.81A39.13,39.13,0,0,0,39.229,497.8H333.468A39.129,39.129,0,0,0,372.7,458.81v-281.8a7.346,7.346,0,1,0-14.692,0v281.8a24.43,24.43,0,0,1-24.537,24.3H39.229a24.43,24.43,0,0,1-24.537-24.3V437.1A7.346,7.346,0,0,0,0,437.1Zm89.649-39.487-3.1-3.1A22.168,22.168,0,1,0,55.2,425.87l18.771,18.773a22.168,22.168,0,0,0,31.35,0l6.7-6.7a7.331,7.331,0,0,0-10.367-10.367l-6.7,6.7a7.509,7.509,0,0,1-10.619,0L65.568,415.5a7.509,7.509,0,1,1,10.619-10.619l8.277,8.277c2.636,2.637,5.186,2.15,5.186,2.15a7.33,7.33,0,0,0,5.183-2.147l21.7-21.7a7.509,7.509,0,1,1,10.619,10.619l-6.731,6.731a7.33,7.33,0,0,0,10.366,10.367l6.731-6.732a22.168,22.168,0,0,0-31.35-31.35ZM282.484,434.6h19.774a21.725,21.725,0,1,0,0-43.449H190.569a21.725,21.725,0,1,0,0,43.449h65.382a7.33,7.33,0,1,0,0-14.66H190.569a7.065,7.065,0,1,1,0-14.129h111.69a7.065,7.065,0,1,1,0,14.129H282.484a7.33,7.33,0,1,0,0,14.66Zm-237-393.309H39.229A39.13,39.13,0,0,0,0,80.28V410.572a7.346,7.346,0,0,0,14.692,0V80.28a24.43,24.43,0,0,1,24.537-24.3h6.257a7.346,7.346,0,0,0,0-14.692ZM89.649,311.745l-3.1-3.1A22.168,22.168,0,0,0,55.2,340l18.771,18.773a22.168,22.168,0,0,0,31.35,0l6.7-6.7A7.331,7.331,0,0,0,101.661,341.7l-6.7,6.7a7.509,7.509,0,0,1-10.619,0L65.568,329.633a7.509,7.509,0,0,1,10.619-10.619l8.277,8.277c2.636,2.638,5.186,2.15,5.186,2.15a7.329,7.329,0,0,0,5.183-2.147l21.7-21.7a7.509,7.509,0,0,1,10.619,10.619l-6.731,6.731a7.33,7.33,0,0,0,10.366,10.366l6.731-6.731a22.168,22.168,0,0,0-31.35-31.35L89.649,311.745Zm192.835,36.981h19.774a21.725,21.725,0,1,0,0-43.449H190.569a21.725,21.725,0,1,0,0,43.449h65.382a7.33,7.33,0,0,0,0-14.66H190.569a7.065,7.065,0,1,1,0-14.129h111.69a7.065,7.065,0,1,1,0,14.129H282.484a7.33,7.33,0,1,0,0,14.66ZM153.179,188.643a39.473,39.473,0,0,0-28.622,37.929v19.26A20.181,20.181,0,0,0,144.728,266H227.97a20.181,20.181,0,0,0,20.17-20.171v-19.26a39.418,39.418,0,0,0-1.072-9.154,7.33,7.33,0,0,0-14.26,3.4,24.836,24.836,0,0,1,.672,5.758v19.26a5.513,5.513,0,0,1-5.51,5.511H144.728a5.513,5.513,0,0,1-5.511-5.511v-19.26A24.784,24.784,0,0,1,163.989,201.8h4.555a7.308,7.308,0,0,0,2.265-.358,42.994,42.994,0,0,0,32.008-.374,7.3,7.3,0,0,0,3.194.732h2.7a24.635,24.635,0,0,1,11.688,2.928,7.33,7.33,0,1,0,6.936-12.915,39.166,39.166,0,0,0-7.814-3.169A42.9,42.9,0,0,0,169.8,121.868a7.33,7.33,0,0,0,5.663,13.522,28.221,28.221,0,1,1-14.982,14.718,7.33,7.33,0,1,0-13.418-5.9,42.9,42.9,0,0,0,6.113,44.438ZM124.924,41.288H72.018a7.346,7.346,0,0,0,0,14.692h52.906V68.465A22.589,22.589,0,0,0,147.5,91.043h3.646a7.33,7.33,0,1,0,0-14.66H147.5a7.922,7.922,0,0,1-7.919-7.918V49.125c.01-.162.017-.326.017-.492s-.006-.328-.017-.49V35.717A20.928,20.928,0,0,1,160.5,14.8H231.23a20.928,20.928,0,0,1,20.918,20.917V48.143c-.012.162-.017.326-.017.49s.005.33.017.492v19.34a7.922,7.922,0,0,1-7.919,7.918H177.681a7.33,7.33,0,0,0,0,14.66H244.23a22.59,22.59,0,0,0,22.579-22.578V55.98h66.659A24.43,24.43,0,0,1,358,80.28v70.2a7.346,7.346,0,1,0,14.692,0V80.28a39.129,39.129,0,0,0-39.229-38.992H266.809V35.717A35.6,35.6,0,0,0,231.23.14H160.5a35.6,35.6,0,0,0-35.578,35.577v5.571Z" transform="translate(1 0.86)" fill="#fff" fill-rule="evenodd"/>
  <rect id="Rectangle_2" data-name="Rectangle 2" width="500" height="500" fill="#c8c8c8" opacity="0"/>
</svg>
