<svg width="154" height="154" viewBox="0 0 154 154" fill="none" xmlns="http://www.w3.org/2000/svg">
<rect width="154" height="154" fill="url(#paint0_linear_69_775)"/>
<circle cx="77" cy="77" r="43" fill="white"/>
<path fill-rule="evenodd" clip-rule="evenodd" d="M59 53H64V55C64 56.1046 64.8954 57 66 57H76C77.1046 57 78 56.1046 78 55V53H85C87.2091 53 89 54.7909 89 57V92C89 94.2091 87.2091 96 85 96H59C56.7909 96 55 94.2091 55 92V57C55 54.7909 56.7909 53 59 53ZM64 72C64 70.3431 65.3431 69 67 69H70H73C74.6569 69 76 70.3431 76 72V75H64V72ZM70 69C67.7909 69 66 67.2091 66 65C66 62.7909 67.7909 61 70 61C72.2091 61 74 62.7909 74 65C74 67.2091 72.2091 69 70 69ZM70.5 90C69.6716 90 69 90.6716 69 91.5V92.5C69 93.3284 69.6716 94 70.5 94H82.5C83.3284 94 84 93.3284 84 92.5V91.5C84 90.6716 83.3284 90 82.5 90H70.5ZM69 82.5C69 81.6716 69.6716 81 70.5 81H82.5C83.3284 81 84 81.6716 84 82.5V83.5C84 84.3284 83.3284 85 82.5 85H70.5C69.6716 85 69 84.3284 69 83.5V82.5ZM63.8586 80.0913C63.468 79.7008 62.8349 79.7008 62.4444 80.0913L59.475 83.0607L58.1214 81.7071C57.7309 81.3166 57.0977 81.3166 56.7072 81.7071C56.3167 82.0976 56.3167 82.7308 56.7072 83.1213L58.4809 84.8951C58.5297 85.0217 58.6051 85.1405 58.7072 85.2426L59.3664 85.9018C59.757 86.2924 60.3901 86.2924 60.7807 85.9018L64.5178 82.1647C64.9083 81.7742 64.9083 81.141 64.5178 80.7505L63.8586 80.0913ZM63.8586 89.2929C63.468 88.9024 62.8349 88.9024 62.4444 89.2929L59.475 92.2623L58.1214 90.9087C57.7309 90.5182 57.0977 90.5182 56.7072 90.9087C56.3167 91.2992 56.3167 91.9324 56.7072 92.3229L58.4809 94.0966C58.5297 94.2233 58.6051 94.3421 58.7072 94.4442L59.3664 95.1034C59.757 95.4939 60.3901 95.4939 60.7807 95.1034L64.5178 91.3663C64.9083 90.9758 64.9083 90.3426 64.5178 89.9521L63.8586 89.2929Z" fill="#BCBBF5"/>
<path fill-rule="evenodd" clip-rule="evenodd" d="M101.359 64.1704H95.3729V61.4607C95.3726 61.1926 95.4082 60.9257 95.4789 60.6671C95.506 60.5687 95.5133 60.4659 95.5007 60.3647C95.488 60.2634 95.4555 60.1657 95.405 60.077C95.3545 59.9883 95.2871 59.9104 95.2065 59.8478C95.126 59.7852 95.0339 59.739 94.9355 59.712C94.8371 59.685 94.7343 59.6776 94.6331 59.6903C94.5318 59.703 94.4341 59.7355 94.3454 59.7859C94.2567 59.8364 94.1788 59.9038 94.1162 59.9844C94.0536 60.065 94.0074 60.1571 93.9804 60.2555C93.8728 60.6481 93.8183 61.0535 93.8186 61.4607V90.0325C93.8329 90.3409 93.8644 90.6483 93.913 90.9532C93.922 91.0089 93.937 91.0634 93.9578 91.1159L97.6435 100.404C97.7009 100.548 97.8004 100.672 97.9292 100.76C98.0579 100.847 98.21 100.894 98.3656 100.894C98.5213 100.894 98.6733 100.847 98.8021 100.76C98.9309 100.672 99.0304 100.548 99.0878 100.404L100.789 96.1176C100.827 96.0226 100.847 95.9209 100.846 95.8184C100.845 95.7158 100.823 95.6145 100.783 95.5203C100.743 95.426 100.684 95.3406 100.611 95.2691C100.537 95.1975 100.451 95.1412 100.355 95.1034C100.26 95.0656 100.158 95.047 100.056 95.0487C99.9531 95.0505 99.8519 95.0725 99.758 95.1135C99.664 95.1545 99.5791 95.2136 99.5081 95.2876C99.4371 95.3616 99.3814 95.4489 99.3443 95.5445L98.3657 98.0105L95.4339 90.6223C95.4013 90.4272 95.3808 90.2302 95.3725 90.0326V65.7243H101.359V90.0325C101.359 90.2248 101.341 90.4167 101.304 90.6056L100.382 92.9304C100.343 93.0255 100.323 93.1273 100.324 93.23C100.325 93.3327 100.346 93.4342 100.386 93.5287C100.427 93.6232 100.485 93.7088 100.559 93.7806C100.632 93.8523 100.719 93.9087 100.815 93.9466C100.91 93.9845 101.012 94.003 101.115 94.0012C101.218 93.9994 101.319 93.9773 101.413 93.9361C101.507 93.8948 101.592 93.8354 101.663 93.7611C101.734 93.6869 101.789 93.5993 101.826 93.5034L102.774 91.1158C102.79 91.0759 102.802 91.0348 102.811 90.9929C102.879 90.6773 102.913 90.3553 102.913 90.0323V61.4607C102.913 60.652 102.697 59.8579 102.288 59.1603C101.879 58.4627 101.291 57.8869 100.585 57.4922C99.8795 57.0975 99.0811 56.8981 98.2725 56.9147C97.464 56.9313 96.6745 57.1632 95.9854 57.5866C95.8099 57.6947 95.6846 57.868 95.6369 58.0685C95.5893 58.269 95.6232 58.4802 95.7313 58.6557C95.8393 58.8311 96.0127 58.9565 96.2132 59.0041C96.4137 59.0518 96.6249 59.0179 96.8003 58.9098C97.2539 58.6314 97.7735 58.4789 98.3057 58.4681C98.8378 58.4574 99.3631 58.5887 99.8276 58.8486C100.292 59.1085 100.679 59.4875 100.948 59.9466C101.217 60.4057 101.359 60.9283 101.359 61.4606V64.1703L101.359 64.1704ZM50.106 94.4237V96.725C50.1099 97.8243 50.5501 98.8771 51.3298 99.652C52.1095 100.427 53.1649 100.861 54.2642 100.858H85.4536C86.5529 100.861 87.6085 100.427 88.3883 99.6522C89.168 98.8772 89.6083 97.8243 89.6122 96.725V66.8542C89.6122 66.6477 89.5301 66.4496 89.3841 66.3036C89.2381 66.1575 89.04 66.0755 88.8335 66.0755C88.627 66.0755 88.4289 66.1575 88.2829 66.3036C88.1368 66.4496 88.0548 66.6477 88.0548 66.8542V96.725C88.0512 97.4114 87.7752 98.0682 87.2875 98.5512C86.7998 99.0342 86.1403 99.3038 85.4539 99.3008H54.2642C53.5779 99.3038 52.9183 99.0342 52.4307 98.5512C51.943 98.0682 51.667 97.4114 51.6633 96.725V94.4237C51.6633 94.2172 51.5813 94.0191 51.4352 93.8731C51.2892 93.7271 51.0912 93.645 50.8846 93.645C50.6781 93.645 50.4801 93.7271 50.334 93.8731C50.188 94.0191 50.106 94.2172 50.106 94.4237V94.4237ZM59.6088 90.2381L59.2802 89.9095C58.8394 89.4688 58.2416 89.2213 57.6184 89.2214C56.9951 89.2215 56.3974 89.4691 55.9567 89.9099C55.5161 90.3507 55.2686 90.9485 55.2686 91.5717C55.2687 92.195 55.5164 92.7927 55.9572 93.2333L57.9469 95.2233C58.3876 95.6639 58.9852 95.9115 59.6084 95.9115C60.2316 95.9115 60.8293 95.6639 61.27 95.2233L61.9802 94.5131C62.1233 94.3668 62.203 94.17 62.2019 93.9654C62.2008 93.7607 62.119 93.5648 61.9743 93.42C61.8296 93.2753 61.6336 93.1936 61.429 93.1925C61.2244 93.1914 61.0275 93.271 60.8813 93.4142L60.1711 94.1244C60.0218 94.2736 59.8194 94.3575 59.6083 94.3575C59.3972 94.3575 59.1947 94.2736 59.0455 94.1244L57.0562 92.1341C56.9813 92.0604 56.9218 91.9726 56.881 91.8758C56.8402 91.779 56.819 91.6751 56.8186 91.57C56.8182 91.465 56.8386 91.3609 56.8786 91.2637C56.9186 91.1666 56.9774 91.0783 57.0517 91.004C57.126 90.9298 57.2143 90.8709 57.3114 90.8309C57.4085 90.7909 57.5126 90.7705 57.6177 90.7709C57.7227 90.7713 57.8267 90.7925 57.9235 90.8333C58.0203 90.8741 58.1081 90.9336 58.1818 91.0085L59.0591 91.8859C59.3386 92.1654 59.6089 92.1138 59.6089 92.1138C59.8149 92.1138 60.0125 92.0319 60.1583 91.8862L62.4585 89.586C62.5322 89.5111 62.6199 89.4516 62.7168 89.4108C62.8136 89.37 62.9175 89.3488 63.0226 89.3484C63.1276 89.348 63.2317 89.3684 63.3288 89.4084C63.426 89.4484 63.5142 89.5072 63.5885 89.5815C63.6628 89.6558 63.7216 89.7441 63.7617 89.8412C63.8017 89.9383 63.8221 90.0424 63.8216 90.1475C63.8212 90.2525 63.8 90.3565 63.7592 90.4533C63.7185 90.5501 63.6589 90.6379 63.5841 90.7116L62.8706 91.4251C62.7249 91.5708 62.643 91.7684 62.643 91.9745C62.643 92.1806 62.7248 92.3782 62.8705 92.5239C63.0162 92.6697 63.2139 92.7515 63.4199 92.7515C63.626 92.7515 63.8237 92.6697 63.9694 92.524L64.6829 91.8104C65.1204 91.3691 65.3653 90.7724 65.364 90.1509C65.3627 89.5295 65.1152 88.9338 64.6758 88.4944C64.2363 88.0549 63.6407 87.8075 63.0192 87.8061C62.3978 87.8048 61.8011 88.0497 61.3598 88.4873L59.6088 90.2381ZM80.0493 94.1587H82.1453C82.449 94.1608 82.7502 94.1027 83.0314 93.9879C83.3125 93.8731 83.5683 93.7038 83.7838 93.4898C83.9993 93.2758 84.1703 93.0212 84.287 92.7408C84.4037 92.4604 84.4638 92.1596 84.4638 91.8559C84.4638 91.5522 84.4037 91.2515 84.287 90.971C84.1703 90.6906 83.9993 90.4361 83.7838 90.222C83.5683 90.008 83.3125 89.8387 83.0314 89.7239C82.7502 89.6091 82.449 89.5511 82.1453 89.5531H70.3063C70.0025 89.5511 69.7014 89.6091 69.4202 89.7239C69.139 89.8387 68.8833 90.008 68.6678 90.222C68.4523 90.4361 68.2813 90.6906 68.1646 90.971C68.0479 91.2515 67.9878 91.5522 67.9878 91.8559C67.9878 92.1596 68.0479 92.4604 68.1646 92.7408C68.2813 93.0212 68.4523 93.2758 68.6678 93.4898C68.8833 93.7038 69.139 93.8731 69.4202 93.9879C69.7014 94.1027 70.0025 94.1608 70.3063 94.1587H77.2368C77.4428 94.1587 77.6405 94.0769 77.7862 93.9311C77.9319 93.7854 78.0137 93.5878 78.0137 93.3817C78.0137 93.1757 77.9319 92.978 77.7862 92.8323C77.6405 92.6866 77.4428 92.6048 77.2368 92.6048H70.3063C70.2072 92.6059 70.1088 92.5874 70.017 92.5503C69.9251 92.5132 69.8415 92.4583 69.771 92.3886C69.7005 92.319 69.6445 92.236 69.6063 92.1446C69.5681 92.0531 69.5485 91.955 69.5485 91.8559C69.5485 91.7568 69.5681 91.6587 69.6063 91.5673C69.6445 91.4758 69.7005 91.3929 69.771 91.3232C69.8415 91.2536 69.9251 91.1986 70.017 91.1615C70.1088 91.1244 70.2072 91.1059 70.3063 91.1071H82.1454C82.2445 91.1059 82.3428 91.1244 82.4347 91.1615C82.5266 91.1986 82.6102 91.2536 82.6807 91.3232C82.7512 91.3929 82.8072 91.4758 82.8453 91.5673C82.8835 91.6587 82.9032 91.7568 82.9032 91.8559C82.9032 91.955 82.8835 92.0531 82.8453 92.1446C82.8072 92.236 82.7512 92.319 82.6807 92.3886C82.6102 92.4583 82.5266 92.5132 82.4347 92.5503C82.3428 92.5874 82.2445 92.6059 82.1454 92.6048H80.0493C79.8432 92.6048 79.6456 92.6866 79.4999 92.8323C79.3541 92.978 79.2723 93.1757 79.2723 93.3817C79.2723 93.5878 79.3541 93.7854 79.4999 93.9311C79.6456 94.0769 79.8432 94.1587 80.0493 94.1587V94.1587ZM54.9273 52.468H54.2642C53.1649 52.4652 52.1095 52.8989 51.3298 53.6738C50.5501 54.4488 50.1099 55.5015 50.106 56.6008V91.6117C50.106 91.8183 50.188 92.0163 50.334 92.1624C50.4801 92.3084 50.6781 92.3904 50.8846 92.3904C51.0912 92.3904 51.2892 92.3084 51.4352 92.1624C51.5813 92.0163 51.6633 91.8183 51.6633 91.6117V56.6008C51.667 55.9144 51.943 55.2576 52.4307 54.7746C52.9183 54.2916 53.5779 54.022 54.2642 54.025H54.9275C55.134 54.025 55.332 53.943 55.4781 53.7969C55.6241 53.6509 55.7061 53.4528 55.7061 53.2463C55.7061 53.0398 55.6241 52.8417 55.4781 52.6957C55.332 52.5497 55.134 52.4676 54.9275 52.4676L54.9273 52.468ZM59.6088 81.1361L59.2802 80.8075C59.0619 80.5893 58.8028 80.4162 58.5177 80.2982C58.2326 80.1801 57.927 80.1193 57.6184 80.1194C56.9952 80.1194 56.3975 80.3671 55.9568 80.8078C55.5162 81.2485 55.2687 81.8463 55.2687 82.4695C55.2688 83.0928 55.5164 83.6905 55.9572 84.1311L57.9469 86.1211C58.3876 86.5617 58.9852 86.8093 59.6084 86.8093C60.2316 86.8093 60.8293 86.5617 61.27 86.1211L61.9802 85.4109C62.1225 85.2645 62.2015 85.068 62.2002 84.8639C62.1988 84.6598 62.1172 84.4644 61.9729 84.3199C61.8287 84.1755 61.6334 84.0936 61.4292 84.092C61.2251 84.0904 61.0285 84.1692 60.882 84.3113L60.1718 85.0215C60.0226 85.1708 59.8201 85.2546 59.609 85.2546C59.3979 85.2546 59.1955 85.1708 59.0462 85.0215L57.0562 83.0322C56.9088 82.8825 56.8266 82.6807 56.8275 82.4707C56.8283 82.2607 56.9121 82.0595 57.0606 81.911C57.2091 81.7625 57.4103 81.6787 57.6203 81.6779C57.8303 81.6771 58.0321 81.7593 58.1818 81.9066L59.0591 82.784C59.3386 83.0636 59.6089 83.0119 59.6089 83.0119C59.7109 83.0119 59.8119 82.9918 59.9062 82.9527C60.0005 82.9137 60.0861 82.8564 60.1583 82.7843L62.4585 80.4841C62.6081 80.3368 62.81 80.2545 63.02 80.2554C63.23 80.2562 63.4311 80.34 63.5797 80.4885C63.7282 80.637 63.8119 80.8382 63.8128 81.0482C63.8136 81.2582 63.7314 81.46 63.5841 81.6097L62.8706 82.3232C62.7263 82.4692 62.6457 82.6664 62.6463 82.8716C62.6469 83.0769 62.7287 83.2736 62.8739 83.4187C63.019 83.5638 63.2157 83.6457 63.4209 83.6463C63.6262 83.6469 63.8234 83.5662 63.9694 83.422L64.6829 82.7085C65.1204 82.2672 65.3653 81.6705 65.364 81.049C65.3627 80.4276 65.1152 79.8319 64.6758 79.3925C64.2363 78.953 63.6407 78.7056 63.0192 78.7042C62.3978 78.7029 61.8011 78.9478 61.3598 79.3854L59.6088 81.1361ZM80.0493 85.0561H82.1453C82.449 85.0581 82.7502 85.0001 83.0314 84.8853C83.3125 84.7705 83.5683 84.6012 83.7838 84.3871C83.9993 84.1731 84.1703 83.9186 84.287 83.6381C84.4037 83.3577 84.4638 83.057 84.4638 82.7533C84.4638 82.4495 84.4037 82.1488 84.287 81.8684C84.1703 81.588 83.9993 81.3334 83.7838 81.1194C83.5683 80.9054 83.3125 80.7361 83.0314 80.6213C82.7502 80.5065 82.449 80.4484 82.1453 80.4505H70.3063C70.0025 80.4484 69.7014 80.5065 69.4202 80.6213C69.139 80.7361 68.8833 80.9054 68.6678 81.1194C68.4523 81.3334 68.2813 81.588 68.1646 81.8684C68.0479 82.1488 67.9878 82.4495 67.9878 82.7533C67.9878 83.057 68.0479 83.3577 68.1646 83.6381C68.2813 83.9186 68.4523 84.1731 68.6678 84.3871C68.8833 84.6012 69.139 84.7705 69.4202 84.8853C69.7014 85.0001 70.0025 85.0581 70.3063 85.0561H77.2368C77.4428 85.0561 77.6405 84.9742 77.7862 84.8285C77.9319 84.6828 78.0137 84.4852 78.0137 84.2791C78.0137 84.073 77.9319 83.8754 77.7862 83.7297C77.6405 83.584 77.4428 83.5021 77.2368 83.5021H70.3063C70.2072 83.5033 70.1088 83.4848 70.017 83.4477C69.9251 83.4106 69.8415 83.3556 69.771 83.286C69.7005 83.2163 69.6445 83.1334 69.6063 83.0419C69.5681 82.9505 69.5485 82.8524 69.5485 82.7533C69.5485 82.6542 69.5681 82.5561 69.6063 82.4646C69.6445 82.3732 69.7005 82.2902 69.771 82.2206C69.8415 82.1509 69.9251 82.096 70.017 82.0589C70.1088 82.0218 70.2072 82.0033 70.3063 82.0044H82.1454C82.2445 82.0033 82.3428 82.0218 82.4347 82.0589C82.5266 82.096 82.6102 82.1509 82.6807 82.2206C82.7512 82.2902 82.8072 82.3732 82.8453 82.4646C82.8835 82.5561 82.9032 82.6542 82.9032 82.7533C82.9032 82.8524 82.8835 82.9505 82.8453 83.0419C82.8072 83.1334 82.7512 83.2163 82.6807 83.286C82.6102 83.3556 82.5266 83.4106 82.4347 83.4477C82.3428 83.4848 82.2445 83.5033 82.1454 83.5021H80.0493C79.8432 83.5021 79.6456 83.584 79.4999 83.7297C79.3541 83.8754 79.2723 84.073 79.2723 84.2791C79.2723 84.4852 79.3541 84.6828 79.4999 84.8285C79.6456 84.9742 79.8432 85.0561 80.0493 85.0561V85.0561ZM66.3429 68.0873C65.4692 68.3371 64.7006 68.8645 64.1532 69.5899C63.6059 70.3152 63.3095 71.199 63.309 72.1077V74.1493C63.3094 74.7162 63.5348 75.2598 63.9357 75.6607C64.3366 76.0615 64.8802 76.2868 65.4471 76.2871H74.2708C74.8377 76.2868 75.3814 76.0614 75.7823 75.6605C76.1832 75.2596 76.4085 74.716 76.4088 74.149V72.1074C76.409 71.7807 76.3709 71.455 76.2952 71.1371C76.2463 70.9378 76.1206 70.7658 75.9455 70.6588C75.7703 70.5518 75.5599 70.5185 75.3603 70.5661C75.1606 70.6137 74.9879 70.7384 74.8799 70.9129C74.7718 71.0874 74.7372 71.2976 74.7836 71.4975C74.8311 71.6975 74.855 71.9023 74.8548 72.1079V74.1494C74.8548 74.3043 74.7932 74.4528 74.6837 74.5624C74.5742 74.6719 74.4257 74.7335 74.2708 74.7336H65.4471C65.2922 74.7335 65.1437 74.672 65.0341 74.5624C64.9246 74.4529 64.863 74.3043 64.863 74.1494V72.1079C64.8633 71.4115 65.14 70.7438 65.6324 70.2514C66.1248 69.759 66.7925 69.4823 67.4888 69.4819H67.9716C68.0531 69.482 68.1342 69.4692 68.2117 69.444C69.3056 69.868 70.5209 69.8538 71.6046 69.4043C71.7101 69.4555 71.8258 69.482 71.9431 69.4819H72.2293C72.6616 69.4812 73.0873 69.5879 73.4683 69.7923C73.5582 69.8414 73.657 69.8722 73.7589 69.883C73.8608 69.8938 73.9639 69.8843 74.0621 69.8551C74.1603 69.8259 74.2518 69.7775 74.3313 69.7128C74.4107 69.648 74.4766 69.5682 74.5251 69.4779C74.5736 69.3877 74.6037 69.2887 74.6138 69.1867C74.6239 69.0847 74.6137 68.9817 74.5838 68.8837C74.5539 68.7857 74.5049 68.6945 74.4396 68.6155C74.3743 68.5365 74.2941 68.4712 74.2035 68.4233C73.9403 68.2818 73.6626 68.1692 73.3752 68.0874C74.0184 67.3025 74.3806 66.3251 74.4042 65.3107C74.4278 64.2962 74.1114 63.303 73.5054 62.4891C72.8994 61.6753 72.0385 61.0874 71.0599 60.8192C70.0813 60.5511 69.041 60.6179 68.1048 61.0091C67.9152 61.0891 67.7652 61.241 67.6874 61.4314C67.6097 61.6219 67.6107 61.8354 67.6901 62.0251C67.7696 62.2149 67.9211 62.3653 68.1113 62.4436C68.3016 62.5218 68.5151 62.5214 68.705 62.4425C69.3465 62.1749 70.0611 62.1389 70.7261 62.3409C71.3911 62.5429 71.9651 62.9701 72.3494 63.5492C72.7337 64.1283 72.9043 64.8232 72.832 65.5144C72.7597 66.2057 72.449 66.8502 71.9532 67.3372C71.4574 67.8243 70.8075 68.1235 70.115 68.1835C69.4226 68.2435 68.7309 68.0605 68.1587 67.666C67.5865 67.2715 67.1696 66.69 66.9795 66.0215C66.7894 65.353 66.838 64.6391 67.1169 64.0026C67.1601 63.9089 67.1841 63.8075 67.1877 63.7044C67.1912 63.6013 67.1742 63.4986 67.1376 63.4021C67.101 63.3057 67.0456 63.2175 66.9746 63.1427C66.9035 63.0679 66.8183 63.008 66.7239 62.9664C66.6295 62.9249 66.5277 62.9026 66.4246 62.9008C66.3214 62.8991 66.219 62.9178 66.1232 62.9561C66.0274 62.9943 65.9401 63.0512 65.8666 63.1235C65.793 63.1958 65.7345 63.282 65.6946 63.3772C65.3575 64.1457 65.2396 64.9925 65.3539 65.8238C65.4683 66.6552 65.8105 67.4387 66.3426 68.0876L66.3429 68.0873ZM63.3479 52.4676H57.7399C57.5333 52.4676 57.3353 52.5497 57.1893 52.6957C57.0432 52.8417 56.9612 53.0398 56.9612 53.2463C56.9612 53.4528 57.0432 53.6509 57.1893 53.7969C57.3353 53.943 57.5333 54.025 57.7399 54.025H63.3479V55.3484C63.3482 55.983 63.6004 56.5915 64.0491 57.0403C64.4979 57.489 65.1064 57.7413 65.741 57.7417H66.1274C66.3335 57.7417 66.5311 57.6598 66.6768 57.5141C66.8226 57.3684 66.9044 57.1708 66.9044 56.9647C66.9044 56.7586 66.8226 56.561 66.6768 56.4153C66.5311 56.2696 66.3335 56.1877 66.1274 56.1877H65.741C65.5184 56.1876 65.3049 56.0992 65.1475 55.9418C64.9901 55.7844 64.9017 55.571 64.9015 55.3484V53.2984C64.9026 53.2812 64.9033 53.2638 64.9033 53.2462C64.9033 53.2286 64.9027 53.2114 64.9015 53.1943V51.8771C64.9019 51.2891 65.1356 50.7253 65.5514 50.3096C65.9671 49.8938 66.531 49.6602 67.119 49.6599H74.6163C75.2043 49.6602 75.7681 49.8939 76.1839 50.3096C76.5996 50.7254 76.8333 51.2892 76.8336 51.8771V53.1943C76.8324 53.2114 76.8318 53.2288 76.8318 53.2462C76.8318 53.2636 76.8324 53.2812 76.8336 53.2984V55.3484C76.8335 55.571 76.7451 55.7844 76.5877 55.9418C76.4303 56.0992 76.2168 56.1876 75.9942 56.1877H68.9401C68.7341 56.1877 68.5364 56.2696 68.3907 56.4153C68.245 56.561 68.1632 56.7586 68.1632 56.9647C68.1632 57.1708 68.245 57.3684 68.3907 57.5141C68.5364 57.6598 68.7341 57.7417 68.9401 57.7417H75.9943C76.629 57.7414 77.2376 57.4891 77.6863 57.0404C78.1351 56.5916 78.3874 55.9831 78.3877 55.3484V54.025H85.4536C86.1399 54.0221 86.7992 54.2918 87.2868 54.7748C87.7744 55.2577 88.0503 55.9145 88.054 56.6008V64.042C88.054 64.1443 88.0741 64.2455 88.1132 64.34C88.1524 64.4345 88.2097 64.5203 88.282 64.5926C88.3543 64.6649 88.4402 64.7223 88.5346 64.7614C88.6291 64.8005 88.7304 64.8207 88.8326 64.8207C88.9349 64.8207 89.0361 64.8005 89.1306 64.7614C89.2251 64.7223 89.3109 64.6649 89.3832 64.5926C89.4555 64.5203 89.5129 64.4345 89.552 64.34C89.5912 64.2455 89.6113 64.1443 89.6113 64.042V56.6008C89.6075 55.5014 89.1673 54.4486 88.3876 53.6736C87.6079 52.8986 86.5524 52.4648 85.453 52.4676H78.3877V51.8771C78.3871 50.8771 77.9895 49.9182 77.2824 49.2111C76.5752 48.504 75.6163 48.1065 74.6163 48.106H67.119C66.119 48.1066 65.1601 48.5041 64.453 49.2112C63.7459 49.9183 63.3483 50.8771 63.3477 51.8771V52.4676H63.3479Z" fill="#656CD0"/>
<defs>
<linearGradient id="paint0_linear_69_775" x1="0" y1="0" x2="154" y2="154" gradientUnits="userSpaceOnUse">
<stop stop-color="#589DDB"/>
<stop offset="1" stop-color="#723BC5"/>
</linearGradient>
</defs>
</svg>
