<svg xmlns="http://www.w3.org/2000/svg" width="500" height="500" viewBox="0 0 500 500">
  <g id="All-DQ" transform="translate(0)">
    <path id="AllDqHave" d="M424.34,91.1a235.03,235.03,0,0,1,62.008,159.339c0,130.2-105.706,235.905-235.9,235.905a236.029,236.029,0,0,1-58.809-7.4,7.047,7.047,0,1,0-3.507,13.651,250.085,250.085,0,0,0,62.316,7.845c137.979,0,250-112.021,250-250A249.082,249.082,0,0,0,434.729,81.578,7.047,7.047,0,1,0,424.34,91.1ZM167.358,471.278C78.1,437.639,14.538,351.405,14.538,250.443c0-130.2,105.706-235.9,235.9-235.9A234.977,234.977,0,0,1,406.158,73.289a7.047,7.047,0,0,0,9.311-10.582A249.019,249.019,0,0,0,250.443.443c-137.979,0-250,112.021-250,250C.443,357.435,67.8,448.82,162.387,484.467a7.047,7.047,0,0,0,4.971-13.189ZM121.51,176.148,67.764,316.325A11.746,11.746,0,0,0,89.7,324.737l13.4-34.943h58.766l13.4,34.943a11.746,11.746,0,0,0,21.935-8.411L143.445,176.148a11.746,11.746,0,0,0-21.935,0Zm92.807,4.205V320.532a11.746,11.746,0,0,0,11.746,11.746h78.129a11.746,11.746,0,0,0,0-23.492H237.808V180.353a11.746,11.746,0,0,0-23.492,0Zm117.965,0V320.532a11.746,11.746,0,0,0,11.746,11.746h78.129a11.746,11.746,0,0,0,0-23.492H355.773V180.353a11.746,11.746,0,0,0-23.492,0ZM112.1,266.3h40.75l-20.375-53.141Z" transform="translate(-0.443 -0.443)" fill="#fff" fill-rule="evenodd"/>
    <rect id="Rectangle_2" data-name="Rectangle 2" width="500" height="500" fill="#c8c8c8" opacity="0"/>
  </g>
</svg>
