<svg width="154" height="154" viewBox="0 0 154 154" fill="none" xmlns="http://www.w3.org/2000/svg">
<rect width="154" height="154" fill="url(#paint0_linear_405_2)"/>
<circle cx="77" cy="77" r="43" fill="white"/>
<g clip-path="url(#clip0_405_2)">
<ellipse cx="93.8417" cy="77.6041" rx="9.71667" ry="10.3792" fill="#BCBBF5"/>
<path d="M62.0533 102.972H86.0899C89.0651 102.972 91.4804 100.557 91.4804 97.5818V92.0343C91.4804 91.6039 91.131 91.2545 90.7006 91.2545C90.2703 91.2545 89.9208 91.6039 89.9208 92.0343V97.5818C89.9208 99.6961 88.2042 101.413 86.0899 101.413H62.0533C61.6228 101.413 61.2735 101.762 61.2735 102.192C61.2735 102.623 61.6228 102.972 62.0533 102.972ZM51.0029 69.6179V97.5818C51.0029 100.557 53.4183 102.972 56.3935 102.972H59.2305C59.6608 102.972 60.0103 102.623 60.0103 102.192C60.0103 101.762 59.6608 101.413 59.2305 101.413H56.3935C54.2791 101.413 52.5626 99.6961 52.5626 97.5818V69.6179C52.5626 69.1876 52.2131 68.8381 51.7827 68.8381C51.3524 68.8381 51.0029 69.1876 51.0029 69.6179ZM85.2206 97.5156H79.6358V80.9134C79.6358 80.483 79.2863 80.1336 78.8559 80.1336C78.4255 80.1336 78.0761 80.483 78.0761 80.9134V97.739C78.0761 98.4765 78.675 99.0753 79.4126 99.0753H85.4438C86.1814 99.0753 86.7803 98.4765 86.7803 97.739V91.0334C86.7803 90.603 86.4308 90.2535 86.0005 90.2535C85.57 90.2535 85.2206 90.603 85.2206 91.0334V97.5156ZM74.0341 97.5156H68.4493V91.5773H74.0341V92.2605C74.0341 92.6908 74.3835 93.0403 74.8139 93.0403C75.2444 93.0403 75.5937 92.6908 75.5937 92.2605V91.3541C75.5937 90.6165 74.995 90.0177 74.2574 90.0177H68.226C67.4884 90.0177 66.8897 90.6165 66.8897 91.3541V97.739C66.8897 98.4765 67.4884 99.0753 68.226 99.0753H74.2574C74.995 99.0753 75.5937 98.4765 75.5937 97.739V95.0833C75.5937 94.6528 75.2444 94.3035 74.8139 94.3035C74.3835 94.3035 74.0341 94.6528 74.0341 95.0833V97.5156ZM57.2627 91.5773H62.8476V97.5156H57.2627V96.9924C57.2627 96.5621 56.9134 96.2126 56.4829 96.2126C56.0526 96.2126 55.7031 96.5621 55.7031 96.9924V97.739C55.7031 98.4765 56.302 99.0753 57.0395 99.0753H63.0708C63.8084 99.0753 64.4072 98.4765 64.4072 97.739V91.3541C64.4072 90.6165 63.8084 90.0177 63.0708 90.0177H57.0395C56.302 90.0177 55.7031 90.6165 55.7031 91.3541V94.1696C55.7031 94.6001 56.0526 94.9494 56.4829 94.9494C56.9134 94.9494 57.2627 94.6001 57.2627 94.1696V91.5773ZM95.1834 87.6248C94.1869 87.9457 93.1244 88.1189 92.0218 88.1189C86.3283 88.1189 81.7058 83.4966 81.7058 77.8031C81.7058 72.1095 86.3283 67.4871 92.0218 67.4871C93.3589 67.4871 94.637 67.7419 95.81 68.2058C96.2101 68.3641 96.6637 68.1677 96.822 67.7676C96.9803 67.3673 96.7839 66.9138 96.3836 66.7555C95.033 66.2214 93.5614 65.9275 92.0218 65.9275C85.4674 65.9275 80.1462 71.2488 80.1462 77.8031C80.1462 84.3573 85.4674 89.6785 92.0218 89.6785C93.2911 89.6785 94.5143 89.4788 95.6615 89.1093C96.0712 88.9774 96.2967 88.5377 96.1647 88.128C96.0328 87.7184 95.593 87.4928 95.1834 87.6248ZM98.1035 69.472C100.669 71.3495 102.338 74.3829 102.338 77.8031C102.338 81.4612 100.429 84.6769 97.5549 86.509C97.1919 86.7404 97.0851 87.2229 97.3164 87.5857C97.5477 87.9487 98.0302 88.0556 98.3931 87.8242C101.702 85.7156 103.897 82.0136 103.897 77.8031C103.897 73.8665 101.978 70.3744 99.0245 68.2134C98.6771 67.9593 98.1888 68.035 97.9347 68.3822C97.6805 68.7296 97.7561 69.2179 98.1035 69.472ZM68.4493 86.2202V80.2818H74.0341V86.2202H73.6632C73.2327 86.2202 72.8834 86.5696 72.8834 87C72.8834 87.4305 73.2327 87.7798 73.6632 87.7798H74.2574C74.995 87.7798 75.5937 87.1811 75.5937 86.4435V80.0586C75.5937 79.3211 74.995 78.7222 74.2574 78.7222H68.226C67.4884 78.7222 66.8897 79.3211 66.8897 80.0586V86.4435C66.8897 87.1811 67.4884 87.7798 68.226 87.7798H70.8412C71.2716 87.7798 71.621 87.4305 71.621 87C71.621 86.5696 71.2716 86.2202 70.8412 86.2202H68.4493ZM57.2627 80.2818H62.8476V86.2202H57.2627V85.5403C57.2627 85.1099 56.9134 84.7605 56.4829 84.7605C56.0526 84.7605 55.7031 85.1099 55.7031 85.5403V86.4435C55.7031 87.1811 56.302 87.7798 57.0395 87.7798H63.0708C63.8084 87.7798 64.4072 87.1811 64.4072 86.4435V80.0586C64.4072 79.3211 63.8084 78.7222 63.0708 78.7222H57.0395C56.302 78.7222 55.7031 79.3211 55.7031 80.0586V82.7175C55.7031 83.148 56.0526 83.4973 56.4829 83.4973C56.9134 83.4973 57.2627 83.148 57.2627 82.7175V80.2818ZM99.2855 81.323C97.3186 82.7759 94.4609 83.5471 92.0035 83.5471C88.5599 83.5471 85.4571 82.2737 83.1133 80.1572C82.9281 79.9899 83.0955 79.7626 83.3166 79.8941C85.8517 81.3649 88.9784 82.2558 92.2129 82.2558C94.395 82.2558 96.7924 81.8013 98.9986 80.8687C99.3275 80.7192 99.6083 81.0839 99.2855 81.323ZM100.105 80.3904C99.8535 80.0676 98.4426 80.235 97.8029 80.3127C97.6116 80.3366 97.5816 80.1692 97.755 80.0436C98.879 79.2545 100.726 79.4817 100.942 79.7448C101.157 80.0138 100.882 81.8612 99.8296 82.746C99.6683 82.8835 99.5127 82.8117 99.5845 82.6324C99.8237 82.0405 100.356 80.7073 100.105 80.3904ZM98.1555 78.4174C97.8447 78.4174 97.5339 78.3815 97.2349 78.3099C96.936 78.2381 96.7027 78.1604 96.5473 78.0706C96.4517 78.0169 96.386 77.9571 96.362 77.9033C96.3381 77.8495 96.3262 77.7897 96.3262 77.7359V77.431C96.3262 77.3054 96.374 77.2456 96.4637 77.2456C96.4996 77.2456 96.5355 77.2516 96.5713 77.2636C96.6071 77.2756 96.6609 77.2995 96.7207 77.3233C96.924 77.4131 97.1452 77.4848 97.3783 77.5326C97.6175 77.5805 97.8507 77.6043 98.0898 77.6043C98.4665 77.6043 98.7594 77.5387 98.9627 77.407C99.166 77.2756 99.2736 77.0843 99.2736 76.8392C99.2736 76.6717 99.2198 76.5341 99.1122 76.4205C99.0045 76.307 98.8013 76.2054 98.5083 76.1097L97.6414 75.8407C97.205 75.7031 96.8822 75.4999 96.6849 75.2308C96.4876 74.9677 96.386 74.6749 96.386 74.3639C96.386 74.1128 96.4398 73.8916 96.5473 73.7003C96.655 73.509 96.7985 73.3416 96.9778 73.21C97.1572 73.0726 97.3604 72.971 97.5996 72.8992C97.8388 72.8274 98.0898 72.7975 98.3529 72.7975C98.4844 72.7975 98.6219 72.8036 98.7534 72.8215C98.8909 72.8395 99.0165 72.8633 99.1421 72.8872C99.2616 72.9172 99.3752 72.947 99.4829 72.9829C99.5904 73.0187 99.6742 73.0546 99.734 73.0905C99.8177 73.1384 99.8775 73.1862 99.9134 73.24C99.9491 73.2877 99.9671 73.3536 99.9671 73.4372V73.7182C99.9671 73.8438 99.9193 73.9095 99.8296 73.9095C99.7818 73.9095 99.704 73.8857 99.6024 73.8379C99.2616 73.6824 98.879 73.6046 98.4545 73.6046C98.1137 73.6046 97.8447 73.6585 97.6594 73.7721C97.474 73.8857 97.3783 74.059 97.3783 74.3041C97.3783 74.4716 97.4381 74.6151 97.5578 74.7287C97.6773 74.8423 97.8985 74.9559 98.2154 75.0575L99.0644 75.3265C99.4948 75.4641 99.8057 75.6554 99.9911 75.9005C100.176 76.1456 100.266 76.4266 100.266 76.7374C100.266 76.9946 100.212 77.2277 100.111 77.431C100.003 77.6343 99.8595 77.8136 99.6742 77.9571C99.4888 78.1066 99.2676 78.2141 99.0106 78.292C98.7414 78.3756 98.4606 78.4174 98.1555 78.4174ZM88.0996 76.7016C88.0996 76.9228 88.1235 77.1022 88.1653 77.2336C88.2132 77.3652 88.273 77.5087 88.3566 77.6641C88.3866 77.712 88.3984 77.7598 88.3984 77.8017C88.3984 77.8615 88.3627 77.9212 88.2848 77.981L87.9083 78.2321C87.8545 78.268 87.8007 78.2859 87.7528 78.2859C87.693 78.2859 87.6332 78.2561 87.5735 78.2023C87.4897 78.1125 87.4181 78.0169 87.3582 77.9212C87.2984 77.8197 87.2386 77.7061 87.173 77.5685C86.7066 78.1185 86.1207 78.3936 85.4151 78.3936C84.913 78.3936 84.5125 78.25 84.2194 77.9631C83.9266 77.6761 83.7771 77.2935 83.7771 76.8153C83.7771 76.307 83.9564 75.8945 84.321 75.5836C84.6858 75.2728 85.17 75.1172 85.7858 75.1172C85.9891 75.1172 86.1984 75.1352 86.4196 75.1651C86.6407 75.1949 86.8679 75.2428 87.1071 75.2966V74.8602C87.1071 74.4059 87.0115 74.089 86.8261 73.9036C86.6348 73.7182 86.312 73.6285 85.8517 73.6285C85.6423 73.6285 85.4271 73.6525 85.2059 73.7064C84.9848 73.7601 84.7695 73.8259 84.5602 73.9095C84.4646 73.9515 84.3928 73.9754 84.351 73.9872C84.3092 73.9992 84.2792 74.0052 84.2553 74.0052C84.1717 74.0052 84.1297 73.9454 84.1297 73.82V73.5269C84.1297 73.4313 84.1417 73.3595 84.1717 73.3177C84.2015 73.2759 84.2553 73.2341 84.339 73.1921C84.5482 73.0846 84.7994 72.9949 85.0923 72.9231C85.3853 72.8454 85.6961 72.8095 86.025 72.8095C86.7364 72.8095 87.2566 72.971 87.5914 73.2938C87.9202 73.6167 88.0876 74.1069 88.0876 74.7646V76.7016H88.0996ZM90.473 78.2561C90.3655 78.2561 90.2937 78.2381 90.2458 78.1962C90.1981 78.1604 90.1563 78.0767 90.1204 77.9631L88.7153 73.3416C88.6794 73.222 88.6615 73.1443 88.6615 73.1025C88.6615 73.0069 88.7094 72.953 88.805 72.953H89.3909C89.5045 72.953 89.5822 72.971 89.6241 73.0128C89.672 73.0487 89.7078 73.1323 89.7437 73.2459L90.7481 77.2038L91.6807 73.2459C91.7107 73.1264 91.7465 73.0487 91.7943 73.0128C91.8422 72.9769 91.9258 72.953 92.0335 72.953H92.5117C92.6253 72.953 92.7032 72.971 92.7509 73.0128C92.7988 73.0487 92.8406 73.1323 92.8645 73.2459L93.8091 77.2516L94.8435 73.2459C94.8793 73.1264 94.9212 73.0487 94.963 73.0128C95.0109 72.9769 95.0886 72.953 95.1962 72.953H95.7522C95.8478 72.953 95.9017 73.0008 95.9017 73.1025C95.9017 73.1323 95.8957 73.1623 95.8897 73.1982C95.8837 73.2341 95.8717 73.2818 95.8478 73.3476L94.407 77.969C94.3712 78.0887 94.3293 78.1664 94.2814 78.2023C94.2337 78.2381 94.156 78.262 94.0543 78.262H93.5401C93.4265 78.262 93.3488 78.2441 93.3009 78.2023C93.2532 78.1604 93.2112 78.0826 93.1873 77.9631L92.2607 74.1069L91.3399 77.9571C91.3101 78.0767 91.2742 78.1544 91.2263 78.1962C91.1786 78.2381 91.0948 78.2561 90.9873 78.2561H90.473ZM85.6722 77.6103C85.8695 77.6103 86.0728 77.5745 86.2881 77.5028C86.5033 77.431 86.6946 77.2995 86.8561 77.12C86.9517 77.0064 87.0235 76.881 87.0594 76.7374C87.0951 76.594 87.1191 76.4205 87.1191 76.2174V75.9662C86.9458 75.9244 86.7604 75.8885 86.5691 75.8646C86.3777 75.8407 86.1924 75.8287 86.0071 75.8287C85.6065 75.8287 85.3135 75.9064 85.1163 76.0679C84.9189 76.2292 84.8233 76.4564 84.8233 76.7554C84.8233 77.0364 84.8951 77.2456 85.0445 77.389C85.1879 77.5387 85.3972 77.6103 85.6722 77.6103ZM68.4493 74.9247V68.9863H74.0341V74.9247H71.7977C71.3674 74.9247 71.0179 75.2741 71.0179 75.7045C71.0179 76.135 71.3674 76.4843 71.7977 76.4843H74.2574C74.995 76.4843 75.5937 75.8856 75.5937 75.148V68.7631C75.5937 68.0256 74.995 67.4267 74.2574 67.4267H68.226C67.4884 67.4267 66.8897 68.0256 66.8897 68.7631V75.148C66.8897 75.8856 67.4884 76.4843 68.226 76.4843H68.975C69.4054 76.4843 69.7549 76.135 69.7549 75.7045C69.7549 75.2741 69.4054 74.9247 68.975 74.9247H68.4493ZM62.8476 68.9863V74.9247H57.2627V68.9863H59.6117C60.0421 68.9863 60.3915 68.6369 60.3915 68.2065C60.3915 67.7762 60.0421 67.4267 59.6117 67.4267H57.0395C56.302 67.4267 55.7031 68.0256 55.7031 68.7631V75.148C55.7031 75.8856 56.302 76.4843 57.0395 76.4843H63.0708C63.8084 76.4843 64.4072 75.8856 64.4072 75.148V68.7631C64.4072 68.0256 63.8084 67.4267 63.0708 67.4267H62.4345C62.004 67.4267 61.6547 67.7762 61.6547 68.2065C61.6547 68.6369 62.004 68.9863 62.4345 68.9863H62.8476ZM79.6358 68.9863H82.1667C82.5971 68.9863 82.9465 68.6369 82.9465 68.2065C82.9465 67.7762 82.5971 67.4267 82.1667 67.4267H79.4126C78.675 67.4267 78.0761 68.0256 78.0761 68.7631V74.2932C78.0761 74.7236 78.4255 75.073 78.8559 75.073C79.2863 75.073 79.6358 74.7236 79.6358 74.2932V68.9863ZM79.6054 50.0187H56.3935C53.4183 50.0187 51.0029 52.434 51.0029 55.4092V66.7951C51.0029 67.2256 51.3524 67.5749 51.7827 67.5749C52.2131 67.5749 52.5626 67.2256 52.5626 66.7951V55.4092C52.5626 53.2949 54.2791 51.5783 56.3935 51.5783H79.6054C80.0358 51.5783 80.3852 51.2288 80.3852 50.7985C80.3852 50.3681 80.0358 50.0187 79.6054 50.0187ZM57.2627 63.6292V56.2226H61.5655C61.996 56.2226 62.3453 55.8732 62.3453 55.4428C62.3453 55.0124 61.996 54.6629 61.5655 54.6629H57.1816C56.3656 54.6629 55.7031 55.3254 55.7031 56.1414V63.7105C55.7031 64.5265 56.3656 65.1888 57.1816 65.1888H76.2253C76.6558 65.1888 77.0051 64.8395 77.0051 64.409C77.0051 63.9787 76.6558 63.6292 76.2253 63.6292H57.2627ZM85.2206 56.2226V63.6292H79.0481C78.6177 63.6292 78.2683 63.9787 78.2683 64.409C78.2683 64.8395 78.6177 65.1888 79.0481 65.1888H85.3018C86.1178 65.1888 86.7803 64.5265 86.7803 63.7105V56.1414C86.7803 55.3254 86.1178 54.6629 85.3018 54.6629H64.3883C63.958 54.6629 63.6085 55.0124 63.6085 55.4428C63.6085 55.8732 63.958 56.2226 64.3883 56.2226H85.2206ZM91.4804 64.0725V55.4092C91.4804 52.434 89.0651 50.0187 86.0899 50.0187H82.4282C81.9977 50.0187 81.6484 50.3681 81.6484 50.7985C81.6484 51.2288 81.9977 51.5783 82.4282 51.5783H86.0899C88.2042 51.5783 89.9208 53.2949 89.9208 55.4092V64.0725C89.9208 64.5029 90.2703 64.8523 90.7006 64.8523C91.131 64.8523 91.4804 64.5029 91.4804 64.0725Z" fill="#656CD0"/>
</g>
<defs>
<linearGradient id="paint0_linear_405_2" x1="0" y1="0" x2="154" y2="154" gradientUnits="userSpaceOnUse">
<stop stop-color="#589DDB"/>
<stop offset="1" stop-color="#723BC5"/>
</linearGradient>
<clipPath id="clip0_405_2">
<rect width="53" height="53" fill="white" transform="translate(51 50)"/>
</clipPath>
</defs>
</svg>
