<svg width="500" height="500" viewBox="0 0 500 500" fill="none" xmlns="http://www.w3.org/2000/svg">
<g clip-path="url(#clip0_18_390)">
<path d="M104.278 499.738H331.038C359.106 499.738 381.892 476.952 381.892 448.884V396.549C381.892 392.49 378.595 389.193 374.535 389.193C370.475 389.193 367.179 392.49 367.179 396.549V448.884C367.179 468.831 350.985 485.025 331.038 485.025H104.278C100.216 485.025 96.9207 488.322 96.9207 492.382C96.9207 496.441 100.216 499.738 104.278 499.738ZM0.0288086 185.074V448.884C0.0288086 476.952 22.8153 499.738 50.883 499.738H77.6473C81.7072 499.738 85.0041 496.441 85.0041 492.382C85.0041 488.322 81.7072 485.025 77.6473 485.025H50.883C30.9364 485.025 14.7423 468.831 14.7423 448.884V185.074C14.7423 181.014 11.4455 177.717 7.38558 177.717C3.32568 177.717 0.0288086 181.014 0.0288086 185.074ZM322.837 448.26H270.15V291.635C270.15 287.576 266.853 284.279 262.793 284.279C258.732 284.279 255.436 287.576 255.436 291.635V450.367C255.436 457.326 261.086 462.974 268.044 462.974H324.943C331.901 462.974 337.551 457.326 337.551 450.367V387.107C337.551 383.047 334.254 379.75 330.194 379.75C326.133 379.75 322.837 383.047 322.837 387.107V448.26ZM217.304 448.26H164.617V392.238H217.304V398.684C217.304 402.743 220.6 406.04 224.66 406.04C228.722 406.04 232.017 402.743 232.017 398.684V390.133C232.017 383.174 226.369 377.525 219.41 377.525H162.511C155.552 377.525 149.904 383.174 149.904 390.133V450.367C149.904 457.326 155.552 462.974 162.511 462.974H219.41C226.369 462.974 232.017 457.326 232.017 450.367V425.314C232.017 421.253 228.722 417.957 224.66 417.957C220.6 417.957 217.304 421.253 217.304 425.314V448.26ZM59.0835 392.238H111.771V448.26H59.0835V443.324C59.0835 439.264 55.7879 435.967 51.7267 435.967C47.6668 435.967 44.37 439.264 44.37 443.324V450.367C44.37 457.326 50.0197 462.974 56.978 462.974H113.876C120.835 462.974 126.485 457.326 126.485 450.367V390.133C126.485 383.174 120.835 377.525 113.876 377.525H56.978C50.0197 377.525 44.37 383.174 44.37 390.133V416.694C44.37 420.755 47.6668 424.051 51.7267 424.051C55.7879 424.051 59.0835 420.755 59.0835 416.694V392.238ZM416.826 354.951C407.425 357.978 397.401 359.612 386.999 359.612C333.287 359.612 289.679 316.005 289.679 262.293C289.679 208.579 333.287 164.973 386.999 164.973C399.613 164.973 411.671 167.376 422.737 171.753C426.512 173.246 430.791 171.393 432.284 167.618C433.777 163.842 431.925 159.564 428.149 158.07C415.406 153.031 401.524 150.259 386.999 150.259C325.166 150.259 274.965 200.46 274.965 262.293C274.965 324.125 325.166 374.326 386.999 374.326C398.974 374.326 410.513 372.441 421.336 368.956C425.201 367.711 427.328 363.562 426.083 359.698C424.839 355.833 420.69 353.706 416.826 354.951ZM444.374 183.698C468.581 201.41 484.319 230.027 484.319 262.293C484.319 296.803 466.314 327.141 439.198 344.424C435.774 346.607 434.766 351.159 436.948 354.582C439.13 358.007 443.682 359.014 447.106 356.832C478.318 336.939 499.033 302.014 499.033 262.293C499.033 225.155 480.926 192.211 453.063 171.824C449.785 169.427 445.179 170.141 442.781 173.417C440.383 176.694 441.097 181.301 444.374 183.698ZM164.617 341.699V285.677H217.304V341.699H213.805C209.744 341.699 206.448 344.996 206.448 349.056C206.448 353.117 209.744 356.413 213.805 356.413H219.41C226.369 356.413 232.017 350.764 232.017 343.806V283.572C232.017 276.613 226.369 270.964 219.41 270.964H162.511C155.552 270.964 149.904 276.613 149.904 283.572V343.806C149.904 350.764 155.552 356.413 162.511 356.413H187.182C191.242 356.413 194.539 353.117 194.539 349.056C194.539 344.996 191.242 341.699 187.182 341.699H164.617ZM59.0835 285.677H111.771V341.699H59.0835V335.285C59.0835 331.225 55.7879 327.928 51.7267 327.928C47.6668 327.928 44.37 331.225 44.37 335.285V343.806C44.37 350.764 50.0197 356.413 56.978 356.413H113.876C120.835 356.413 126.485 350.764 126.485 343.806V283.572C126.485 276.613 120.835 270.964 113.876 270.964H56.978C50.0197 270.964 44.37 276.613 44.37 283.572V308.655C44.37 312.716 47.6668 316.012 51.7267 316.012C55.7879 316.012 59.0835 312.716 59.0835 308.655V285.677ZM455.525 295.5C436.969 309.206 410.009 316.482 386.827 316.482C354.34 316.482 325.068 304.469 302.957 284.501C301.21 282.923 302.789 280.779 304.875 282.02C328.791 295.895 358.288 304.299 388.802 304.299C409.388 304.299 432.005 300.012 452.818 291.214C455.921 289.803 458.57 293.243 455.525 295.5ZM463.253 286.702C460.883 283.656 447.573 285.236 441.538 285.969C439.733 286.194 439.451 284.615 441.086 283.43C451.69 275.986 469.119 278.129 471.149 280.611C473.179 283.148 470.585 300.577 460.658 308.924C459.136 310.221 457.668 309.544 458.345 307.853C460.602 302.268 465.621 289.691 463.253 286.702ZM444.865 268.089C441.932 268.089 439 267.75 436.18 267.074C433.36 266.397 431.159 265.664 429.693 264.816C428.791 264.31 428.171 263.746 427.944 263.238C427.719 262.73 427.607 262.167 427.607 261.659V258.783C427.607 257.598 428.057 257.034 428.904 257.034C429.242 257.034 429.581 257.09 429.919 257.203C430.257 257.316 430.764 257.542 431.328 257.767C433.246 258.613 435.333 259.29 437.533 259.741C439.789 260.193 441.988 260.418 444.245 260.418C447.798 260.418 450.561 259.798 452.479 258.556C454.397 257.316 455.413 255.512 455.413 253.199C455.413 251.62 454.905 250.322 453.889 249.25C452.874 248.178 450.957 247.22 448.193 246.318L440.014 243.78C435.897 242.482 432.852 240.565 430.991 238.026C429.129 235.544 428.171 232.781 428.171 229.848C428.171 227.479 428.679 225.392 429.693 223.587C430.708 221.783 432.063 220.203 433.754 218.962C435.447 217.665 437.363 216.707 439.62 216.03C441.876 215.353 444.245 215.07 446.727 215.07C447.968 215.07 449.264 215.128 450.505 215.297C451.802 215.466 452.987 215.691 454.172 215.917C455.3 216.199 456.371 216.48 457.387 216.819C458.401 217.158 459.192 217.496 459.755 217.835C460.546 218.286 461.11 218.737 461.448 219.245C461.785 219.695 461.955 220.316 461.955 221.105V223.757C461.955 224.941 461.504 225.561 460.658 225.561C460.207 225.561 459.473 225.336 458.514 224.885C455.3 223.418 451.69 222.685 447.685 222.685C444.47 222.685 441.932 223.193 440.184 224.264C438.435 225.336 437.533 226.971 437.533 229.284C437.533 230.863 438.097 232.217 439.225 233.289C440.353 234.361 442.44 235.432 445.43 236.391L453.439 238.928C457.499 240.227 460.432 242.031 462.181 244.344C463.93 246.656 464.775 249.307 464.775 252.24C464.775 254.665 464.267 256.865 463.309 258.783C462.293 260.701 460.94 262.392 459.192 263.746C457.443 265.156 455.356 266.171 452.931 266.905C450.392 267.694 447.742 268.089 444.865 268.089ZM349.998 251.901C349.998 253.988 350.223 255.681 350.617 256.921C351.069 258.161 351.633 259.516 352.422 260.982C352.705 261.434 352.817 261.884 352.817 262.28C352.817 262.844 352.479 263.408 351.745 263.971L348.193 266.34C347.685 266.678 347.177 266.848 346.725 266.848C346.162 266.848 345.598 266.566 345.034 266.059C344.244 265.212 343.568 264.31 343.003 263.408C342.439 262.449 341.875 261.378 341.255 260.079C336.856 265.268 331.328 267.863 324.672 267.863C319.935 267.863 316.156 266.509 313.392 263.802C310.629 261.095 309.219 257.486 309.219 252.974C309.219 248.178 310.91 244.288 314.35 241.354C317.792 238.422 322.36 236.954 328.169 236.954C330.087 236.954 332.061 237.124 334.149 237.406C336.235 237.688 338.378 238.139 340.634 238.647V234.53C340.634 230.244 339.732 227.254 337.983 225.505C336.179 223.757 333.133 222.91 328.791 222.91C326.815 222.91 324.785 223.137 322.698 223.645C320.612 224.151 318.581 224.772 316.607 225.561C315.705 225.957 315.028 226.182 314.633 226.294C314.238 226.408 313.956 226.464 313.731 226.464C312.942 226.464 312.546 225.9 312.546 224.716V221.952C312.546 221.049 312.659 220.372 312.942 219.978C313.223 219.583 313.731 219.189 314.52 218.793C316.494 217.779 318.863 216.932 321.626 216.255C324.391 215.522 327.323 215.184 330.426 215.184C337.137 215.184 342.044 216.707 345.203 219.753C348.305 222.798 349.884 227.423 349.884 233.628V251.901H349.998ZM372.388 266.566C371.374 266.566 370.697 266.397 370.245 266.001C369.794 265.664 369.4 264.874 369.061 263.802L355.806 220.203C355.468 219.076 355.298 218.342 355.298 217.948C355.298 217.046 355.75 216.538 356.652 216.538H362.18C363.251 216.538 363.985 216.707 364.379 217.102C364.831 217.44 365.169 218.229 365.508 219.301L374.983 256.639L383.781 219.301C384.064 218.173 384.402 217.44 384.853 217.102C385.305 216.763 386.094 216.538 387.11 216.538H391.621C392.693 216.538 393.427 216.707 393.878 217.102C394.33 217.44 394.724 218.229 394.949 219.301L403.861 257.09L413.619 219.301C413.957 218.173 414.352 217.44 414.746 217.102C415.198 216.763 415.931 216.538 416.947 216.538H422.192C423.094 216.538 423.602 216.988 423.602 217.948C423.602 218.229 423.546 218.512 423.488 218.85C423.432 219.189 423.319 219.639 423.094 220.26L409.501 263.858C409.163 264.987 408.768 265.72 408.317 266.059C407.866 266.397 407.133 266.622 406.173 266.622H401.323C400.251 266.622 399.518 266.453 399.067 266.059C398.616 265.664 398.22 264.93 397.995 263.802L389.253 227.423L380.567 263.746C380.285 264.874 379.947 265.607 379.495 266.001C379.044 266.397 378.254 266.566 377.24 266.566H372.388ZM327.098 260.474C328.958 260.474 330.876 260.137 332.908 259.46C334.938 258.783 336.742 257.542 338.266 255.849C339.168 254.777 339.845 253.594 340.184 252.24C340.521 250.887 340.748 249.25 340.748 247.333V244.964C339.112 244.569 337.363 244.23 335.559 244.005C333.753 243.78 332.005 243.667 330.257 243.667C326.478 243.667 323.714 244.4 321.853 245.923C319.991 247.445 319.089 249.589 319.089 252.409C319.089 255.06 319.766 257.034 321.176 258.387C322.529 259.798 324.503 260.474 327.098 260.474ZM164.617 235.138V179.116H217.304V235.138H196.206C192.146 235.138 188.849 238.435 188.849 242.495C188.849 246.556 192.146 249.852 196.206 249.852H219.41C226.369 249.852 232.017 244.203 232.017 237.245V177.01C232.017 170.052 226.369 164.402 219.41 164.402H162.511C155.552 164.402 149.904 170.052 149.904 177.01V237.245C149.904 244.203 155.552 249.852 162.511 249.852H169.577C173.637 249.852 176.934 246.556 176.934 242.495C176.934 238.435 173.637 235.138 169.577 235.138H164.617ZM111.771 179.116V235.138H59.0835V179.116H81.2437C85.3036 179.116 88.6004 175.819 88.6004 171.759C88.6004 167.699 85.3036 164.402 81.2437 164.402H56.978C50.0197 164.402 44.37 170.052 44.37 177.01V237.245C44.37 244.203 50.0197 249.852 56.978 249.852H113.876C120.835 249.852 126.485 244.203 126.485 237.245V177.01C126.485 170.052 120.835 164.402 113.876 164.402H107.874C103.813 164.402 100.517 167.699 100.517 171.759C100.517 175.819 103.813 179.116 107.874 179.116H111.771ZM270.15 179.116H294.026C298.087 179.116 301.383 175.819 301.383 171.759C301.383 167.699 298.087 164.402 294.026 164.402H268.044C261.086 164.402 255.436 170.052 255.436 177.01V229.181C255.436 233.241 258.732 236.538 262.793 236.538C266.853 236.538 270.15 233.241 270.15 229.181V179.116ZM269.863 0.175781H50.883C22.8153 0.175781 0.0288086 22.9622 0.0288086 51.03V158.444C0.0288086 162.505 3.32568 165.801 7.38558 165.801C11.4455 165.801 14.7423 162.505 14.7423 158.444V51.03C14.7423 31.0833 30.9364 14.8893 50.883 14.8893H269.863C273.923 14.8893 277.22 11.5924 277.22 7.53255C277.22 3.47266 273.923 0.175781 269.863 0.175781ZM59.0835 128.577V58.7031H99.6759C103.737 58.7031 107.033 55.4076 107.033 51.3464C107.033 47.2865 103.737 43.9896 99.6759 43.9896H58.3179C50.62 43.9896 44.37 50.2396 44.37 57.9375V129.344C44.37 137.042 50.62 143.29 58.3179 143.29H237.975C242.037 143.29 245.332 139.995 245.332 135.934C245.332 131.874 242.037 128.577 237.975 128.577H59.0835ZM322.837 58.7031V128.577H264.606C260.546 128.577 257.249 131.874 257.249 135.934C257.249 139.995 260.546 143.29 264.606 143.29H323.603C331.301 143.29 337.551 137.042 337.551 129.344V57.9375C337.551 50.2396 331.301 43.9896 323.603 43.9896H126.306C122.246 43.9896 118.949 47.2865 118.949 51.3464C118.949 55.4076 122.246 58.7031 126.306 58.7031H322.837ZM381.892 132.759V51.03C381.892 22.9622 359.106 0.175781 331.038 0.175781H296.494C292.432 0.175781 289.137 3.47266 289.137 7.53255C289.137 11.5924 292.432 14.8893 296.494 14.8893H331.038C350.985 14.8893 367.179 31.0833 367.179 51.03V132.759C367.179 136.819 370.475 140.116 374.535 140.116C378.595 140.116 381.892 136.819 381.892 132.759Z" fill="white"/>
</g>
<defs>
<clipPath id="clip0_18_390">
<rect width="500" height="500" fill="white"/>
</clipPath>
</defs>
</svg>
