<svg width="154" height="154" viewBox="0 0 154 154" fill="none" xmlns="http://www.w3.org/2000/svg">
<rect width="154" height="154" fill="url(#paint0_linear_405_4)"/>
<circle cx="77" cy="77" r="43" fill="white"/>
<g clip-path="url(#clip0_405_4)">
<path fill-rule="evenodd" clip-rule="evenodd" d="M74.1906 66L76.5 70L78.8094 66H97C99.7614 66 102 68.2386 102 71V87C102 89.7614 99.7614 92 97 92H60C57.2386 92 55 89.7614 55 87V71C55 68.2386 57.2386 66 60 66H74.1906Z" fill="#BCBBF5"/>
<path d="M70.9668 64.9409H56.0458C52.7166 64.9409 50.0135 67.6437 50.0135 70.9731V90.686C50.0135 94.0154 52.7166 96.7184 56.0458 96.7184H56.7031C57.1336 96.7184 57.483 96.3689 57.483 95.9386C57.483 95.5081 57.1336 95.1587 56.7031 95.1587H56.0458C53.5774 95.1587 51.5732 93.1545 51.5732 90.686V70.9731C51.5732 68.5046 53.5774 66.5005 56.0458 66.5005H70.9668C71.3971 66.5005 71.7466 66.151 71.7466 65.7207C71.7466 65.2902 71.3971 64.9409 70.9668 64.9409ZM59.5299 96.7184H96.9489C100.278 96.7184 102.981 94.0154 102.981 90.686V75.7663C102.981 75.3359 102.632 74.9864 102.201 74.9864C101.771 74.9864 101.421 75.3359 101.421 75.7663V90.686C101.421 93.1545 99.4174 95.1587 96.9489 95.1587H59.5299C59.0996 95.1587 58.7501 95.5081 58.7501 95.9386C58.7501 96.3689 59.0996 96.7184 59.5299 96.7184ZM82.3946 89.3812H83.3214C83.7518 89.3812 84.1012 89.0317 84.1012 88.6014C84.1012 88.1709 83.7518 87.8215 83.3214 87.8215H82.3946C81.9643 87.8215 81.6148 88.1709 81.6148 88.6014C81.6148 89.0317 81.9643 89.3812 82.3946 89.3812ZM86.1442 89.3812H89.8937C90.3241 89.3812 90.6735 89.0317 90.6735 88.6014C90.6735 88.1709 90.3241 87.8215 89.8937 87.8215H86.1442C85.7137 87.8215 85.3644 88.1709 85.3644 88.6014C85.3644 89.0317 85.7137 89.3812 86.1442 89.3812ZM75.3347 84.6496C72.95 86.4108 69.4853 87.3459 66.5061 87.3459C62.3309 87.3459 58.569 85.802 55.7276 83.2361C55.5029 83.0331 55.7059 82.7577 55.9741 82.9171C59.0474 84.7002 62.8383 85.7802 66.7598 85.7802C69.4055 85.7802 72.3121 85.2294 74.9868 84.0986C75.3855 83.9174 75.7261 84.3596 75.3347 84.6496ZM76.3278 83.5187C76.0233 83.1273 74.3127 83.3303 73.5371 83.4245C73.3051 83.4535 73.269 83.2506 73.4792 83.0983C74.8418 82.1416 77.0816 82.4169 77.3425 82.7359C77.6035 83.062 77.27 85.3018 75.9943 86.3747C75.7986 86.5414 75.6102 86.4543 75.6972 86.2369C75.9871 85.5194 76.6323 83.9029 76.3278 83.5187ZM82.3946 84.2H93.3104C93.7409 84.2 94.0902 83.8505 94.0902 83.4202C94.0902 82.9897 93.7409 82.6404 93.3104 82.6404H82.3946C81.9643 82.6404 81.6148 82.9897 81.6148 83.4202C81.6148 83.8505 81.9643 84.2 82.3946 84.2ZM96.1332 84.2H97.3928C97.8231 84.2 98.1726 83.8505 98.1726 83.4202C98.1726 82.9897 97.8231 82.6404 97.3928 82.6404H96.1332C95.7029 82.6404 95.3534 82.9897 95.3534 83.4202C95.3534 83.8505 95.7029 84.2 96.1332 84.2ZM73.9647 81.1267C73.5878 81.1267 73.211 81.0832 72.8485 80.9963C72.4861 80.9093 72.2034 80.8151 72.0149 80.7063C71.899 80.6412 71.8192 80.5686 71.7902 80.5034C71.7612 80.4381 71.7467 80.3657 71.7467 80.3004V79.9306C71.7467 79.7785 71.8047 79.7061 71.9135 79.7061C71.9569 79.7061 72.0004 79.7132 72.0439 79.7279C72.0874 79.7424 72.1526 79.7713 72.2251 79.8003C72.4716 79.909 72.7398 79.996 73.0225 80.054C73.3124 80.112 73.5951 80.141 73.8851 80.141C74.3417 80.141 74.6969 80.0612 74.9433 79.9016C75.1898 79.7424 75.3202 79.5103 75.3202 79.2132C75.3202 79.0102 75.2549 78.8434 75.1245 78.7058C74.9941 78.5681 74.7476 78.4448 74.3924 78.3289L73.3414 78.0026C72.8122 77.836 72.4208 77.5895 72.1816 77.2634C71.9424 76.9444 71.8192 76.5893 71.8192 76.2123C71.8192 75.9079 71.8845 75.6397 72.0149 75.4077C72.1455 75.1758 72.3194 74.9728 72.5368 74.8134C72.7543 74.6466 73.0008 74.5234 73.2906 74.4364C73.5806 74.3495 73.8851 74.3132 74.2039 74.3132C74.3635 74.3132 74.5302 74.3205 74.6896 74.3422C74.8563 74.364 75.0086 74.393 75.1608 74.4219C75.3057 74.4582 75.4435 74.4944 75.5739 74.5379C75.7043 74.5813 75.8059 74.6248 75.8784 74.6684C75.9798 74.7264 76.0523 74.7844 76.0958 74.8495C76.1392 74.9076 76.161 74.9873 76.161 75.0889V75.4295C76.161 75.5817 76.1031 75.6614 75.9943 75.6614C75.9363 75.6614 75.8421 75.6324 75.7188 75.5744C75.3057 75.386 74.8418 75.2917 74.3272 75.2917C73.9141 75.2917 73.5878 75.357 73.3631 75.4946C73.1384 75.6324 73.0225 75.8426 73.0225 76.1399C73.0225 76.3428 73.0949 76.5167 73.24 76.6544C73.3849 76.7922 73.6531 76.9299 74.0372 77.0532L75.0665 77.3793C75.5884 77.546 75.9653 77.7779 76.19 78.0752C76.4147 78.3724 76.5235 78.713 76.5235 79.0899C76.5235 79.4017 76.4582 79.6843 76.335 79.9308C76.2045 80.1773 76.0306 80.3946 75.8059 80.5686C75.5812 80.7498 75.313 80.8803 75.0013 80.9745C74.6751 81.0761 74.3345 81.1267 73.9647 81.1267ZM61.7728 79.0465C61.7728 79.3146 61.8019 79.5322 61.8526 79.6916C61.9105 79.851 61.983 80.025 62.0846 80.2134C62.1207 80.2714 62.1352 80.3294 62.1352 80.3802C62.1352 80.4526 62.0918 80.5251 61.9976 80.5977L61.5409 80.902C61.4756 80.9455 61.4105 80.9673 61.3524 80.9673C61.2799 80.9673 61.2075 80.931 61.135 80.8659C61.0335 80.7571 60.9466 80.6412 60.874 80.5251C60.8015 80.402 60.7291 80.2642 60.6493 80.0975C60.084 80.7643 59.3736 81.0977 58.5183 81.0977C57.9094 81.0977 57.4238 80.9238 57.0686 80.5759C56.7135 80.2279 56.5323 79.764 56.5323 79.1842C56.5323 78.5681 56.7497 78.0679 57.1919 77.691C57.634 77.314 58.2211 77.1256 58.9677 77.1256C59.2142 77.1256 59.4678 77.1473 59.736 77.1836C60.0042 77.2199 60.2797 77.2779 60.5697 77.343V76.814C60.5697 76.263 60.4536 75.8789 60.2289 75.6542C59.997 75.4295 59.6056 75.3207 59.0474 75.3207C58.7937 75.3207 58.5327 75.3497 58.2646 75.415C57.9964 75.4801 57.7354 75.5599 57.4817 75.6614C57.3658 75.7122 57.2788 75.7411 57.228 75.7556C57.1774 75.7701 57.1411 75.7774 57.1121 75.7774C57.0107 75.7774 56.9599 75.7048 56.9599 75.5527V75.1975C56.9599 75.0815 56.9744 74.9946 57.0107 74.9438C57.0468 74.8931 57.1121 74.8423 57.2135 74.7916C57.4672 74.6611 57.7717 74.5524 58.1268 74.4654C58.4821 74.3711 58.859 74.3277 59.2576 74.3277C60.1203 74.3277 60.7509 74.5234 61.1568 74.9148C61.5554 75.3062 61.7583 75.9006 61.7583 76.6979V79.0465H61.7728ZM64.6505 80.931C64.52 80.931 64.433 80.9093 64.375 80.8585C64.3171 80.8151 64.2663 80.7136 64.2228 80.5759L62.5195 74.9728C62.476 74.8279 62.4542 74.7336 62.4542 74.6829C62.4542 74.5669 62.5122 74.5017 62.6281 74.5017H63.3385C63.4762 74.5017 63.5705 74.5234 63.6212 74.5742C63.6791 74.6176 63.7227 74.7191 63.7662 74.8568L64.984 79.6553L66.1146 74.8568C66.1509 74.7119 66.1944 74.6176 66.2524 74.5742C66.3104 74.5307 66.4118 74.5017 66.5424 74.5017H67.1222C67.2599 74.5017 67.3542 74.5234 67.4122 74.5742C67.4702 74.6176 67.5209 74.7191 67.5499 74.8568L68.6951 79.7132L69.9491 74.8568C69.9926 74.7119 70.0434 74.6176 70.0941 74.5742C70.152 74.5307 70.2463 74.5017 70.3767 74.5017H71.0508C71.1669 74.5017 71.232 74.5597 71.232 74.6829C71.232 74.7191 71.2249 74.7554 71.2176 74.7989C71.2104 74.8423 71.1959 74.9003 71.1669 74.9801L69.42 80.5832C69.3765 80.7281 69.3257 80.8224 69.2677 80.8659C69.2098 80.9093 69.1155 80.9383 68.9924 80.9383H68.3689C68.2312 80.9383 68.1371 80.9165 68.079 80.8659C68.021 80.8151 67.9703 80.7208 67.9414 80.5759L66.8177 75.9005L65.7016 80.5686C65.6653 80.7136 65.6218 80.8079 65.5638 80.8585C65.5058 80.9093 65.4044 80.931 65.2738 80.931H64.6505ZM58.83 80.1481C59.0692 80.1481 59.3156 80.1047 59.5766 80.0177C59.8375 79.9308 60.0695 79.7713 60.2652 79.5538C60.3811 79.4161 60.4681 79.2638 60.5116 79.0899C60.5552 78.916 60.5842 78.7058 60.5842 78.4593V78.1548C60.3739 78.1042 60.1492 78.0607 59.9172 78.0316C59.6854 78.0026 59.4607 77.9881 59.2358 77.9881C58.7503 77.9881 58.395 78.0824 58.1558 78.2781C57.9166 78.4738 57.8007 78.7493 57.8007 79.1117C57.8007 79.4524 57.8876 79.7059 58.0689 79.88C58.2429 80.0612 58.4966 80.1481 58.83 80.1481ZM82.3946 79.0189H88.4823C88.9127 79.0189 89.2621 78.6694 89.2621 78.239C89.2621 77.8085 88.9127 77.4592 88.4823 77.4592H82.3946C81.9643 77.4592 81.6148 77.8085 81.6148 78.239C81.6148 78.6694 81.9643 79.0189 82.3946 79.0189ZM91.3051 79.0189H97.3928C97.8231 79.0189 98.1726 78.6694 98.1726 78.239C98.1726 77.8085 97.8231 77.4592 97.3928 77.4592H91.3051C90.8748 77.4592 90.5253 77.8085 90.5253 78.239C90.5253 78.6694 90.8748 79.0189 91.3051 79.0189ZM82.3946 73.8376H84.3043C84.7346 73.8376 85.0841 73.4882 85.0841 73.0577C85.0841 72.6274 84.7346 72.2779 84.3043 72.2779H82.3946C81.9643 72.2779 81.6148 72.6274 81.6148 73.0577C81.6148 73.4882 81.9643 73.8376 82.3946 73.8376ZM87.1686 73.8376H97.3928C97.8231 73.8376 98.1726 73.4882 98.1726 73.0577C98.1726 72.6274 97.8231 72.2779 97.3928 72.2779H87.1686C86.7383 72.2779 86.3888 72.6274 86.3888 73.0577C86.3888 73.4882 86.7383 73.8376 87.1686 73.8376ZM102.981 72.9436V70.9731C102.981 67.6437 100.278 64.9409 96.9489 64.9409H82.0333C81.6029 64.9409 81.2535 65.2902 81.2535 65.7207C81.2535 66.151 81.6029 66.5005 82.0333 66.5005H96.9489C99.4174 66.5005 101.421 68.5046 101.421 70.9731V72.9436C101.421 73.3739 101.771 73.7234 102.201 73.7234C102.632 73.7234 102.981 73.3739 102.981 72.9436ZM71.8468 59.6122V63.6901C71.8447 63.7714 71.8472 63.8411 71.8548 63.8973C71.8723 64.0279 71.9193 64.1329 71.9818 64.2172L75.8488 70.0875C75.9931 70.3066 76.2378 70.4384 76.5 70.4384C76.7623 70.4384 77.007 70.3066 77.1512 70.0875L80.9994 64.2459C81.0961 64.1161 81.1533 63.955 81.1533 63.7807V59.6122C81.1533 58.4148 80.1813 57.4427 78.984 57.4427H77.059C76.6287 57.4427 76.2792 57.7922 76.2792 58.2226C76.2792 58.6531 76.6287 59.0024 77.059 59.0024H78.984C79.3205 59.0024 79.5936 59.2757 79.5936 59.6122V63.5446L76.5 68.2409L73.4064 63.5446V59.6122C73.4064 59.2757 73.6796 59.0024 74.0161 59.0024H74.2363C74.6667 59.0024 75.0162 58.6531 75.0162 58.2226C75.0162 57.7922 74.6667 57.4427 74.2363 57.4427H74.0161C72.8187 57.4427 71.8468 58.4148 71.8468 59.6122ZM71.9785 64.2121L71.9844 64.2207L71.9768 64.2096L71.9785 64.2121ZM78.4659 60.9837C78.4659 60.5568 78.1193 60.2102 77.6924 60.2102H75.3077C74.8808 60.2102 74.5342 60.5568 74.5342 60.9837C74.5342 61.4104 74.8808 61.7571 75.3077 61.7571H77.6924C78.1193 61.7571 78.4659 61.4104 78.4659 60.9837Z" fill="#656CD0"/>
</g>
<defs>
<linearGradient id="paint0_linear_405_4" x1="0" y1="0" x2="154" y2="154" gradientUnits="userSpaceOnUse">
<stop stop-color="#589DDB"/>
<stop offset="1" stop-color="#723BC5"/>
</linearGradient>
<clipPath id="clip0_405_4">
<rect width="53" height="53" fill="white" transform="translate(50 52)"/>
</clipPath>
</defs>
</svg>
