<svg width="500" height="500" viewBox="0 0 500 500" fill="none" xmlns="http://www.w3.org/2000/svg">
<g clip-path="url(#clip0_18_392)">
<path d="M197.8 122.083H57.0355C25.6279 122.083 0.12793 147.582 0.12793 178.991V364.962C0.12793 396.371 25.6279 421.871 57.0355 421.871H63.2373C67.2985 421.871 70.5941 418.574 70.5941 414.514C70.5941 410.453 67.2985 407.158 63.2373 407.158H57.0355C33.749 407.158 14.8415 388.25 14.8415 364.962V178.991C14.8415 155.703 33.749 136.797 57.0355 136.797H197.8C201.86 136.797 205.157 133.5 205.157 129.44C205.157 125.379 201.86 122.083 197.8 122.083ZM89.9053 421.871H442.914C474.322 421.871 499.822 396.371 499.822 364.962V224.21C499.822 220.15 496.525 216.853 492.465 216.853C488.405 216.853 485.108 220.15 485.108 224.21V364.962C485.108 388.25 466.202 407.158 442.914 407.158H89.9053C85.8454 407.158 82.5485 410.453 82.5485 414.514C82.5485 418.574 85.8454 421.871 89.9053 421.871ZM305.61 352.652H314.353C318.413 352.652 321.71 349.355 321.71 345.296C321.71 341.234 318.413 337.939 314.353 337.939H305.61C301.55 337.939 298.253 341.234 298.253 345.296C298.253 349.355 301.55 352.652 305.61 352.652ZM340.983 352.652H376.356C380.416 352.652 383.713 349.355 383.713 345.296C383.713 341.234 380.416 337.939 376.356 337.939H340.983C336.922 337.939 333.627 341.234 333.627 345.296C333.627 349.355 336.922 352.652 340.983 352.652ZM239.007 308.014C216.509 324.63 183.823 333.452 155.718 333.452C116.33 333.452 80.8402 318.887 54.0342 294.68C51.9144 292.764 53.8298 290.167 56.3597 291.671C85.3532 308.492 121.116 318.681 158.111 318.681C183.071 318.681 210.491 313.484 235.724 302.816C239.486 301.107 242.7 305.279 239.007 308.014ZM248.375 297.346C245.503 293.654 229.365 295.569 222.049 296.457C219.86 296.73 219.519 294.816 221.502 293.38C234.357 284.354 255.487 286.952 257.948 289.961C260.411 293.038 257.265 314.168 245.23 324.289C243.383 325.862 241.606 325.04 242.426 322.99C245.162 316.22 251.248 300.97 248.375 297.346ZM305.61 303.773H408.589C412.65 303.773 415.946 300.476 415.946 296.417C415.946 292.355 412.65 289.06 408.589 289.06H305.61C301.55 289.06 298.253 292.355 298.253 296.417C298.253 300.476 301.55 303.773 305.61 303.773ZM435.219 303.773H447.102C451.162 303.773 454.459 300.476 454.459 296.417C454.459 292.355 451.162 289.06 447.102 289.06H435.219C431.159 289.06 427.862 292.355 427.862 296.417C427.862 300.476 431.159 303.773 435.219 303.773ZM226.082 274.78C222.526 274.78 218.972 274.37 215.552 273.549C212.133 272.729 209.466 271.84 207.688 270.814C206.594 270.199 205.841 269.514 205.568 268.9C205.295 268.284 205.158 267.6 205.158 266.984V263.496C205.158 262.061 205.705 261.378 206.731 261.378C207.141 261.378 207.551 261.445 207.961 261.583C208.371 261.72 208.987 261.993 209.671 262.267C211.996 263.292 214.526 264.113 217.193 264.66C219.929 265.207 222.595 265.48 225.331 265.48C229.638 265.48 232.99 264.728 235.314 263.223C237.64 261.72 238.87 259.531 238.87 256.728C238.87 254.812 238.254 253.24 237.024 251.941C235.793 250.642 233.468 249.479 230.118 248.385L220.202 245.307C215.21 243.736 211.517 241.41 209.261 238.333C207.004 235.324 205.841 231.974 205.841 228.418C205.841 225.546 206.457 223.016 207.688 220.827C208.92 218.639 210.56 216.724 212.611 215.22C214.663 213.647 216.989 212.484 219.723 211.664C222.459 210.844 225.331 210.501 228.339 210.501C229.844 210.501 231.417 210.57 232.921 210.775C234.494 210.98 235.93 211.254 237.366 211.527C238.733 211.87 240.033 212.211 241.263 212.621C242.494 213.031 243.452 213.441 244.136 213.853C245.093 214.4 245.776 214.947 246.187 215.561C246.597 216.109 246.802 216.861 246.802 217.819V221.033C246.802 222.469 246.256 223.22 245.23 223.22C244.683 223.22 243.793 222.947 242.631 222.4C238.733 220.622 234.357 219.733 229.502 219.733C225.605 219.733 222.526 220.349 220.407 221.647C218.287 222.947 217.193 224.93 217.193 227.734C217.193 229.648 217.877 231.289 219.245 232.588C220.612 233.888 223.142 235.187 226.766 236.35L236.477 239.427C241.4 241 244.956 243.187 247.076 245.992C249.196 248.796 250.222 252.009 250.222 255.565C250.222 258.506 249.606 261.172 248.443 263.497C247.213 265.823 245.572 267.874 243.452 269.514C241.332 271.224 238.802 272.456 235.861 273.344C232.784 274.302 229.571 274.78 226.082 274.78ZM111.064 255.155C111.064 257.685 111.339 259.737 111.817 261.241C112.364 262.745 113.047 264.387 114.006 266.164C114.347 266.711 114.483 267.258 114.483 267.737C114.483 268.421 114.073 269.104 113.185 269.789L108.877 272.66C108.261 273.07 107.646 273.276 107.098 273.276C106.414 273.276 105.731 272.934 105.047 272.319C104.09 271.293 103.27 270.199 102.585 269.104C101.901 267.943 101.218 266.643 100.465 265.07C95.1318 271.361 88.43 274.506 80.361 274.506C74.6175 274.506 70.0355 272.866 66.6852 269.583C63.335 266.301 61.6253 261.924 61.6253 256.454C61.6253 250.642 63.6761 245.923 67.848 242.367C72.0186 238.811 77.5576 237.034 84.6006 237.034C86.9261 237.034 89.3194 237.238 91.8493 237.581C94.3792 237.923 96.9782 238.47 99.7139 239.085V234.094C99.7139 228.896 98.6188 225.272 96.499 223.152C94.3115 221.032 90.6188 220.006 85.3532 220.006C82.96 220.006 80.4977 220.28 77.9678 220.896C75.4378 221.51 72.9756 222.263 70.5824 223.22C69.4886 223.699 68.6683 223.973 68.1891 224.109C67.7113 224.246 67.3688 224.315 67.0954 224.315C66.1384 224.315 65.6592 223.63 65.6592 222.195V218.844C65.6592 217.75 65.7959 216.93 66.1384 216.45C66.4795 215.973 67.0954 215.493 68.0524 215.014C70.4456 213.784 73.318 212.758 76.6683 211.937C80.0199 211.048 83.5759 210.638 87.3363 210.638C95.4743 210.638 101.424 212.484 105.253 216.177C109.013 219.87 110.927 225.477 110.927 232.999V255.155H111.064ZM138.213 272.934C136.981 272.934 136.161 272.729 135.614 272.25C135.067 271.84 134.588 270.883 134.177 269.583L118.108 216.724C117.698 215.357 117.493 214.467 117.493 213.99C117.493 212.894 118.039 212.28 119.133 212.28H125.835C127.134 212.28 128.024 212.484 128.502 212.963C129.049 213.374 129.46 214.331 129.87 215.63L141.358 260.898L152.025 215.63C152.368 214.263 152.778 213.374 153.325 212.963C153.871 212.553 154.828 212.28 156.06 212.28H161.53C162.83 212.28 163.719 212.484 164.266 212.963C164.813 213.374 165.292 214.331 165.565 215.63L176.369 261.445L188.2 215.63C188.61 214.263 189.089 213.374 189.567 212.963C190.114 212.553 191.003 212.28 192.233 212.28H198.593C199.688 212.28 200.302 212.827 200.302 213.99C200.302 214.331 200.235 214.673 200.166 215.083C200.098 215.493 199.961 216.04 199.688 216.793L183.207 269.652C182.797 271.019 182.318 271.909 181.771 272.319C181.224 272.729 180.335 273.003 179.174 273.003H173.292C171.993 273.003 171.105 272.797 170.556 272.319C170.009 271.84 169.532 270.95 169.258 269.583L158.658 225.477L148.128 269.514C147.786 270.883 147.375 271.772 146.828 272.25C146.282 272.729 145.325 272.934 144.093 272.934H138.213ZM83.3024 265.548C85.5589 265.548 87.8832 265.138 90.3454 264.318C92.8063 263.497 94.9951 261.993 96.8415 259.941C97.9352 258.642 98.7555 257.206 99.1657 255.565C99.5772 253.924 99.8506 251.941 99.8506 249.616V246.743C97.8675 246.266 95.7477 245.855 93.5589 245.581C91.3714 245.307 89.2516 245.171 87.1305 245.171C82.5498 245.171 79.1982 246.06 76.9417 247.906C74.6852 249.753 73.5915 252.352 73.5915 255.771C73.5915 258.984 74.4118 261.376 76.1214 263.018C77.7634 264.728 80.1566 265.548 83.3024 265.548ZM305.61 254.895H363.041C367.101 254.895 370.398 251.598 370.398 247.538C370.398 243.477 367.101 240.181 363.041 240.181H305.61C301.55 240.181 298.253 243.477 298.253 247.538C298.253 251.598 301.55 254.895 305.61 254.895ZM389.671 254.895H447.102C451.162 254.895 454.459 251.598 454.459 247.538C454.459 243.477 451.162 240.181 447.102 240.181H389.671C385.611 240.181 382.314 243.477 382.314 247.538C382.314 251.598 385.611 254.895 389.671 254.895ZM305.61 206.014H323.625C327.685 206.014 330.982 202.719 330.982 198.658C330.982 194.598 327.685 191.301 323.625 191.301H305.61C301.55 191.301 298.253 194.598 298.253 198.658C298.253 202.719 301.55 206.014 305.61 206.014ZM350.648 206.014H447.102C451.162 206.014 454.459 202.719 454.459 198.658C454.459 194.598 451.162 191.301 447.102 191.301H350.648C346.588 191.301 343.291 194.598 343.291 198.658C343.291 202.719 346.588 206.014 350.648 206.014ZM499.822 197.581V178.991C499.822 147.582 474.322 122.083 442.914 122.083H302.201C298.141 122.083 294.844 125.379 294.844 129.44C294.844 133.5 298.141 136.797 302.201 136.797H442.914C466.202 136.797 485.108 155.703 485.108 178.991V197.581C485.108 201.641 488.405 204.937 492.465 204.937C496.525 204.937 499.822 201.641 499.822 197.581ZM206.102 71.8125V110.284C206.082 111.051 206.106 111.708 206.177 112.238C206.343 113.47 206.786 114.461 207.375 115.256L243.857 170.637C245.218 172.703 247.526 173.947 250 173.947C252.474 173.947 254.783 172.703 256.144 170.637L292.447 115.527C293.36 114.302 293.899 112.783 293.899 111.138V71.8125C293.899 60.5169 284.73 51.3463 273.434 51.3463H255.274C251.214 51.3463 247.917 54.6432 247.917 58.7031C247.917 62.7643 251.214 66.0599 255.274 66.0599H273.434C276.608 66.0599 279.185 68.638 279.185 71.8125V108.911L250 153.216L220.815 108.911V71.8125C220.815 68.638 223.392 66.0599 226.567 66.0599H228.645C232.705 66.0599 236.002 62.7643 236.002 58.7031C236.002 54.6432 232.705 51.3463 228.645 51.3463H226.567C215.271 51.3463 206.102 60.5169 206.102 71.8125ZM207.344 115.208L207.4 115.289L207.328 115.185L207.344 115.208ZM268.546 84.7513C268.546 80.7239 265.276 77.4544 261.249 77.4544H238.752C234.724 77.4544 231.455 80.7239 231.455 84.7513C231.455 88.7773 234.724 92.0481 238.752 92.0481H261.249C265.276 92.0481 268.546 88.7773 268.546 84.7513Z" fill="white"/>
</g>
<defs>
<clipPath id="clip0_18_392">
<rect width="500" height="500" fill="white"/>
</clipPath>
</defs>
</svg>
