<svg width="154" height="154" viewBox="0 0 154 154" fill="none" xmlns="http://www.w3.org/2000/svg">
<rect width="154" height="154" fill="url(#paint0_linear_69_683)"/>
<circle cx="77" cy="77" r="43" fill="white"/>
<circle cx="78.5" cy="83.5" r="6.5" fill="#BCBBF5"/>
<path d="M78.4403 81.0989C78.4403 81.3045 78.522 81.5017 78.6674 81.6471C78.8128 81.7925 79.01 81.8742 79.2157 81.8742C79.4213 81.8742 79.6185 81.7925 79.7639 81.6471C79.9093 81.5017 79.991 81.3045 79.991 81.0989C80.0032 80.7855 79.9507 80.4731 79.8368 80.1809C79.7228 79.8888 79.5499 79.6232 79.3288 79.4009C79.1077 79.1785 78.8432 79.0041 78.5517 78.8885C78.2602 78.773 77.948 78.7187 77.6346 78.7291V78.3011C77.6346 78.0954 77.5529 77.8982 77.4075 77.7528C77.2621 77.6074 77.0649 77.5257 76.8592 77.5257C76.6536 77.5257 76.4564 77.6074 76.311 77.7528C76.1656 77.8982 76.0839 78.0954 76.0839 78.3011V78.7291C75.7704 78.7185 75.4581 78.7726 75.1665 78.8881C74.8749 79.0036 74.6103 79.178 74.3892 79.4004C74.168 79.6228 73.9951 79.8884 73.8812 80.1807C73.7674 80.4729 73.715 80.7855 73.7274 81.0989V82.1593C73.715 82.4727 73.7674 82.7853 73.8812 83.0776C73.9951 83.3698 74.168 83.6354 74.3892 83.8578C74.6103 84.0802 74.8749 84.2546 75.1665 84.3701C75.4581 84.4856 75.7704 84.5398 76.0839 84.5291V87.2144C75.9747 87.2246 75.8647 87.2105 75.7617 87.1731C75.6586 87.1356 75.5652 87.0758 75.4881 86.9978C75.4111 86.9199 75.3522 86.8258 75.3159 86.7224C75.2796 86.619 75.2667 86.5088 75.2781 86.3998C75.2781 86.1941 75.1965 85.9969 75.051 85.8515C74.9056 85.7061 74.7084 85.6244 74.5028 85.6244C74.2971 85.6244 74.0999 85.7061 73.9545 85.8515C73.8091 85.9969 73.7274 86.1941 73.7274 86.3998C73.7155 86.713 73.7681 87.0254 73.8821 87.3175C73.9962 87.6095 74.1691 87.875 74.3901 88.0973C74.6112 88.3196 74.8757 88.494 75.167 88.6096C75.4584 88.7253 75.7705 88.7797 76.0839 88.7695V89.1991C76.0839 89.4047 76.1656 89.6019 76.311 89.7473C76.4564 89.8927 76.6536 89.9744 76.8592 89.9744C77.0649 89.9744 77.2621 89.8927 77.4075 89.7473C77.5529 89.6019 77.6346 89.4047 77.6346 89.1991V88.771C77.9478 88.7806 78.2596 88.7257 78.5506 88.6098C78.8417 88.4939 79.1059 88.3195 79.3269 88.0973C79.5478 87.8751 79.7207 87.6099 79.835 87.3182C79.9492 87.0265 80.0023 86.7144 79.991 86.4012V85.3408C80.0034 85.0274 79.9511 84.7148 79.8372 84.4226C79.7234 84.1303 79.5504 83.8647 79.3293 83.6423C79.1082 83.4199 78.8435 83.2455 78.5519 83.13C78.2603 83.0145 77.948 82.9604 77.6346 82.971V80.2828C77.7437 80.2725 77.8538 80.2866 77.9568 80.3241C78.0598 80.3615 78.1532 80.4214 78.2303 80.4993C78.3074 80.5773 78.3662 80.6713 78.4025 80.7748C78.4389 80.8782 78.4518 80.9884 78.4403 81.0974V81.0989ZM76.0853 82.9784C75.9762 82.9886 75.8662 82.9745 75.7631 82.9371C75.6601 82.8996 75.5667 82.8398 75.4896 82.7619C75.4125 82.6839 75.3537 82.5899 75.3174 82.4864C75.2811 82.383 75.2682 82.2728 75.2796 82.1638V81.1033C75.2682 80.9943 75.2811 80.8841 75.3174 80.7807C75.3537 80.6773 75.4125 80.5832 75.4896 80.5052C75.5667 80.4273 75.6601 80.3675 75.7631 80.33C75.8662 80.2926 75.9762 80.2785 76.0853 80.2887V82.9784ZM78.4418 85.3482V86.4087C78.4418 86.9182 78.0686 87.3047 77.6361 87.2233V84.5247C77.7451 84.5147 77.855 84.529 77.9578 84.5665C78.0606 84.6041 78.1539 84.6639 78.2308 84.7418C78.3077 84.8198 78.3664 84.9137 78.4026 85.017C78.4388 85.1204 78.4517 85.2304 78.4403 85.3393L78.4418 85.3482ZM80.4265 58.6467C80.4265 57.9413 80.2173 57.2518 79.8254 56.6653C79.4335 56.0788 78.8765 55.6216 78.2248 55.3517C77.5731 55.0817 76.856 55.0111 76.1642 55.1487C75.4723 55.2863 74.8368 55.626 74.3381 56.1248C73.8393 56.6236 73.4996 57.2591 73.362 57.9509C73.2244 58.6428 73.295 59.3599 73.5649 60.0116C73.8349 60.6633 74.292 61.2203 74.8785 61.6122C75.465 62.0041 76.1546 62.2132 76.86 62.2132C77.8055 62.212 78.712 61.8359 79.3806 61.1673C80.0492 60.4987 80.4253 59.5922 80.4265 58.6467V58.6467ZM74.8442 58.6467C74.8442 58.248 74.9624 57.8583 75.1839 57.5268C75.4054 57.1953 75.7202 56.9369 76.0886 56.7844C76.4569 56.6318 76.8622 56.5919 77.2532 56.6697C77.6443 56.7474 78.0034 56.9394 78.2854 57.2213C78.5673 57.5032 78.7593 57.8624 78.837 58.2534C78.9148 58.6445 78.8749 59.0498 78.7223 59.4181C78.5697 59.7865 78.3114 60.1013 77.9799 60.3228C77.6484 60.5443 77.2587 60.6625 76.86 60.6625C76.3255 60.6621 75.813 60.4496 75.435 60.0717C75.0571 59.6937 74.8446 59.1812 74.8442 58.6467V58.6467ZM76.86 74.8664C75.1024 74.8664 73.3842 75.3876 71.9228 76.364C70.4614 77.3405 69.3224 78.7284 68.6498 80.3522C67.9771 81.9761 67.8012 83.7629 68.1441 85.4867C68.487 87.2106 69.3333 88.794 70.5761 90.0368C71.819 91.2797 73.4024 92.126 75.1263 92.4689C76.8501 92.8118 78.6369 92.6358 80.2607 91.9632C81.8846 91.2906 83.2725 90.1516 84.249 88.6902C85.2254 87.2288 85.7466 85.5106 85.7466 83.753C85.7466 81.3961 84.8104 79.1358 83.1438 77.4692C81.4772 75.8026 79.2169 74.8664 76.86 74.8664V74.8664ZM76.86 91.0816C75.4096 91.0816 73.9919 90.6515 72.786 89.8457C71.5801 89.04 70.6402 87.8947 70.0852 86.5548C69.5302 85.2149 69.3849 83.7404 69.6679 82.318C69.9508 80.8955 70.6492 79.5889 71.6748 78.5634C72.7003 77.5378 74.0069 76.8394 75.4294 76.5565C76.8518 76.2736 78.3263 76.4188 79.6662 76.9738C81.0061 77.5288 82.1514 78.4687 82.9571 79.6746C83.7629 80.8805 84.193 82.2983 84.193 83.7486C84.191 85.6928 83.4178 87.5568 82.043 88.9316C80.6682 90.3064 78.8042 91.0796 76.86 91.0816V91.0816ZM99.8453 70.3993C100.281 70.4408 100.72 70.3919 101.136 70.2557C101.551 70.1194 101.934 69.8988 102.261 69.6076C102.587 69.3165 102.85 68.961 103.032 68.5635C103.215 68.1661 103.313 67.7352 103.321 67.2979V64.9725C103.321 64.8326 103.283 64.6954 103.212 64.5753C103.14 64.4551 103.037 64.3565 102.914 64.2897L78.7395 50.8872C78.1651 50.566 77.518 50.3973 76.86 50.3973C76.2019 50.3973 75.5548 50.566 74.9804 50.8872L65.2273 56.2947C65.0474 56.3943 64.9144 56.5613 64.8576 56.7589C64.8008 56.9565 64.8249 57.1686 64.9244 57.3485C65.024 57.5284 65.191 57.6614 65.3886 57.7182C65.5862 57.775 65.7983 57.751 65.9782 57.6514L75.7254 52.2439C76.0702 52.0514 76.4585 51.9503 76.8533 51.9503C77.2481 51.9503 77.6364 52.0514 77.9812 52.2439L99.5432 64.1964H54.1708L62.779 59.4287C62.8681 59.3793 62.9466 59.3129 63.01 59.2331C63.0734 59.1534 63.1205 59.062 63.1485 58.964C63.1766 58.8661 63.1851 58.7636 63.1735 58.6624C63.162 58.5612 63.1306 58.4633 63.0812 58.3742C63.0318 58.2851 62.9653 58.2066 62.8856 58.1432C62.8059 58.0798 62.7144 58.0328 62.6165 58.0047C62.5186 57.9767 62.4161 57.9682 62.3149 57.9797C62.2137 57.9913 62.1157 58.0226 62.0266 58.072L50.8057 64.2897C50.6833 64.3571 50.581 64.4559 50.5095 64.5759C50.4379 64.6959 50.3995 64.8328 50.3984 64.9725V67.2979C50.4024 67.7365 50.4981 68.1695 50.6792 68.569C50.8604 68.9685 51.123 69.3257 51.4503 69.6177C51.7776 69.9097 52.1624 70.1301 52.5799 70.2647C52.9973 70.3993 53.4384 70.4452 53.8746 70.3993L56.5998 74.2398V93.2618L53.8746 97.0993H52.2069C51.7275 97.1001 51.268 97.2909 50.929 97.6299C50.59 97.9688 50.3992 98.4284 50.3984 98.9077V101.492C50.3992 101.972 50.59 102.431 50.929 102.77C51.268 103.109 51.7275 103.3 52.2069 103.301H101.513C101.992 103.3 102.452 103.109 102.791 102.77C103.13 102.431 103.321 101.972 103.321 101.492V98.9077C103.321 98.4284 103.13 97.9688 102.791 97.6299C102.452 97.2909 101.992 97.1001 101.513 97.0993H99.8453L97.1201 93.2618V74.2398L99.8453 70.3993ZM53.4999 68.8486C53.0887 68.8482 52.6945 68.6847 52.4038 68.394C52.1131 68.1032 51.9496 67.709 51.9492 67.2979V65.7472H101.771V67.2979C101.77 67.709 101.607 68.1032 101.316 68.394C101.025 68.6847 100.631 68.8482 100.22 68.8486H53.4999ZM90.1159 84.4151C90.3214 84.4151 90.5184 84.3335 90.6637 84.1882C90.8089 84.0429 90.8905 83.8459 90.8905 83.6405V74.7642H95.5723V92.7345H90.892V87.2544C90.892 87.0487 90.8103 86.8515 90.6649 86.7061C90.5195 86.5607 90.3223 86.479 90.1167 86.479C89.911 86.479 89.7138 86.5607 89.5684 86.7061C89.423 86.8515 89.3413 87.0487 89.3413 87.2544V93.2588L86.616 97.0964H67.1054L64.3801 93.2588V74.2398L67.1054 70.4023H86.616L89.3413 74.2398V83.6434C89.3421 83.8483 89.424 84.0446 89.5692 84.1892C89.7144 84.3339 89.911 84.4151 90.1159 84.4151V84.4151ZM55.7764 70.3993H65.2095L63.21 73.2134H57.7759L55.7764 70.3993ZM62.8279 74.7642V92.7345H58.1506V74.7642H62.8279ZM57.7759 94.2852H63.2026L65.2021 97.0993H55.7764L57.7759 94.2852ZM101.513 98.65C101.581 98.6504 101.647 98.6777 101.695 98.7259C101.743 98.7742 101.77 98.8395 101.771 98.9077V101.492C101.77 101.561 101.743 101.626 101.695 101.674C101.647 101.722 101.581 101.75 101.513 101.75H52.2069C52.1386 101.75 52.0733 101.722 52.0251 101.674C51.9768 101.626 51.9495 101.561 51.9492 101.492V98.9077C51.9495 98.8395 51.9768 98.7742 52.0251 98.7259C52.0733 98.6777 52.1386 98.6504 52.2069 98.65H101.513ZM97.9421 97.0993H88.5178L90.5173 94.2852H95.9441L97.9421 97.0993ZM95.9426 73.2134H90.5173L88.5178 70.3993H97.9421L95.9426 73.2134Z" fill="#656CD0"/>
<defs>
<linearGradient id="paint0_linear_69_683" x1="0" y1="0" x2="154" y2="154" gradientUnits="userSpaceOnUse">
<stop stop-color="#589DDB"/>
<stop offset="1" stop-color="#723BC5"/>
</linearGradient>
</defs>
</svg>
