<svg id="BGaransi-Dq" xmlns="http://www.w3.org/2000/svg" width="500" height="500" viewBox="0 0 500 500">
  <g id="BGaransi-Dq-2" data-name="BGaransi-Dq" transform="translate(3 2.897)">
    <path id="Path_40" data-name="Path 40" d="M261.752,286.66a7.236,7.236,0,1,0,14.472,0c0-13.014-10.122-22.739-21.99-22.08v-4a7.236,7.236,0,1,0-14.472,0v4c-11.935-.8-22.012,9.27-21.99,22.08v9.9c-.06,12.649,10.055,23,21.99,22.08v25.111c-4.109.5-7.518-2.585-7.518-7.608a7.236,7.236,0,1,0-14.472,0c0,12.648,10.055,23,21.99,22.08v4a7.236,7.236,0,1,0,14.472,0v-4c11.821.658,22.022-9.162,21.99-22.08v-9.9c.029-13.017-10.123-22.736-21.99-22.08v-25.11c3.986-.684,7.518,2.725,7.518,7.608Zm-21.99,17.5c-4.108.5-7.512-2.586-7.518-7.608v-9.9c-.01-4.777,3.544-8.349,7.518-7.608Zm21.99,22.079v9.9c-.061,4.751-3.488,8.37-7.518,7.608V318.637C258.219,317.95,261.759,321.361,261.752,326.243ZM280.284,77.088A33.287,33.287,0,1,0,247,110.374,33.325,33.325,0,0,0,280.284,77.088Zm-52.1,0A18.814,18.814,0,1,1,247,95.9,18.836,18.836,0,0,1,228.183,77.088ZM247,228.485A82.916,82.916,0,1,0,329.913,311.4,83.01,83.01,0,0,0,247,228.485Zm0,151.359A68.443,68.443,0,1,1,315.44,311.4,68.521,68.521,0,0,1,247,379.844ZM461.548,186.791c16.748,1.048,32.588-11.131,32.445-28.945V136.137a7.269,7.269,0,0,0-3.8-6.37L264.54,4.67a35.972,35.972,0,0,0-35.085,0L138.413,55.143A7.236,7.236,0,1,0,145.431,67.8l91.041-50.472a21.588,21.588,0,0,1,21.052,0L458.781,128.9H35.214l80.347-44.543A7.236,7.236,0,1,0,108.544,71.7L3.8,129.766A7.339,7.339,0,0,0,0,136.137v21.709c-.154,17.039,15.248,30.805,32.445,28.945l25.444,35.815V400.195L32.446,436.009H16.885A16.9,16.9,0,0,0,0,452.894v24.121A16.9,16.9,0,0,0,16.885,493.9H477.109a16.9,16.9,0,0,0,16.885-16.884V452.894a16.9,16.9,0,0,0-16.885-16.885H461.548L436.1,400.195V222.606Zm-432.6-14.472a14.489,14.489,0,0,1-14.472-14.472V143.373H479.521v14.472a14.489,14.489,0,0,1-14.472,14.472Zm341.79,145.3a7.236,7.236,0,0,0,7.236-7.236V227.534h43.66V395.267h-43.66V344.147a7.236,7.236,0,0,0-14.472,0v56.048l-25.445,35.814H155.941L130.5,400.195V222.606l25.444-35.815H338.056L363.5,222.606v87.772A7.235,7.235,0,0,0,370.736,317.614ZM50.2,186.791h87.988l-18.663,26.27H68.863Zm65.824,40.743V395.267H72.363V227.534ZM68.863,409.74h50.661l18.663,26.269H50.2Zm408.246,40.742a2.415,2.415,0,0,1,2.412,2.412v24.121a2.415,2.415,0,0,1-2.412,2.412H16.885a2.415,2.415,0,0,1-2.412-2.412V452.894a2.415,2.415,0,0,1,2.412-2.412ZM443.8,436.009H355.809l18.664-26.269h50.66ZM425.132,213.061h-50.66l-18.664-26.27h87.987Z" transform="translate(0)" fill="#fff"/>
  </g>
  <g id="Software-Dq">
    <rect id="Rectangle_2" data-name="Rectangle 2" width="500" height="500" fill="#c8c8c8" opacity="0"/>
  </g>
</svg>
