<svg width="154" height="154" viewBox="0 0 154 154" fill="none" xmlns="http://www.w3.org/2000/svg">
<rect width="154" height="154" fill="url(#paint0_linear_69_680)"/>
<circle cx="77" cy="77" r="43" fill="white"/>
<path d="M78 59L62 61L63 77L84.5 98L100.5 81.5L78 59Z" fill="#BCBBF5"/>
<circle cx="68" cy="68" r="3" fill="#FFFBFB"/>
<path d="M81.3935 101.767C81.1908 101.767 80.9964 101.687 80.8529 101.544L57.7386 78.5699C57.6533 78.485 57.5894 78.3813 57.552 78.2672C57.5147 78.1531 57.5051 78.0318 57.5239 77.9133L60.1899 61.1307C60.2151 60.9718 60.2904 60.825 60.4048 60.7113C60.5192 60.5975 60.6669 60.5228 60.8268 60.4977L77.7114 57.8478C77.8307 57.8291 77.9527 57.8387 78.0675 57.8758C78.1823 57.9129 78.2866 57.9764 78.372 58.0613L101.492 81.0254C101.635 81.1681 101.716 81.3613 101.716 81.5627C101.716 81.7642 101.635 81.9574 101.492 82.1001L81.9341 101.544C81.7906 101.687 81.5962 101.767 81.3935 101.767V101.767ZM59.0953 77.7705L81.3935 99.9308L99.8688 81.5657L77.5722 59.4039L61.6162 61.9065L59.0953 77.7705Z" fill="#656CD0"/>
<path d="M68.059 72.2028C67.1555 72.2022 66.2801 71.8903 65.582 71.3202C64.8839 70.75 64.4063 69.9569 64.2305 69.076C64.0547 68.1951 64.1917 67.2809 64.618 66.4891C65.0443 65.6973 65.7336 65.0769 66.5685 64.7335C67.4034 64.3902 68.3322 64.3452 69.1967 64.6062C70.0612 64.8672 70.808 65.4181 71.3097 66.165C71.8115 66.9118 72.0372 67.8085 71.9484 68.7022C71.8596 69.5959 71.4618 70.4314 70.8228 71.0663C70.4598 71.4269 70.0289 71.7129 69.5547 71.9079C69.0805 72.1029 68.5722 72.2031 68.059 72.2028V72.2028ZM68.059 65.9565C67.5088 65.9567 66.9757 66.1466 66.5505 66.4936C66.1253 66.8407 65.8343 67.3236 65.7271 67.86C65.6199 68.3964 65.7031 68.9532 65.9625 69.4355C66.2219 69.9177 66.6415 70.2957 67.1498 70.505C67.6582 70.7143 68.2238 70.742 68.7503 70.5833C69.2769 70.4246 69.7318 70.0895 70.0376 69.6348C70.3434 69.1802 70.4812 68.6342 70.4275 68.09C70.3738 67.5457 70.1319 67.0368 69.7431 66.6498C69.522 66.4299 69.2595 66.2554 68.9705 66.1364C68.6816 66.0175 68.3718 65.9563 68.059 65.9565V65.9565Z" fill="#656CD0"/>
<path d="M52.9399 78.5021L51.9698 76.4411C51.9187 76.3323 51.8942 76.2131 51.8983 76.0931C51.9024 75.9731 51.935 75.8557 51.9935 75.7507L60.2788 60.8819L61.6118 61.618L53.5146 76.1482L54.3203 77.8632L52.9399 78.5021Z" fill="#656CD0"/>
<path d="M66.4787 106.32C66.3328 106.32 66.1901 106.278 66.0673 106.2C65.9445 106.121 65.8468 106.01 65.7855 105.878L54.3247 81.4406L55.7125 80.7972L66.849 104.539L79.4518 98.6972L80.099 100.074L66.8031 106.235C66.7019 106.284 66.5912 106.31 66.4787 106.311V106.32Z" fill="#656CD0"/>
<path d="M66.19 69.7384C65.718 69.7342 65.248 69.6769 64.7889 69.5676L65.131 68.0852C65.5262 68.2191 65.9471 68.2608 66.3611 68.2072C66.7751 68.1536 67.1711 68.0061 67.5186 67.776C68.111 67.1871 68.111 65.9432 67.5112 64.3753C66.6266 62.2959 65.3248 60.4174 63.6855 58.8547C59.9116 55.1037 55.9259 53.8362 54.7099 55.0448C53.4939 56.2534 54.7707 60.2165 58.5445 63.9646C58.7993 64.2149 59.0545 64.4563 59.3103 64.6889L58.2838 65.8166C58.0084 65.5683 57.7349 65.3097 57.4633 65.0407C53.1933 60.798 51.5448 56.0326 53.6272 53.9716C55.7097 51.9106 60.4981 53.5403 64.7667 57.783C66.5583 59.4966 67.9786 61.5561 68.9404 63.835C69.7817 66.0197 69.6588 67.8025 68.6013 68.8551C68.2808 69.1569 67.9019 69.3909 67.4876 69.5427C67.0734 69.6945 66.6324 69.7611 66.1915 69.7384H66.19Z" fill="#656CD0"/>
<defs>
<linearGradient id="paint0_linear_69_680" x1="0" y1="0" x2="154" y2="154" gradientUnits="userSpaceOnUse">
<stop stop-color="#589DDB"/>
<stop offset="1" stop-color="#723BC5"/>
</linearGradient>
</defs>
</svg>
