<svg id="Group_8" data-name="Group 8" xmlns="http://www.w3.org/2000/svg" width="500" height="500" viewBox="0 0 500 500">
  <rect id="Rectangle_2" data-name="Rectangle 2" width="500" height="500" fill="#c8c8c8" opacity="0"/>
  <g id="price-tags" transform="translate(12.554 -1.992)">
    <path id="Path_12" data-name="Path 12" d="M234.677,420.836a7.141,7.141,0,0,1-5.048-2.092L13.88,203a7.142,7.142,0,0,1-2.007-6.164L36.77,39.171a7.142,7.142,0,0,1,5.942-5.942l157.654-24.9a7.142,7.142,0,0,1,6.164,2.007L422.278,226.086a7.142,7.142,0,0,1,0,10.1L239.719,418.744a7.142,7.142,0,0,1-5.042,2.093ZM26.55,195.461,234.677,403.6,407.129,231.136,199.009,23.016,50.069,46.528Z" transform="translate(45.081 38.404)" fill="#fff"/>
    <path id="Path_13" data-name="Path 13" d="M56.9,89.845a36.46,36.46,0,1,1,25.8-10.67,36.46,36.46,0,0,1-25.8,10.67Zm0-58.658a9.215,9.215,0,1,0,0-.007Z" transform="translate(98.383 91.69)" fill="#fff"/>
    <path id="Path_14" data-name="Path 14" d="M14.166,177.772,5.117,158.359a7.142,7.142,0,0,1,.221-6.478L82.68,12.247l12.5,6.921L19.594,155.617l7.521,16.113Z" transform="translate(0 62.985)" fill="#fff"/>
    <path id="Path_15" data-name="Path 15" d="M121.061,278.042a7.142,7.142,0,0,1-6.47-4.12L7.616,44.5l12.949-6.042L124.517,261.408l117.63-54.851,6.042,12.92-124.1,57.851a7.143,7.143,0,0,1-3.028.714Z" transform="translate(19.47 223.95)" fill="#fff"/>
    <path id="Path_16" data-name="Path 16" d="M131.173,158.459a58.437,58.437,0,0,1-13.084-1.607l3.193-13.92c5.885,1.343,16.605,2.764,22.283-2.907,5.564-5.564,5.542-17.205-.071-31.932a156.019,156.019,0,0,0-35.71-51.837C72.559,21.031,35.363,9.118,24.014,20.467s.564,48.566,35.789,83.769q3.571,3.528,7.142,6.8L57.36,121.627q-3.864-3.5-7.656-7.292C9.858,74.5-5.526,29.8,13.908,10.368s64.136-4.05,103.974,35.789a170.31,170.31,0,0,1,38.96,56.851c7.856,20.519,6.7,37.253-3.171,47.138a30.447,30.447,0,0,1-22.5,8.313Z" transform="translate(6.671 0)" fill="#fff"/>
  </g>
</svg>
