<svg width="500" height="500" viewBox="0 0 500 500" fill="none" xmlns="http://www.w3.org/2000/svg">
<g clip-path="url(#clip0_29_11)">
<path fill-rule="evenodd" clip-rule="evenodd" d="M322.825 471.229C299.911 478.777 275.428 482.861 250 482.861C121.48 482.861 17.1393 378.52 17.1393 250C17.1393 193.829 37.0716 142.276 70.2435 102.036C72.8255 98.9023 72.3789 94.263 69.2461 91.6797C66.112 89.0977 61.4727 89.5443 58.8893 92.6771C23.6198 135.462 2.42578 190.276 2.42578 250C2.42578 386.639 113.361 497.574 250 497.574C277.036 497.574 303.066 493.229 327.43 485.203C331.285 483.934 333.385 479.771 332.115 475.914C330.845 472.057 326.682 469.958 322.825 471.229ZM87.7135 83.0703C129.665 42.276 186.921 17.1393 250 17.1393C378.52 17.1393 482.861 121.48 482.861 250C482.861 343.977 427.069 425.025 346.832 461.806C343.141 463.497 341.517 467.867 343.21 471.559C344.901 475.25 349.272 476.872 352.962 475.181C438.266 436.078 497.574 349.91 497.574 250C497.574 113.361 386.639 2.42578 250 2.42578C182.934 2.42578 122.06 29.1497 77.457 72.5221C74.5456 75.3529 74.4805 80.0143 77.3112 82.9245C80.1419 85.8359 84.8034 85.901 87.7135 83.0703ZM180.951 209.603C176.538 185.581 155.479 167.352 130.193 167.352C101.711 167.352 78.5859 190.475 78.5859 218.957V281.044C78.5859 309.527 101.711 332.651 130.193 332.651C155.479 332.651 176.538 314.422 180.951 290.4C182.223 283.473 177.632 276.816 170.706 275.544C163.779 274.272 157.122 278.862 155.849 285.789C153.62 297.928 142.971 307.13 130.193 307.13C115.796 307.13 104.107 295.441 104.107 281.044V218.957C104.107 204.56 115.796 192.872 130.193 192.872C142.971 192.872 153.62 202.074 155.849 214.214C157.122 221.141 163.779 225.73 170.706 224.458C177.632 223.186 182.223 216.53 180.951 209.603ZM396.365 176.665L369.587 272.134L342.809 176.665C340.908 169.884 333.858 165.923 327.077 167.826C320.296 169.727 316.335 176.776 318.237 183.557L357.301 322.831C358.845 328.339 363.867 332.145 369.587 332.145C375.307 332.145 380.328 328.339 381.874 322.831L420.937 183.557C422.839 176.776 418.878 169.727 412.096 167.826C405.316 165.923 398.267 169.884 396.365 176.665ZM209.428 167.387C202.721 167.753 197.388 173.314 197.388 180.112V319.242C197.388 326.276 203.099 331.986 210.133 331.986C210.444 331.986 210.754 331.975 211.059 331.953H254.003C280.236 331.953 301.534 310.655 301.534 284.422C301.534 270.702 295.708 258.332 286.396 249.652C295.708 240.971 301.534 228.602 301.534 214.882C301.534 188.648 280.236 167.352 254.003 167.352H210.375C210.052 167.352 209.737 167.363 209.428 167.387ZM222.876 306.432H254.003C266.151 306.432 276.013 296.569 276.013 284.422C276.013 272.275 266.151 262.413 254.003 262.413H222.876V306.432ZM222.876 236.892H254.003C266.151 236.892 276.013 227.029 276.013 214.882C276.013 202.734 266.151 192.872 254.003 192.872H222.876V236.892Z" fill="white"/>
</g>
<defs>
<clipPath id="clip0_29_11">
<rect width="500" height="500" fill="white"/>
</clipPath>
</defs>
</svg>
