<svg width="154" height="154" viewBox="0 0 154 154" fill="none" xmlns="http://www.w3.org/2000/svg">
<rect width="154" height="154" fill="url(#paint0_linear_69_893)"/>
<circle cx="77" cy="77" r="43" fill="white"/>
<g clip-path="url(#clip0_69_893)">
<path fill-rule="evenodd" clip-rule="evenodd" d="M75.662 63.2857L71.7324 65.1143L69.1127 63.7429L66.0563 66.9429L67.3662 69.6857L65.6197 73.8L63 74.7143V79.2857L65.6197 80.2L67.3662 84.3143L66.0563 86.6L69.1127 89.8L71.7324 88.8857L75.662 90.7143L76.5352 93H78.2817H79.1549H79.5L80 91.5L85 89.5L87.5 90.7143L91.0263 86.6L89.7518 84.3143L91.4511 80.2L94 79.2857V74L91.4511 73L89.7518 68.5L91.0263 65.5L87 62L84.5 63.5L80.8306 62L80 61H79.1549H78.2817H76.5352L75.662 63.2857ZM76.5 83C80.0899 83 83 80.0899 83 76.5C83 72.9101 80.0899 70 76.5 70C72.9101 70 70 72.9101 70 76.5C70 80.0899 72.9101 83 76.5 83Z" fill="#BCBBF5"/>
<path fill-rule="evenodd" clip-rule="evenodd" d="M61.8657 98.5226C66.0491 101.295 71.0652 102.911 76.4556 102.911C79.4427 102.911 82.315 102.415 84.9942 101.501C85.462 101.341 85.7121 100.832 85.5525 100.364C85.3928 99.8963 84.8835 99.6461 84.4159 99.8058C81.9181 100.658 79.2404 101.12 76.4556 101.12C71.5336 101.12 66.9463 99.6756 63.0953 97.1871C64.429 95.1226 64.192 92.335 62.3841 90.5272C60.3035 88.4465 56.9252 88.4465 54.8445 90.5272C53.0326 92.3391 52.7991 95.1353 54.1428 97.2015C54.4124 97.6158 54.9674 97.7334 55.3817 97.464C55.796 97.1946 55.9135 96.6395 55.6441 96.2251C54.7518 94.8532 54.9077 92.9965 56.1109 91.7934C57.4926 90.4117 59.7361 90.4117 61.1179 91.7934C62.4996 93.1751 62.4996 95.4187 61.1179 96.8004C60.1109 97.8074 58.6463 98.0802 57.391 97.6199C56.927 97.4498 56.4122 97.6883 56.2421 98.1523C56.072 98.6163 56.3105 99.1311 56.7745 99.3012C58.4583 99.9187 60.392 99.6589 61.8657 98.5226V98.5226ZM89.3361 97.4895C88.5655 97.9627 87.7671 98.3948 86.9438 98.7826C86.4966 98.9933 86.3046 99.5271 86.5152 99.9743C86.7258 100.421 87.2598 100.613 87.7069 100.403C88.5901 99.9866 89.4466 99.5231 90.2732 99.0155C90.6943 98.7568 90.8263 98.205 90.5676 97.7839C90.3091 97.3628 89.7572 97.2309 89.3361 97.4895ZM100.298 70.1212C100.835 72.143 101.12 74.2661 101.12 76.4556C101.12 84.3744 97.3803 91.4264 91.5722 95.9407C91.182 96.244 91.1114 96.807 91.4147 97.1972C91.718 97.5874 92.281 97.6579 92.6712 97.3547C98.9006 92.5128 102.911 84.9488 102.911 76.4556C102.911 74.1074 102.604 71.8302 102.029 69.662C101.902 69.1843 101.412 68.8995 100.934 69.0262C100.456 69.1529 100.172 69.6437 100.298 70.1212V70.1212ZM62.1293 83.9258C62.2394 84.137 62.3544 84.3459 62.4739 84.5523C62.4738 84.5523 61.2701 86.7493 61.2701 86.7493C61.1017 87.0564 61.1279 87.4335 61.3372 87.7143C62.4296 89.1814 63.7299 90.4817 65.1969 91.5741C65.4778 91.7833 65.8549 91.8095 66.162 91.6412L68.359 90.4375C69.593 91.152 70.9162 91.7001 72.2942 92.0674L72.9965 94.4721C73.0946 94.8083 73.3799 95.0564 73.7263 95.1071C75.5362 95.372 77.3751 95.372 79.1849 95.1071C79.5314 95.0564 79.8166 94.8083 79.9148 94.4721L80.617 92.0674C81.995 91.7001 83.3182 91.152 84.5523 90.4373C84.5523 90.4375 86.7493 91.6412 86.7493 91.6412C87.0564 91.8095 87.4335 91.7833 87.7143 91.5741C88.0732 91.3069 88.422 91.0272 88.7603 90.7357C89.1346 90.4132 89.1767 89.8473 88.8541 89.473C88.5316 89.0985 87.9657 89.0566 87.5912 89.3791C87.429 89.519 87.2641 89.6557 87.0966 89.7895L84.9619 88.6199C84.6782 88.4643 84.3324 88.4741 84.0579 88.6454C82.7145 89.4832 81.2418 90.0933 79.6995 90.4507C79.3842 90.5237 79.1329 90.7613 79.0422 91.072L78.3598 93.4082C77.0943 93.5504 75.8169 93.5504 74.5514 93.4084L73.869 91.072C73.7784 90.7613 73.527 90.5237 73.2118 90.4507C71.6694 90.0933 70.1967 89.4832 68.8534 88.6454C68.5788 88.4741 68.2331 88.4643 67.9493 88.6199L65.8147 89.7895C64.8194 88.9952 63.9161 88.0918 63.1218 87.0966L64.2914 84.9619C64.4469 84.6782 64.4371 84.3324 64.2658 84.0579C64.0705 83.7446 63.8875 83.4244 63.7172 83.0978C63.4888 82.6596 62.9475 82.4893 62.5092 82.7178C62.071 82.9463 61.9008 83.4876 62.1293 83.9258V83.9258ZM90.8463 88.6309C91.0981 88.3332 91.3408 88.0276 91.5741 87.7143C91.7833 87.4335 91.8095 87.0564 91.6412 86.7493L90.4375 84.5523C91.152 83.3182 91.7001 81.995 92.0674 80.617L94.4721 79.9148C94.8083 79.8166 95.0564 79.5314 95.1071 79.1849C95.372 77.3751 95.372 75.5362 95.1071 73.7263C95.0564 73.3799 94.8083 73.0946 94.4721 72.9965L92.0674 72.2942C91.7001 70.9162 91.152 69.593 90.4373 68.359C90.4375 68.359 91.6412 66.162 91.6412 66.162C91.8095 65.8549 91.7833 65.4778 91.5741 65.1969C90.4817 63.7299 89.1814 62.4296 87.7143 61.3372C87.4335 61.1279 87.0564 61.1017 86.7493 61.2701L84.5523 62.4738C84.327 62.3433 84.0987 62.2186 83.8678 62.0993C83.4286 61.8726 82.8882 62.0449 82.6614 62.4841C82.4346 62.9232 82.6071 63.4638 83.0462 63.6906C83.3907 63.8683 83.7282 64.0602 84.0579 64.2658C84.3324 64.4371 84.6782 64.4469 84.9619 64.2914L87.0966 63.1218C88.0918 63.9161 88.9952 64.8194 89.7895 65.8147L88.6199 67.9493C88.4643 68.2331 88.4741 68.5788 88.6454 68.8534C89.4832 70.1967 90.0933 71.6694 90.4507 73.2118C90.5237 73.527 90.7613 73.7784 91.072 73.869L93.4082 74.5514C93.5504 75.8169 93.5504 77.0943 93.4084 78.3598L91.072 79.0422C90.7613 79.1329 90.5237 79.3842 90.4507 79.6995C90.0933 81.2418 89.4832 82.7145 88.6454 84.0579C88.4741 84.3324 88.4643 84.6782 88.6199 84.9619L89.7895 87.0966C89.6878 87.2239 89.5842 87.3498 89.4791 87.4742C89.16 87.8515 89.207 88.4169 89.5844 88.7361C89.9616 89.0553 90.5271 89.0081 90.8463 88.6309V88.6309ZM82.3651 76.1347C82.3707 76.2409 82.3736 76.3479 82.3736 76.4556C82.3736 79.7218 79.7218 82.3736 76.4556 82.3736C73.1894 82.3736 70.5376 79.7218 70.5376 76.4556C70.5376 73.1894 73.1894 70.5376 76.4556 70.5376C76.5643 70.5376 76.6723 70.5405 76.7795 70.5463C77.2729 70.573 77.6951 70.194 77.7218 69.7004C77.7484 69.207 77.3694 68.7848 76.8758 68.7581C76.7367 68.7505 76.5966 68.7468 76.4556 68.7468C72.2011 68.7468 68.7468 72.2011 68.7468 76.4556C68.7468 80.7102 72.2011 84.1644 76.4556 84.1644C80.7102 84.1644 84.1644 80.7102 84.1644 76.4556C84.1644 76.3159 84.1607 76.177 84.1534 76.0391C84.127 75.5456 83.705 75.1664 83.2114 75.1928C82.718 75.2192 82.3387 75.6412 82.3651 76.1347V76.1347ZM52.613 82.79C52.0765 80.7683 51.7908 78.6451 51.7908 76.4556C51.7908 73.851 52.1952 71.3402 52.945 68.9826C53.0947 68.5116 52.834 68.0077 52.3631 67.8578C51.892 67.7081 51.3881 67.9689 51.2383 68.4399C50.4342 70.9687 50 73.6619 50 76.4556C50 78.8038 50.3068 81.0811 50.8821 83.2492C51.0088 83.7269 51.4996 84.0118 51.9771 83.8851C52.4548 83.7584 52.7397 83.2676 52.613 82.79ZM81.0969 60.9797C80.9378 60.9319 80.7778 60.8867 80.617 60.8439L79.9148 58.4391C79.8166 58.1029 79.5314 57.8549 79.1849 57.8041C77.3751 57.5393 75.5362 57.5393 73.7263 57.8041C73.3799 57.8549 73.0946 58.1029 72.9965 58.4391L72.2942 60.8439C70.9162 61.2112 69.593 61.7592 68.359 62.4739C68.359 62.4738 66.162 61.2701 66.162 61.2701C65.8549 61.1017 65.4778 61.1279 65.1969 61.3372C63.7299 62.4296 62.4296 63.7299 61.3372 65.1969C61.1279 65.4778 61.1017 65.8549 61.2701 66.162L62.4738 68.359C61.7592 69.593 61.2112 70.9162 60.8439 72.2942L58.4391 72.9965C58.1029 73.0946 57.8549 73.3799 57.8041 73.7263C57.5393 75.5362 57.5393 77.3751 57.8041 79.1849C57.8549 79.5314 58.1029 79.8166 58.4391 79.9148L60.8439 80.617C60.8927 80.8005 60.9448 80.9829 61.0001 81.1644C61.1441 81.6371 61.6448 81.9039 62.1175 81.76C62.5903 81.6159 62.8572 81.1151 62.7132 80.6424C62.6184 80.3315 62.5341 80.0169 62.4605 79.6995C62.3875 79.3842 62.15 79.1329 61.8393 79.0422L59.503 78.3598C59.3608 77.0943 59.3608 75.8169 59.5029 74.5514L61.8393 73.869C62.15 73.7784 62.3875 73.527 62.4605 73.2118C62.818 71.6694 63.428 70.1967 64.2658 68.8534C64.4371 68.5788 64.4469 68.2331 64.2914 67.9493L63.1218 65.8147C63.9161 64.8194 64.8194 63.9161 65.8147 63.1218L67.9493 64.2914C68.2331 64.4469 68.5788 64.4371 68.8534 64.2658C70.1967 63.428 71.6694 62.818 73.2118 62.4605C73.527 62.3875 73.7784 62.15 73.869 61.8393L74.5514 59.503C75.8169 59.3608 77.0943 59.3608 78.3598 59.5029L79.0422 61.8393C79.1329 62.15 79.3842 62.3875 79.6995 62.4605C79.9966 62.5294 80.291 62.6077 80.5825 62.695C81.0559 62.837 81.5554 62.5679 81.6975 62.0946C81.8393 61.6212 81.5703 61.1217 81.0969 60.9797V60.9797ZM79.1341 71.1779C80.2446 71.7433 81.1535 72.6488 81.723 73.7568C81.9489 74.1964 82.4893 74.3698 82.9287 74.1438C83.3683 73.9179 83.5417 73.3777 83.3157 72.9382C82.5746 71.4962 81.3919 70.3179 79.9468 69.582C79.5064 69.3578 78.9667 69.5333 78.7426 69.9737C78.5183 70.414 78.6937 70.9536 79.1341 71.1779ZM53.9433 66.3705C54.3145 65.5439 54.7301 64.7413 55.1868 63.9659C55.4376 63.54 55.2954 62.9907 54.8697 62.7399C54.4439 62.4891 53.8945 62.6313 53.6438 63.057C53.1538 63.8889 52.708 64.7499 52.3096 65.6368C52.1072 66.0876 52.3088 66.618 52.7596 66.8205C53.2104 67.0229 53.7408 66.8213 53.9433 66.3705ZM89.816 55.7241C88.4823 57.7887 88.7193 60.5763 90.5272 62.3841C91.1662 63.0232 91.928 63.4659 92.7369 63.7125C93.2095 63.8566 93.7104 63.5898 93.8545 63.1172C93.9986 62.6445 93.7319 62.1436 93.2592 61.9995C92.7226 61.836 92.2175 61.5419 91.7934 61.1179C90.4335 59.7578 90.4121 57.5629 91.7295 56.1764C91.7498 56.1574 91.7692 56.1375 91.7879 56.1164L91.7934 56.1109C93.1751 54.7291 95.4187 54.7291 96.8004 56.1109C98.1821 57.4926 98.1821 59.7361 96.8004 61.1179C96.4241 61.4941 95.9841 61.7681 95.5149 61.9392C95.0506 62.1087 94.8112 62.6231 94.9806 63.0874C95.1499 63.5516 95.6643 63.791 96.1286 63.6216C96.836 63.3636 97.4996 62.9512 98.0667 62.3841C100.147 60.3035 100.147 56.9252 98.0667 54.8445C96.1511 52.9289 93.1354 52.777 91.0456 54.3886C86.8621 51.6157 81.846 50 76.4556 50C67.7888 50 60.0895 54.1762 55.263 60.625C54.967 61.0206 55.0477 61.5823 55.4434 61.8783C55.839 62.1745 56.4007 62.0937 56.6968 61.6981C61.1968 55.6855 68.375 51.7908 76.4556 51.7908C81.3779 51.7908 85.9653 53.2358 89.816 55.7241V55.7241Z" fill="#656CD0"/>
</g>
<defs>
<linearGradient id="paint0_linear_69_893" x1="0" y1="0" x2="154" y2="154" gradientUnits="userSpaceOnUse">
<stop stop-color="#589DDB"/>
<stop offset="1" stop-color="#723BC5"/>
</linearGradient>
<clipPath id="clip0_69_893">
<rect width="53" height="53" fill="white" transform="translate(50 50)"/>
</clipPath>
</defs>
</svg>
