<svg id="ConfigItem-DQ" xmlns="http://www.w3.org/2000/svg" width="500" height="500" viewBox="0 0 500 500">
  <path id="ConfigItems" d="M112.128,458.528a250.246,250.246,0,0,0,218.56,28.141,8.461,8.461,0,1,0-5.465-16.015,233.346,233.346,0,0,1-201.475-24.746,50.384,50.384,0,1,0-84.6.136,8.461,8.461,0,1,0,14.187-9.226A33.459,33.459,0,1,1,69.844,450a8.461,8.461,0,1,0-5.826,15.887A50.453,50.453,0,0,0,112.128,458.528Zm259.59-9.762a232.884,232.884,0,0,1-22.607,12.22,8.461,8.461,0,1,0,7.211,15.309,249.779,249.779,0,0,0,24.252-13.109,8.461,8.461,0,1,0-8.856-14.42Zm103.59-258.624a233.3,233.3,0,0,1-82.46,243.988,8.462,8.462,0,0,0,10.386,13.362A250.223,250.223,0,0,0,491.664,185.8a8.461,8.461,0,1,0-16.357,4.339ZM114.619,320.591q1.561,2.993,3.257,5.92S106.5,347.273,106.5,347.273a8.458,8.458,0,0,0,.634,9.119,178.105,178.105,0,0,0,36.474,36.474,8.458,8.458,0,0,0,9.119.634l20.761-11.375a152.687,152.687,0,0,0,37.187,15.4l6.636,22.724a8.463,8.463,0,0,0,6.9,6,178.117,178.117,0,0,0,51.582,0,8.463,8.463,0,0,0,6.9-6l6.636-22.724a152.641,152.641,0,0,0,37.187-15.4S347.273,393.5,347.273,393.5a8.458,8.458,0,0,0,9.119-.634q5.087-3.788,9.884-7.922a8.461,8.461,0,1,0-11.047-12.82q-2.3,1.982-4.674,3.878L330.383,364.95a8.459,8.459,0,0,0-8.543.241,135.754,135.754,0,0,1-41.186,17.06,8.459,8.459,0,0,0-6.211,5.871L267.994,410.2a161.265,161.265,0,0,1-35.989,0l-6.448-22.079a8.459,8.459,0,0,0-6.211-5.871,135.755,135.755,0,0,1-41.186-17.06,8.459,8.459,0,0,0-8.543-.241L149.445,376A161.258,161.258,0,0,1,124,350.554l11.052-20.172a8.459,8.459,0,0,0-.241-8.543q-2.768-4.441-5.184-9.072a8.461,8.461,0,0,0-15.006,7.824Zm271.37,44.462q3.568-4.22,6.877-8.662a8.458,8.458,0,0,0,.634-9.119l-11.375-20.761a152.687,152.687,0,0,0,15.4-37.187l22.724-6.636a8.463,8.463,0,0,0,6-6.9,178.117,178.117,0,0,0,0-51.582,8.463,8.463,0,0,0-6-6.9l-22.724-6.636a152.64,152.64,0,0,0-15.4-37.187S393.5,152.727,393.5,152.727a8.458,8.458,0,0,0-.634-9.119,178.1,178.1,0,0,0-36.474-36.474,8.458,8.458,0,0,0-9.119-.634l-20.761,11.375q-3.193-1.849-6.468-3.538a8.462,8.462,0,0,0-7.764,15.037q4.883,2.52,9.56,5.436a8.459,8.459,0,0,0,8.543.241L350.554,124A161.256,161.256,0,0,1,376,149.446L364.95,169.617a8.459,8.459,0,0,0,.241,8.543,135.754,135.754,0,0,1,17.06,41.186,8.459,8.459,0,0,0,5.871,6.211l22.077,6.448a161.269,161.269,0,0,1,0,35.989l-22.079,6.448a8.459,8.459,0,0,0-5.871,6.211,135.754,135.754,0,0,1-17.06,41.186,8.459,8.459,0,0,0-.241,8.543L376,350.554q-1.442,1.806-2.933,3.568a8.462,8.462,0,0,0,12.92,10.931ZM305.843,246.967q.08,1.506.081,3.032A55.924,55.924,0,1,1,250,194.076q1.542,0,3.061.082a8.461,8.461,0,0,0,.91-16.9q-1.972-.108-3.971-.107A72.847,72.847,0,1,0,322.847,250q0-1.98-.1-3.935a8.462,8.462,0,0,0-16.9.9ZM24.692,309.859a234.26,234.26,0,0,1,3.137-130.478A8.462,8.462,0,1,0,11.7,174.253,251.181,251.181,0,0,0,8.336,314.2a8.461,8.461,0,1,0,16.357-4.339Zm269.167-206.1q-2.256-.677-4.535-1.283l-6.636-22.724a8.463,8.463,0,0,0-6.9-6,178.118,178.118,0,0,0-51.582,0,8.463,8.463,0,0,0-6.9,6l-6.636,22.724a152.643,152.643,0,0,0-37.187,15.4S152.727,106.5,152.727,106.5a8.458,8.458,0,0,0-9.119.634,178.1,178.1,0,0,0-36.474,36.474,8.458,8.458,0,0,0-.634,9.119l11.375,20.761a152.69,152.69,0,0,0-15.4,37.187l-22.724,6.636a8.463,8.463,0,0,0-6,6.9,178.118,178.118,0,0,0,0,51.582,8.463,8.463,0,0,0,6,6.9l22.724,6.636q.693,2.6,1.476,5.173a8.462,8.462,0,0,0,16.189-4.933q-1.344-4.408-2.388-8.911a8.459,8.459,0,0,0-5.871-6.211L89.8,267.994a161.266,161.266,0,0,1,0-35.989l22.079-6.448a8.459,8.459,0,0,0,5.871-6.211,135.754,135.754,0,0,1,17.06-41.186,8.459,8.459,0,0,0,.241-8.543L124,149.445A161.257,161.257,0,0,1,149.446,124l20.172,11.052a8.459,8.459,0,0,0,8.543-.241,135.754,135.754,0,0,1,41.186-17.06,8.459,8.459,0,0,0,6.211-5.87L232.006,89.8a161.267,161.267,0,0,1,35.989,0l6.448,22.079a8.459,8.459,0,0,0,6.211,5.87q4.212.976,8.345,2.216a8.461,8.461,0,1,0,4.861-16.209Zm-18.548,96.371a56.245,56.245,0,0,1,24.464,24.37,8.461,8.461,0,0,0,15.051-7.736,73.212,73.212,0,0,0-31.836-31.716,8.462,8.462,0,0,0-7.68,15.081ZM37.263,154.7a232.393,232.393,0,0,1,11.751-22.723,8.462,8.462,0,1,0-14.582-8.589,249.2,249.2,0,0,0-12.607,24.378A8.461,8.461,0,1,0,37.263,154.7ZM376.252,54.092a50.394,50.394,0,0,0,27.6,75.488,8.461,8.461,0,0,0,4.935-16.187,33.46,33.46,0,0,1-14.455-55.027c.192-.18.376-.368.552-.567l.052-.052a33.457,33.457,0,1,1,35.167,55.077,8.461,8.461,0,1,0,5.8,15.9,50.383,50.383,0,1,0-48.034-87.249A249.922,249.922,0,0,0,49.734,100.4a8.462,8.462,0,0,0,13.549,10.141A233,233,0,0,1,376.252,54.092Z" transform="translate(0 0)" fill="#fff" fill-rule="evenodd"/>
  <rect id="Rectangle_2" data-name="Rectangle 2" width="500" height="500" fill="#c8c8c8" opacity="0"/>
</svg>
