<svg width="154" height="154" viewBox="0 0 154 154" fill="none" xmlns="http://www.w3.org/2000/svg">
<rect width="154" height="154" fill="url(#paint0_linear_69_854)"/>
<circle cx="77" cy="77" r="43" fill="white"/>
<ellipse cx="78" cy="81.5" rx="8" ry="9.5" fill="#BCBBF5"/>
<path fill-rule="evenodd" clip-rule="evenodd" d="M63.1655 77.4157C63.37 76.7568 63.6232 76.1142 63.923 75.4929C62.4098 76.1779 60.7159 76.3543 59.0943 75.9958C57.4727 75.6373 56.0106 74.7632 54.9264 73.504C53.8422 72.2449 53.1943 70.6685 53.0793 69.0102C52.9644 67.352 53.3886 65.701 54.2887 64.3041C55.1887 62.9072 56.5163 61.8393 58.0728 61.2601C59.6294 60.6809 61.3315 60.6214 62.9246 61.0906C64.5177 61.5598 65.9164 62.5324 66.9116 63.8631C67.9067 65.1938 68.445 66.8112 68.4458 68.4734C68.4461 69.0884 68.373 69.7013 68.2281 70.2989C68.8036 69.874 69.4109 69.494 70.0446 69.1624C70.0613 68.9347 70.0696 68.705 70.0696 68.4734C70.0775 66.3103 69.3315 64.2121 67.9601 62.5404C66.5887 60.8686 64.6777 59.7279 62.5564 59.3148C60.4351 58.9017 58.2363 59.242 56.3387 60.2772C54.4411 61.3123 52.9636 62.9774 52.1607 64.9857C52.124 65.0765 52.0698 65.1591 52.0012 65.2289C51.9326 65.2987 51.8509 65.3543 51.7608 65.3925C51.6708 65.4307 51.5741 65.4508 51.4762 65.4516C51.3784 65.4524 51.2814 65.4339 51.1907 65.3972C51.1 65.3604 51.0174 65.3062 50.9477 65.2375C50.878 65.1688 50.8224 65.0871 50.7842 64.9969C50.7461 64.9068 50.726 64.81 50.7252 64.7121C50.7244 64.6141 50.7429 64.517 50.7796 64.4263C51.7115 62.0967 53.4258 60.1653 55.6272 58.9647C57.8286 57.764 60.3794 57.3693 62.8403 57.8484C65.3011 58.3276 67.5181 59.6506 69.1093 61.5897C70.7006 63.5288 71.5665 65.9626 71.5581 68.4719V68.4808C74.7046 67.2938 78.1737 67.2854 81.3259 68.4572C81.3368 66.2302 82.0322 64.0605 83.3177 62.2428C84.6033 60.4251 86.4166 59.0475 88.5115 58.2972C90.6063 57.5468 92.8812 57.46 95.027 58.0486C97.1728 58.6372 99.0857 59.8726 100.506 61.587C101.926 63.3015 102.784 65.4119 102.964 67.6316C103.145 69.8514 102.638 72.0728 101.513 73.9943C100.388 75.9158 98.6997 77.4441 96.6769 78.3717C94.6542 79.2994 92.3952 79.5814 90.2068 79.1794L90.195 79.1117C90.5526 81.1224 90.4665 83.1872 89.9427 85.1611C89.4188 87.135 88.47 88.9703 87.1626 90.5384C85.8553 92.1065 84.2211 93.3694 82.3746 94.2385C80.5281 95.1076 78.514 95.562 76.4736 95.5696C73.2211 95.5733 70.071 94.4314 67.5751 92.344C67.4996 92.2815 67.4373 92.2047 67.3915 92.118C67.3457 92.0313 67.3174 91.9365 67.3083 91.8388C67.2991 91.7412 67.3093 91.6428 67.3381 91.5491C67.367 91.4554 67.414 91.3683 67.4765 91.2928C67.539 91.2173 67.6157 91.1549 67.7023 91.1091C67.7889 91.0633 67.8837 91.035 67.9812 91.0258C68.0787 91.0166 68.1771 91.0268 68.2707 91.0557C68.3643 91.0846 68.4513 91.1317 68.5267 91.1942C70.9392 93.2029 74.0192 94.2284 77.1531 94.0665C80.287 93.9045 83.2451 92.567 85.4382 90.3203C87.6313 88.0736 88.8985 85.0826 88.9875 81.9428C89.0765 78.8029 87.9808 75.7448 85.9185 73.3772C83.8563 71.0096 80.9787 69.5064 77.859 69.1668C74.7393 68.8272 71.6062 69.6763 69.0838 71.5448C66.5613 73.4134 64.8344 76.1643 64.2471 79.2499C63.6598 82.3355 64.2551 85.5293 65.9145 88.1953C65.9711 88.2782 66.0104 88.3717 66.03 88.4702C66.0496 88.5687 66.0492 88.6701 66.0288 88.7685C66.0083 88.8668 65.9682 88.96 65.9109 89.0424C65.8537 89.1249 65.7803 89.1949 65.6954 89.2483C65.6104 89.3017 65.5156 89.3375 65.4165 89.3533C65.3174 89.3692 65.2162 89.3649 65.1188 89.3406C65.0214 89.3164 64.9299 89.2728 64.8498 89.2123C64.7697 89.1519 64.7026 89.0758 64.6525 88.9888C63.2665 86.7672 62.5336 84.1998 62.5374 81.5806C62.5373 80.7548 62.6096 79.9306 62.7537 79.1176C61.1945 79.4074 59.5907 79.3496 58.0564 78.9481C56.5222 78.5466 55.0953 77.8114 53.8774 76.7948C52.6595 75.7782 51.6806 74.5052 51.0104 73.0666C50.3402 71.6281 49.9952 70.0592 50 68.4719C50 68.3129 50.0035 68.1549 50.0103 67.9979C50.0146 67.9 50.0381 67.804 50.0794 67.7152C50.1207 67.6265 50.1791 67.5468 50.2512 67.4806C50.3233 67.4144 50.4078 67.3631 50.4997 67.3296C50.5916 67.2961 50.6892 67.281 50.7869 67.2853C50.8847 67.2896 50.9806 67.313 51.0693 67.3544C51.158 67.3958 51.2376 67.4542 51.3037 67.5264C51.3698 67.5986 51.4211 67.6831 51.4546 67.7751C51.488 67.8671 51.5031 67.9648 51.4988 68.0626C51.4929 68.1981 51.49 68.3345 51.49 68.4719C51.4862 69.8967 51.8094 71.3034 52.4348 72.5834C53.0602 73.8634 53.971 74.9824 55.0969 75.8542C56.2229 76.726 57.5339 77.3272 58.9288 77.6115C60.3236 77.8957 61.7651 77.8554 63.142 77.4937L63.1655 77.4157ZM76.4736 70.6891C78.6259 70.6827 80.7317 71.3157 82.5244 72.5079C84.3171 73.7001 85.7161 75.3979 86.5442 77.3865C87.3723 79.375 87.5923 81.5647 87.1763 83.6784C86.7603 85.7922 85.7271 87.7348 84.2075 89.2605C82.6878 90.7861 80.7501 91.8261 78.6396 92.2487C76.5291 92.6714 74.3408 92.4577 72.3517 91.6347C70.3626 90.8118 68.6621 89.4166 67.4657 87.6258C66.2693 85.835 65.6306 83.729 65.6306 81.5747C65.6279 78.6924 66.7684 75.9269 68.8015 73.8858C70.8346 71.8447 73.5941 70.6949 76.4736 70.6891V70.6891ZM76.4736 72.1849C78.3301 72.1796 80.1464 72.7259 81.6926 73.7544C83.2388 74.783 84.4453 76.2477 85.1594 77.963C85.8735 79.6783 86.063 81.5671 85.704 83.3903C85.3451 85.2135 84.4537 86.889 83.1428 88.2049C81.8319 89.5207 80.1604 90.4177 78.34 90.7821C76.5195 91.1466 74.632 90.9622 72.9163 90.2523C71.2006 89.5424 69.7339 88.3389 68.7019 86.7941C67.67 85.2494 67.1191 83.433 67.1191 81.5747C67.1164 79.088 68.1002 76.7019 69.8543 74.9409C71.6084 73.1799 73.9892 72.1881 76.4736 72.1834V72.1849ZM80.2713 82.5537C80.7624 82.5523 81.2428 82.6967 81.6518 82.9687C82.0609 83.2407 82.38 83.6281 82.569 84.0818C82.7579 84.5355 82.8081 85.0351 82.7132 85.5174C82.6183 85.9996 82.3825 86.4429 82.0358 86.7909C81.6891 87.139 81.247 87.3763 80.7655 87.4727C80.2839 87.5692 79.7846 87.5204 79.3308 87.3326C78.877 87.1449 78.489 86.8265 78.2161 86.418C77.9431 86.0094 77.7974 85.5289 77.7974 85.0374C77.7966 84.3797 78.0567 83.7486 78.5207 83.2829C78.9846 82.8172 79.6143 82.5549 80.2713 82.5537V82.5537ZM72.4009 86.7363L81.9613 77.1374C82.0311 77.0683 82.0866 76.9861 82.1245 76.8955C82.1625 76.8048 82.1822 76.7076 82.1825 76.6093C82.1829 76.5111 82.1638 76.4137 82.1264 76.3228C82.0891 76.2319 82.0342 76.1493 81.9649 76.0798C81.8955 76.0102 81.8132 75.955 81.7225 75.9173C81.6318 75.8797 81.5346 75.8603 81.4364 75.8604C81.3382 75.8605 81.241 75.8799 81.1504 75.9177C81.0597 75.9554 80.9774 76.0107 80.9082 76.0804L71.3478 85.6793C71.2086 85.8192 71.1306 86.0087 71.1307 86.2061C71.1308 86.4036 71.2091 86.5929 71.3484 86.7328C71.4877 86.8726 71.6766 86.9515 71.8739 86.9521C72.0711 86.9528 72.2606 86.8752 72.4009 86.7363V86.7363ZM73.0775 75.3339C73.5685 75.3325 74.049 75.4769 74.458 75.7489C74.867 76.0209 75.1862 76.4083 75.3751 76.862C75.564 77.3157 75.6142 77.8153 75.5193 78.2976C75.4244 78.7799 75.1887 79.2231 74.842 79.5712C74.4952 79.9192 74.0531 80.1565 73.5716 80.253C73.0901 80.3494 72.5908 80.3006 72.137 80.1129C71.6831 79.9251 71.2952 79.6068 71.0222 79.1982C70.7492 78.7896 70.6035 78.3091 70.6035 77.8176C70.6039 77.1607 70.8646 76.5308 71.3284 76.066C71.7921 75.6012 72.4212 75.3395 73.0775 75.3384V75.3339ZM62.7684 79.0587V79.0749V79.0366V79.0587ZM62.7875 78.9556V78.9895L62.7963 78.9438L62.7875 78.9556ZM62.8169 78.8084V78.8275L62.8257 78.7804L62.8169 78.8084ZM62.8375 78.7053L62.8287 78.7466L62.8404 78.6906L62.8375 78.7053ZM62.8699 78.5581V78.5802L62.8816 78.5272L62.8699 78.5581ZM90.0582 78.4271L90.0759 78.5066L90.0568 78.4212L90.0391 78.3476L90.0582 78.4271ZM62.8934 78.4565L62.8831 78.5036L62.8978 78.4418L62.8934 78.4565ZM62.9287 78.3093V78.3329L62.9419 78.2784L62.9287 78.3093ZM89.9921 78.1783L90.0097 78.2534L89.9921 78.1783ZM62.9493 78.1974L62.9375 78.246L62.9537 78.1812L62.9493 78.1974ZM62.9875 78.0502V78.0738L63.0022 78.0178L62.9875 78.0502ZM63.014 77.9501L63.0008 78.0001L63.0184 77.9339L63.014 77.9501ZM92.9205 74.72C93.6311 74.6358 94.3218 74.4291 94.962 74.1091C95.0498 74.0655 95.1453 74.0396 95.2431 74.0329C95.3409 74.0263 95.439 74.039 95.5319 74.0703C95.6247 74.1016 95.7105 74.1509 95.7844 74.2154C95.8582 74.2799 95.9186 74.3583 95.9622 74.4462C96.0057 74.5341 96.0316 74.6297 96.0382 74.7275C96.0449 74.8254 96.0322 74.9236 96.0009 75.0166C95.9696 75.1095 95.9204 75.1954 95.8559 75.2693C95.7915 75.3432 95.7131 75.4037 95.6254 75.4473C94.6147 75.9508 93.5062 76.2271 92.3777 76.2568C91.2491 76.2866 90.1277 76.0691 89.0919 75.6196C89.3852 76.2486 89.631 76.8986 89.8273 77.5644C91.7221 78.0595 93.7241 77.9491 95.553 77.2485C97.3819 76.5478 98.946 75.2922 100.026 73.6573C101.107 72.0224 101.649 70.0903 101.577 68.1315C101.506 66.1727 100.824 64.2854 99.6272 62.7338C98.4305 61.1823 96.7789 60.0444 94.9038 59.4793C93.0286 58.9143 91.0239 58.9505 89.1703 59.5829C87.3168 60.2153 85.7073 61.4122 84.5673 63.0059C83.4273 64.5996 82.8138 66.5103 82.8129 68.4704C82.8129 68.6903 82.8203 68.9082 82.835 69.1241C83.4494 69.4425 84.0394 69.8061 84.6 70.2121C84.3252 69.0082 84.3413 67.7561 84.6469 66.5597C84.9525 65.3633 85.5387 64.2571 86.3571 63.3329C87.1754 62.4087 88.2021 61.6933 89.352 61.2459C90.5019 60.7985 91.7419 60.6321 92.9689 60.7605C94.1959 60.8889 95.3747 61.3084 96.4073 61.9841C97.4399 62.6599 98.2966 63.5725 98.9063 64.646C99.5159 65.7196 99.8609 66.9233 99.9127 68.1571C99.9645 69.3909 99.7215 70.6193 99.2039 71.7402C99.165 71.8326 99.1078 71.9162 99.0359 71.986C98.964 72.0558 98.8788 72.1103 98.7853 72.1464C98.6919 72.1825 98.5921 72.1994 98.492 72.1961C98.3919 72.1927 98.2935 72.1692 98.2026 72.127C98.1118 72.0847 98.0304 72.0246 97.9633 71.9502C97.8962 71.8757 97.8447 71.7885 97.812 71.6938C97.7793 71.599 97.766 71.4986 97.7729 71.3986C97.7798 71.2986 97.8068 71.201 97.8522 71.1116C98.1286 70.5131 98.3088 69.8746 98.3861 69.2198H97.1388C96.9403 69.2198 96.7499 69.1409 96.6095 69.0003C96.4691 68.8598 96.3902 68.6692 96.3902 68.4704C96.3902 68.2717 96.4691 68.0811 96.6095 67.9406C96.7499 67.8 96.9403 67.7211 97.1388 67.7211H98.3861C98.22 66.325 97.5914 65.0249 96.6007 64.0282C95.6101 63.0315 94.3144 62.3957 92.9205 62.2223V63.4752C92.9205 63.6734 92.8418 63.8634 92.7019 64.0035C92.5619 64.1436 92.372 64.2223 92.174 64.2223C91.9761 64.2223 91.7862 64.1436 91.6462 64.0035C91.5062 63.8634 91.4276 63.6734 91.4276 63.4752V62.2238C90.0313 62.3945 88.7326 63.029 87.7393 64.0259C86.7459 65.0229 86.1155 66.3245 85.9487 67.7226H87.1842C87.3828 67.7226 87.5732 67.8015 87.7136 67.942C87.854 68.0826 87.9329 68.2732 87.9329 68.4719C87.9329 68.6707 87.854 68.8613 87.7136 69.0018C87.5732 69.1423 87.3828 69.2213 87.1842 69.2213H85.937C86.0458 70.1402 86.3567 71.0237 86.8474 71.808C87.3132 72.553 87.9288 73.1927 88.6551 73.6865C89.4795 74.2465 90.4264 74.6 91.4158 74.7171V73.4657C91.4158 73.2675 91.4945 73.0775 91.6345 72.9374C91.7744 72.7973 91.9643 72.7185 92.1623 72.7185C92.3602 72.7185 92.5501 72.7973 92.6901 72.9374C92.8301 73.0775 92.9087 73.2675 92.9087 73.4657L92.9205 74.72ZM63.0625 77.7911V77.8146V77.7557V77.7911ZM63.0905 77.691L63.0758 77.741L63.0949 77.6763L63.0905 77.691ZM63.1346 77.5438V77.5673L63.1508 77.5128L63.1346 77.5438ZM60.7813 62.2724C62.0073 62.2689 63.2068 62.6296 64.2279 63.3088C65.249 63.9881 66.0458 64.9553 66.5174 66.0881C66.989 67.2209 67.1142 68.4682 66.8772 69.6723C66.6401 70.8763 66.0515 71.9829 65.1858 72.8519C64.3201 73.7209 63.2163 74.3132 62.014 74.5539C60.8118 74.7946 59.5653 74.6729 58.4322 74.204C57.2992 73.7352 56.3306 72.9404 55.6491 71.9203C54.9676 70.9002 54.6038 69.7006 54.6038 68.4734C54.6018 66.8314 55.2512 65.2557 56.4093 64.0927C57.5673 62.9297 59.1393 62.2744 60.7798 62.2709L60.7813 62.2724ZM62.6742 66.505C62.5977 66.4495 62.5055 66.4196 62.411 66.4196H61.8859C61.766 66.42 61.6511 66.468 61.5665 66.553C61.4818 66.638 61.4343 66.7531 61.4343 66.8731V71.6048C61.4343 71.7248 61.4818 71.8399 61.5665 71.9249C61.6511 72.0099 61.766 72.0579 61.8859 72.0583H62.4654C62.5853 72.0579 62.7001 72.0099 62.7848 71.9249C62.8694 71.8399 62.9169 71.7248 62.9169 71.6048V70.7465C63.0807 70.7887 63.2493 70.8095 63.4185 70.8083C63.6902 70.8124 63.9586 70.7487 64.1995 70.6228C64.4262 70.5024 64.6221 70.3311 64.7716 70.1223C64.9213 69.9116 65.0319 69.6758 65.0982 69.4259C65.1692 69.1634 65.2043 68.8925 65.2026 68.6206V68.5544C65.2047 68.2766 65.1696 67.9998 65.0982 67.7314C65.0324 67.4795 64.9207 67.2419 64.7687 67.0306C64.6178 66.8229 64.4203 66.6535 64.1921 66.5359C63.9492 66.4135 63.6802 66.3519 63.4082 66.3563C63.1553 66.3517 62.9044 66.4019 62.6728 66.5036L62.6742 66.505ZM91.4247 65.4745V68.4734C91.4246 68.5718 91.444 68.6693 91.4816 68.7602C91.5192 68.8511 91.5743 68.9338 91.6438 69.0034L93.25 70.6228C93.3904 70.763 93.5807 70.8416 93.779 70.8413C93.9774 70.8411 94.1674 70.7619 94.3075 70.6214C94.4475 70.4808 94.526 70.2903 94.5258 70.0918C94.5255 69.8933 94.4464 69.703 94.306 69.5628L92.919 68.1701V65.473C92.919 65.2748 92.8404 65.0848 92.7004 64.9447C92.5604 64.8046 92.3705 64.7259 92.1726 64.7259C91.9746 64.7259 91.7847 64.8046 91.6448 64.9447C91.5048 65.0848 91.4261 65.2748 91.4261 65.473L91.4247 65.4745ZM60.1209 70.745H60.7313L60.771 70.7053C60.8777 70.6966 60.9778 70.6502 61.0535 70.5744C61.1292 70.4986 61.1756 70.3984 61.1843 70.2916C61.1914 70.2089 61.1756 70.1259 61.1387 70.0516L60.3577 68.469L60.3783 68.4528C60.5157 68.3507 60.6376 68.2292 60.7401 68.0921C60.959 67.7974 61.0753 67.439 61.071 67.0718C61.0762 66.797 61.0204 66.5245 60.9078 66.2739C60.8026 66.0449 60.6461 65.8434 60.4503 65.685C60.259 65.5318 60.0397 65.4173 59.8046 65.3479C59.5696 65.278 59.3261 65.2409 59.081 65.2374H57.7337C57.6138 65.2378 57.499 65.2858 57.4143 65.3708C57.3297 65.4558 57.2822 65.5709 57.2822 65.6909V70.2916C57.2822 70.4116 57.3297 70.5267 57.4143 70.6117C57.499 70.6967 57.6138 70.7446 57.7337 70.745H58.3103C58.4302 70.7446 58.545 70.6967 58.6296 70.6117C58.7143 70.5267 58.7618 70.4116 58.7618 70.2916V68.8679H58.9442L59.7179 70.4874C59.7542 70.5638 59.8112 70.6284 59.8825 70.674C59.9537 70.7195 60.0363 70.7442 60.1209 70.745ZM63.7156 68.5544V68.6206C63.7161 68.7455 63.7018 68.8701 63.6729 68.9916C63.6522 69.084 63.6159 69.1721 63.5656 69.2522C63.5311 69.3066 63.4842 69.352 63.4288 69.3847C63.3703 69.4151 63.3048 69.4294 63.239 69.4259C63.1612 69.432 63.0833 69.4146 63.0155 69.3759C62.977 69.3499 62.9424 69.3187 62.9125 69.2831V67.911C62.9435 67.8732 62.9796 67.84 63.0199 67.8124C63.0836 67.774 63.1575 67.756 63.2317 67.7608C63.2994 67.7572 63.3668 67.7714 63.4273 67.8021C63.4829 67.8344 63.5303 67.8792 63.5656 67.9331C63.6153 68.0107 63.6511 68.0964 63.6715 68.1863C63.7002 68.3064 63.7145 68.4294 63.7141 68.5529L63.7156 68.5544ZM70.0917 69.1432H70.0814L70.1049 69.13L70.0917 69.1432ZM70.1843 69.0961L70.1681 69.105L70.1887 69.0947L70.1843 69.0961ZM70.2299 69.0726L70.2476 69.0637L70.2299 69.0726ZM70.3226 69.027H70.3123L70.3314 69.0181L70.3226 69.027ZM70.4152 68.9813H70.4049H70.4167H70.4152ZM70.4623 68.9592L70.4785 68.9519L70.4623 68.9592ZM70.5564 68.9151H70.5461L70.5638 68.9062L70.5564 68.9151ZM70.7035 68.8488L70.7212 68.84L70.7035 68.8488ZM70.7977 68.8061H70.7859L70.8021 68.7987L70.7977 68.8061ZM70.9447 68.7428H70.9374L70.955 68.7354L70.9447 68.7428ZM71.0403 68.7016H71.0315H71.0433H71.0403ZM71.0889 68.681H71.0977H71.0889ZM71.1845 68.6412H71.1771H71.1904H71.1845ZM58.7795 67.4885V66.6257H59.0854C59.1711 66.6261 59.2564 66.639 59.3384 66.664C59.3923 66.6801 59.4424 66.7072 59.4855 66.7435C59.5214 66.7761 59.5495 66.8164 59.5678 66.8613C59.593 66.927 59.6045 66.9971 59.6017 67.0674C59.6038 67.127 59.5927 67.1863 59.5693 67.2411C59.5486 67.2863 59.5185 67.3264 59.4811 67.3589C59.4354 67.3969 59.383 67.4259 59.3266 67.4443C59.2545 67.4684 59.1791 67.4814 59.103 67.4826L58.7795 67.4885Z" fill="#656CD0"/>
<defs>
<linearGradient id="paint0_linear_69_854" x1="0" y1="0" x2="154" y2="154" gradientUnits="userSpaceOnUse">
<stop stop-color="#589DDB"/>
<stop offset="1" stop-color="#723BC5"/>
</linearGradient>
</defs>
</svg>
