<svg xmlns="http://www.w3.org/2000/svg" width="500" height="500" viewBox="0 0 500 500">
  <g id="CustomerCreditService" transform="translate(0)">
    <g id="KPI-DQ">
      <g id="Group_13" data-name="Group 13" transform="translate(-18 -147)">
        <g id="Software-Dq" transform="translate(18 147)">
          <rect id="Rectangle_2" data-name="Rectangle 2" width="500" height="500" fill="#c8c8c8" opacity="0"/>
        </g>
      </g>
    </g>
    <g id="credit" transform="translate(-0.619 -2)">
      <path id="Path_57" data-name="Path 57" d="M124.788,260.3a130.425,130.425,0,0,1,7.141-18.071,72.219,72.219,0,1,1,40.609-48.8,131.522,131.522,0,0,1,17.132-10.684q.236-3.206.237-6.472A87.631,87.631,0,0,0,21,143.518a7.023,7.023,0,1,1-13.025-5.26,101.678,101.678,0,0,1,195.977,38.015v.078a131.811,131.811,0,0,1,92.122-.226A102.183,102.183,0,1,1,379.837,276.87c-.037-.212-.073-.423-.111-.636A131.434,131.434,0,0,1,166.391,400.5a7.024,7.024,0,0,1,8.978-10.8,117.293,117.293,0,1,0-24.639-28.177,7.024,7.024,0,1,1-11.907,7.453,131.712,131.712,0,0,1-17.915-92.742A101.739,101.739,0,0,1,.619,176.272q0-2.238.1-4.453a7.023,7.023,0,0,1,14.034.606q-.082,1.914-.083,3.846a87.679,87.679,0,0,0,109.9,84.759Zm125.529-63.2A102.272,102.272,0,1,1,148.044,299.369,102.321,102.321,0,0,1,250.316,197.1Zm0,14.047a88.225,88.225,0,1,1-88.225,88.225A88.267,88.267,0,0,1,250.316,211.144Zm35.75,97.441a23.336,23.336,0,1,1-23.336,23.336A23.346,23.346,0,0,1,286.067,308.585Zm-74.174,39.345,90.183-90.183a7.024,7.024,0,1,0-9.933-9.933L201.96,338a7.024,7.024,0,0,0,9.933,9.933Zm6.382-107.137a23.336,23.336,0,1,1-23.337,23.336A23.346,23.346,0,0,1,218.275,240.793ZM120.994,275.75l-.025.147.065-.359Zm.18-.969-.06.32.081-.43Zm.284-1.448-.037.183.09-.443Zm.2-.962-.082.393.11-.526Zm.309-1.438-.045.2.11-.493ZM378.39,269.7l.171.749-.183-.8-.163-.7Zm-256.211.275-.1.437.133-.583Zm.335-1.428-.052.217.124-.518Zm255.3-1.235.015.059c.059.234.116.466.173.7Zm-255.069.285-.113.46.152-.61Zm.362-1.419-.058.221.137-.524Zm.249-.943-.124.466.164-.617Zm282.03-30.256a58.631,58.631,0,0,0,19.255-5.747,7.024,7.024,0,1,1,6.262,12.574,73.253,73.253,0,0,1-61.625,1.625,130.469,130.469,0,0,1,7,18.277,88.235,88.235,0,1,0-66.154-85.437q0,3.1.212,6.146a131.77,131.77,0,0,1,16.685,10.225A73.175,73.175,0,1,1,464.761,207a7.023,7.023,0,0,1-12.743-5.91,58.661,58.661,0,0,0,5.037-17.779H445.3a7.04,7.04,0,0,1,0-14.08h11.757a59.187,59.187,0,0,0-51.668-51.668v11.757a7.04,7.04,0,1,1-14.08,0V117.564a59.187,59.187,0,0,0-51.669,51.668H351.4a7.04,7.04,0,0,1,0,14.08H339.638a58.728,58.728,0,0,0,8.581,24.308,59.562,59.562,0,0,0,17.048,17.651,58.739,58.739,0,0,0,26.04,9.709V223.222a7.04,7.04,0,1,1,14.08,0ZM123.743,263.828l-.062.221.147-.522Zm.266-.936-.133.465.177-.614Zm.413-1.4-.066.22.155-.518ZM102.286,118.016A58.256,58.256,0,1,1,44.03,176.272,58.284,58.284,0,0,1,102.286,118.016Zm17.858,39.766a4.24,4.24,0,0,0-2.474-.792h-5a4.262,4.262,0,0,0-4.261,4.262v44.462a4.261,4.261,0,0,0,4.261,4.262h5.469a4.261,4.261,0,0,0,4.261-4.262v-8.068a18.551,18.551,0,0,0,4.725.576,15.463,15.463,0,0,0,7.361-1.743,15.674,15.674,0,0,0,5.4-4.7,20.219,20.219,0,0,0,3.083-6.545,28.177,28.177,0,0,0,.983-7.566v-.623a29.108,29.108,0,0,0-.98-7.733,19.837,19.837,0,0,0-3.1-6.578,15.47,15.47,0,0,0-5.442-4.645,15.913,15.913,0,0,0-7.389-1.69A16.557,16.557,0,0,0,120.143,157.782Zm271.164-9.687v28.178a7.035,7.035,0,0,0,2.062,4.978L408.515,196.4a7.04,7.04,0,0,0,9.956-9.956l-13.084-13.083V148.094a7.04,7.04,0,1,0-14.08,0ZM96.051,197.628h5.764l.373-.372a4.253,4.253,0,0,0,3.9-3.881l0,0,0,0a4.241,4.241,0,0,0-.424-2.254L98.3,176.246l.2-.147a16.568,16.568,0,0,0,3.414-3.393,15.719,15.719,0,0,0,3.123-9.585,17.431,17.431,0,0,0-1.543-7.5,15.379,15.379,0,0,0-4.321-5.529,17.825,17.825,0,0,0-6.1-3.163,25.272,25.272,0,0,0-6.821-1.04h-12.7a4.262,4.262,0,0,0-4.262,4.261v43.216a4.262,4.262,0,0,0,4.262,4.261H79a4.262,4.262,0,0,0,4.262-4.261V180h1.657l7.294,15.212A4.261,4.261,0,0,0,96.051,197.628Zm33.911-20.585v.623a14.736,14.736,0,0,1-.4,3.48,7.793,7.793,0,0,1-1.009,2.444,3.839,3.839,0,0,1-1.3,1.243,3.492,3.492,0,0,1-1.785.385,3.69,3.69,0,0,1-2.1-.468,4.712,4.712,0,0,1-.967-.868s0-12.9,0-12.9a4.887,4.887,0,0,1,1.009-.925,3.451,3.451,0,0,1,2-.48,3.652,3.652,0,0,1,1.84.384,3.889,3.889,0,0,1,1.31,1.236,7.444,7.444,0,0,1,1,2.385A14.559,14.559,0,0,1,129.962,177.043Zm60.141,5.476-.095.05.229-.118Zm.868-.444-.155.079.2-.1Zm.436-.22-.023.012.161-.081Zm.873-.435-.092.045.181-.089Zm.878-.429-.1.05.116-.057Zm.44-.212-.038.019.155-.074Zm.882-.419-.1.049.17-.079Zm1.331-.616-.058.026.167-.076Zm.891-.4-.113.052.159-.072Zm1.343-.593-.071.032.16-.07Zm.9-.386-.087.037.108-.046Zm.452-.191-.016.006.084-.035Zm.9-.377-.069.028.127-.052Zm1.363-.553-.016.007.057-.022Zm.913-.36-.032.013.05-.02Zm-119.32-9.916v-8.039h2.885a8.286,8.286,0,0,1,2.388.361,3.879,3.879,0,0,1,1.384.745,3.041,3.041,0,0,1,.782,1.1,4.836,4.836,0,0,1,.325,1.932,3.8,3.8,0,0,1-.3,1.636,3.264,3.264,0,0,1-.838,1.109,4.432,4.432,0,0,1-1.463.8,7.031,7.031,0,0,1-2.105.355Z" fill="#fff" fill-rule="evenodd"/>
    </g>
  </g>
</svg>
