<svg id="Delegated" xmlns="http://www.w3.org/2000/svg" width="500" height="500" viewBox="0 0 500 500">
  <path id="delegate" d="M286.816,269.084V256a7.334,7.334,0,0,0-7.334-7.333H231.518A7.334,7.334,0,0,0,224.184,256v13.085a110.627,110.627,0,0,0-21.833,9.03l-9.243-9.243a7.332,7.332,0,0,0-10.37,0l-33.917,33.916a7.333,7.333,0,0,0,0,10.371l9.14,9.14a110.687,110.687,0,0,0-9.175,21.936H135.949a7.333,7.333,0,0,0-7.333,7.333v47.965a7.333,7.333,0,0,0,7.333,7.333h12.632a110.606,110.606,0,0,0,9.132,22.185l-8.892,8.891a7.333,7.333,0,0,0,0,10.371l33.917,33.916a7.332,7.332,0,0,0,10.37,0l8.789-8.788a110.607,110.607,0,0,0,22.287,9.278V495.1a7.334,7.334,0,0,0,7.334,7.334h47.964a7.334,7.334,0,0,0,7.334-7.334V482.719A110.624,110.624,0,0,0,309.1,473.44l8.789,8.789a7.332,7.332,0,0,0,10.37,0l33.917-33.916a7.333,7.333,0,0,0,0-10.371l-8.892-8.891a110.684,110.684,0,0,0,9.132-22.185h12.632a7.333,7.333,0,0,0,7.333-7.333V351.568a7.333,7.333,0,0,0-7.333-7.333H362.214a110.7,110.7,0,0,0-9.176-21.936l9.141-9.14a7.333,7.333,0,0,0,0-10.371l-33.917-33.916a7.332,7.332,0,0,0-10.37,0l-9.243,9.243A110.619,110.619,0,0,0,286.816,269.084Zm-14.667,5.643a7.333,7.333,0,0,0,5.646,7.137,96,96,0,0,1,28.214,11.666,7.332,7.332,0,0,0,9.027-1.061l8.041-8.041,23.545,23.546-7.958,7.958a7.333,7.333,0,0,0-1.042,9.058,96.021,96.021,0,0,1,11.838,28.291,7.333,7.333,0,0,0,7.131,5.621h11.126v33.3h-10.96a7.333,7.333,0,0,0-7.142,5.67,96.073,96.073,0,0,1-11.744,28.541,7.334,7.334,0,0,0,1.062,9.027l7.689,7.69-23.545,23.545-7.607-7.607a7.334,7.334,0,0,0-9.058-1.042A96.012,96.012,0,0,1,277.8,469.94a7.332,7.332,0,0,0-5.646,7.136v10.692h-33.3V477.076a7.332,7.332,0,0,0-5.646-7.136,95.977,95.977,0,0,1-28.616-11.916,7.334,7.334,0,0,0-9.059,1.042l-7.607,7.607-23.545-23.545,7.689-7.69a7.334,7.334,0,0,0,1.062-9.027,95.978,95.978,0,0,1-11.743-28.541,7.335,7.335,0,0,0-7.143-5.67h-10.96V358.9h11.126a7.334,7.334,0,0,0,7.131-5.621,95.991,95.991,0,0,1,11.838-28.291,7.334,7.334,0,0,0-1.042-9.058l-7.958-7.958,23.545-23.546,8.041,8.041a7.332,7.332,0,0,0,9.027,1.061,96.041,96.041,0,0,1,28.214-11.666,7.334,7.334,0,0,0,5.646-7.137V263.333h33.3ZM255.5,424.022a48.139,48.139,0,1,1,37.877-18.453,7.333,7.333,0,1,0,11.537,9.055A62.78,62.78,0,1,0,255.5,438.689a7.333,7.333,0,0,0,0-14.667ZM219.948,174.874a86.811,86.811,0,0,0,24.436,6.941q1.893.252,3.783.419V200.8H182.9a87.425,87.425,0,0,0-111.357-76.69,7.333,7.333,0,1,0,4.049,14.1A72.782,72.782,0,0,1,151.06,255.476,55.438,55.438,0,0,0,128.842,211.9a39.045,39.045,0,1,0-66.953.293,55.433,55.433,0,0,0-21.821,42.784,72.823,72.823,0,0,1,4.247-98.3A7.333,7.333,0,0,0,33.944,146.3,87.445,87.445,0,1,0,182.9,215.471H328.717a87.372,87.372,0,0,0,34.228,62.272l.086.066q2.247,1.707,4.6,3.268l.008.005q.2.137.41.271l.025.016.042.027.055.036.066.043.058.038.221.143.1.063.039.025a86.991,86.991,0,0,0,47.2,13.839,7.334,7.334,0,1,0,0-14.667,72.441,72.441,0,0,1-30.531-6.7l-.016-.007-.174-.081-.055-.026-.118-.055-.055-.026-.058-.027-.085-.041-.1-.05-.029-.014a72.728,72.728,0,0,1-9.832-5.664V256.312a40.8,40.8,0,0,1,17.05-33.19,38.844,38.844,0,0,0,20.877,7.787l.067.005.062,0,.367.021.08.005.1.005.077,0,.242.011.091,0,.1,0,.1,0,.087,0,.236.007.087,0h.1l.07,0h.033l.1,0,.117,0h.928l.094,0h.117l.1,0,.1,0h.1l.066,0h.038l.093,0,.238-.007.086,0,.1,0,.1,0,.091,0,.244-.012.08,0,.1-.006.074,0c.165-.009.329-.02.493-.031h0a38.843,38.843,0,0,0,21.025-7.987,40.81,40.81,0,0,1,17.342,33.4v12.2a72.866,72.866,0,0,1-7.346,4.353l-.044.022c-.268.139-.535.274-.8.408a7.333,7.333,0,1,0,6.551,13.122,87.334,87.334,0,0,0,7.743-4.372l.089-.057.113-.071.008-.005.368-.236.141-.092.058-.037.043-.028.056-.036.047-.031.045-.029.036-.024.028-.018.06-.039.067-.044.19-.125.19-.126.1-.064.093-.062.1-.063q1.939-1.3,3.8-2.7c.019-.014.038-.028.056-.043A87.442,87.442,0,1,0,328.717,200.8H262.833V182.292q3.606-.293,7.153-.879a87.047,87.047,0,0,0,38.183-16.271c.053-.039.1-.08.156-.12a87.053,87.053,0,0,0,31.958-47.277,7.333,7.333,0,1,0-14.167-3.8A72.433,72.433,0,0,1,311.1,142.457a55.436,55.436,0,0,0-22.219-43.585,39.044,39.044,0,1,0-66.953.293,55.431,55.431,0,0,0-21.82,42.769A72.776,72.776,0,1,1,326.443,77.528a7.333,7.333,0,0,0,14.227-3.563A87.449,87.449,0,1,0,219.948,174.874Zm-96.406,100.55a72.622,72.622,0,0,0,12.857-6.907v-12.2a40.81,40.81,0,0,0-17.342-33.4h0A38.843,38.843,0,0,1,98.032,230.9h0c-.164.011-.328.022-.492.031l-.074,0-.1.006-.08,0-.244.012-.09,0-.1,0-.1,0-.086,0-.238.007-.092,0-.1,0h-.105l-.1,0-.1,0h-.117l-.093,0h-.928l-.117,0-.1,0-.1,0h-.1l-.088,0-.235-.007-.088,0-.1,0-.1,0-.091,0-.241-.011-.077,0-.1-.005-.08-.005c-.123-.006-.245-.014-.367-.021l-.063,0-.067-.005a38.847,38.847,0,0,1-20.877-7.787,40.8,40.8,0,0,0-17.049,33.19v11.909a72.622,72.622,0,0,0,68.823,7.2Zm347.6-19.973A72.772,72.772,0,1,0,343.1,206.581a7.384,7.384,0,0,1,0,3.114,72.469,72.469,0,0,0,17.053,45.256,55.43,55.43,0,0,1,21.82-42.76,39.043,39.043,0,1,1,66.953-.293A55.436,55.436,0,0,1,471.141,255.451ZM433.1,208.663a24.376,24.376,0,1,0-35.334.157l.087.088a24.3,24.3,0,0,0,15.828,7.365l.083.006.08,0,.08.005.08,0,.08,0,.08,0,.08,0,.079,0,.08,0,.08,0,.079,0,.08,0,.079,0,.08,0,.08,0h.878l.08,0h.08l.08,0,.081,0,.08,0,.08,0,.081,0,.08,0,.081,0,.081,0,.081,0,.094,0,.078-.005.078-.005a24.31,24.31,0,0,0,16.119-7.529Zm-320.082,0a24.376,24.376,0,1,0-35.334.157l.087.088A24.306,24.306,0,0,0,93.6,216.273l.082.006.08,0,.08.005.08,0,.08,0,.08,0,.08,0,.08,0,.079,0,.08,0,.08,0,.079,0,.08,0,.079,0,.08,0h.878l.08,0h.081l.08,0,.08,0,.08,0,.081,0,.08,0,.081,0,.08,0,.081,0,.082,0,.093,0,.078-.005.079-.005a24.31,24.31,0,0,0,16.118-7.529Zm183.422-53.18v-12.2a40.81,40.81,0,0,0-17.342-33.4h0a38.843,38.843,0,0,1-21.025,7.987h0c-.164.012-.328.022-.493.031l-.074.005-.1,0-.08,0-.244.012-.09,0-.1,0-.1,0-.086,0-.238.008-.092,0-.105,0h-.1l-.1,0-.1,0-.117,0h-1.022l-.116,0-.1,0-.1,0h-.1l-.088,0-.236-.007-.087,0-.1,0-.1,0-.091,0-.242-.01-.076,0-.1,0-.08,0q-.183-.009-.366-.021l-.063,0-.067,0a38.844,38.844,0,0,1-20.877-7.787,40.806,40.806,0,0,0-17.05,33.19s0,11.909,0,11.909a72.662,72.662,0,0,0,81.68.288Zm-41.122-37.512Zm17.741-22.333a24.377,24.377,0,1,0-35.334.156l.087.088a24.305,24.305,0,0,0,15.828,7.365l.083.006.08.005.08,0,.08,0,.08,0,.08,0,.08,0,.079,0,.08,0,.08,0,.079,0,.08,0,.08,0,.079,0,.08,0h.958l.08,0,.081,0,.08,0,.08,0,.08,0,.081,0,.081,0,.08,0,.081,0,.081,0,.094-.005.078,0,.079,0a24.315,24.315,0,0,0,16.118-7.53Z" transform="translate(-5.348 -4.651)" fill="#fff" fill-rule="evenodd"/>
  <rect id="Rectangle_2" data-name="Rectangle 2" width="500" height="500" fill="#c8c8c8" opacity="0"/>
</svg>
