<svg xmlns="http://www.w3.org/2000/svg" width="500" height="500" viewBox="0 0 500 500">
  <g id="FAQ-Dq" transform="translate(0)">
    <g id="faq" transform="translate(0 -3.5)">
      <path id="Path_35" data-name="Path 35" d="M473.432,61.5H78.057A26.748,26.748,0,0,0,51.516,88.391V113.36H26.568A26.747,26.747,0,0,0,0,140.224V341.36a26.761,26.761,0,0,0,26.568,26.891H43.986v67.89A9.9,9.9,0,0,0,49.4,444.99a9.666,9.666,0,0,0,10.238-.962l99.089-75.777H409.076l31.286,23.919a9.666,9.666,0,0,0,10.238.962,9.9,9.9,0,0,0,5.413-8.849V316.391h17.418A26.762,26.762,0,0,0,500,289.5V88.391A26.762,26.762,0,0,0,473.432,61.5Zm7.037,228a7.175,7.175,0,0,1-7.037,7.122H446.248a9.827,9.827,0,0,0-9.766,9.885v57.922L350.4,298.618a9.686,9.686,0,0,0-5.886-2H233.184a9.886,9.886,0,0,0,0,19.77H341.244l41.973,32.09H155.453a9.691,9.691,0,0,0-5.887,2L63.518,416.283V358.364a9.827,9.827,0,0,0-9.766-9.885H26.568a7.087,7.087,0,0,1-7.037-7.121V140.224a7.16,7.16,0,0,1,7.037-7.094H51.516V289.5A26.748,26.748,0,0,0,78.057,316.39h67.433a9.886,9.886,0,0,0,0-19.77H78.057a7.162,7.162,0,0,1-7.01-7.122V88.391a7.161,7.161,0,0,1,7.01-7.121H473.432a7.087,7.087,0,0,1,7.037,7.121Z" transform="translate(0)" fill="#fff"/>
      <path id="Path_36" data-name="Path 36" d="M297.654,201.855q-.141-.375-.31-.736l-30.9-73.275a4.674,4.674,0,0,0-.207-.433,9.988,9.988,0,0,0-18.222.431L216.98,201.413c-.017.041-.034.081-.052.122l-17.183,40.728a10,10,0,1,0,18.428,7.774L232.8,215.365h48.843l14.618,34.67a10,10,0,1,0,18.43-7.77Zm-56.414-6.49,15.991-37.9,15.981,37.9Z" transform="translate(-6.037 -1.058)" fill="#fff"/>
      <path id="Path_37" data-name="Path 37" d="M435.523,222.986a72.89,72.89,0,0,0,12.5-41.226c0-37.384-27.14-67.8-60.5-67.8-33.375,0-60.527,30.413-60.527,67.8,0,37.4,27.152,67.829,60.527,67.829a55.759,55.759,0,0,0,34.312-12.007l18.784,18.642a10,10,0,1,0,14.088-14.2ZM421.029,208.6l-17.39-17.259a10,10,0,0,0-14.088,14.2l17.943,17.809a35.6,35.6,0,0,1-19.968,6.243c-22.347,0-40.527-21.456-40.527-47.829,0-26.355,18.181-47.8,40.527-47.8,22.331,0,40.5,21.441,40.5,47.8A53.763,53.763,0,0,1,421.029,208.6Z" transform="translate(-12)" fill="#fff"/>
      <path id="Path_38" data-name="Path 38" d="M194.838,184.136a10,10,0,0,0-10-10H130.69V141.73h54.147a10,10,0,0,0,0-20H120.69a10,10,0,0,0-10,10v117.4a10,10,0,0,0,20,0V194.136h54.147a10,10,0,0,0,10-10Z" transform="translate(-3.105 -1.071)" fill="#fff"/>
      <path id="Path_39" data-name="Path 39" d="M193.88,299.356a10,10,0,0,0,0,20h.028a10,10,0,0,0-.028-20Z" transform="translate(-4.485 -2.884)" fill="#fff"/>
    </g>
    <rect id="Rectangle_2" data-name="Rectangle 2" width="500" height="500" fill="#c8c8c8" opacity="0"/>
  </g>
</svg>
