<svg width="154" height="154" viewBox="0 0 154 154" fill="none" xmlns="http://www.w3.org/2000/svg">
<rect width="154" height="154" fill="url(#paint0_linear_69_784)"/>
<circle cx="77" cy="77" r="43" fill="white"/>
<rect x="73" y="72" width="30" height="22" rx="5" fill="#BCBBF5"/>
<path fill-rule="evenodd" clip-rule="evenodd" d="M95.4746 96.4637C95.465 96.4637 95.4554 96.4637 95.4459 96.4637H88.5L87.0177 92.2449C86.9638 92.0913 86.8631 91.9581 86.7297 91.8639C86.5963 91.7696 86.4368 91.719 86.2732 91.719C86.1096 91.719 85.9501 91.7696 85.8167 91.8639C85.6833 91.9581 85.5826 92.0913 85.5287 92.2449L84.0464 96.4637H75.6342C74.173 96.463 72.7718 95.8849 71.7386 94.8565C70.7054 93.8282 70.1247 92.4336 70.124 90.9793V90.5266C70.1216 90.32 70.0374 90.1226 69.8898 89.9773C69.7421 89.8321 69.5428 89.7506 69.3352 89.7506C69.1276 89.7506 68.9283 89.8321 68.7806 89.9773C68.633 90.1226 68.5488 90.32 68.5464 90.5266V90.9793C68.5452 91.882 68.7188 92.7764 69.0576 93.6137H67.2782C67.069 93.6137 66.8683 93.6964 66.7204 93.8437C66.5724 93.9909 66.4893 94.1906 66.4893 94.3988C66.4893 94.6071 66.5724 94.8068 66.7204 94.954C66.8683 95.1013 67.069 95.184 67.2782 95.184H69.9439C70.0154 95.2796 70.0892 95.3733 70.1652 95.465V96.3685C70.1652 96.3731 70.1652 96.3778 70.1652 96.3824V101.43H58.0879C57.1996 101.431 56.3242 101.218 55.5373 100.808C55.352 100.711 55.1357 100.691 54.936 100.753C54.7363 100.815 54.5695 100.954 54.4724 101.138C54.3752 101.323 54.3557 101.538 54.418 101.737C54.4804 101.936 54.6195 102.102 54.8048 102.198C55.8175 102.726 56.9441 103.002 58.0874 103H75.1616C75.1723 103 75.1818 103 75.1919 103H89.6853C89.7493 103 89.8131 102.992 89.8753 102.977C90.9381 102.892 91.9677 102.568 92.8864 102.029C93.065 101.923 93.194 101.751 93.2455 101.55C93.2969 101.349 93.2665 101.136 93.1609 100.958C93.0554 100.779 92.8832 100.649 92.6818 100.597C92.4805 100.544 92.2665 100.572 92.0862 100.676C91.5104 101.014 90.8773 101.243 90.2183 101.354L89.0518 98.034H94.3944C94.2571 98.3647 94.0875 98.6813 93.8882 98.9793C93.7742 99.1526 93.7336 99.3637 93.7753 99.5667C93.817 99.7696 93.9376 99.948 94.1109 100.063C94.2841 100.178 94.4959 100.22 94.7002 100.18C94.9044 100.14 95.0846 100.021 95.2013 99.8497C95.5767 99.289 95.8692 98.6775 96.0697 98.034H96.9121C98.7917 98.0331 100.594 97.2895 101.923 95.9667C103.252 94.6439 103.999 92.8501 104 90.9794V78.4407C103.999 76.5701 103.252 74.7763 101.923 73.4535C100.594 72.1307 98.7917 71.3871 96.9121 71.3862H94.4094C94.2017 71.3886 94.0034 71.4724 93.8575 71.6194C93.7115 71.7663 93.6297 71.9646 93.6297 72.1713C93.6297 72.3779 93.7115 72.5763 93.8575 72.7232C94.0034 72.8702 94.2017 72.954 94.4094 72.9564H96.9121C98.3733 72.9571 99.7745 73.5352 100.808 74.5635C101.841 75.5919 102.422 76.9864 102.422 78.4407V90.9793C102.422 92.4336 101.841 93.8282 100.808 94.8565C99.7745 95.8849 98.3733 96.463 96.9121 96.4637H95.4744H95.4746ZM71.7428 97.3166V101.429H74.5181C74.5307 101.303 74.537 101.175 74.5371 101.045C74.534 100.207 74.2609 99.3931 73.7578 98.7219C73.2547 98.0507 72.5484 97.5581 71.7428 97.3167V97.3166ZM75.1909 98.0203C75.7943 98.9146 76.1159 99.9678 76.1147 101.045C76.1147 101.174 76.1102 101.303 76.1012 101.43H82.3012L83.4941 98.034H75.6342C75.4851 98.034 75.3373 98.0294 75.1909 98.0204V98.0203ZM85.3558 97.4935C85.3526 97.5031 85.3493 97.5125 85.3458 97.5218L83.9726 101.43H88.5734L87.2002 97.5221C87.1967 97.5128 87.1935 97.5033 87.1903 97.4938L86.2729 94.8828L85.3555 97.4938L85.3558 97.4935ZM60.7768 78.4971C57.8244 80.0599 55.3549 82.3926 53.6326 85.2454C51.9103 88.0982 51.0003 91.3636 51 94.6917V95.9456C50.9979 97.4488 51.4807 98.913 52.3772 100.123C52.438 100.207 52.5151 100.279 52.604 100.333C52.6929 100.388 52.7918 100.425 52.8949 100.441C52.9981 100.457 53.1035 100.453 53.2049 100.428C53.3064 100.404 53.402 100.359 53.4861 100.298C53.5702 100.236 53.6412 100.158 53.6949 100.069C53.7486 99.98 53.784 99.8812 53.799 99.7783C53.814 99.6754 53.8084 99.5706 53.7824 99.4699C53.7564 99.3692 53.7105 99.2747 53.6475 99.1918C52.951 98.2516 52.576 97.1137 52.5777 95.9456V94.6917C52.5782 91.6482 53.4105 88.6622 54.9856 86.0535C56.5607 83.4448 58.8192 81.3118 61.5191 79.8829C61.7038 79.7849 61.8417 79.618 61.9027 79.4187C61.9636 79.2195 61.9426 79.0044 61.8442 78.8206C61.7457 78.6369 61.578 78.4996 61.3779 78.4389C61.1777 78.3782 60.9616 78.3992 60.7769 78.4971H60.7768ZM60.7156 95.184H64.4229C64.6321 95.184 64.8327 95.1013 64.9807 94.954C65.1286 94.8068 65.2117 94.6071 65.2117 94.3988C65.2117 94.1906 65.1286 93.9909 64.9807 93.8437C64.8327 93.6964 64.6321 93.6137 64.4229 93.6137H60.7156C60.5064 93.6137 60.3057 93.6964 60.1578 93.8437C60.0098 93.9909 59.9267 94.1906 59.9267 94.3988C59.9267 94.6071 60.0098 94.8068 60.1578 94.954C60.3057 95.1013 60.5064 95.184 60.7156 95.184V95.184ZM68.3683 53.7841C65.8956 54.2343 64.1317 55.2662 63.0709 56.8385C62.1077 58.2661 61.713 60.1697 61.9711 62.5758L61.9668 62.5806C61.3544 63.272 61.0206 64.1643 61.0295 65.0859C61.0295 67.0371 62.4436 68.5673 64.1135 68.59V68.9583C64.1124 70.0262 64.3003 71.0859 64.6686 72.0889C64.741 72.2837 64.888 72.4421 65.0775 72.5292C65.267 72.6164 65.4835 72.6252 65.6795 72.5538C65.8755 72.4825 66.0351 72.3367 66.1234 72.1484C66.2116 71.9601 66.2213 71.7447 66.1502 71.5493C65.8455 70.7192 65.6902 69.8421 65.6912 68.9583V67.6741C65.6912 67.6647 65.6912 67.6554 65.6912 67.6459V64.3224C67.2249 64.1046 68.6518 63.4153 69.7725 62.3508C71.1048 63.6075 72.871 64.3071 74.7065 64.3051H80.8608V67.6458C80.8608 67.6553 80.8608 67.6646 80.8608 67.674V68.9581C80.8616 69.7839 80.726 70.6041 80.4594 71.3861H75.6342C74.3037 71.3864 73.0001 71.7592 71.8725 72.4619C70.7448 73.1646 69.8385 74.1689 69.2571 75.36C68.5691 74.9307 67.9543 74.3949 67.4359 73.7729C67.3703 73.6919 67.2892 73.6248 67.1972 73.5753C67.1053 73.5258 67.0044 73.495 66.9005 73.4847C66.7965 73.4743 66.6915 73.4846 66.5915 73.515C66.4916 73.5454 66.3987 73.5952 66.3183 73.6617C66.2379 73.7281 66.1715 73.8097 66.123 73.9019C66.0746 73.994 66.045 74.0948 66.036 74.1985C66.0271 74.3021 66.0389 74.4064 66.0708 74.5055C66.1026 74.6045 66.154 74.6963 66.2218 74.7754C66.7376 75.3942 67.3328 75.9428 67.9922 76.4072C66.4651 76.5238 64.9588 76.8305 63.5085 77.3202C63.4104 77.3534 63.3198 77.4054 63.2419 77.4734C63.164 77.5413 63.1004 77.6239 63.0545 77.7164C63.0087 77.8088 62.9816 77.9094 62.9748 78.0122C62.9681 78.1151 62.9817 78.2183 63.015 78.3159C63.0483 78.4136 63.1006 78.5037 63.1688 78.5812C63.2371 78.6587 63.3201 78.7221 63.413 78.7677C63.5059 78.8133 63.6069 78.8403 63.7103 78.847C63.8136 78.8538 63.9173 78.8402 64.0154 78.8071C65.4839 78.3116 67.0144 78.0212 68.563 77.9441C68.5516 78.1078 68.5458 78.2733 68.5457 78.4406V87.6846C68.5481 87.8912 68.6322 88.0886 68.7799 88.2338C68.9276 88.3791 69.1268 88.4606 69.3345 88.4606C69.5421 88.4606 69.7413 88.3791 69.889 88.2338C70.0367 88.0886 70.1208 87.8912 70.1233 87.6846V78.4407C70.1229 77.8716 70.2118 77.3059 70.3867 76.7641C70.3986 76.7345 70.4087 76.7042 70.4169 76.6734C70.7884 75.5897 71.4911 74.6487 72.4266 73.9822C73.3621 73.3157 74.4837 72.9571 75.6342 72.9565H80.9896C80.9987 72.9565 81.0077 72.9565 81.0168 72.9565H91.5536C91.7613 72.9541 91.9595 72.8703 92.1055 72.7233C92.2515 72.5764 92.3333 72.3781 92.3333 72.1714C92.3333 71.9648 92.2515 71.7664 92.1055 71.6195C91.9595 71.4725 91.7613 71.3887 91.5536 71.3863H82.1095C82.3285 70.5954 82.4392 69.7787 82.4386 68.9583V68.59C84.1085 68.5673 85.5225 67.0371 85.5225 65.0859C85.5315 64.1643 85.1976 63.2719 84.5853 62.5806C84.5553 62.5475 84.5225 62.517 84.4873 62.4895C83.9761 60.8565 83.6176 59.087 83.1454 57.4261C82.5543 55.3476 81.777 53.4374 80.4148 52.0823C80.3416 52.0089 80.2546 51.9507 80.1588 51.9109C80.0629 51.8711 79.9601 51.8505 79.8563 51.8503C79.7524 51.8501 79.6496 51.8704 79.5536 51.9099C79.4576 51.9494 79.3704 52.0073 79.297 52.0804C79.2236 52.1535 79.1654 52.2403 79.1258 52.3359C79.0862 52.4314 79.0659 52.5338 79.0661 52.6372C79.0663 52.7406 79.0871 52.8429 79.1271 52.9382C79.1672 53.0336 79.2258 53.1201 79.2995 53.1929C80.4817 54.3695 81.1141 56.0493 81.6274 57.8538C82.0822 59.4528 82.4357 61.1497 82.9142 62.7349H74.7067C73.5452 62.7343 72.4124 62.3751 71.4646 61.7068C70.5167 61.0386 69.8004 60.0942 69.4145 59.0038C69.3807 58.9058 69.3277 58.8154 69.2587 58.7379C69.1896 58.6603 69.1058 58.5972 69.0121 58.552C68.9184 58.5069 68.8166 58.4806 68.7127 58.4748C68.6087 58.469 68.5046 58.4837 68.4064 58.5181C68.3082 58.5525 68.2178 58.6059 68.1405 58.6753C68.0631 58.7446 68.0003 58.8285 67.9557 58.9221C67.911 59.0158 67.8855 59.1172 67.8804 59.2207C67.8754 59.3242 67.891 59.4277 67.9263 59.5252C68.1298 60.0999 68.4064 60.6463 68.7494 61.1511C67.7181 62.14 66.367 62.7317 64.9377 62.8203C64.9261 62.8197 64.9143 62.8195 64.9026 62.8195C64.8561 62.8195 64.8098 62.8236 64.7641 62.8316C64.3724 62.8516 63.9798 62.8442 63.5891 62.8093C63.2909 60.6576 63.5389 58.9616 64.3811 57.7137C65.0885 56.6649 66.2077 55.9577 67.7045 55.5431C67.64 55.8212 67.5925 56.103 67.5621 56.3868C67.5505 56.4896 67.5594 56.5937 67.5883 56.6931C67.6172 56.7925 67.6656 56.8853 67.7307 56.966C67.7958 57.0467 67.8762 57.1138 67.9674 57.1635C68.0587 57.2131 68.1589 57.2444 68.2622 57.2554C68.3656 57.2663 68.4702 57.2569 68.5699 57.2275C68.6696 57.1981 68.7625 57.1494 68.8432 57.0842C68.9239 57.019 68.9909 56.9385 69.0403 56.8474C69.0896 56.7564 69.1204 56.6565 69.1309 56.5535C69.1948 55.9564 69.3559 55.3736 69.6079 54.8281C69.6102 54.8229 69.6128 54.8175 69.6151 54.8124C70.0658 53.8454 70.7846 53.0266 71.6869 52.4524C72.5892 51.8781 73.6375 51.5723 74.7086 51.5708C75.5474 51.5556 76.3833 51.6723 77.1856 51.9167C77.3823 51.9729 77.5933 51.9507 77.7739 51.855C77.9545 51.7592 78.0907 51.5973 78.1536 51.4035C78.2166 51.2097 78.2014 50.9991 78.1113 50.8162C78.0211 50.6333 77.8631 50.4925 77.6706 50.4234C76.7105 50.1278 75.7095 49.9853 74.7047 50.0012C73.4036 50.0032 72.1273 50.356 71.0116 51.0221C69.8958 51.6883 68.9822 52.6428 68.3679 53.7844L68.3683 53.7841ZM86.2732 80.9503C84.5338 80.9503 82.9988 81.5221 82.0428 82.3665C81.3028 83.0199 80.8906 83.8383 80.8906 84.71C80.8906 85.5818 81.3028 86.4002 82.0428 87.0537C82.9988 87.8979 84.5339 88.4698 86.2732 88.4698C88.0125 88.4698 89.5476 87.898 90.5036 87.0537C91.2436 86.4002 91.6558 85.5817 91.6558 84.71C91.6558 83.8384 91.2436 83.0199 90.5036 82.3665C89.5476 81.5221 88.0125 80.9503 86.2732 80.9503ZM86.2732 82.5205C87.5766 82.5205 88.7402 82.9084 89.4566 83.541C89.8317 83.8722 90.0782 84.2681 90.0782 84.71C90.0782 85.1519 89.8317 85.5474 89.4566 85.8791C88.7403 86.5118 87.5766 86.8995 86.2732 86.8995C84.9698 86.8995 83.8062 86.5117 83.0898 85.8791C82.7147 85.5478 82.4682 85.1519 82.4682 84.71C82.4682 84.2681 82.7147 83.8726 83.0898 83.541C83.8061 82.9083 84.9698 82.5205 86.2732 82.5205ZM83.8125 64.3051H82.4386V67.0193C83.3088 66.9944 83.9448 66.1077 83.9448 65.0857C83.9457 64.8199 83.901 64.5559 83.8125 64.3051V64.3051ZM62.7455 64.2894C62.6531 64.5448 62.6062 64.8143 62.607 65.0858C62.607 66.1079 63.2432 66.9945 64.1134 67.0194V64.4129C63.6697 64.4003 63.2271 64.3616 62.788 64.2968C62.7735 64.2947 62.7592 64.2923 62.7454 64.2895L62.7455 64.2894Z" fill="#656CD0"/>
<defs>
<linearGradient id="paint0_linear_69_784" x1="0" y1="0" x2="154" y2="154" gradientUnits="userSpaceOnUse">
<stop stop-color="#589DDB"/>
<stop offset="1" stop-color="#723BC5"/>
</linearGradient>
</defs>
</svg>
