<svg id="Freelance-DQ" xmlns="http://www.w3.org/2000/svg" width="500" height="500" viewBox="0 0 500 500">
  <path id="Freelance" d="M421.372,440.848c-.09,0-.18,0-.269,0H355.884l-13.918-39.8a7.406,7.406,0,0,0-13.982,0l-13.918,39.8H235.079a51.764,51.764,0,0,1-51.738-51.74v-4.271a7.407,7.407,0,0,0-14.813,0v4.271a66.3,66.3,0,0,0,4.8,24.853H156.62a7.407,7.407,0,1,0,0,14.814h25.03q1.007,1.353,2.078,2.651v8.524c0,.043,0,.088,0,.131V487.7H70.327a51.464,51.464,0,0,1-23.949-5.872A7.406,7.406,0,1,0,39.5,494.948a66.222,66.222,0,0,0,30.823,7.564H230.642c.1,0,.19,0,.284,0H367.013a7.431,7.431,0,0,0,1.784-.218,66.134,66.134,0,0,0,28.273-8.939,7.407,7.407,0,0,0-7.513-12.767,51.376,51.376,0,0,1-17.539,6.392l-10.953-31.318H411.23a51.784,51.784,0,0,1-4.753,8.918,7.407,7.407,0,0,0,12.329,8.212,66.325,66.325,0,0,0,8.154-17.13h7.91a66.584,66.584,0,0,0,66.552-66.553V270.818a66.585,66.585,0,0,0-66.552-66.553h-23.5a7.407,7.407,0,0,0,0,14.813h23.5a51.764,51.764,0,0,1,51.738,51.74v118.29a51.764,51.764,0,0,1-51.738,51.74h-13.5Zm-222.831,8.046v38.8H224.6q.177-1.789.178-3.629A36.87,36.87,0,0,0,198.541,448.895Zm32.376,6.639a51.081,51.081,0,0,1,8.674,28.536q0,1.831-.127,3.629H297.68l11.2-32.036H235.079q-2.1,0-4.162-.128Zm95.444-4.97q-.045.136-.094.267L313.373,487.7h43.2l-12.894-36.867c-.033-.088-.063-.177-.093-.267l-8.614-24.632-8.614,24.632ZM95.575,271.35a173.062,173.062,0,0,0-91.8,152.781V435.96a66.237,66.237,0,0,0,12.931,39.408,7.407,7.407,0,1,0,11.928-8.783A51.476,51.476,0,0,1,18.589,435.96V424.131a158.257,158.257,0,0,1,83.956-139.708,7.407,7.407,0,0,0-6.969-13.073ZM95,428.775H129.81a7.407,7.407,0,0,0,0-14.814H95a7.407,7.407,0,0,0,0,14.814ZM166.856,38.205c-23.218,4.247-39.78,13.982-49.741,28.816-9.044,13.468-12.75,31.426-10.326,54.126l-.041.045a35.229,35.229,0,0,0-8.8,23.635c0,18.408,13.277,32.844,28.957,33.058v3.475a85.8,85.8,0,0,0,5.212,29.534,7.407,7.407,0,0,0,13.912-5.09,71,71,0,0,1-4.31-24.444V169.245c0-.089,0-.177,0-.266V137.624a69.784,69.784,0,0,0,38.322-18.6,67.242,67.242,0,0,0,46.328,18.437h57.786v31.517c0,.089,0,.177,0,.266v12.114a71.057,71.057,0,0,1-3.769,22.906H235.079a66.587,66.587,0,0,0-59.878,37.49,71.715,71.715,0,0,1-17.1-14.973,7.407,7.407,0,1,0-11.4,9.458,86.582,86.582,0,0,0,16.623,15.394,172.019,172.019,0,0,0-42.1,8.614,7.406,7.406,0,1,0,4.76,14.027,157.473,157.473,0,0,1,42.7-8.141q-.161,2.316-.163,4.684v87.208a7.407,7.407,0,0,0,14.813,0V270.818A51.625,51.625,0,0,1,185.808,255a7.332,7.332,0,0,0,.283-.855,51.788,51.788,0,0,1,48.988-35.066h50.285q.128,0,.256,0h98.936a7.407,7.407,0,0,0,0-14.813H295.88a86.01,86.01,0,0,0,3.09-22.906v-3.475c15.679-.214,28.956-14.65,28.956-33.058a35.222,35.222,0,0,0-8.8-23.635,7.361,7.361,0,0,0-.92-.859c-4.8-15.406-8.166-32.1-12.6-47.769-5.55-19.609-12.848-37.63-25.639-50.414a7.407,7.407,0,1,0-10.472,10.478c11.1,11.1,17.038,26.947,21.858,43.971,4.27,15.085,7.59,31.094,12.082,46.049H226.371a52.716,52.716,0,0,1-49.692-35.2,7.407,7.407,0,1,0-13.973,4.919,67.276,67.276,0,0,0,7.728,15.339,56.658,56.658,0,0,1-35.79,15.747c-.109-.005-.22-.007-.33-.007a7.5,7.5,0,0,0-1.3.114,78.453,78.453,0,0,1-11.033-.21c-2.8-20.3-.471-36.3,7.437-48.073,6.642-9.894,17.151-16.566,31.205-20.477a66.883,66.883,0,0,0-1.337,7.959,7.407,7.407,0,1,0,14.73,1.573,52.2,52.2,0,0,1,4.479-16.278c.022-.049.046-.1.068-.148a52.8,52.8,0,0,1,47.825-30.581,74.783,74.783,0,0,1,23.258,3.263A7.407,7.407,0,0,0,254.2,6.5a89.409,89.409,0,0,0-27.848-3.983,67.614,67.614,0,0,0-59.5,35.691ZM334.975,294.493c-16.332,0-30.745,5.395-39.722,13.361-6.948,6.164-10.818,13.885-10.818,22.109s3.87,15.945,10.818,22.11c8.977,7.965,23.391,13.36,39.722,13.36s30.745-5.394,39.722-13.36c6.948-6.165,10.818-13.887,10.818-22.11s-3.87-15.945-10.818-22.109C365.72,299.888,351.306,294.493,334.975,294.493Zm0,14.814c12.238,0,23.164,3.659,29.891,9.627,3.522,3.125,5.836,6.86,5.836,11.029s-2.314,7.9-5.836,11.029c-6.726,5.969-17.653,9.627-29.891,9.627s-23.164-3.659-29.891-9.627c-3.522-3.125-5.836-6.86-5.836-11.029s2.314-7.9,5.836-11.029c6.726-5.969,17.653-9.627,29.891-9.627ZM311.87,137.461h-12.9v25.606c8.171-.235,14.142-8.6,14.142-18.242A22,22,0,0,0,311.87,137.461Zm-197.81-.148a21.974,21.974,0,0,0-1.3,7.513c0,9.643,5.973,18.007,14.144,18.242v-24.59a105.406,105.406,0,0,1-12.445-1.095c-.136-.02-.27-.043-.4-.069Z" transform="translate(-2.775 -2.514)" fill="#fff" fill-rule="evenodd"/>
  <rect id="Rectangle_2" data-name="Rectangle 2" width="500" height="500" fill="#c8c8c8" opacity="0"/>
</svg>
