<svg xmlns="http://www.w3.org/2000/svg" width="500" height="500" viewBox="0 0 500 500">
  <g id="Group_7" data-name="Group 7" transform="translate(-109 -108)">
    <rect id="Rectangle_2" data-name="Rectangle 2" width="500" height="500" transform="translate(109 108)" fill="#c8c8c8" opacity="0"/>
    <g id="sales-funnel_1_" data-name="sales-funnel (1)" transform="translate(108.011 108)">
      <path id="Path_5" data-name="Path 5" d="M433.258,150.169H347.9a106.743,106.743,0,0,0,6.17-69.853,7.323,7.323,0,1,0-14.2,3.582,92.075,92.075,0,0,1-8.3,66.27h-47.1a28.843,28.843,0,0,0,6.395-17.865c0-16.117-14.093-29.581-32.71-32.573V62.906c10.347,2.439,18.064,9.535,18.064,17.648a7.323,7.323,0,0,0,14.646,0c0-16.117-14.093-29.581-32.71-32.573V36.615a7.323,7.323,0,1,0-14.646,0V47.838c-19.1,2.67-33.686,16.319-33.686,32.716S224.4,110.6,243.5,113.269v36.895c-10.834-2.212-19.04-9.494-19.04-17.86a7.323,7.323,0,0,0-14.646,0,28.846,28.846,0,0,0,6.394,17.865H170.174A91.791,91.791,0,0,1,326.9,55a7.323,7.323,0,0,0,12.124-8.217A106.437,106.437,0,0,0,153.841,150.169H68.958a21.994,21.994,0,0,0-21.969,21.969v13.007a22,22,0,0,0,18.422,21.679l53.17,59.839a7.323,7.323,0,0,0,10.948-9.728l-44.267-49.82H416.891l-125.051,139.9H262.347a7.323,7.323,0,0,0,0,14.646h25.438l-.054,42.7a7.323,7.323,0,0,0,7.314,7.333h.009a7.323,7.323,0,0,0,7.323-7.313l.059-47.241L436.792,206.826a22,22,0,0,0,18.436-21.681V172.138a21.994,21.994,0,0,0-21.969-21.969ZM276.212,132.3c0,8.114-7.717,15.209-18.064,17.648v-35.3c10.348,2.439,18.064,9.534,18.064,17.648Zm-51.75-51.75c0-8.367,8.206-15.649,19.04-17.86V98.414C232.669,96.2,224.463,88.921,224.463,80.554ZM440.581,185.145a7.331,7.331,0,0,1-7.323,7.323H68.958a7.331,7.331,0,0,1-7.323-7.323V172.138a7.331,7.331,0,0,1,7.323-7.323h96.92l.045,0c.015,0,.028,0,.043,0H335.774c.015,0,.028,0,.043,0s.03,0,.045,0h97.395a7.331,7.331,0,0,1,7.323,7.323v13.007Z" transform="translate(0)" fill="#fff"/>
      <path id="Path_6" data-name="Path 6" d="M297.255,437.985h-.009a7.323,7.323,0,0,0-7.323,7.313l-.043,34.873c.3,9.254-10.394,15.136-18.309,10.045,0,0-46.581-29-47.151-29.46-7.175-5.842-8.581-7.329-8.581-11.24v-81.09h14.567a7.323,7.323,0,1,0,0-14.646h-18.6l-57.341-64.532a7.323,7.323,0,0,0-10.948,9.728l57.676,64.911v85.629c0,11.213,6.477,16.489,13.977,22.6.925.717,48.706,30.566,48.706,30.566a26.44,26.44,0,0,0,40.649-22.489l.043-34.873a7.322,7.322,0,0,0-7.313-7.333Z" transform="translate(-2.234 -6.766)" fill="#fff"/>
    </g>
  </g>
</svg>
