<svg width="154" height="154" viewBox="0 0 154 154" fill="none" xmlns="http://www.w3.org/2000/svg">
<rect width="154" height="154" fill="url(#paint0_linear_69_432)"/>
<circle cx="77" cy="77" r="43" fill="white"/>
<path d="M76.4319 88.052L62.3457 71.7417H95.7078L80.8802 88.052V102.138L79.3974 102.88L76.4319 101.397V88.052Z" fill="#BCBBF5"/>
<path d="M95.9304 66.3059H86.8307C87.8827 63.9719 88.1147 61.3509 87.4891 58.8684C87.4641 58.769 87.4197 58.6755 87.3585 58.5932C87.2974 58.511 87.2206 58.4416 87.1326 58.389C86.955 58.2827 86.7424 58.2515 86.5416 58.302C86.3408 58.3525 86.1684 58.4807 86.0622 58.6584C85.9559 58.8361 85.9246 59.0487 85.9752 59.2495C86.5737 61.6295 86.2562 64.1475 85.0855 66.3044H80.0679C80.5036 65.7655 80.744 65.095 80.7499 64.4021C80.6713 63.5057 80.278 62.6661 79.6398 62.0318C79.0015 61.3976 78.1593 61.0097 77.2625 60.9368V57.0164C77.7455 57.0745 78.196 57.2899 78.5443 57.6294C78.8927 57.969 79.1196 58.4137 79.1901 58.8951C79.1901 59.1021 79.2723 59.3007 79.4187 59.4471C79.5651 59.5935 79.7637 59.6758 79.9708 59.6758C80.1778 59.6758 80.3764 59.5935 80.5228 59.4471C80.6692 59.3007 80.7514 59.1021 80.7514 58.8951C80.6734 57.998 80.2802 57.1574 79.6416 56.5226C79.0029 55.8877 78.1601 55.4996 77.2625 55.4269V54.217C77.2625 54.0099 77.1802 53.8114 77.0338 53.665C76.8874 53.5186 76.6889 53.4363 76.4818 53.4363C76.2748 53.4363 76.0762 53.5186 75.9298 53.665C75.7834 53.8114 75.7012 54.0099 75.7012 54.217V55.4121C74.7859 55.468 73.9211 55.8502 73.2635 56.4892C72.606 57.1282 72.1993 57.9818 72.1173 58.8951C72.1995 59.8095 72.6073 60.6641 73.2663 61.3033C73.9254 61.9425 74.792 62.3239 75.7086 62.3781V66.3059C74.5535 66.0702 73.6787 65.2947 73.6787 64.405C73.6787 64.198 73.5964 63.9994 73.45 63.853C73.3036 63.7066 73.105 63.6243 72.898 63.6243C72.6909 63.6243 72.4924 63.7066 72.346 63.853C72.1996 63.9994 72.1173 64.198 72.1173 64.405C72.1233 65.098 72.3637 65.7685 72.7994 66.3074H67.8915C66.7326 64.102 66.4585 61.5377 67.125 59.1372C67.7914 56.7367 69.3484 54.6808 71.4783 53.3885C73.6082 52.0963 76.1508 51.665 78.5878 52.1826C81.0247 52.7002 83.1725 54.1278 84.5933 56.1742C84.7093 56.3457 84.8886 56.464 85.0919 56.5032C85.2952 56.5424 85.5057 56.4993 85.6772 56.3833C85.8486 56.2673 85.967 56.0879 86.0062 55.8846C86.0454 55.6814 86.0022 55.4709 85.8862 55.2994C84.2955 52.947 81.8802 51.2769 79.1178 50.619C76.3553 49.9611 73.4465 50.3633 70.9662 51.7462C68.4859 53.129 66.6145 55.3919 65.7218 58.0877C64.8291 60.7835 64.98 63.716 66.1448 66.3059H57.0999C56.4796 66.3063 55.8848 66.5527 55.4459 66.991C55.007 67.4294 54.7598 68.0239 54.7587 68.6442V70.0291C54.7594 70.5841 54.9572 71.1208 55.3167 71.5436C55.6762 71.9664 56.1742 72.2479 56.7218 72.3378L62.3904 78.7136C62.5281 78.8684 62.7215 78.9621 62.9283 78.9742C63.135 78.9863 63.3381 78.9158 63.4929 78.7781C63.6476 78.6405 63.7413 78.447 63.7534 78.2403C63.7655 78.0335 63.695 77.8305 63.5574 77.6757L58.8377 72.3719H94.1852L80.8552 87.2632H77.7103C77.5034 87.2632 77.3051 87.3454 77.1588 87.4917C77.0125 87.6379 76.9304 87.8363 76.9304 88.0432C76.9304 88.25 77.0125 88.4484 77.1588 88.5946C77.3051 88.7409 77.5034 88.8231 77.7103 88.8231H80.4208V93.3692C80.4206 93.4718 80.4406 93.5733 80.4797 93.6681C80.5188 93.7629 80.5762 93.8491 80.6487 93.9217C80.7211 93.9943 80.8072 94.0518 80.9019 94.0911C80.9966 94.1304 81.0981 94.1506 81.2007 94.1506V94.1506C81.4073 94.1506 81.6055 94.0687 81.7517 93.9227C81.8979 93.7768 81.9802 93.5788 81.9806 93.3722V88.3427L96.3041 72.3393C96.852 72.2497 97.3503 71.9684 97.7101 71.5455C98.07 71.1227 98.2679 70.5858 98.2687 70.0306V68.6457C98.2676 68.0254 98.0204 67.4309 97.5815 66.9925C97.1426 66.5542 96.5478 66.3078 95.9275 66.3074L95.9304 66.3059ZM79.1886 64.405C79.1182 64.8864 78.8912 65.3311 78.5429 65.6707C78.1945 66.0102 77.744 66.2256 77.261 66.2837V62.5249C77.7442 62.583 78.1948 62.7986 78.5433 63.1385C78.8917 63.4783 79.1185 63.9234 79.1886 64.405V64.405ZM73.6727 58.8951C73.6727 58.0054 74.5476 57.2285 75.7026 56.9942V60.796C74.5476 60.5602 73.6727 59.7862 73.6727 58.8951ZM96.7118 70.0306C96.7115 70.2373 96.6291 70.4355 96.483 70.5817C96.3368 70.7278 96.1386 70.8101 95.9319 70.8105H57.0955C56.8888 70.8101 56.6906 70.7278 56.5444 70.5817C56.3983 70.4355 56.316 70.2373 56.3156 70.0306V68.6457C56.316 68.439 56.3983 68.2408 56.5444 68.0946C56.6906 67.9485 56.8888 67.8662 57.0955 67.8658H95.9304C96.1372 67.8662 96.3353 67.9485 96.4815 68.0946C96.6277 68.2408 96.71 68.439 96.7104 68.6457V70.0306H96.7118Z" fill="#656CD0"/>
<path d="M81.2555 96.2428C81.0473 96.2428 80.8477 96.3254 80.7004 96.4724C80.553 96.6195 80.47 96.819 80.4697 97.0272V100.768C80.4704 100.997 80.4094 101.223 80.293 101.42C80.1766 101.617 80.0091 101.78 79.8082 101.89C79.6073 102.001 79.3804 102.055 79.1513 102.047C78.9222 102.039 78.6995 101.97 78.5065 101.846C78.5065 101.846 73.5111 98.7323 73.4488 98.6863C72.6792 98.0591 72.528 97.9005 72.528 97.4809V88.783H74.0908C74.1968 88.7876 74.3026 88.7707 74.4019 88.7333C74.5011 88.696 74.5918 88.6389 74.6684 88.5656C74.7451 88.4922 74.806 88.404 74.8477 88.3065C74.8893 88.2089 74.9108 88.104 74.9108 87.9979C74.9108 87.8918 74.8893 87.7868 74.8477 87.6893C74.806 87.5917 74.7451 87.5036 74.6684 87.4303C74.5918 87.3569 74.5011 87.2998 74.4019 87.2624C74.3026 87.2251 74.1968 87.2082 74.0908 87.2128H72.095L65.9445 80.2913C65.8025 80.153 65.6135 80.0736 65.4153 80.0688C65.2172 80.0641 65.0245 80.1344 64.876 80.2656C64.7275 80.3969 64.6341 80.5794 64.6145 80.7766C64.5948 80.9739 64.6505 81.1712 64.7702 81.3292L70.9563 88.2982V97.4824C70.9824 97.9799 71.1335 98.4627 71.3954 98.8864C71.6574 99.3101 72.022 99.661 72.4553 99.9067C72.5547 99.9838 77.6791 103.185 77.6791 103.185C78.1092 103.459 78.6054 103.613 79.1152 103.628C79.6251 103.644 80.1299 103.522 80.5762 103.275C81.0225 103.028 81.394 102.665 81.6513 102.225C81.9087 101.784 82.0424 101.283 82.0384 100.773V97.0316C82.0388 96.9284 82.0189 96.8261 81.9797 96.7306C81.9406 96.6351 81.883 96.5483 81.8104 96.4751C81.7377 96.4018 81.6512 96.3436 81.556 96.3037C81.4608 96.2639 81.3587 96.2432 81.2555 96.2428V96.2428Z" fill="#656CD0"/>
<defs>
<linearGradient id="paint0_linear_69_432" x1="0" y1="0" x2="154" y2="154" gradientUnits="userSpaceOnUse">
<stop stop-color="#589DDB"/>
<stop offset="1" stop-color="#723BC5"/>
</linearGradient>
</defs>
</svg>
