<svg xmlns="http://www.w3.org/2000/svg" width="500" height="500" viewBox="0 0 500 500">
  <g id="KPI-DQ" transform="translate(0)">
    <g id="Group_13" data-name="Group 13" transform="translate(-18 -147)">
      <g id="Software-Dq" transform="translate(18 147)">
        <rect id="Rectangle_2" data-name="Rectangle 2" width="500" height="500" fill="#c8c8c8" opacity="0"/>
      </g>
    </g>
    <g id="statistics" transform="translate(0 19.543)">
      <path id="Path_55" data-name="Path 55" d="M492.675,449.862h-4.707V305.808a7.326,7.326,0,0,0-14.652,0V449.862H394.706V132.472a4.9,4.9,0,0,1,4.9-4.9h68.813a4.9,4.9,0,0,1,4.9,4.9V271.624a7.324,7.324,0,1,0,14.648,0V132.472a19.569,19.569,0,0,0-19.55-19.546H399.6a19.568,19.568,0,0,0-19.546,19.546v317.39H365.291V209.72a19.568,19.568,0,0,0-19.546-19.546H328.43a7.324,7.324,0,0,0,0,14.648h17.315a4.9,4.9,0,0,1,4.9,4.9V449.862H272.034V209.72a4.9,4.9,0,0,1,4.9-4.9h17.315a7.324,7.324,0,1,0,0-14.648H276.932a19.57,19.57,0,0,0-19.546,19.546V449.862H242.618V286.971a19.571,19.571,0,0,0-19.546-19.55H154.259a19.572,19.572,0,0,0-19.55,19.55V449.862H119.942V364.219A19.568,19.568,0,0,0,100.4,344.672H31.582a19.568,19.568,0,0,0-19.546,19.546v85.644H7.324a7.324,7.324,0,1,0,0,14.648H492.676a7.324,7.324,0,1,0,0-14.648Zm-465.992,0V364.219a4.9,4.9,0,0,1,4.9-4.9h68.813a4.9,4.9,0,0,1,4.9,4.9v85.644Zm122.673,0V286.971a4.905,4.905,0,0,1,4.9-4.9h68.813a4.9,4.9,0,0,1,4.9,4.9V449.862Zm0,0" transform="translate(0 -2.647)" fill="#fff"/>
      <path id="Path_56" data-name="Path 56" d="M50.646,271.633a17.368,17.368,0,0,0,24.04,4.917L413.255,52.963l3.632,5.5a11.934,11.934,0,0,0,21.023-2.125L453.6,17.28A11.938,11.938,0,0,0,442.792.9L400.7,0c-.088,0-.172,0-.259,0A11.934,11.934,0,0,0,390.5,18.5l3.632,5.5L55.563,247.592a17.335,17.335,0,0,0-4.917,24.04Zm12.989-11.818L408.311,32.192a7.329,7.329,0,0,0,2.079-10.147l-4.81-7.286,32.963.71L426.252,46.062l-4.81-7.282A7.33,7.33,0,0,0,411.291,36.7L66.614,264.327a2.7,2.7,0,0,1-2.979-4.513Zm0,0" transform="translate(-1.12 0)" fill="#fff"/>
    </g>
  </g>
</svg>
