<svg width="154" height="154" viewBox="0 0 154 154" fill="none" xmlns="http://www.w3.org/2000/svg">
<rect width="154" height="154" fill="url(#paint0_linear_69_864)"/>
<circle cx="77" cy="77" r="43" fill="white"/>
<rect x="81" y="74" width="6" height="27" rx="1" fill="#BCBBF5"/>
<rect x="94" y="66" width="6" height="35" rx="1" fill="#BCBBF5"/>
<path d="M101.182 100.457H100.693V85.4938C100.693 85.2919 100.613 85.0983 100.47 84.9556C100.327 84.8128 100.134 84.7326 99.9319 84.7326C99.73 84.7326 99.5364 84.8128 99.3937 84.9556C99.2509 85.0983 99.1707 85.2919 99.1707 85.4938V100.457H91.0043V67.4797C91.0043 67.3446 91.058 67.215 91.1535 67.1195C91.2491 67.0239 91.3786 66.9703 91.5137 66.9703H98.6628C98.7979 66.9703 98.9275 67.0239 99.023 67.1195C99.1186 67.215 99.1722 67.3446 99.1722 67.4797V81.9354C99.1722 82.1373 99.2524 82.3309 99.3952 82.4736C99.5379 82.6164 99.7315 82.6966 99.9334 82.6966C100.135 82.6966 100.329 82.6164 100.472 82.4736C100.614 82.3309 100.694 82.1373 100.694 81.9354V67.4797C100.694 66.9412 100.479 66.4251 100.098 66.0444C99.7176 65.6638 99.2013 65.4499 98.6628 65.4495H91.5167C90.9785 65.4502 90.4625 65.6644 90.082 66.045C89.7014 66.4255 89.4872 66.9415 89.4865 67.4797V100.457H87.9495V75.5121C87.9487 74.9739 87.7345 74.458 87.354 74.0774C86.9734 73.6968 86.4575 73.4827 85.9193 73.4819H84.1187C83.9169 73.4819 83.7233 73.5621 83.5805 73.7048C83.4378 73.8476 83.3576 74.0412 83.3576 74.243C83.3576 74.4449 83.4378 74.6385 83.5805 74.7813C83.7233 74.924 83.9169 75.0042 84.1187 75.0042H85.9222C86.0573 75.0042 86.1869 75.0579 86.2824 75.1534C86.3779 75.2489 86.4316 75.3785 86.4316 75.5136V100.457H78.2667V75.5121C78.2667 75.377 78.3203 75.2474 78.4159 75.1519C78.5114 75.0564 78.641 75.0027 78.7761 75.0027H80.5751C80.777 75.0027 80.9706 74.9225 81.1133 74.7798C81.2561 74.637 81.3362 74.4434 81.3362 74.2416C81.3362 74.0397 81.2561 73.8461 81.1133 73.7034C80.9706 73.5606 80.777 73.4804 80.5751 73.4804H78.7702C78.232 73.4812 77.716 73.6954 77.3355 74.0759C76.9549 74.4565 76.7408 74.9724 76.74 75.5106V100.457H75.2044V83.5372C75.2041 82.9987 74.9901 82.4824 74.6095 82.1015C74.2289 81.7206 73.7127 81.5063 73.1743 81.5055H66.0251C65.4864 81.5059 64.9699 81.7201 64.589 82.101C64.208 82.4819 63.9939 82.9985 63.9935 83.5372V100.457H62.4609V91.5608C62.4601 91.0226 62.246 90.5067 61.8654 90.1261C61.4848 89.7455 60.9689 89.5314 60.4307 89.5306H53.2816C52.7431 89.5314 52.227 89.7457 51.8464 90.1266C51.4658 90.5075 51.2518 91.0238 51.2514 91.5623V100.457H50.7611C50.5593 100.457 50.3657 100.538 50.2229 100.68C50.0802 100.823 50 101.017 50 101.219C50 101.42 50.0802 101.614 50.2229 101.757C50.3657 101.9 50.5593 101.98 50.7611 101.98H101.182C101.384 101.98 101.577 101.9 101.72 101.757C101.863 101.614 101.943 101.42 101.943 101.219C101.943 101.017 101.863 100.823 101.72 100.68C101.577 100.538 101.384 100.457 101.182 100.457ZM52.7722 100.457V91.5608C52.7722 91.4257 52.8259 91.2961 52.9214 91.2006C53.0169 91.1051 53.1465 91.0514 53.2816 91.0514H60.4292C60.5643 91.0514 60.6939 91.1051 60.7894 91.2006C60.8849 91.2961 60.9386 91.4257 60.9386 91.5608V100.457H52.7722ZM65.5157 100.457V83.5372C65.5157 83.4021 65.5694 83.2725 65.6649 83.177C65.7605 83.0815 65.89 83.0278 66.0251 83.0278H73.1743C73.3093 83.0278 73.4389 83.0815 73.5344 83.177C73.63 83.2725 73.6836 83.4021 73.6836 83.5372V100.457H65.5157Z" fill="#656CD0"/>
<path d="M55.1453 82.2181C55.276 82.4161 55.4444 82.5864 55.6409 82.7193C55.8375 82.8521 56.0583 82.9449 56.2908 82.9924C56.5232 83.0398 56.7627 83.041 56.9956 82.9958C57.2285 82.9506 57.4502 82.8599 57.6481 82.7289L92.815 59.5017L93.1919 60.0729C93.3166 60.2613 93.4905 60.412 93.6946 60.5088C93.8988 60.6055 94.1255 60.6446 94.3503 60.6219C94.575 60.5992 94.7893 60.5154 94.97 60.3798C95.1506 60.2441 95.2908 60.0616 95.3752 59.8521L97.002 55.7946C97.0764 55.609 97.1048 55.4082 97.0848 55.2092C97.0647 55.0102 96.9969 54.8191 96.887 54.652C96.777 54.485 96.6283 54.347 96.4535 54.2499C96.2787 54.1527 96.083 54.0993 95.8831 54.0942L91.5106 54H91.4841C91.2606 54.0007 91.0413 54.0618 90.8497 54.177C90.658 54.2921 90.501 54.4569 90.3954 54.654C90.2898 54.8511 90.2394 55.073 90.2497 55.2964C90.2599 55.5197 90.3304 55.7362 90.4536 55.9227L90.8305 56.4939L55.6547 79.7212C55.4571 79.8516 55.2872 80.0196 55.1547 80.2157C55.0222 80.4118 54.9296 80.6321 54.8823 80.864C54.835 81.0959 54.8338 81.3349 54.879 81.5672C54.9241 81.7996 55.0146 82.0207 55.1453 82.2181V82.2181ZM56.4953 80.9903L92.3012 57.3434C92.4697 57.2323 92.5871 57.0588 92.6277 56.8612C92.6682 56.6635 92.6287 56.4578 92.5176 56.2893L92.0186 55.5326L95.443 55.6062L94.1651 58.7847L93.666 58.028C93.5549 57.8596 93.3814 57.7422 93.1837 57.7016C92.9861 57.661 92.7804 57.7006 92.6119 57.8116L56.8104 81.4599C56.7484 81.4949 56.6754 81.5051 56.6062 81.4884C56.537 81.4718 56.4766 81.4294 56.4374 81.37C56.3982 81.3106 56.3829 81.2385 56.3948 81.1683C56.4066 81.0981 56.4446 81.035 56.5012 80.9917L56.4953 80.9903Z" fill="#656CD0"/>
<defs>
<linearGradient id="paint0_linear_69_864" x1="0" y1="0" x2="154" y2="154" gradientUnits="userSpaceOnUse">
<stop stop-color="#589DDB"/>
<stop offset="1" stop-color="#723BC5"/>
</linearGradient>
</defs>
</svg>
