<svg width="154" height="154" viewBox="0 0 154 154" fill="none" xmlns="http://www.w3.org/2000/svg">
<rect width="154" height="154" fill="url(#paint0_linear_69_682)"/>
<circle cx="77" cy="77" r="43" fill="white"/>
<path d="M62.5002 53.0043C62.5002 51.8997 63.3957 51 64.5002 51H92.5002C93.6048 51 94.5002 51.8954 94.5002 53V87C94.5002 88.1046 93.6048 89 92.5002 89H64.5002C63.3957 89 62.5002 88.1003 62.5002 86.9957C62.5002 74.0374 62.5002 65.9626 62.5002 53.0043Z" fill="#BCBBF5"/>
<path d="M73.5002 86.5L65.0002 79.5L60.5002 75.5L60.0002 92.5H95.0002V79L82.5002 89L76.5002 85L73.5002 86.5Z" fill="white"/>
<path d="M58.816 57.4522C59.0242 57.4522 59.2239 57.37 59.3711 57.2237C59.5183 57.0774 59.601 56.8789 59.601 56.672V53.0401C59.6014 52.6677 59.7504 52.3107 60.0153 52.0474C60.2802 51.7841 60.6393 51.636 61.014 51.6356H92.7097C93.0844 51.636 93.4435 51.7841 93.7084 52.0474C93.9733 52.3107 94.1223 52.6677 94.1227 53.0401V65.355C94.1227 65.5619 94.2054 65.7604 94.3526 65.9067C94.4998 66.053 94.6995 66.1353 94.9077 66.1353C95.1159 66.1353 95.3156 66.053 95.4628 65.9067C95.61 65.7604 95.6927 65.5619 95.6927 65.355V53.0401C95.6919 52.2548 95.378 51.502 94.8196 50.9464C94.2613 50.3909 93.5042 50.0781 92.7142 50.0765H61.0184C60.6265 50.0762 60.2383 50.1525 59.8761 50.3012C59.5139 50.4499 59.1846 50.6681 58.9072 50.9433C58.6298 51.2185 58.4097 51.5453 58.2593 51.9051C58.109 52.2648 58.0314 52.6505 58.031 53.0401V56.672C58.031 56.8789 58.1137 57.0774 58.2609 57.2237C58.4081 57.37 58.6078 57.4522 58.816 57.4522V57.4522Z" fill="#656CD0"/>
<path d="M100.756 76.2346C100.759 76.1177 100.734 76.0018 100.683 75.8967C100.631 75.7917 100.555 75.7005 100.46 75.631L95.6925 71.8253V68.9737C95.6925 68.7667 95.6098 68.5683 95.4626 68.422C95.3153 68.2756 95.1157 68.1934 94.9075 68.1934C94.6993 68.1934 94.4996 68.2756 94.3524 68.422C94.2052 68.5683 94.1225 68.7667 94.1225 68.9737V78.7932L82.9534 88.1962L80.0727 85.77C79.1765 85.0115 78.0379 84.595 76.8609 84.595C75.6839 84.595 74.5453 85.0115 73.6491 85.77L70.7683 88.1962L59.5948 78.7991V60.2966C59.5948 60.0896 59.5121 59.8912 59.3649 59.7448C59.2177 59.5985 59.018 59.5163 58.8098 59.5163C58.6017 59.5163 58.402 59.5985 58.2548 59.7448C58.1076 59.8912 58.0249 60.0896 58.0249 60.2966V71.8253L53.2572 75.631C53.1653 75.7039 53.091 75.7964 53.0397 75.9016C52.9884 76.0068 52.9615 76.1221 52.9609 76.239V87.8428C52.9609 88.0498 53.0436 88.2482 53.1909 88.3946C53.3381 88.5409 53.5377 88.6231 53.7459 88.6231C53.9541 88.6231 54.1538 88.5409 54.301 88.3946C54.4482 88.2482 54.5309 88.0498 54.5309 87.8428V77.1061C55.0894 77.2314 55.6092 77.489 56.0461 77.8569L69.5479 89.2237L54.7368 101.699C54.6764 101.663 54.6264 101.612 54.5916 101.55C54.5569 101.489 54.5385 101.42 54.5383 101.35V91.4276C54.5383 91.2207 54.4556 91.0222 54.3084 90.8759C54.1612 90.7296 53.9615 90.6474 53.7533 90.6474C53.5451 90.6474 53.3455 90.7296 53.1983 90.8759C53.051 91.0222 52.9683 91.2207 52.9683 91.4276V101.35C52.9691 101.872 53.1782 102.373 53.5496 102.742C53.9211 103.111 54.4247 103.319 54.9501 103.32H98.7747C99.3 103.319 99.8036 103.111 100.175 102.742C100.547 102.373 100.756 101.872 100.756 101.35V76.239C100.756 76.239 100.756 76.236 100.756 76.2346ZM55.5707 75.7929L58.0323 73.8275V77.4786L57.0695 76.6674C56.6233 76.2926 56.1158 75.9963 55.5692 75.7914L55.5707 75.7929ZM95.6954 73.8319L98.157 75.7973C97.6109 76.0023 97.104 76.2986 96.6582 76.6733L95.6954 77.4845V73.8319ZM74.6637 86.9728C75.2769 86.4537 76.0561 86.1686 76.8616 86.1686C77.6671 86.1686 78.4463 86.4537 79.0596 86.9728L87.8322 94.3588C87.9919 94.4836 88.1941 94.5421 88.3963 94.5218C88.5985 94.5015 88.7849 94.4041 88.9163 94.2501C89.0477 94.096 89.1139 93.8973 89.1009 93.6957C89.088 93.4941 88.9969 93.3054 88.8468 93.1692L84.1694 89.2311L97.6712 77.8643C98.1081 77.4964 98.6279 77.2388 99.1864 77.1135V101.358C99.1862 101.428 99.1678 101.497 99.1331 101.558C99.0983 101.619 99.0483 101.67 98.9879 101.706L91.6416 95.5233C91.4819 95.3984 91.2797 95.3399 91.0775 95.3602C90.8753 95.3805 90.6889 95.4779 90.5575 95.632C90.4261 95.786 90.36 95.9848 90.3729 96.1863C90.3859 96.3879 90.477 96.5766 90.6271 96.7128L96.633 101.768H57.0918L74.6637 86.9728Z" fill="#656CD0"/>
<path d="M83.22 57.9808C83.4282 57.9808 83.6279 57.8986 83.7751 57.7523C83.9223 57.606 84.0051 57.4075 84.0051 57.2006C84.0051 56.9936 83.9223 56.7952 83.7751 56.6488C83.6279 56.5025 83.4282 56.4203 83.22 56.4203H70.5047C70.2965 56.4203 70.0968 56.5025 69.9496 56.6488C69.8024 56.7952 69.7197 56.9936 69.7197 57.2006C69.7197 57.4075 69.8024 57.606 69.9496 57.7523C70.0968 57.8986 70.2965 57.9808 70.5047 57.9808H83.22Z" fill="#656CD0"/>
<path d="M89.9858 62.9612H65.4334C65.2252 62.9612 65.0256 63.0434 64.8783 63.1897C64.7311 63.336 64.6484 63.5345 64.6484 63.7415C64.6484 63.9484 64.7311 64.1469 64.8783 64.2932C65.0256 64.4395 65.2252 64.5217 65.4334 64.5217H89.9858C90.194 64.5217 90.3937 64.4395 90.5409 64.2932C90.6881 64.1469 90.7708 63.9484 90.7708 63.7415C90.7708 63.5345 90.6881 63.336 90.5409 63.1897C90.3937 63.0434 90.194 62.9612 89.9858 62.9612Z" fill="#656CD0"/>
<path d="M89.9857 66.0808H63.7345C63.5263 66.0808 63.3266 66.163 63.1794 66.3094C63.0322 66.4557 62.9495 66.6541 62.9495 66.8611C62.9495 67.068 63.0322 67.2665 63.1794 67.4128C63.3266 67.5591 63.5263 67.6413 63.7345 67.6413H89.9798C90.1879 67.6413 90.3876 67.5591 90.5348 67.4128C90.682 67.2665 90.7647 67.068 90.7647 66.8611C90.7647 66.6541 90.682 66.4557 90.5348 66.3094C90.3876 66.163 90.1879 66.0808 89.9798 66.0808H89.9857Z" fill="#656CD0"/>
<path d="M89.0777 69.9806C89.0777 69.7737 88.995 69.5753 88.8478 69.4289C88.7006 69.2826 88.5009 69.2004 88.2928 69.2004H63.7344C63.5263 69.2004 63.3266 69.2826 63.1794 69.4289C63.0322 69.5753 62.9495 69.7737 62.9495 69.9806C62.9495 70.1876 63.0322 70.386 63.1794 70.5324C63.3266 70.6787 63.5263 70.7609 63.7344 70.7609H88.2868C88.3904 70.7617 88.4931 70.7421 88.5891 70.7032C88.685 70.6644 88.7722 70.607 88.8457 70.5345C88.9193 70.4619 88.9776 70.3757 89.0174 70.2806C89.0572 70.1855 89.0777 70.0836 89.0777 69.9806V69.9806Z" fill="#656CD0"/>
<path d="M89.9856 72.3199H71.2332C71.025 72.3199 70.8254 72.4022 70.6782 72.5485C70.531 72.6948 70.4482 72.8933 70.4482 73.1002C70.4482 73.3071 70.531 73.5056 70.6782 73.6519C70.8254 73.7983 71.025 73.8805 71.2332 73.8805H89.9856C90.1938 73.8805 90.3934 73.7983 90.5406 73.6519C90.6879 73.5056 90.7706 73.3071 90.7706 73.1002C90.7706 72.8933 90.6879 72.6948 90.5406 72.5485C90.3934 72.4022 90.1938 72.3199 89.9856 72.3199Z" fill="#656CD0"/>
<path d="M63.7345 72.3199C63.5263 72.3199 63.3266 72.4022 63.1794 72.5485C63.0322 72.6948 62.9495 72.8933 62.9495 73.1002C62.9495 73.3071 63.0322 73.5056 63.1794 73.6519C63.3266 73.7983 63.5263 73.8805 63.7345 73.8805H68.0889C68.2971 73.8805 68.4968 73.7983 68.644 73.6519C68.7912 73.5056 68.8739 73.3071 68.8739 73.1002C68.8739 72.8933 68.7912 72.6948 68.644 72.5485C68.4968 72.4022 68.2971 72.3199 68.0889 72.3199H63.7345Z" fill="#656CD0"/>
<path d="M89.986 77.324H83.2232C83.015 77.324 82.8154 77.4062 82.6682 77.5525C82.521 77.6989 82.4382 77.8973 82.4382 78.1042C82.4382 78.3112 82.521 78.5097 82.6682 78.656C82.8154 78.8023 83.015 78.8845 83.2232 78.8845H89.9875C90.1957 78.8845 90.3953 78.8023 90.5425 78.656C90.6897 78.5097 90.7725 78.3112 90.7725 78.1042C90.7725 77.8973 90.6897 77.6989 90.5425 77.5525C90.3953 77.4062 90.1957 77.324 89.9875 77.324H89.986Z" fill="#656CD0"/>
<defs>
<linearGradient id="paint0_linear_69_682" x1="0" y1="0" x2="154" y2="154" gradientUnits="userSpaceOnUse">
<stop stop-color="#589DDB"/>
<stop offset="1" stop-color="#723BC5"/>
</linearGradient>
</defs>
</svg>
