<svg id="Letter-DQ" xmlns="http://www.w3.org/2000/svg" width="500" height="500" viewBox="0 0 500 500">
  <g id="Group_13" data-name="Group 13" transform="translate(-18 -147)">
    <g id="Software-Dq" transform="translate(18 147)">
      <rect id="Rectangle_2" data-name="Rectangle 2" width="500" height="500" fill="#c8c8c8" opacity="0"/>
    </g>
  </g>
  <g id="mail" transform="translate(-0.627 0)">
    <path id="Path_41" data-name="Path 41" d="M83.324,69.264a7.323,7.323,0,0,0,7.324-7.324V27.832a13.2,13.2,0,0,1,13.184-13.184h295.9a13.2,13.2,0,0,1,13.184,13.184v115.64a7.324,7.324,0,1,0,14.648,0V27.832A27.864,27.864,0,0,0,399.731,0h-295.9A27.864,27.864,0,0,0,76,27.832V61.94a7.324,7.324,0,0,0,7.324,7.324Z" transform="translate(-1.134)" fill="#fff"/>
    <path id="Path_42" data-name="Path 42" d="M473.667,247.771c-.35-1.943.3-2.552-2.736-5.668l-44.5-35.74V179.633a7.324,7.324,0,1,0-14.648,0v92.214l-104.257,88.3-26.9-22.78a46.243,46.243,0,0,0-59.961,0l-26.9,22.78-104.257-88.3V98.1a7.324,7.324,0,0,0-14.648,0V206.363l-44.5,35.74a7.349,7.349,0,0,0-2.738,5.711V356.786a7.324,7.324,0,1,0,14.648,0V255.959a33.24,33.24,0,0,1,14.137,7.047L182.44,369.75,44.124,486.9a3.843,3.843,0,0,1-1.849-3.274V390.447a7.324,7.324,0,0,0-14.648,0v93.181a18.52,18.52,0,0,0,18.5,18.5H455.17a18.52,18.52,0,0,0,18.5-18.5V247.814c0-.015,0-.028,0-.043ZM51.893,243.6l22.974-18.451v34.288l-8.987-7.612A47.875,47.875,0,0,0,51.893,243.6ZM426.43,225.151,449.4,243.6a47.848,47.848,0,0,0-13.987,8.226l-8.986,7.612Zm-196.294,123.4a31.639,31.639,0,0,1,41.025,0l81.889,69.359a7.324,7.324,0,1,0,9.468-11.177l-43.662-36.982L444.883,263.007a33.235,33.235,0,0,1,14.138-7.048V483.628a3.842,3.842,0,0,1-1.849,3.274L388.6,428.824A7.324,7.324,0,0,0,379.134,440L435.19,487.48H66.106Z" transform="translate(0 -2.127)" fill="#fff"/>
    <path id="Path_43" data-name="Path 43" d="M313.745,75.648a7.324,7.324,0,0,0,0-14.648H195.055a7.324,7.324,0,1,0,0,14.648Z" transform="translate(-3.752 -1.43)" fill="#fff"/>
    <path id="Path_44" data-name="Path 44" d="M375.75,123.894H146.574a7.324,7.324,0,0,0,0,14.648H375.75a7.324,7.324,0,0,0,0-14.648Z" transform="translate(-2.616 -2.904)" fill="#fff"/>
    <path id="Path_45" data-name="Path 45" d="M375.371,153.894H130.4a7.324,7.324,0,1,0,0,14.648H375.371a7.324,7.324,0,0,0,0-14.648Z" transform="translate(-2.237 -3.607)" fill="#fff"/>
    <path id="Path_46" data-name="Path 46" d="M366.9,191.218a7.323,7.323,0,0,0-7.324-7.324H130.4a7.324,7.324,0,1,0,0,14.648H359.574A7.324,7.324,0,0,0,366.9,191.218Z" transform="translate(-2.237 -4.31)" fill="#fff"/>
    <path id="Path_47" data-name="Path 47" d="M377.05,213.894H202.015a7.324,7.324,0,0,0,0,14.648H377.049a7.324,7.324,0,0,0,0-14.648Z" transform="translate(-3.915 -5.013)" fill="#fff"/>
    <path id="Path_48" data-name="Path 48" d="M130.4,213.894a7.324,7.324,0,1,0,0,14.648H171.04a7.324,7.324,0,0,0,0-14.648Z" transform="translate(-2.237 -5.013)" fill="#fff"/>
    <path id="Path_49" data-name="Path 49" d="M379.735,262.011H316.593a7.324,7.324,0,1,0,0,14.648h63.142a7.324,7.324,0,1,0,0-14.648Z" transform="translate(-6.6 -6.14)" fill="#fff"/>
  </g>
</svg>
