<svg width="494" height="494" viewBox="0 0 494 494" fill="none" xmlns="http://www.w3.org/2000/svg">
<g clip-path="url(#clip0_21_2)">
<path fill-rule="evenodd" clip-rule="evenodd" d="M477.819 227.381H16.1815V193.894C16.1815 182.833 23.8218 173.542 34.1096 171.02C38.0063 170.065 40.3939 166.127 39.4394 162.23C38.4836 158.333 34.5457 155.946 30.649 156.9C14.0087 160.98 1.64453 176.004 1.64453 193.894V418.65C1.64453 439.669 18.7107 456.735 39.7301 456.735H411.347C415.358 456.735 418.615 453.478 418.615 449.467C418.615 445.455 415.358 442.198 411.347 442.198H39.7301C26.733 442.198 16.1815 431.647 16.1815 418.65V296.891H477.819V418.65C477.819 431.647 467.268 442.198 454.271 442.198H437.657C433.645 442.198 430.389 445.455 430.389 449.467C430.389 453.478 433.645 456.735 437.657 456.735H454.271C475.29 456.735 492.356 439.669 492.356 418.65V193.894C492.356 172.874 475.29 155.808 454.271 155.808H394.251C390.239 155.808 386.983 159.065 386.983 163.077C386.983 167.088 390.239 170.345 394.251 170.345H454.271C467.268 170.345 477.819 180.897 477.819 193.894V227.381ZM429.331 397.72C411.017 411.246 384.408 418.427 361.529 418.427C329.465 418.427 300.574 406.571 278.753 386.865C277.028 385.306 278.586 383.191 280.645 384.416C304.248 398.109 333.362 406.404 363.478 406.404C383.796 406.404 406.119 402.173 426.659 393.489C429.721 392.097 432.338 395.493 429.331 397.72ZM436.958 389.035C434.62 386.03 421.483 387.588 415.526 388.312C413.745 388.535 413.467 386.976 415.08 385.806C425.545 378.459 442.747 380.574 444.751 383.024C446.755 385.528 444.194 402.73 434.398 410.968C432.894 412.248 431.446 411.58 432.114 409.911C434.341 404.399 439.295 391.986 436.958 389.035ZM57.7431 403.445H63.4846C67.4958 403.445 70.7531 400.188 70.7531 396.176C70.7531 392.164 67.4958 388.908 63.4846 388.908H57.7431C53.7307 388.908 50.4746 392.164 50.4746 396.176C50.4746 400.188 53.7307 403.445 57.7431 403.445ZM89.7952 403.445H121.847C125.859 403.445 129.116 400.188 129.116 396.176C129.116 392.164 125.859 388.908 121.847 388.908H89.7952C85.7828 388.908 82.5267 392.164 82.5267 396.176C82.5267 400.188 85.7828 403.445 89.7952 403.445ZM418.811 370.666C415.916 370.666 413.02 370.331 410.238 369.664C407.454 368.995 405.284 368.272 403.836 367.436C402.945 366.935 402.333 366.379 402.11 365.878C401.887 365.377 401.777 364.82 401.777 364.32V361.479C401.777 360.311 402.222 359.754 403.057 359.754C403.39 359.754 403.724 359.809 404.059 359.921C404.392 360.033 404.894 360.256 405.45 360.478C407.343 361.313 409.403 361.981 411.573 362.426C413.8 362.873 415.972 363.095 418.198 363.095C421.705 363.095 424.433 362.483 426.325 361.257C428.217 360.033 429.22 358.252 429.22 355.969C429.22 354.41 428.719 353.13 427.717 352.073C426.715 351.015 424.822 350.068 422.095 349.178L414.023 346.673C409.959 345.392 406.953 343.5 405.116 340.995C403.279 338.546 402.333 335.818 402.333 332.924C402.333 330.585 402.834 328.525 403.836 326.745C404.839 324.963 406.174 323.404 407.844 322.179C409.514 320.899 411.407 319.952 413.633 319.285C415.86 318.617 418.198 318.339 420.648 318.339C421.873 318.339 423.153 318.395 424.377 318.562C425.657 318.728 426.827 318.952 427.995 319.174C429.109 319.452 430.166 319.73 431.169 320.064C432.171 320.399 432.95 320.732 433.506 321.066C434.286 321.512 434.843 321.957 435.176 322.458C435.51 322.904 435.678 323.516 435.678 324.296V326.911C435.678 328.08 435.232 328.693 434.398 328.693C433.951 328.693 433.228 328.47 432.281 328.025C429.109 326.578 425.545 325.853 421.593 325.853C418.421 325.853 415.916 326.355 414.19 327.413C412.465 328.47 411.573 330.085 411.573 332.367C411.573 333.926 412.13 335.261 413.243 336.319C414.357 337.376 416.417 338.435 419.367 339.381L427.272 341.885C431.279 343.167 434.175 344.947 435.9 347.229C437.625 349.513 438.46 352.128 438.46 355.023C438.46 357.417 437.96 359.588 437.013 361.481C436.011 363.373 434.675 365.043 432.95 366.379C431.224 367.771 429.164 368.772 426.77 369.496C424.265 370.276 421.649 370.666 418.811 370.666ZM325.179 354.689C325.179 356.749 325.401 358.419 325.791 359.644C326.236 360.868 326.793 362.204 327.573 363.651C327.85 364.097 327.962 364.542 327.962 364.932C327.962 365.488 327.628 366.045 326.905 366.602L323.398 368.939C322.896 369.274 322.396 369.441 321.949 369.441C321.394 369.441 320.837 369.162 320.28 368.662C319.501 367.827 318.832 366.935 318.277 366.045C317.72 365.098 317.163 364.041 316.55 362.761C312.208 367.882 306.753 370.443 300.184 370.443C295.509 370.443 291.778 369.107 289.051 366.435C286.324 363.763 284.932 360.201 284.932 355.747C284.932 351.015 286.602 347.174 289.998 344.279C293.393 341.385 297.902 339.938 303.635 339.938C305.528 339.938 307.477 340.105 309.536 340.383C311.596 340.661 313.711 341.107 315.938 341.607V337.543C315.938 333.314 315.048 330.362 313.321 328.637C311.541 326.911 308.534 326.076 304.248 326.076C302.3 326.076 300.296 326.299 298.236 326.8C296.177 327.301 294.172 327.913 292.225 328.693C291.333 329.082 290.665 329.305 290.276 329.417C289.886 329.528 289.608 329.583 289.385 329.583C288.606 329.583 288.216 329.027 288.216 327.858V325.13C288.216 324.239 288.328 323.571 288.606 323.181C288.884 322.792 289.385 322.402 290.165 322.012C292.113 321.011 294.45 320.176 297.179 319.507C299.906 318.784 302.801 318.45 305.862 318.45C312.486 318.45 317.33 319.952 320.447 322.959C323.509 325.965 325.068 330.53 325.068 336.653V354.689H325.179ZM347.279 369.162C346.276 369.162 345.609 368.995 345.164 368.606C344.717 368.272 344.329 367.492 343.994 366.435L330.912 323.404C330.579 322.291 330.412 321.567 330.412 321.177C330.412 320.287 330.857 319.786 331.747 319.786H337.203C338.26 319.786 338.985 319.952 339.373 320.342C339.82 320.677 340.153 321.456 340.487 322.514L349.839 359.366L358.523 322.514C358.801 321.4 359.136 320.677 359.581 320.342C360.026 320.009 360.806 319.786 361.808 319.786H366.26C367.319 319.786 368.042 319.952 368.487 320.342C368.932 320.677 369.322 321.456 369.545 322.514L378.34 359.811L387.971 322.514C388.305 321.4 388.695 320.677 389.085 320.342C389.53 320.009 390.253 319.786 391.255 319.786H396.433C397.323 319.786 397.824 320.232 397.824 321.177C397.824 321.456 397.768 321.734 397.713 322.069C397.658 322.402 397.546 322.848 397.323 323.461L383.907 366.49C383.573 367.604 383.184 368.327 382.738 368.662C382.293 368.995 381.569 369.219 380.622 369.219H375.835C374.778 369.219 374.054 369.051 373.608 368.662C373.163 368.272 372.774 367.548 372.551 366.435L363.923 330.53L355.35 366.379C355.072 367.492 354.737 368.216 354.292 368.606C353.847 368.995 353.068 369.162 352.065 369.162H347.279ZM302.578 363.15C304.415 363.15 306.307 362.816 308.312 362.148C310.316 361.481 312.097 360.256 313.6 358.585C314.491 357.529 315.158 356.359 315.493 355.023C315.827 353.687 316.05 352.073 316.05 350.18V347.842C314.435 347.452 312.709 347.119 310.928 346.896C309.147 346.673 307.422 346.562 305.695 346.562C301.966 346.562 299.238 347.286 297.401 348.788C295.564 350.291 294.674 352.407 294.674 355.19C294.674 357.806 295.342 359.754 296.734 361.091C298.069 362.483 300.018 363.15 302.578 363.15ZM216.999 353.035H233.064C237.075 353.035 240.333 349.778 240.333 345.766C240.333 341.755 237.075 338.498 233.064 338.498H216.999C212.988 338.498 209.73 341.755 209.73 345.766C209.73 349.778 212.988 353.035 216.999 353.035ZM57.7431 353.035H190.69C194.701 353.035 197.958 349.778 197.958 345.766C197.958 341.755 194.701 338.498 190.69 338.498H57.7431C53.7307 338.498 50.4746 341.755 50.4746 345.766C50.4746 349.778 53.7307 353.035 57.7431 353.035ZM308.78 185.929H142.365L126.495 79.5365L160.527 103.48C163.808 105.789 168.346 104.999 170.654 101.719C172.962 98.4372 172.174 93.8998 168.892 91.5919L120.985 57.8854C118.607 56.2117 115.46 56.1178 112.986 57.6448C110.511 59.1719 109.185 62.0265 109.614 64.9018L128.911 194.269C129.443 197.83 132.499 200.466 136.1 200.466H308.78C312.791 200.466 316.049 197.209 316.049 193.198C316.049 189.185 312.791 185.929 308.78 185.929ZM182.009 118.593L205.875 135.386C207.661 136.642 209.918 137.03 212.022 136.439C214.124 135.849 215.85 134.343 216.722 132.34L247 62.7508L277.279 132.34C278.151 134.343 279.877 135.849 281.979 136.439C284.083 137.03 286.34 136.642 288.126 135.386L367.506 79.5365L351.636 185.929H335.091C331.078 185.929 327.822 189.185 327.822 193.198C327.822 197.209 331.078 200.466 335.091 200.466H357.901C361.502 200.466 364.558 197.83 365.09 194.269L384.386 64.9018C384.816 62.0265 383.49 59.1719 381.015 57.6448C378.541 56.1178 375.394 56.2117 373.015 57.8854L287.052 118.367L253.666 41.6336C252.512 38.9809 249.894 37.2648 247 37.2648C244.107 37.2648 241.489 38.9809 240.335 41.6336L206.949 118.367L190.373 106.705C187.093 104.396 182.554 105.186 180.246 108.466C177.937 111.748 178.727 116.285 182.009 118.593ZM99.7498 155.808H58.69C54.6775 155.808 51.4215 159.065 51.4215 163.077C51.4215 167.088 54.6775 170.345 58.69 170.345H99.7498C103.762 170.345 107.018 167.088 107.018 163.077C107.018 159.065 103.762 155.808 99.7498 155.808Z" fill="white"/>
</g>
<defs>
<clipPath id="clip0_21_2">
<rect width="494" height="494" fill="white"/>
</clipPath>
</defs>
</svg>
