<svg width="154" height="154" viewBox="0 0 154 154" fill="none" xmlns="http://www.w3.org/2000/svg">
<rect width="154" height="154" fill="url(#paint0_linear_405_3)"/>
<circle cx="77" cy="77" r="43" fill="white"/>
<g clip-path="url(#clip0_405_3)">
<path d="M72.5 64L65.5 59L67 68H88.5L90 57.5L80.5 64L76.5 55.5L72.5 64Z" fill="#BCBBF5"/>
<path fill-rule="evenodd" clip-rule="evenodd" d="M101.264 74.3952H51.736V70.8024C51.736 69.6157 52.5557 68.6189 53.6595 68.3483C54.0776 68.2458 54.3337 67.8233 54.2313 67.4053C54.1288 66.9872 53.7063 66.731 53.2882 66.8334C51.5029 67.2711 50.1764 68.883 50.1764 70.8024V94.9158C50.1764 97.171 52.0074 99.0019 54.2625 99.0019H94.1323C94.5626 99.0019 94.9121 98.6525 94.9121 98.2221C94.9121 97.7918 94.5626 97.4423 94.1323 97.4423H54.2625C52.8681 97.4423 51.736 96.3103 51.736 94.9158V81.8527H101.264V94.9158C101.264 96.3103 100.132 97.4423 98.7375 97.4423H96.9551C96.5246 97.4423 96.1753 97.7918 96.1753 98.2221C96.1753 98.6525 96.5246 99.0019 96.9551 99.0019H98.7375C100.993 99.0019 102.824 97.171 102.824 94.9158V70.8024C102.824 68.5472 100.993 66.7163 98.7375 66.7163H92.2981C91.8677 66.7163 91.5183 67.0657 91.5183 67.4961C91.5183 67.9264 91.8677 68.2759 92.2981 68.2759H98.7375C100.132 68.2759 101.264 69.4079 101.264 70.8024V74.3952ZM96.0618 92.6704C94.097 94.1215 91.2421 94.892 88.7874 94.892C85.3474 94.892 82.2477 93.62 79.9066 91.5058C79.7215 91.3385 79.8887 91.1116 80.1097 91.243C82.6419 92.7121 85.7655 93.602 88.9965 93.602C91.1764 93.602 93.5714 93.1481 95.7752 92.2164C96.1036 92.0671 96.3844 92.4315 96.0618 92.6704ZM96.88 91.7386C96.6292 91.4162 95.2198 91.5833 94.5807 91.661C94.3896 91.6849 94.3598 91.5176 94.5328 91.3922C95.6556 90.6039 97.5011 90.8308 97.7161 91.0936C97.9312 91.3624 97.6564 93.2078 96.6054 94.0917C96.444 94.229 96.2887 94.1574 96.3604 93.9783C96.5993 93.387 97.1308 92.0552 96.88 91.7386ZM56.1951 93.2846H56.8111C57.2414 93.2846 57.5909 92.9351 57.5909 92.5048C57.5909 92.0743 57.2414 91.7249 56.8111 91.7249H56.1951C55.7646 91.7249 55.4152 92.0743 55.4152 92.5048C55.4152 92.9351 55.7646 93.2846 56.1951 93.2846ZM59.6339 93.2846H63.0726C63.503 93.2846 63.8525 92.9351 63.8525 92.5048C63.8525 92.0743 63.503 91.7249 63.0726 91.7249H59.6339C59.2034 91.7249 58.854 92.0743 58.854 92.5048C58.854 92.9351 59.2034 93.2846 59.6339 93.2846ZM94.9331 89.7678C94.6225 89.7678 94.3119 89.7319 94.0133 89.6603C93.7146 89.5885 93.4818 89.5109 93.3265 89.4212C93.2309 89.3675 93.1652 89.3079 93.1413 89.2541C93.1174 89.2004 93.1056 89.1406 93.1056 89.0869V88.7822C93.1056 88.6569 93.1533 88.5971 93.2429 88.5971C93.2786 88.5971 93.3145 88.603 93.3504 88.6151C93.3862 88.6271 93.44 88.6509 93.4996 88.6748C93.7028 88.7644 93.9237 88.836 94.1566 88.8838C94.3955 88.9317 94.6285 88.9555 94.8674 88.9555C95.2436 88.9555 95.5362 88.8899 95.7393 88.7583C95.9423 88.6271 96.0498 88.4359 96.0498 88.1911C96.0498 88.0238 95.9961 87.8864 95.8886 87.773C95.7811 87.6595 95.5781 87.5579 95.2855 87.4624L94.4194 87.1937C93.9834 87.0562 93.661 86.8532 93.4639 86.5845C93.2668 86.3217 93.1652 86.0291 93.1652 85.7185C93.1652 85.4676 93.219 85.2467 93.3265 85.0556C93.434 84.8645 93.5773 84.6972 93.7565 84.5658C93.9356 84.4285 94.1388 84.3269 94.3776 84.2552C94.6165 84.1836 94.8674 84.1538 95.1302 84.1538C95.2616 84.1538 95.3989 84.1597 95.5303 84.1777C95.6676 84.1955 95.7931 84.2195 95.9184 84.2434C96.0379 84.2732 96.1514 84.303 96.2589 84.3389C96.3664 84.3748 96.4501 84.4105 96.5097 84.4464C96.5933 84.4942 96.6531 84.5419 96.6889 84.5957C96.7247 84.6435 96.7427 84.7092 96.7427 84.7928V85.0734C96.7427 85.1989 96.6949 85.2646 96.6054 85.2646C96.5575 85.2646 96.4799 85.2407 96.3783 85.193C96.0379 85.0377 95.6556 84.96 95.2316 84.96C94.8913 84.96 94.6225 85.0138 94.4373 85.1273C94.2522 85.2407 94.1566 85.4139 94.1566 85.6588C94.1566 85.8261 94.2164 85.9693 94.3357 86.0828C94.4553 86.1962 94.6762 86.3098 94.9927 86.4113L95.8409 86.68C96.2708 86.8175 96.5815 87.0085 96.7666 87.2533C96.9516 87.4983 97.0412 87.7789 97.0412 88.0895C97.0412 88.3463 96.9875 88.5793 96.8859 88.7823C96.7784 88.9854 96.6352 89.1645 96.4501 89.3079C96.2649 89.4573 96.0439 89.5646 95.787 89.6423C95.5183 89.726 95.2376 89.7678 94.9331 89.7678ZM84.8875 88.0537C84.8875 88.2747 84.9114 88.4538 84.9532 88.5852C85.001 88.7166 85.0607 88.8599 85.1444 89.0152C85.1742 89.0631 85.1862 89.1108 85.1862 89.1526C85.1862 89.2123 85.1503 89.272 85.0728 89.3318L84.6965 89.5826C84.6427 89.6185 84.589 89.6364 84.5411 89.6364C84.4815 89.6364 84.4217 89.6065 84.3619 89.5528C84.2784 89.4632 84.2067 89.3675 84.147 89.272C84.0873 89.1704 84.0275 89.057 83.9618 88.9197C83.496 89.4691 82.9107 89.7439 82.2059 89.7439C81.7044 89.7439 81.3041 89.6005 81.0115 89.3139C80.7189 89.0272 80.5695 88.645 80.5695 88.1672C80.5695 87.6595 80.7487 87.2474 81.1131 86.9369C81.4773 86.6263 81.9611 86.471 82.5762 86.471C82.7793 86.471 82.9884 86.489 83.2093 86.5188C83.4303 86.5486 83.6572 86.5965 83.8961 86.6502V86.2142C83.8961 85.7604 83.8006 85.4437 83.6154 85.2587C83.4244 85.0734 83.1018 84.9839 82.6419 84.9839C82.433 84.9839 82.2179 85.0077 81.997 85.0616C81.776 85.1153 81.5609 85.181 81.352 85.2646C81.2563 85.3064 81.1847 85.3303 81.1429 85.3423C81.1011 85.3542 81.0713 85.3601 81.0474 85.3601C80.9637 85.3601 80.9219 85.3005 80.9219 85.175V84.8824C80.9219 84.7868 80.9339 84.7151 80.9637 84.6733C80.9935 84.6315 81.0474 84.5897 81.131 84.5479C81.34 84.4405 81.5908 84.3509 81.8835 84.2791C82.1761 84.2016 82.4867 84.1657 82.8151 84.1657C83.5258 84.1657 84.0455 84.3269 84.3799 84.6494C84.7084 84.972 84.8757 85.4617 84.8757 86.1187V88.0537H84.8875ZM87.2586 89.6065C87.1511 89.6065 87.0794 89.5885 87.0317 89.5468C86.9838 89.5109 86.9421 89.4273 86.9062 89.3139L85.5027 84.6972C85.4669 84.5778 85.449 84.5001 85.449 84.4583C85.449 84.3628 85.4967 84.3091 85.5923 84.3091H86.1776C86.2911 84.3091 86.3688 84.3269 86.4104 84.3687C86.4583 84.4046 86.4941 84.4882 86.53 84.6017L87.5332 88.5554L88.465 84.6017C88.4948 84.4822 88.5307 84.4046 88.5785 84.3687C88.6262 84.333 88.7099 84.3091 88.8174 84.3091H89.2951C89.4087 84.3091 89.4862 84.3269 89.534 84.3687C89.5817 84.4046 89.6236 84.4882 89.6474 84.6017L90.5911 88.6032L91.6243 84.6017C91.6602 84.4822 91.702 84.4046 91.7438 84.3687C91.7916 84.333 91.8692 84.3091 91.9767 84.3091H92.5322C92.6277 84.3091 92.6814 84.3568 92.6814 84.4583C92.6814 84.4882 92.6755 84.518 92.6696 84.5539C92.6636 84.5897 92.6516 84.6376 92.6277 84.7033L91.1883 89.3198C91.1526 89.4393 91.1107 89.5169 91.063 89.5528C91.0152 89.5885 90.9375 89.6125 90.8359 89.6125H90.3224C90.2089 89.6125 90.1312 89.5946 90.0835 89.5528C90.0357 89.5109 89.9939 89.4332 89.97 89.3139L89.0443 85.4617L88.1245 89.3079C88.0947 89.4273 88.0588 89.505 88.0111 89.5468C87.9633 89.5885 87.8797 89.6065 87.7722 89.6065H87.2586ZM82.4628 88.9615C82.6599 88.9615 82.8629 88.9256 83.0779 88.854C83.293 88.7823 83.484 88.6509 83.6453 88.4716C83.7408 88.3583 83.8125 88.2329 83.8484 88.0895C83.8843 87.9462 83.9081 87.773 83.9081 87.57V87.319C83.7349 87.2772 83.5497 87.2415 83.3587 87.2176C83.1675 87.1937 82.9824 87.1817 82.7972 87.1817C82.3971 87.1817 82.1045 87.2594 81.9074 87.4206C81.7103 87.5818 81.6148 87.8089 81.6148 88.1074C81.6148 88.3881 81.6864 88.5971 81.8357 88.7405C81.979 88.8899 82.1881 88.9615 82.4628 88.9615ZM73.2812 87.8762H75.0048C75.4352 87.8762 75.7846 87.5268 75.7846 87.0964C75.7846 86.6661 75.4352 86.3166 75.0048 86.3166H73.2812C72.8509 86.3166 72.5014 86.6661 72.5014 87.0964C72.5014 87.5268 72.8509 87.8762 73.2812 87.8762ZM56.1951 87.8762H70.4586C70.8889 87.8762 71.2384 87.5268 71.2384 87.0964C71.2384 86.6661 70.8889 86.3166 70.4586 86.3166H56.1951C55.7646 86.3166 55.4152 86.6661 55.4152 87.0964C55.4152 87.5268 55.7646 87.8762 56.1951 87.8762ZM83.1282 69.9479H65.2739L63.5713 58.5333L67.2225 61.1021C67.5745 61.3499 68.0614 61.2651 68.309 60.9132C68.5566 60.5611 68.472 60.0743 68.1199 59.8267L62.9802 56.2104C62.725 56.0308 62.3874 56.0207 62.122 56.1846C61.8564 56.3484 61.7141 56.6547 61.7602 56.9631L63.8305 70.8427C63.8875 71.2247 64.2155 71.5075 64.6018 71.5075H83.1282C83.5585 71.5075 83.908 71.158 83.908 70.7277C83.908 70.2972 83.5585 69.9479 83.1282 69.9479ZM69.5272 62.7236L72.0877 64.5252C72.2793 64.66 72.5215 64.7016 72.7472 64.6382C72.9727 64.5749 73.158 64.4134 73.2515 64.1985L76.5 56.7324L79.7485 64.1985C79.842 64.4134 80.0273 64.5749 80.2528 64.6382C80.4785 64.7016 80.7207 64.66 80.9123 64.5252L89.4287 58.5333L87.7261 69.9479H85.951C85.5205 69.9479 85.1712 70.2972 85.1712 70.7277C85.1712 71.158 85.5205 71.5075 85.951 71.5075H88.3982C88.7845 71.5075 89.1125 71.2247 89.1695 70.8427L91.2398 56.9631C91.2859 56.6547 91.1436 56.3484 90.878 56.1846C90.6126 56.0207 90.275 56.0308 90.0198 56.2104L80.797 62.6993L77.2151 54.4668C77.0913 54.1822 76.8104 53.998 76.5 53.998C76.1896 53.998 75.9087 54.1822 75.7849 54.4668L72.203 62.6993L70.4246 61.4481C70.0726 61.2004 69.5857 61.2851 69.3381 61.6371C69.0904 61.9892 69.1751 62.476 69.5272 62.7236ZM60.7019 66.7163H56.2966C55.8662 66.7163 55.5168 67.0657 55.5168 67.4961C55.5168 67.9264 55.8662 68.2759 56.2966 68.2759H60.7019C61.1323 68.2759 61.4817 67.9264 61.4817 67.4961C61.4817 67.0657 61.1323 66.7163 60.7019 66.7163Z" fill="#656CD0"/>
</g>
<defs>
<linearGradient id="paint0_linear_405_3" x1="0" y1="0" x2="154" y2="154" gradientUnits="userSpaceOnUse">
<stop stop-color="#589DDB"/>
<stop offset="1" stop-color="#723BC5"/>
</linearGradient>
<clipPath id="clip0_405_3">
<rect width="53" height="53" fill="white" transform="translate(50 50)"/>
</clipPath>
</defs>
</svg>
