<svg id="Opportunity-Dq" xmlns="http://www.w3.org/2000/svg" width="500" height="500" viewBox="0 0 500 500">
  <rect id="Rectangle_2" data-name="Rectangle 2" width="500" height="500" fill="#c8c8c8" opacity="0"/>
  <g id="job-seeker" transform="translate(0 -0.603)">
    <g id="Group_11" data-name="Group 11" transform="translate(0 29.603)">
      <path id="Path_21" data-name="Path 21" d="M464.425,186.019c-.891-.891-1.8-1.76-2.709-2.619V155.254A50.814,50.814,0,0,0,410.959,104.5H321.927V78.99A49.443,49.443,0,0,0,272.54,29.6H189.178A49.442,49.442,0,0,0,139.791,78.99V104.5H50.757A50.814,50.814,0,0,0,0,155.254V381.183A50.814,50.814,0,0,0,50.757,431.94H156.73a7.324,7.324,0,0,0,0-14.648H50.757a36.15,36.15,0,0,1-36.109-36.109V233.428a86.067,86.067,0,0,0,64.96,37.82v26.666a27.621,27.621,0,0,0,55.241,0V271.488H257.24c0,.117,0,.233,0,.351A120.489,120.489,0,0,0,278.6,340.654L263.052,356.2a16.09,16.09,0,0,0-15.778,4.087l-59.726,59.726A30.321,30.321,0,0,0,230.429,462.9l59.726-59.726a16.093,16.093,0,0,0,4.087-15.778L309.8,371.829a121.667,121.667,0,0,0,137.266.229v9.124a36.15,36.15,0,0,1-36.109,36.109H295.273a7.324,7.324,0,0,0,0,14.648H410.959a50.814,50.814,0,0,0,50.757-50.757V360.279c.912-.857,1.817-1.727,2.709-2.618a121.3,121.3,0,0,0,0-171.642ZM154.438,78.99A34.779,34.779,0,0,1,189.177,44.25h83.362A34.779,34.779,0,0,1,307.278,78.99V104.5H291.654V78.99a19.137,19.137,0,0,0-19.115-19.115H189.177A19.137,19.137,0,0,0,170.062,78.99V104.5H154.438ZM184.709,104.5V78.99a4.472,4.472,0,0,1,4.468-4.467h83.362a4.472,4.472,0,0,1,4.468,4.467V104.5ZM120.2,275.4H94.256V250.747a12.973,12.973,0,0,1,25.945,0Zm-12.973,35.485a12.987,12.987,0,0,1-12.973-12.973V290.05H120.2v7.865A12.987,12.987,0,0,1,107.229,310.888Zm27.62-54.047v-6.095a27.621,27.621,0,0,0-55.241,0v5.792a71.466,71.466,0,0,1-64.96-71.076V155.254a36.15,36.15,0,0,1,36.109-36.109h360.2a36.15,36.15,0,0,1,36.109,36.109v16.339a121.415,121.415,0,0,0-188.92,85.247h-123.3Zm85.222,195.7A15.674,15.674,0,1,1,197.9,430.373L239.28,389l22.166,22.166ZM279.8,392.814l-7.992,7.992L249.638,378.64l7.992-7.992a1.441,1.441,0,0,1,2.034,0l0,0L279.8,390.778a1.443,1.443,0,0,1,0,2.036Zm5.529-17.222-10.475-10.475,12.858-12.858q2.449,2.761,5.075,5.4t5.4,5.072Zm17.816-28.29a106.721,106.721,0,1,1,150.926,0A106.02,106.02,0,0,1,303.142,347.3Z" transform="translate(0 -29.603)" fill="#fff"/>
      <path id="Path_22" data-name="Path 22" d="M465.93,285.6a7.323,7.323,0,0,0-8.713,5.6,73.289,73.289,0,1,1-.008-31.353,7.324,7.324,0,1,0,14.312-3.12,87.944,87.944,0,1,0,.01,37.585A7.326,7.326,0,0,0,465.93,285.6Z" transform="translate(-6.976 -33.305)" fill="#fff"/>
    </g>
  </g>
</svg>
