<svg width="154" height="154" viewBox="0 0 154 154" fill="none" xmlns="http://www.w3.org/2000/svg">
<rect width="154" height="154" fill="url(#paint0_linear_69_678)"/>
<circle cx="77" cy="77" r="43" fill="white"/>
<circle cx="92.5" cy="79.5" r="6.5" fill="#BCBBF5"/>
<path d="M99.8091 70.0203C99.7166 69.9251 99.6213 69.8314 99.5202 69.7392V66.7118C99.5183 65.2647 98.959 63.8774 97.965 62.8542C96.971 61.8309 95.6234 61.2552 94.2176 61.2532H84.9154V58.5083C84.915 57.1001 84.3721 55.7496 83.4056 54.7531C82.4391 53.7565 81.1281 53.1953 79.7602 53.1925H71.0502C69.6823 53.1941 68.3708 53.7542 67.4035 54.7499C66.4363 55.7456 65.8922 57.0957 65.8906 58.5039V61.2517H56.587C55.181 61.2537 53.8332 61.8296 52.8391 62.8532C51.8451 63.8768 51.286 65.2644 51.2844 66.7118V91.0114C51.2863 92.4585 51.8456 93.8458 52.8396 94.8691C53.8336 95.8923 55.1812 96.4681 56.587 96.47H67.6586C67.8617 96.47 68.0564 96.387 68.2 96.2392C68.3435 96.0914 68.4242 95.891 68.4242 95.6819C68.4242 95.4729 68.3435 95.2725 68.2 95.1247C68.0564 94.9769 67.8617 94.8939 67.6586 94.8939H56.587C55.5872 94.8923 54.6288 94.4827 53.9219 93.755C53.2149 93.0272 52.8171 92.0406 52.8155 91.0114V75.119C53.5744 76.2816 54.5797 77.2518 55.7557 77.9565C56.9316 78.6612 58.2476 79.082 59.6044 79.1873V82.0556C59.6044 82.8443 59.9088 83.6007 60.4506 84.1584C60.9923 84.7162 61.7271 85.0295 62.4933 85.0295C63.2595 85.0295 63.9943 84.7162 64.5361 84.1584C65.0778 83.6007 65.3822 82.8443 65.3822 82.0556V79.214H78.1699C78.1699 79.2259 78.1699 79.2393 78.1699 79.2512C78.1612 81.8927 78.9368 84.4738 80.3929 86.6488L78.7679 88.3216C78.4795 88.238 78.1746 88.2353 77.8848 88.3137C77.5951 88.3922 77.3309 88.5489 77.1198 88.7677L70.8798 95.1913C70.5712 95.4905 70.3242 95.8505 70.1533 96.2498C69.9824 96.6492 69.8911 97.0797 69.8848 97.5161C69.8784 97.9524 69.9573 98.3856 70.1166 98.79C70.2759 99.1944 70.5124 99.5618 70.8122 99.8703C71.1119 100.179 71.4688 100.422 71.8616 100.586C72.2545 100.75 72.6753 100.832 73.0992 100.825C73.523 100.819 73.9413 100.725 74.3292 100.549C74.7172 100.373 75.0668 100.118 75.3575 99.8008L81.5975 93.3772C81.8101 93.1598 81.9623 92.8879 82.0385 92.5896C82.1147 92.2913 82.112 91.9775 82.0309 91.6806L83.6573 90.0063C85.7676 91.4961 88.2656 92.2955 90.8245 92.3C93.3833 92.3045 95.8839 91.5139 97.9992 90.0316V91.0129C97.9981 92.0426 97.6002 93.0298 96.8929 93.758C96.1856 94.4861 95.2266 94.8957 94.2263 94.8968H82.1349C81.9318 94.8968 81.7371 94.9799 81.5935 95.1277C81.45 95.2755 81.3693 95.4759 81.3693 95.6849C81.3693 95.8939 81.45 96.0944 81.5935 96.2422C81.7371 96.39 81.9318 96.473 82.1349 96.473H94.222C95.629 96.4722 96.9781 95.8966 97.9732 94.8726C98.9682 93.8485 99.5277 92.4598 99.5289 91.0114V88.7632C99.6242 88.671 99.7181 88.5773 99.8178 88.4822C100.996 87.2705 101.931 85.8316 102.569 84.2479C103.206 82.6641 103.535 80.9664 103.535 79.2519C103.535 77.5375 103.206 75.8398 102.569 74.256C101.931 72.6723 100.996 71.2334 99.8178 70.0217L99.8091 70.0203ZM67.4203 58.5083C67.4215 57.5177 67.8043 56.5679 68.4847 55.8674C69.1652 55.1669 70.0878 54.7728 71.0502 54.7716H79.7602C80.7226 54.7728 81.6452 55.1669 82.3257 55.8674C83.0061 56.5679 83.3889 57.5177 83.3901 58.5083V61.2517H81.7622V58.5083C81.7618 57.963 81.5512 57.4402 81.1767 57.0546C80.8021 56.6691 80.2942 56.4523 79.7645 56.4519H71.0545C70.7918 56.4513 70.5315 56.504 70.2885 56.6071C70.0456 56.7102 69.8247 56.8615 69.6387 57.0525C69.4526 57.2435 69.3049 57.4704 69.2041 57.7202C69.1033 57.97 69.0513 58.2378 69.0511 58.5083V61.2517H67.4189L67.4203 58.5083ZM70.5836 61.2517V58.5083C70.5836 58.381 70.6328 58.2588 70.7203 58.1687C70.8078 58.0787 70.9265 58.028 71.0502 58.028H79.7602C79.8215 58.028 79.8821 58.0405 79.9387 58.0646C79.9953 58.0887 80.0468 58.1241 80.0901 58.1687C80.1334 58.2133 80.1678 58.2663 80.1912 58.3245C80.2147 58.3828 80.2268 58.4453 80.2268 58.5083V61.2517H70.5836ZM63.8439 79.6348H61.1326V76.9836C61.1326 76.8004 61.1677 76.6189 61.2358 76.4496C61.304 76.2803 61.4038 76.1264 61.5297 75.9968C61.6556 75.8673 61.805 75.7645 61.9695 75.6943C62.134 75.6242 62.3102 75.5881 62.4883 75.5881C62.6663 75.5881 62.8426 75.6242 63.007 75.6943C63.1715 75.7645 63.3209 75.8673 63.4468 75.9968C63.5727 76.1264 63.6726 76.2803 63.7407 76.4496C63.8088 76.6189 63.8439 76.8004 63.8439 76.9836V79.6348ZM62.489 83.4518C62.1298 83.4514 61.7854 83.3044 61.5314 83.0429C61.2773 82.7814 61.1345 82.4269 61.1341 82.0571V81.211H63.8439V82.0571C63.8431 82.4269 63.6999 82.7812 63.4456 83.0424C63.1913 83.3036 62.8468 83.4503 62.4875 83.4503L62.489 83.4518ZM65.3779 77.6394V76.9836C65.3779 76.1949 65.0735 75.4385 64.5317 74.8808C63.99 74.323 63.2552 74.0097 62.489 74.0097C61.7228 74.0097 60.988 74.323 60.4462 74.8808C59.9045 75.4385 59.6001 76.1949 59.6001 76.9836V77.6066C57.7465 77.4328 56.0228 76.5525 54.767 75.1384C53.5111 73.7243 52.8136 71.8783 52.8112 69.9623V66.7118C52.8123 65.6816 53.2106 64.6939 53.9185 63.9657C54.6265 63.2375 55.5862 62.8283 56.587 62.8279H94.222C95.2223 62.8291 96.1812 63.2387 96.8885 63.9668C97.5959 64.6949 97.9937 65.6821 97.9949 66.7118V68.4694C96.1991 67.2077 94.1184 66.4423 91.9526 66.2467C89.7868 66.0511 87.6084 66.4318 85.6267 67.3524C83.6449 68.2729 81.9263 69.7023 80.6357 71.5035C79.345 73.3046 78.5258 75.417 78.2565 77.6379H65.3735L65.3779 77.6394ZM74.2785 98.693C74.131 98.8672 73.9502 99.0082 73.7474 99.1075C73.5447 99.2067 73.3243 99.2619 73.0999 99.2698C72.8756 99.2777 72.652 99.238 72.4432 99.1532C72.2343 99.0684 72.0447 98.9403 71.8859 98.7769C71.7272 98.6135 71.6028 98.4182 71.5204 98.2033C71.438 97.9883 71.3995 97.7582 71.4071 97.5272C71.4147 97.2962 71.4684 97.0693 71.5648 96.8606C71.6612 96.6519 71.7982 96.4658 71.9674 96.3139L76.2849 91.8531L78.596 94.2322L74.2785 98.693ZM80.5185 92.2694L79.6836 93.1289L77.3725 90.7497L78.2074 89.8903C78.2209 89.8752 78.2374 89.8632 78.2556 89.8549C78.2739 89.8467 78.2936 89.8424 78.3136 89.8424C78.3335 89.8424 78.3533 89.8467 78.3715 89.8549C78.3898 89.8632 78.4062 89.8752 78.4198 89.8903V89.8903L80.5229 92.0553C80.5375 92.0692 80.5492 92.0861 80.5572 92.1049C80.5652 92.1237 80.5694 92.144 80.5694 92.1646C80.5694 92.1851 80.5652 92.2054 80.5572 92.2242C80.5492 92.243 80.5375 92.2599 80.5229 92.2739L80.5185 92.2694ZM81.0963 90.4167L80.0014 89.2896L81.3448 87.9067C81.5152 88.105 81.6919 88.2988 81.8749 88.4881C82.0578 88.6774 82.2461 88.8593 82.4396 89.0338L81.0963 90.4167ZM82.9582 87.3744C81.399 85.7691 80.3373 83.724 79.9072 81.4976C79.4771 79.2712 79.698 76.9634 80.5419 74.8662C81.3858 72.7691 82.8149 70.9766 84.6484 69.7154C86.4819 68.4543 88.6376 67.7812 90.8427 67.7812C93.0478 67.7812 95.2035 68.4543 97.037 69.7154C98.8705 70.9766 100.3 72.7691 101.144 74.8662C101.987 76.9634 102.208 79.2712 101.778 81.4976C101.348 83.724 100.286 85.7691 98.7272 87.3744C97.6962 88.449 96.4681 89.3021 95.1143 89.8841C93.7604 90.4662 92.3077 90.7655 90.8405 90.7648C89.3733 90.7641 87.9208 90.4634 86.5675 89.8801C85.2141 89.2968 83.9868 88.4426 82.9568 87.3669L82.9582 87.3744Z" fill="#656CD0"/>
<path d="M99.2372 80.3322C99.0389 80.288 98.8317 80.3266 98.6611 80.4395C98.4905 80.5524 98.3704 80.7304 98.3271 80.9344C97.9232 82.8327 96.8523 84.5104 95.3199 85.6453C93.7875 86.7803 91.9019 87.2924 90.0251 87.0833C88.1483 86.8742 86.4127 85.9586 85.1518 84.5124C83.8908 83.0663 83.1933 81.1915 83.1933 79.2482C83.1933 77.3049 83.8908 75.4301 85.1518 73.984C86.4127 72.5378 88.1483 71.6223 90.0251 71.4132C91.9019 71.2041 93.7875 71.7162 95.3199 72.8511C96.8523 73.986 97.9232 75.6637 98.3271 77.562C98.3456 77.666 98.3843 77.7652 98.4407 77.8535C98.4972 77.9418 98.5704 78.0175 98.6559 78.0761C98.7414 78.1348 98.8375 78.1751 98.9385 78.1946C99.0394 78.2142 99.1431 78.2127 99.2435 78.1901C99.3439 78.1676 99.4388 78.1244 99.5226 78.0633C99.6065 78.0022 99.6775 77.9243 99.7315 77.8344C99.7855 77.7444 99.8213 77.6442 99.8369 77.5397C99.8525 77.4351 99.8475 77.3285 99.8222 77.226C99.3379 74.9474 98.0528 72.9333 96.2138 71.5707C94.3747 70.2081 92.1115 69.5931 89.8588 69.8438C87.606 70.0945 85.5227 71.1933 84.0091 72.929C82.4954 74.6647 81.6582 76.915 81.6582 79.2475C81.6582 81.58 82.4954 83.8302 84.0091 85.566C85.5227 87.3017 87.606 88.4004 89.8588 88.6511C92.1115 88.9018 94.3747 88.2868 96.2138 86.9242C98.0528 85.5616 99.3379 83.5476 99.8222 81.269C99.8651 81.0649 99.8276 80.8516 99.7179 80.676C99.6082 80.5004 99.4353 80.3767 99.2372 80.3322V80.3322Z" fill="#656CD0"/>
<defs>
<linearGradient id="paint0_linear_69_678" x1="0" y1="0" x2="154" y2="154" gradientUnits="userSpaceOnUse">
<stop stop-color="#589DDB"/>
<stop offset="1" stop-color="#723BC5"/>
</linearGradient>
</defs>
</svg>
