<svg id="PMO-DQ" xmlns="http://www.w3.org/2000/svg" width="500" height="500" viewBox="0 0 500 500">
  <path id="PMO-icon" d="M338.7,458.449C330.4,461.8,322.4,464.67,314.9,466.88,261,482.768,196.183,488.8,146.739,478.818c-43.454-8.769-138.6-8.042-138.6-8.042a7.049,7.049,0,0,0,.116,14.1s93.155-.821,135.7,7.764c51.431,10.38,118.869,4.292,174.939-12.236,7.9-2.33,16.342-5.35,25.085-8.883a7.048,7.048,0,1,0-5.28-13.07Zm-.459-132.82-36.88,21.292a376.329,376.329,0,0,1-45,1.459l29.611-17.1a7.049,7.049,0,1,0-7.049-12.208l-46.553,26.877q-1.425-.26-2.818-.553c-29.578-6.212-52.5-14.725-89.713-9.726a7.049,7.049,0,0,0,1.877,13.972c35.247-4.736,56.922,3.665,84.938,9.551q2.794.585,5.715,1.055c.144.027.29.051.436.069,23.6,3.724,52.546,2.039,70.74.5a7.055,7.055,0,0,0,1.311-.114c7.492-.649,12.975-1.247,15.221-1.369,9.144-.5,14.531,4.354,14.679,10.274a10.562,10.562,0,0,1-.12,1.873l-.014.087c-.907,5.557-6.3,10.466-15.611,11.369-21.047,2.043-114.749,16.32-114.749,16.32a7.048,7.048,0,0,0,.247,13.969c125.384,14.6,152.5,4.388,259.976-56.185,7.139-4.024,13.33-3.266,17.205.436,5.88,5.617,6.178,16.615-2.874,22.994-18.144,12.785-65.313,42.777-111.1,64.99a7.049,7.049,0,0,0,6.153,12.684c46.6-22.608,94.6-53.138,113.068-66.15,17.555-12.37,15.893-33.821,4.492-44.713-7.227-6.9-18.458-10.1-31.557-3.734A24.709,24.709,0,0,0,423.221,317.6l-18.44,10.646a24.72,24.72,0,0,0-37.014-19.663L357.514,314.5a24.72,24.72,0,0,0-37-19.438l-13.636,7.874a7.049,7.049,0,1,0,7.049,12.208l13.636-7.874a10.618,10.618,0,0,1,10.671,18.36Zm30.78,64.061,71.871-41.5a10.618,10.618,0,1,0-10.617-18.39l-53.4,30.83a7.061,7.061,0,0,1-1.557.666l-27.56,15.911c-2.908,9.548-11.68,18.236-27.385,19.761-9.179.89-32.269,4.126-55.287,7.477C307.454,406.43,336.445,402.312,369.016,389.69Zm-358.494-.124h53a7.047,7.047,0,0,0,4.751-1.842s19.643-17.916,44.546-29.374a7.048,7.048,0,1,0-5.892-12.806c-21.916,10.083-40.061,24.8-46.052,29.925H10.521a7.049,7.049,0,1,0,0,14.1ZM347.289,361.2l38.145-22.023a10.618,10.618,0,0,0-10.619-18.39l-29.479,17.02-.1.06-6.75,3.9-.052.029-7.868,4.544A24.064,24.064,0,0,1,347.289,361.2ZM303.031,152.695h36.92V225.7a37.424,37.424,0,0,0,37.406,37.406h14.109a34.478,34.478,0,1,0,0-14.1H377.357A23.32,23.32,0,0,1,354.048,225.7v-73.01h37.418a34.479,34.479,0,1,0,0-14.1H354.048V102.8a7.049,7.049,0,0,0-14.1,0v35.8H303.105q-.309-6.459-1.248-12.878a7.046,7.046,0,0,0-5.78-5.926l-26.747-4.6a103.185,103.185,0,0,0-7.924-19.132L277.069,73.9a7.05,7.05,0,0,0-.1-8.278,132.787,132.787,0,0,0-27.194-27.194,7.05,7.05,0,0,0-8.278-.1L219.333,53.993A103.2,103.2,0,0,0,200.2,46.068l-4.595-26.747a7.051,7.051,0,0,0-5.926-5.781,132.853,132.853,0,0,0-38.458,0,7.049,7.049,0,0,0-5.926,5.781l-4.6,26.747a103.189,103.189,0,0,0-19.132,7.924L99.407,38.329a7.05,7.05,0,0,0-8.278.1A132.788,132.788,0,0,0,63.934,65.627a7.05,7.05,0,0,0-.1,8.278L79.494,96.066A103.2,103.2,0,0,0,71.57,115.2s-26.747,4.595-26.747,4.595a7.046,7.046,0,0,0-5.78,5.926,132.761,132.761,0,0,0,0,38.458,7.048,7.048,0,0,0,5.78,5.926L71.57,174.7a103.2,103.2,0,0,0,7.924,19.133L63.831,215.992a7.05,7.05,0,0,0,.1,8.278,132.788,132.788,0,0,0,27.194,27.194,7.05,7.05,0,0,0,8.278.1L121.568,235.9a103.2,103.2,0,0,0,19.133,7.924s4.595,26.747,4.595,26.747a7.046,7.046,0,0,0,5.926,5.78,132.762,132.762,0,0,0,38.458,0,7.048,7.048,0,0,0,5.926-5.78l4.595-26.747a103.288,103.288,0,0,0,19.133-7.924l22.161,15.662a7.05,7.05,0,0,0,8.278-.1,132.788,132.788,0,0,0,27.194-27.194,7.05,7.05,0,0,0,.1-8.278l-5.148-7.285a7.049,7.049,0,0,0-11.513,8.136l2.132,3.015a118.661,118.661,0,0,1-17.178,17.179l-21.544-15.226a7.049,7.049,0,0,0-7.679-.3,89.171,89.171,0,0,1-23.854,9.881,7.049,7.049,0,0,0-5.221,5.64l-4.467,26a118.789,118.789,0,0,1-24.293,0l-4.468-26a7.046,7.046,0,0,0-5.22-5.64,89.171,89.171,0,0,1-23.854-9.881,7.051,7.051,0,0,0-7.68.3L95.539,237.037a118.66,118.66,0,0,1-17.178-17.179l15.225-21.543a7.046,7.046,0,0,0,.3-7.679A89.128,89.128,0,0,1,84,166.783a7.051,7.051,0,0,0-5.64-5.221l-26-4.467a118.6,118.6,0,0,1,0-24.293l26-4.468a7.048,7.048,0,0,0,5.64-5.22A89.128,89.128,0,0,1,93.884,99.26a7.048,7.048,0,0,0-.3-7.68L78.361,70.037A118.716,118.716,0,0,1,95.539,52.86l21.543,15.225a7.048,7.048,0,0,0,7.68.3A89.128,89.128,0,0,1,148.616,58.5a7.048,7.048,0,0,0,5.22-5.64l4.468-26a118.6,118.6,0,0,1,24.293,0l4.467,26a7.051,7.051,0,0,0,5.221,5.64,89.128,89.128,0,0,1,23.854,9.881,7.046,7.046,0,0,0,7.679-.3L245.36,52.86a118.659,118.659,0,0,1,17.179,17.178L247.313,91.58a7.051,7.051,0,0,0-.3,7.68,89.13,89.13,0,0,1,9.881,23.854,7.046,7.046,0,0,0,5.64,5.22l26,4.468a118.607,118.607,0,0,1,0,24.293l-26,4.467a7.049,7.049,0,0,0-5.64,5.221,89.229,89.229,0,0,1-4.562,13.445,7.048,7.048,0,0,0,12.946,5.579,103.294,103.294,0,0,0,4.049-11.108l26.747-4.595a7.048,7.048,0,0,0,5.78-5.926q.838-5.719,1.173-11.483Zm122.191,82.987a20.381,20.381,0,1,1-20.382,20.381A20.391,20.391,0,0,1,425.222,235.681ZM136.273,167.5a40.853,40.853,0,1,1,21.985,16.554,7.049,7.049,0,0,0-4.2,13.458,55.08,55.08,0,1,0-29.544-22.232,7.049,7.049,0,0,0,11.757-7.78Zm288.948-42.231a20.381,20.381,0,1,1-20.382,20.382A20.392,20.392,0,0,1,425.222,125.264ZM391.465,28.18H377.357a37.424,37.424,0,0,0-37.406,37.406V70.5a7.049,7.049,0,1,0,14.1,0V65.586a23.321,23.321,0,0,1,23.309-23.309h14.109a34.478,34.478,0,1,0,0-14.1Zm33.756-13.332A20.381,20.381,0,1,1,404.84,35.229a20.391,20.391,0,0,1,20.382-20.381Z" transform="translate(-0.147 1.249)" fill="#fff" fill-rule="evenodd"/>
  <rect id="Rectangle_2" data-name="Rectangle 2" width="500" height="500" fill="#c8c8c8" opacity="0"/>
</svg>
