<svg width="154" height="154" viewBox="0 0 154 154" fill="none" xmlns="http://www.w3.org/2000/svg">
<rect width="154" height="154" fill="url(#paint0_linear_69_883)"/>
<circle cx="77" cy="77" r="43" fill="white"/>
<g clip-path="url(#clip0_69_883)">
<path fill-rule="evenodd" clip-rule="evenodd" d="M70.5 75.5L70.4685 75.6891C65.0298 74.551 61 70.4208 61 65.5C61 60.5792 65.0298 56.449 70.4685 55.3109L70.5 55.5L73 56.5L76 55L78.5 57.5L77 60L78 63L81.5 63.5V67.5L78 68L77 70.5L78.5 73.5L76 76L73.5 74.5L70.5 75.5ZM68 71C70.7614 71 73 68.5376 73 65.5C73 62.4624 70.7614 60 68 60C65.2386 60 63 62.4624 63 65.5C63 68.5376 65.2386 71 68 71Z" fill="#BCBBF5"/>
<path fill-rule="evenodd" clip-rule="evenodd" d="M85.9878 98.9369C85.1037 99.294 84.2506 99.6 83.4514 99.8358C77.7045 101.53 70.7938 102.172 65.5224 101.109C60.8894 100.174 50.7454 100.251 50.7454 100.251C50.3305 100.255 49.9967 100.594 50 101.009C50.0035 101.424 50.3429 101.757 50.7576 101.754C50.7576 101.754 60.6894 101.667 65.225 102.582C70.7085 103.689 77.8983 103.039 83.8763 101.277C84.7191 101.029 85.6186 100.707 86.5507 100.33C86.9353 100.175 87.1215 99.7367 86.966 99.3522C86.8107 98.9677 86.3723 98.7815 85.9878 98.9369ZM85.9388 84.7762L82.007 87.0463C80.7069 87.1573 78.9439 87.2674 77.2093 87.2019L80.3664 85.3792C80.7256 85.1717 80.8488 84.7118 80.6414 84.3526C80.434 83.9934 79.9741 83.8701 79.6149 84.0776L74.6515 86.9432C74.5502 86.9246 74.45 86.9049 74.351 86.8842C71.1977 86.2219 68.7537 85.3142 64.7863 85.8472C64.3752 85.9025 64.0863 86.2812 64.1415 86.6921C64.1968 87.1032 64.5753 87.3921 64.9864 87.3369C68.7442 86.832 71.0552 87.7276 74.0421 88.355C74.2407 88.3967 74.4443 88.4342 74.6513 88.4676C74.6668 88.4705 74.6822 88.473 74.6978 88.4749C77.2135 88.872 80.3002 88.6923 82.2398 88.528C82.2865 88.5284 82.3331 88.5245 82.3796 88.516C83.1784 88.4468 83.7629 88.3831 84.0024 88.37C84.9772 88.3164 85.5515 88.8343 85.5674 89.4654C85.5691 89.5325 85.5649 89.5991 85.5546 89.6651L85.5531 89.6744C85.4564 90.2668 84.8817 90.7902 83.8887 90.8865C81.6449 91.1043 71.6546 92.6265 71.6546 92.6265C71.2826 92.6831 71.0098 93.0063 71.0165 93.3826C71.023 93.7589 71.3071 94.0723 71.6809 94.1158C85.0489 95.6728 87.9402 94.5837 99.3985 88.1256C100.16 87.6966 100.82 87.7775 101.233 88.1721C101.86 88.7709 101.891 89.9435 100.926 90.6236C98.992 91.9868 93.9631 95.1843 89.0813 97.5526C88.7081 97.7337 88.5521 98.1836 88.7331 98.5567C88.9142 98.93 89.3641 99.0858 89.7373 98.9049C94.7056 96.4946 99.8234 93.2395 101.792 91.8523C103.664 90.5335 103.487 88.2464 102.271 87.0852C101.5 86.3493 100.303 86.0083 98.9065 86.6871C99.0188 86.0899 98.9264 85.4513 98.599 84.8842C97.8719 83.6248 96.259 83.1927 94.9996 83.9198L93.0336 85.0548C93.0067 84.6678 92.8937 84.2811 92.6869 83.9229C91.9598 82.6634 90.3469 82.2312 89.0874 82.9585L87.9942 83.5896C87.9644 83.2108 87.8518 82.8325 87.6493 82.4815C86.922 81.2221 85.3093 80.79 84.0497 81.5171L82.5958 82.3564C82.2366 82.5639 82.1133 83.0239 82.3208 83.3831C82.5282 83.7422 82.9881 83.8655 83.3473 83.6582L84.8012 82.8187C85.3424 82.5063 86.0353 82.692 86.3476 83.233C86.659 83.7723 86.4756 84.4624 85.9388 84.7762V84.7762ZM89.2205 91.6061L96.883 87.1821C97.4242 86.8698 97.6099 86.1768 97.2974 85.6357C96.985 85.0946 96.2921 84.909 95.751 85.2214L90.058 88.5083C90.0044 88.5392 89.9486 88.5628 89.8918 88.5793L86.9536 90.2757C86.6434 91.2937 85.7082 92.22 84.0338 92.3825C83.0552 92.4775 80.5935 92.8224 78.1394 93.1797C82.6571 93.3909 85.748 92.9519 89.2205 91.6061V91.6061ZM50.9994 91.5929H56.65C56.8373 91.5929 57.0181 91.5229 57.1566 91.3966C57.1566 91.3966 59.2507 89.4864 61.9058 88.2648C62.2825 88.0914 62.4477 87.6448 62.2743 87.268C62.1011 86.8913 61.6544 86.7261 61.2776 86.8995C58.9409 87.9745 57.0064 89.5436 56.3676 90.0899C56.3678 90.0899 50.9994 90.0899 50.9994 90.0899C50.5847 90.0899 50.2479 90.4267 50.2479 90.8414C50.2479 91.2561 50.5847 91.5929 50.9994 91.5929V91.5929ZM86.9041 88.5687L90.9709 86.2208C91.512 85.9083 91.6976 85.2154 91.3853 84.6744C91.0729 84.1333 90.38 83.9476 89.8389 84.2601L86.6959 86.0746L86.6848 86.081L85.9653 86.4966L85.9596 86.4996L85.1207 86.9841C86.042 87.2358 86.6356 87.8508 86.9041 88.5687V88.5687ZM82.1854 66.3387H86.1218V74.1228C86.1218 76.3238 87.9087 78.1108 90.1099 78.1108H91.614C91.9612 79.7797 93.4416 81.0352 95.2129 81.0352C97.2416 81.0352 98.8888 79.3881 98.8888 77.3593C98.8888 75.3304 97.2416 73.6834 95.2129 73.6834C93.4416 73.6834 91.9612 74.939 91.614 76.6078H90.1099C88.7383 76.6078 87.6248 75.4942 87.6248 74.1228V66.3387H91.614C91.9612 68.0075 93.4416 69.2631 95.2129 69.2631C97.2416 69.2631 98.8888 67.616 98.8888 65.5873C98.8888 63.5584 97.2416 61.9112 95.2129 61.9112C93.4416 61.9112 91.9612 63.1669 91.614 64.8358H87.6248V61.0193C87.6248 60.6045 87.288 60.2678 86.8733 60.2678C86.4585 60.2678 86.1218 60.6045 86.1218 61.0193V64.8358H82.1934C82.1714 64.3765 82.1271 63.9184 82.0605 63.4628C82.0133 63.141 81.7646 62.8859 81.4441 62.831L78.5925 62.341C78.38 61.6344 78.0969 60.9511 77.7476 60.3011C77.7476 60.3012 79.4176 57.9384 79.4176 57.9384C79.6052 57.6728 79.6009 57.3167 79.4066 57.0558C78.5859 55.9539 77.6093 54.9772 76.5072 54.1566C76.2464 53.9623 75.8903 53.958 75.6247 54.1456L73.2619 55.8155C72.612 55.4662 71.9286 55.1832 71.2221 54.9705C71.2222 54.9707 70.7322 52.1191 70.7322 52.1191C70.6772 51.7986 70.4221 51.5499 70.1004 51.5027C68.7409 51.3038 67.3597 51.3038 66.0002 51.5027C65.6784 51.5499 65.4235 51.7986 65.3684 52.1191L64.8785 54.9707C64.172 55.1832 63.4885 55.4662 62.8386 55.8155L60.4759 54.1456C60.2102 53.958 59.8541 53.9623 59.5933 54.1566C58.4913 54.9772 57.5146 55.9539 56.694 57.0558C56.4998 57.3167 56.4954 57.6728 56.6831 57.9384L58.353 60.3012C58.0037 60.9511 57.7206 61.6344 57.5081 62.3411C57.5081 62.341 54.6565 62.831 54.6565 62.831C54.336 62.8859 54.0873 63.141 54.0402 63.4628C53.8412 64.8223 53.8412 66.2035 54.0402 67.563C54.0873 67.8847 54.336 68.1397 54.6565 68.1948L57.5081 68.6846C57.7206 69.3912 58.0038 70.0746 58.353 70.7245L56.6831 73.0872C56.4954 73.3528 56.4998 73.709 56.694 73.9698C57.5146 75.0719 58.4913 76.0485 59.5933 76.869C59.8541 77.0633 60.2102 77.0678 60.4759 76.88L62.8386 75.2102C63.4885 75.5594 64.172 75.8426 64.8785 76.0551L65.3684 78.9065C65.4235 79.2272 65.6784 79.4759 66.0002 79.5229C67.3597 79.7219 68.7409 79.7219 70.1004 79.5229C70.4221 79.4759 70.6772 79.2272 70.7322 78.9065L71.2222 76.0551C71.9287 75.8424 72.612 75.5594 73.2619 75.2102L75.6247 76.88C75.8903 77.0678 76.2464 77.0633 76.5072 76.869C77.6093 76.0485 78.5859 75.0719 79.4066 73.9698C79.6009 73.709 79.6052 73.3528 79.4176 73.0872L78.8686 72.3106C78.6292 71.9718 78.16 71.8913 77.8212 72.1306C77.4825 72.37 77.4018 72.8394 77.6413 73.178L77.8684 73.4994C77.3222 74.1711 76.7085 74.7848 76.037 75.331L73.7402 73.7076C73.4975 73.5362 73.1766 73.5238 72.9214 73.6761C72.1293 74.1487 71.2726 74.5035 70.3782 74.7295C70.0901 74.8023 69.8719 75.0379 69.8216 75.3309L69.3453 78.1027C68.4843 78.1912 67.6163 78.1912 66.7553 78.1027L66.2791 75.3309C66.2287 75.0379 66.0105 74.8023 65.7224 74.7295C64.828 74.5035 63.9713 74.1487 63.1792 73.6761C62.9241 73.5238 62.603 73.5362 62.3605 73.7076L60.0637 75.331C59.3921 74.7848 58.7784 74.1711 58.2322 73.4994L59.8555 71.2027C60.027 70.9601 60.0394 70.6391 59.8871 70.384C59.4144 69.5919 59.0596 68.735 58.8336 67.8407C58.7608 67.5527 58.5252 67.3345 58.2323 67.2841L55.4604 66.8079C55.3719 65.9467 55.3719 65.0789 55.4604 64.2179C55.4604 64.2177 58.2323 63.7415 58.2323 63.7415C58.5252 63.6913 58.7608 63.4731 58.8336 63.185C59.0596 62.2906 59.4144 61.4339 59.8871 60.6418C60.0394 60.3865 60.027 60.0656 59.8555 59.8229L58.2322 57.5262C58.7784 56.8547 59.3921 56.241 60.0637 55.6947L62.3605 57.318C62.603 57.4896 62.9241 57.5019 63.1792 57.3497C63.9713 56.8769 64.828 56.5221 65.7224 56.2962C66.0105 56.2234 66.2287 55.9877 66.2791 55.6949L66.7553 52.923C67.6163 52.8344 68.4843 52.8344 69.3453 52.923L69.8216 55.6949C69.8719 55.9877 70.0901 56.2234 70.3782 56.2962C71.2726 56.5221 72.1293 56.8769 72.9214 57.3497C73.1766 57.5019 73.4975 57.4896 73.7402 57.318L76.037 55.6947C76.7085 56.241 77.3222 56.8547 77.8684 57.5262L76.2452 59.8229C76.0736 60.0656 76.0612 60.3865 76.2135 60.6418C76.6862 61.4339 77.0411 62.2906 77.2669 63.185C77.3397 63.4731 77.5755 63.6913 77.8683 63.7415L80.6401 64.2177C80.7288 65.0789 80.7288 65.9469 80.6401 66.8079L77.8683 67.2841C77.5755 67.3345 77.3397 67.5527 77.2669 67.8407C77.1431 68.3313 76.9803 68.8107 76.7806 69.2741C76.6165 69.655 76.7925 70.0976 77.1734 70.2617C77.5543 70.4259 77.9967 70.2498 78.1609 69.8689C78.3272 69.4829 78.4713 69.0875 78.5925 68.6846L81.4441 68.1948C81.7646 68.1397 82.0133 67.8847 82.0605 67.563C82.1199 67.1565 82.1616 66.748 82.1854 66.3387V66.3387ZM95.2129 75.1864C96.4122 75.1864 97.3858 76.16 97.3858 77.3593C97.3858 78.5586 96.4122 79.5322 95.2129 79.5322C94.0136 79.5322 93.04 78.5586 93.04 77.3593C93.04 76.16 94.0136 75.1864 95.2129 75.1864ZM64.4065 67.9167C63.9502 67.2272 63.6846 66.4008 63.6846 65.5128C63.6846 63.1033 65.6409 61.1472 68.0504 61.1472C70.4599 61.1472 72.4159 63.1033 72.4159 65.5128C72.4159 67.9223 70.4599 69.8785 68.0504 69.8785C67.5977 69.8785 67.1611 69.8096 66.7504 69.6816C66.3545 69.558 65.9328 69.7792 65.8092 70.1752C65.6858 70.5712 65.9069 70.9928 66.3029 71.1164C66.8549 71.2885 67.4419 71.3815 68.0504 71.3815C71.2893 71.3815 73.9189 68.7519 73.9189 65.5128C73.9189 62.2739 71.2893 59.6442 68.0504 59.6442C64.8113 59.6442 62.1816 62.2739 62.1816 65.5128C62.1816 66.7072 62.5393 67.8186 63.153 68.7461C63.3819 69.092 63.8486 69.187 64.1944 68.9581C64.5403 68.7293 64.6353 68.2626 64.4065 67.9167V67.9167ZM95.2129 63.4142C96.4122 63.4142 97.3858 64.3879 97.3858 65.5873C97.3858 66.7864 96.4122 67.7602 95.2129 67.7602C94.0136 67.7602 93.04 66.7864 93.04 65.5873C93.04 64.3879 94.0136 63.4142 95.2129 63.4142ZM91.614 53.0636H90.1099C87.9087 53.0636 86.1218 54.8506 86.1218 57.0516V57.576C86.1218 57.9907 86.4585 58.3275 86.8733 58.3275C87.288 58.3275 87.6248 57.9907 87.6248 57.576V57.0516C87.6248 55.6801 88.7383 54.5665 90.1099 54.5665H91.614C91.9612 56.2354 93.4416 57.4911 95.2129 57.4911C97.2416 57.4911 98.8888 55.8439 98.8888 53.8151C98.8888 51.7863 97.2416 50.1392 95.2129 50.1392C93.4416 50.1392 91.9612 51.3947 91.614 53.0636V53.0636ZM95.2129 51.6421C96.4122 51.6421 97.3858 52.6159 97.3858 53.8151C97.3858 55.0144 96.4122 55.9881 95.2129 55.9881C94.0136 55.9881 93.04 55.0144 93.04 53.8151C93.04 52.6159 94.0136 51.6421 95.2129 51.6421V51.6421Z" fill="#656CD0"/>
</g>
<defs>
<linearGradient id="paint0_linear_69_883" x1="0" y1="0" x2="154" y2="154" gradientUnits="userSpaceOnUse">
<stop stop-color="#589DDB"/>
<stop offset="1" stop-color="#723BC5"/>
</linearGradient>
<clipPath id="clip0_69_883">
<rect width="53.3" height="53.3" fill="white" transform="translate(50 50)"/>
</clipPath>
</defs>
</svg>
