<svg width="154" height="154" viewBox="0 0 154 154" fill="none" xmlns="http://www.w3.org/2000/svg">
<rect width="154" height="154" fill="url(#paint0_linear_69_853)"/>
<circle cx="77" cy="77" r="43" fill="white"/>
<path fill-rule="evenodd" clip-rule="evenodd" d="M62 60H65.5V52H92C92.5523 52 93 52.4477 93 53V94C93 94.5523 92.5523 95 92 95H63C62.4477 95 62 94.5523 62 94V60Z" fill="#BCBBF5"/>
<path d="M63.5972 73.7375L72.9091 66.5257L76.8516 70.0672C77.1069 70.298 77.4354 70.4314 77.7793 70.444C78.1232 70.4565 78.4606 70.3475 78.7321 70.136L86.6347 64.0188L86.4225 65.7647C86.4078 65.8669 86.4137 65.971 86.4398 66.0709C86.4659 66.1708 86.5117 66.2645 86.5745 66.3465C86.6373 66.4284 86.7158 66.497 86.8055 66.5483C86.8951 66.5995 86.9941 66.6323 87.0966 66.6448C87.1991 66.6572 87.303 66.6491 87.4023 66.6209C87.5017 66.5927 87.5943 66.5449 87.6749 66.4804C87.7556 66.4158 87.8225 66.3359 87.8718 66.2451C87.9211 66.1544 87.9517 66.0548 87.962 65.952C88.3689 62.5861 88.4011 62.3754 88.4011 62.2832C88.403 62.1789 88.384 62.0752 88.345 61.9784C88.3059 61.8817 88.2478 61.7938 88.174 61.72C88.1002 61.6462 88.0123 61.5881 87.9156 61.549C87.8188 61.51 87.7151 61.491 87.6108 61.4929H83.8951C83.6894 61.4929 83.4921 61.5747 83.3467 61.7201C83.2012 61.8656 83.1195 62.0629 83.1195 62.2686C83.1195 62.4743 83.2012 62.6715 83.3467 62.817C83.4921 62.9625 83.6894 63.0442 83.8951 63.0442H85.3586L77.8394 68.8672L73.8969 65.3257C73.6416 65.0949 73.3131 64.9616 72.9692 64.949C72.6252 64.9364 72.2879 65.0454 72.0164 65.2569L62.6503 72.5112C62.5685 72.5731 62.4997 72.6506 62.448 72.7392C62.3963 72.8279 62.3627 72.9259 62.3492 73.0276C62.3357 73.1294 62.3424 73.2328 62.3691 73.3319C62.3959 73.4309 62.442 73.5237 62.5048 73.6049C62.5676 73.686 62.646 73.7539 62.7352 73.8045C62.8245 73.8552 62.9229 73.8876 63.0248 73.8999C63.1266 73.9123 63.2299 73.9043 63.3287 73.8764C63.4275 73.8485 63.5197 73.8013 63.6001 73.7375H63.5972Z" fill="#656CD0"/>
<path d="M89.5645 82.4317H88.3937V69.8871C88.3934 69.6569 88.3285 69.4314 88.2065 69.2362C88.0844 69.041 87.9101 68.884 87.7032 68.7829C87.4964 68.6818 87.2654 68.6408 87.0364 68.6645C86.8074 68.6882 86.5896 68.7756 86.4078 68.9169L84.2961 70.5618C84.1599 70.6658 84.0494 70.7997 83.9733 70.9532C83.8971 71.1068 83.8574 71.2758 83.857 71.4471V82.4303H81.2126V75.2594C81.2124 75.0492 81.1533 74.8432 81.0419 74.6649C80.9305 74.4866 80.7714 74.3431 80.5825 74.2507C80.3936 74.1583 80.1826 74.1208 79.9735 74.1423C79.7644 74.1638 79.5655 74.2436 79.3994 74.3726L77.115 76.1477C76.9786 76.2519 76.868 76.3861 76.7918 76.5399C76.7157 76.6937 76.676 76.8629 76.6759 77.0346V82.4317H74.0315V72.7994C74.0314 72.5911 73.9734 72.387 73.864 72.2098C73.7547 72.0326 73.5982 71.8893 73.4122 71.7958C73.2261 71.7023 73.0177 71.6624 72.8103 71.6804C72.6028 71.6984 72.4045 71.7737 72.2373 71.8979L69.9529 73.5969C69.8128 73.7018 69.6989 73.8379 69.6205 73.9943C69.542 74.1508 69.501 74.3234 69.5007 74.4984V76.7492C69.5007 76.9549 69.5824 77.1522 69.7279 77.2976C69.8733 77.4431 70.0706 77.5248 70.2763 77.5248C70.482 77.5248 70.6793 77.4431 70.8248 77.2976C70.9702 77.1522 71.0519 76.9549 71.0519 76.7492V74.7136L72.4802 73.6511V82.4317H71.0519V80.3756C71.0519 80.1699 70.9702 79.9726 70.8248 79.8272C70.6793 79.6817 70.482 79.6 70.2763 79.6C70.0706 79.6 69.8733 79.6817 69.7279 79.8272C69.5824 79.9726 69.5007 80.1699 69.5007 80.3756V82.4317H66.8782V78.3341C66.8768 78.1241 66.8166 77.9187 66.7044 77.7411C66.5923 77.5636 66.4326 77.421 66.2435 77.3296C66.0544 77.2382 65.8435 77.2016 65.6347 77.2239C65.4259 77.2463 65.2275 77.3267 65.0621 77.456L62.7791 79.2473C62.6455 79.3514 62.5373 79.4846 62.4627 79.6367C62.3882 79.7889 62.3493 79.9559 62.3488 80.1254V82.4347H61.1781C60.9724 82.4347 60.7751 82.5164 60.6296 82.6618C60.4842 82.8073 60.4025 83.0046 60.4025 83.2103C60.4025 83.416 60.4842 83.6133 60.6296 83.7587C60.7751 83.9042 60.9724 83.9859 61.1781 83.9859H89.5586C89.7643 83.9859 89.9616 83.9042 90.1071 83.7587C90.2525 83.6133 90.3342 83.416 90.3342 83.2103C90.3342 83.0046 90.2525 82.8073 90.1071 82.6618C89.9616 82.5164 89.7643 82.4347 89.5586 82.4347L89.5645 82.4317ZM85.4215 71.6579L86.8498 70.5457V82.4332H85.4215V71.6579ZM78.2506 77.2438L79.6789 76.1331V82.4259H78.2506V77.2438ZM63.9089 80.3302L65.3372 79.2092V82.4288H63.9089V80.3302Z" fill="#656CD0"/>
<path d="M69.1174 87.9666H61.1841C60.9784 87.9666 60.7811 88.0482 60.6356 88.1937C60.4902 88.3392 60.4084 88.5365 60.4084 88.7422C60.4084 88.9479 60.4902 89.1452 60.6356 89.2906C60.7811 89.4361 60.9784 89.5178 61.1841 89.5178H69.1174C69.3231 89.5178 69.5204 89.4361 69.6658 89.2906C69.8113 89.1452 69.893 88.9479 69.893 88.7422C69.893 88.5365 69.8113 88.3392 69.6658 88.1937C69.5204 88.0482 69.3231 87.9666 69.1174 87.9666Z" fill="#656CD0"/>
<path d="M69.1174 91.5519H61.1841C60.9784 91.5519 60.7811 91.6336 60.6356 91.7791C60.4902 91.9245 60.4084 92.1218 60.4084 92.3275C60.4084 92.5332 60.4902 92.7305 60.6356 92.876C60.7811 93.0214 60.9784 93.1031 61.1841 93.1031H69.1174C69.3231 93.1031 69.5204 93.0214 69.6658 92.876C69.8113 92.7305 69.893 92.5332 69.893 92.3275C69.893 92.1218 69.8113 91.9245 69.6658 91.7791C69.5204 91.6336 69.3231 91.5519 69.1174 91.5519V91.5519Z" fill="#656CD0"/>
<path d="M95.4989 55.7064H94.2798V54.0878C94.2794 53.6918 94.201 53.2997 94.0491 52.934C93.8971 52.5683 93.6746 52.2361 93.3942 51.9564C93.1139 51.6768 92.7811 51.4551 92.4151 51.304C92.049 51.1529 91.6567 51.0755 91.2607 51.0761H66.5798C65.7818 51.0755 65.0162 51.3913 64.4505 51.9541L57.3089 59.0972C56.7737 59.6573 56.475 60.4021 56.4747 61.1767V96.3579C56.4755 97.1564 56.7931 97.922 57.3577 98.4866C57.9224 99.0513 58.688 99.3688 59.4865 99.3696H60.7129V100.988C60.7136 101.787 61.0312 102.552 61.5958 103.117C62.1605 103.682 62.9261 103.999 63.7246 104H95.4989C96.2974 103.999 97.063 103.682 97.6276 103.117C98.1923 102.552 98.5098 101.787 98.5106 100.988V58.7181C98.5098 57.9196 98.1923 57.154 97.6276 56.5894C97.063 56.0247 96.2974 55.7072 95.4989 55.7064V55.7064ZM64.8778 53.7234V58.4737C64.8774 58.7403 64.7714 58.9958 64.5829 59.1842C64.3945 59.3727 64.139 59.4787 63.8724 59.4791H59.1221L64.8778 53.7234ZM96.9594 100.993C96.9594 101.381 96.8052 101.753 96.5307 102.027C96.2563 102.302 95.8841 102.456 95.4959 102.456H63.7232C63.335 102.456 62.9628 102.302 62.6883 102.027C62.4139 101.753 62.2597 101.381 62.2597 100.993V99.3696H91.2607C92.0598 99.3708 92.8266 99.0547 93.3927 98.4908C93.9588 97.9269 94.2779 97.1613 94.2798 96.3622V93.491C94.2798 93.2853 94.1981 93.088 94.0526 92.9425C93.9072 92.7971 93.7099 92.7154 93.5042 92.7154C93.2985 92.7154 93.1012 92.7971 92.9557 92.9425C92.8103 93.088 92.7286 93.2853 92.7286 93.491V96.3637C92.7286 96.7518 92.5744 97.1241 92.2999 97.3985C92.0255 97.673 91.6533 97.8272 91.2651 97.8272H59.4865C59.0984 97.8272 58.7261 97.673 58.4517 97.3985C58.1772 97.1241 58.0231 96.7518 58.0231 96.3637V61.1738C58.0231 61.1249 58.0255 61.0761 58.0304 61.0275H63.8695C64.5473 61.0267 65.1972 60.7571 65.6765 60.2778C66.1558 59.7985 66.4254 59.1486 66.4261 58.4708V52.6346C66.5725 52.62 65.4017 52.6346 91.2593 52.6273C91.6474 52.6273 92.0196 52.7815 92.2941 53.0559C92.5685 53.3304 92.7227 53.7026 92.7227 54.0907V89.8573C92.7227 90.063 92.8044 90.2602 92.9499 90.4057C93.0953 90.5512 93.2926 90.6329 93.4983 90.6329C93.704 90.6329 93.9013 90.5512 94.0468 90.4057C94.1922 90.2602 94.274 90.063 94.274 89.8573V57.2576H95.5003C95.8885 57.2576 96.2607 57.4118 96.5351 57.6863C96.8096 57.9607 96.9638 58.3329 96.9638 58.7211V100.993H96.9594Z" fill="#656CD0"/>
<defs>
<linearGradient id="paint0_linear_69_853" x1="0" y1="0" x2="154" y2="154" gradientUnits="userSpaceOnUse">
<stop stop-color="#589DDB"/>
<stop offset="1" stop-color="#723BC5"/>
</linearGradient>
</defs>
</svg>
