<svg id="ReportsManagement-Dq" xmlns="http://www.w3.org/2000/svg" width="500" height="500" viewBox="0 0 500 500">
  <g id="Group_13" data-name="Group 13" transform="translate(-18 -147)">
    <g id="Software-Dq" transform="translate(18 147)">
      <rect id="Rectangle_2" data-name="Rectangle 2" width="500" height="500" fill="#c8c8c8" opacity="0"/>
    </g>
  </g>
  <g id="report" transform="translate(-1.667)">
    <g id="Group_15" data-name="Group 15" transform="translate(52.667)">
      <g id="Group_14" data-name="Group 14">
        <path id="Path_50" data-name="Path 50" d="M121.271,216.417l87.971-68.128,37.243,33.459a13.861,13.861,0,0,0,17.76.651l74.614-57.784-2,16.489a7.327,7.327,0,1,0,14.547,1.767c3.843-31.729,4.154-33.781,4.171-34.662a7.331,7.331,0,0,0-7.462-7.458h-35.1a7.327,7.327,0,1,0,0,14.653h13.808l-71.03,55.009-37.244-33.462a13.865,13.865,0,0,0-17.759-.648L112.3,204.833a7.326,7.326,0,1,0,8.971,11.585Z" transform="translate(-53.98 -2.329)" fill="#fff"/>
        <path id="Path_51" data-name="Path 51" d="M366.139,300.149h-11v-118.5a11.622,11.622,0,0,0-18.763-9.166l-19.944,15.542a10.545,10.545,0,0,0-4.089,8.37V300.149H287.367v-67.76a10.612,10.612,0,0,0-17.125-8.377l-21.575,16.775a10.547,10.547,0,0,0-4.1,8.376v50.986H219.6V209.156a10.614,10.614,0,0,0-16.947-8.513L181.074,216.7a10.659,10.659,0,0,0-4.275,8.512v21.257a7.327,7.327,0,1,0,14.653,0V227.241l13.49-10.038v82.946h-13.49V280.72a7.327,7.327,0,1,0-14.653,0v19.429H151.822V261.406a10.613,10.613,0,0,0-17.162-8.348l-21.569,16.923a10.543,10.543,0,0,0-4.065,8.351v21.817h-11a7.327,7.327,0,0,0,0,14.653H366.139a7.327,7.327,0,0,0,0-14.653ZM327,198.369l13.49-10.512V300.149H327ZM259.224,251.14l13.49-10.488v59.5h-13.49ZM123.679,280.3l13.49-10.584v30.435h-13.49Z" transform="translate(-53.546 -3.931)" fill="#fff"/>
        <path id="Path_52" data-name="Path 52" d="M172.97,356.751H98.028a7.327,7.327,0,0,0,0,14.653h74.943a7.327,7.327,0,1,0,0-14.653Z" transform="translate(-53.546 -8.248)" fill="#fff"/>
        <path id="Path_53" data-name="Path 53" d="M172.97,391.417H98.028a7.327,7.327,0,0,0,0,14.653h74.943a7.327,7.327,0,1,0,0-14.653Z" transform="translate(-53.546 -9.05)" fill="#fff"/>
        <path id="Path_54" data-name="Path 54" d="M421.318,43.737H409.739V28.451A28.482,28.482,0,0,0,381.289,0H148.126a28.49,28.49,0,0,0-20.118,8.333L60.542,75.811a28.447,28.447,0,0,0-7.875,19.647V427.812a28.483,28.483,0,0,0,28.451,28.451H92.7v15.287A28.483,28.483,0,0,0,121.147,500H421.318a28.483,28.483,0,0,0,28.451-28.451V72.187a28.484,28.484,0,0,0-28.451-28.451ZM132.049,25.015V69.883a9.51,9.51,0,0,1-9.5,9.5H77.682ZM435.115,471.55a13.813,13.813,0,0,1-13.8,13.8H121.147a13.813,13.813,0,0,1-13.8-13.8V456.263H381.289a28.483,28.483,0,0,0,28.451-28.451V400.679a7.327,7.327,0,0,0-14.653,0v27.134a13.813,13.813,0,0,1-13.8,13.8H81.119a13.813,13.813,0,0,1-13.8-13.8V95.459a14.04,14.04,0,0,1,.072-1.423h55.158A24.18,24.18,0,0,0,146.7,69.883V14.725c1.34-.138-9.665-.047,234.587-.072a13.813,13.813,0,0,1,13.8,13.8V366.426a7.327,7.327,0,1,0,14.653,0V58.39H421.32a13.813,13.813,0,0,1,13.8,13.8V471.55Z" transform="translate(-52.667)" fill="#fff"/>
      </g>
    </g>
  </g>
</svg>
