<svg id="Group_10" data-name="Group 10" xmlns="http://www.w3.org/2000/svg" width="500" height="500" viewBox="0 0 500 500">
  <rect id="Rectangle_2" data-name="Rectangle 2" width="500" height="500" fill="#c8c8c8" opacity="0"/>
  <g id="book_1_" data-name="book (1)" transform="translate(-0.5)">
    <g id="Group_9" data-name="Group 9" transform="translate(28.5)">
      <path id="Path_17" data-name="Path 17" d="M442.074,0H325.788a7.324,7.324,0,0,0,0,14.648h51.833a16.132,16.132,0,0,1,16.113,16.113V469.238a16.132,16.132,0,0,1-16.113,16.113H59.262a16.132,16.132,0,0,1-16.113-16.113V444.562a7.324,7.324,0,0,0-14.648,0v24.677A30.8,30.8,0,0,0,59.262,500H442.074a30.8,30.8,0,0,0,30.762-30.762V30.762A30.8,30.8,0,0,0,442.074,0Zm16.113,469.238a16.132,16.132,0,0,1-16.113,16.113H403.812a30.546,30.546,0,0,0,4.534-14.648h22.322a12.886,12.886,0,0,0,12.871-12.871V409.706a7.324,7.324,0,0,0-14.648,0v46.349H408.383V43.945h20.508V375.977a7.324,7.324,0,0,0,14.648,0V42.168A12.886,12.886,0,0,0,430.668,29.3H408.346a30.556,30.556,0,0,0-4.534-14.648h38.263a16.132,16.132,0,0,1,16.113,16.113Z" transform="translate(-28.5)" fill="#fff"/>
      <path id="Path_18" data-name="Path 18" d="M35.824,417.03a7.324,7.324,0,0,0,7.324-7.324V30.762A16.132,16.132,0,0,1,59.262,14.648H291.684a7.324,7.324,0,0,0,0-14.648H59.262A30.8,30.8,0,0,0,28.5,30.762V409.706A7.324,7.324,0,0,0,35.824,417.03Z" transform="translate(-28.5)" fill="#fff"/>
      <path id="Path_19" data-name="Path 19" d="M334.039,78.59a17.11,17.11,0,0,0-17.09-17.09H123.59A17.11,17.11,0,0,0,106.5,78.59v60.547a17.11,17.11,0,0,0,17.09,17.09H316.949a17.11,17.11,0,0,0,17.09-17.09Zm-14.648,60.547a2.445,2.445,0,0,1-2.441,2.441H123.59a2.445,2.445,0,0,1-2.441-2.441V78.59a2.445,2.445,0,0,1,2.441-2.441H316.949a2.445,2.445,0,0,1,2.441,2.441Z" transform="translate(-30.328 -1.441)" fill="#fff"/>
      <path id="Path_20" data-name="Path 20" d="M292.934,377.5a44.434,44.434,0,1,0,44.434,44.434A44.484,44.484,0,0,0,292.934,377.5Zm0,74.219a29.785,29.785,0,1,1,29.785-29.785A29.819,29.819,0,0,1,292.934,451.719Z" transform="translate(-33.656 -8.848)" fill="#fff"/>
    </g>
  </g>
</svg>
