<svg width="154" height="154" viewBox="0 0 154 154" fill="none" xmlns="http://www.w3.org/2000/svg">
<rect width="154" height="154" fill="url(#paint0_linear_69_679)"/>
<circle cx="77" cy="77" r="43" fill="white"/>
<rect x="58" y="51" width="35" height="51" rx="2" fill="#BCBBF5"/>
<rect x="62" y="57" width="23" height="9" rx="1" fill="white"/>
<path d="M97.3837 50.0765H84.9202C84.712 50.0765 84.5123 50.1587 84.3651 50.3051C84.2179 50.4514 84.1352 50.6498 84.1352 50.8568C84.1352 51.0637 84.2179 51.2622 84.3651 51.4085C84.5123 51.5548 84.712 51.637 84.9202 51.637H90.4729C90.9308 51.6374 91.3698 51.8184 91.6936 52.1402C92.0174 52.462 92.1995 52.8984 92.1999 53.3536V100.044C92.1995 100.5 92.0174 100.936 91.6936 101.258C91.3698 101.58 90.9308 101.761 90.4729 101.761H56.3718C55.9139 101.761 55.4748 101.58 55.1511 101.258C54.8273 100.936 54.6452 100.5 54.6448 100.044V97.4166C54.6448 97.3142 54.6245 97.2127 54.5851 97.1181C54.5456 97.0234 54.4878 96.9374 54.4149 96.8649C54.342 96.7925 54.2555 96.735 54.1602 96.6958C54.065 96.6566 53.9629 96.6364 53.8598 96.6364C53.7567 96.6364 53.6547 96.6566 53.5594 96.6958C53.4642 96.735 53.3776 96.7925 53.3047 96.8649C53.2319 96.9374 53.174 97.0234 53.1346 97.1181C53.0951 97.2127 53.0748 97.3142 53.0748 97.4166V100.044C53.076 100.913 53.4236 101.745 54.0413 102.359C54.6591 102.973 55.4966 103.319 56.3703 103.32H97.3823C98.2559 103.319 99.0934 102.973 99.7112 102.359C100.329 101.745 100.677 100.913 100.678 100.044V53.3521C100.677 52.484 100.329 51.6517 99.7117 51.0377C99.0943 50.4237 98.2571 50.0781 97.3837 50.0765V50.0765ZM99.1107 100.044C99.1103 100.5 98.9283 100.936 98.6045 101.258C98.2807 101.58 97.8416 101.761 97.3837 101.761H93.2855C93.5784 101.29 93.7456 100.753 93.7713 100.2H96.1618C96.5274 100.2 96.8779 100.056 97.1364 99.7986C97.3949 99.5417 97.5404 99.1933 97.5407 98.8299V93.7053C97.5407 93.4984 97.458 93.3 97.3108 93.1536C97.1636 93.0073 96.9639 92.9251 96.7558 92.9251C96.5476 92.9251 96.3479 93.0073 96.2007 93.1536C96.0535 93.3 95.9708 93.4984 95.9708 93.7053V98.6415H93.7743V54.7565H95.9708V90.1192C95.9708 90.3261 96.0535 90.5246 96.2007 90.6709C96.3479 90.8172 96.5476 90.8994 96.7558 90.8994C96.9639 90.8994 97.1636 90.8172 97.3108 90.6709C97.458 90.5246 97.5407 90.3261 97.5407 90.1192V54.5666C97.5404 54.2032 97.3949 53.8548 97.1364 53.5979C96.8779 53.341 96.5274 53.1964 96.1618 53.196H93.7713C93.7455 52.6433 93.5783 52.1062 93.2855 51.6356H97.3852C97.8431 51.6359 98.2822 51.8169 98.6059 52.1387C98.9297 52.4606 99.1118 52.897 99.1122 53.3521L99.1107 100.044Z" fill="#656CD0"/>
<path d="M53.8613 94.4841C54.0695 94.4841 54.2691 94.4019 54.4164 94.2556C54.5636 94.1093 54.6463 93.9108 54.6463 93.7039V53.3521C54.6471 52.8975 54.8291 52.4617 55.1525 52.1402C55.4759 51.8187 55.9144 51.6378 56.3718 51.637H81.2722C81.4804 51.637 81.6801 51.5548 81.8273 51.4085C81.9745 51.2622 82.0572 51.0637 82.0572 50.8568C82.0572 50.6498 81.9745 50.4514 81.8273 50.3051C81.6801 50.1587 81.4804 50.0765 81.2722 50.0765H56.3718C55.4981 50.0777 54.6606 50.4232 54.0428 51.0372C53.425 51.6512 53.0775 52.4837 53.0763 53.3521V93.7039C53.0763 93.9108 53.159 94.1093 53.3062 94.2556C53.4534 94.4019 53.6531 94.4841 53.8613 94.4841V94.4841Z" fill="#656CD0"/>
<path d="M85.6149 58.2911C85.6141 57.8088 85.421 57.3464 85.0779 57.0054C84.7347 56.6643 84.2695 56.4723 83.7843 56.4716H63.068C62.5827 56.4723 62.1175 56.6643 61.7744 57.0054C61.4312 57.3464 61.2381 57.8088 61.2373 58.2911V64.7392C61.2381 65.2215 61.4312 65.6839 61.7744 66.025C62.1175 66.366 62.5827 66.558 63.068 66.5588H83.7828C84.2681 66.558 84.7332 66.366 85.0764 66.025C85.4195 65.6839 85.6126 65.2215 85.6134 64.7392L85.6149 58.2911ZM84.0449 64.7392C84.0449 64.7734 84.0382 64.8073 84.025 64.8389C84.0118 64.8705 83.9925 64.8992 83.9682 64.9234C83.9438 64.9476 83.9149 64.9668 83.8831 64.9799C83.8513 64.993 83.8172 64.9998 83.7828 64.9998H63.068C63.0335 64.9998 62.9994 64.993 62.9676 64.9799C62.9358 64.9668 62.9069 64.9476 62.8826 64.9234C62.8582 64.8992 62.8389 64.8705 62.8258 64.8389C62.8126 64.8073 62.8058 64.7734 62.8058 64.7392V58.2911C62.8058 58.2569 62.8126 58.223 62.8258 58.1914C62.8389 58.1598 62.8582 58.1311 62.8826 58.1069C62.9069 58.0827 62.9358 58.0635 62.9676 58.0504C62.9994 58.0373 63.0335 58.0306 63.068 58.0306H83.7828C83.8172 58.0306 83.8513 58.0373 83.8831 58.0504C83.9149 58.0635 83.9438 58.0827 83.9682 58.1069C83.9925 58.1311 84.0118 58.1598 84.025 58.1914C84.0382 58.223 84.0449 58.2569 84.0449 58.2911V64.7392Z" fill="#656CD0"/>
<path d="M80.8531 89.333C79.9116 89.333 78.9912 89.6105 78.2084 90.1304C77.4256 90.6503 76.8154 91.3893 76.4551 92.2539C76.0948 93.1184 76.0006 94.0698 76.1842 94.9876C76.3679 95.9054 76.8213 96.7485 77.487 97.4102C78.1528 98.0719 79.001 98.5225 79.9244 98.7051C80.8478 98.8877 81.8049 98.794 82.6748 98.4359C83.5446 98.0777 84.288 97.4713 84.8111 96.6932C85.3342 95.9151 85.6134 95.0003 85.6134 94.0645C85.6118 92.8101 85.1098 91.6076 84.2174 90.7206C83.325 89.8336 82.1151 89.3346 80.8531 89.333ZM80.8531 97.237C80.2221 97.237 79.6053 97.051 79.0806 96.7026C78.556 96.3542 78.1471 95.8589 77.9056 95.2795C77.6641 94.7001 77.601 94.0625 77.7241 93.4473C77.8472 92.8322 78.151 92.2672 78.5972 91.8237C79.0433 91.3803 79.6118 91.0782 80.2307 90.9559C80.8495 90.8335 81.491 90.8964 82.074 91.1364C82.6569 91.3764 83.1552 91.7828 83.5057 92.3043C83.8563 92.8257 84.0434 93.4388 84.0434 94.066C84.0422 94.9066 83.7057 95.7125 83.1077 96.307C82.5096 96.9014 81.6988 97.2358 80.8531 97.237V97.237Z" fill="#656CD0"/>
<defs>
<linearGradient id="paint0_linear_69_679" x1="0" y1="0" x2="154" y2="154" gradientUnits="userSpaceOnUse">
<stop stop-color="#589DDB"/>
<stop offset="1" stop-color="#723BC5"/>
</linearGradient>
</defs>
</svg>
