<svg xmlns="http://www.w3.org/2000/svg" width="500" height="500.001" viewBox="0 0 500 500.001">
  <g id="Software-Dq" transform="translate(0 0.001)">
    <rect id="Rectangle_2" data-name="Rectangle 2" width="500" height="500" fill="#c8c8c8" opacity="0"/>
    <g id="content" transform="translate(0 -0.001)">
      <path id="Path_23" data-name="Path 23" d="M475.021,76.812H419.182a62.345,62.345,0,0,0-81.715,0H310.858a62.4,62.4,0,0,0-3-38A7.324,7.324,0,1,0,294.3,44.375a47.9,47.9,0,1,1-15.532-20.112,7.324,7.324,0,0,0,8.813-11.7,62.508,62.508,0,0,0-98.46,64.25H162.535a62.345,62.345,0,0,0-81.729.012c-.077,0-.152-.012-.23-.012H24.98A25.008,25.008,0,0,0,0,101.792V383.746a25.014,25.014,0,0,0,24.981,24.99h175.3c4.6,20.038-1.9,37.452-19.011,50.715h-10.84c-10.306,0-19.321,5.732-22.437,14.265L143.585,485.8a10.577,10.577,0,0,0,9.937,14.2H346.479a10.576,10.576,0,0,0,9.937-14.2l-4.409-12.081c-3.113-8.533-12.13-14.266-22.437-14.266H318.73c-17.109-13.263-23.613-30.676-19.011-50.715H373.47a7.324,7.324,0,0,0,0-14.648H24.979a10.349,10.349,0,0,1-10.332-10.342v-54.21h470.7v54.21a10.349,10.349,0,0,1-10.332,10.342H402.755a7.324,7.324,0,1,0,0,14.648H475.02A25.014,25.014,0,0,0,500,383.746V101.792a25.007,25.007,0,0,0-24.98-24.981ZM338.246,478.738l2.414,6.614H159.342l2.413-6.614c.842-2.3,4.092-4.639,8.676-4.639h159.14c4.584,0,7.833,2.334,8.675,4.639Zm-53.5-70c-3.5,18.952.968,36.334,12.918,50.715H202.335c11.95-14.381,16.417-31.762,12.918-50.715ZM426.208,124.09a47.883,47.883,0,1,1-47.884-47.884A47.937,47.937,0,0,1,426.208,124.09ZM325,91.46a62.261,62.261,0,0,0-5.935,12.692H296.607A62.815,62.815,0,0,0,305.4,91.46ZM203.373,104.153h-22.44A62.312,62.312,0,0,0,175,91.46H194.58A62.731,62.731,0,0,0,203.373,104.153ZM169.562,124.09a47.883,47.883,0,1,1-47.884-47.884,47.937,47.937,0,0,1,47.884,47.884Zm-154.913-22.3A10.344,10.344,0,0,1,24.981,91.46H68.359a62.261,62.261,0,0,0-5.935,12.692H34.668a7.324,7.324,0,0,0-7.324,7.324V244.856a7.324,7.324,0,0,0,14.648,0V118.8H59.386c-.147,1.745-.24,3.506-.24,5.289a62.532,62.532,0,0,0,125.064,0c0-1.783-.093-3.543-.24-5.289h38.764a62.438,62.438,0,0,0,54.534-.012c.078,0,.154.012.233.012h38.53c-.147,1.745-.24,3.506-.24,5.289a62.532,62.532,0,0,0,125.064,0c0-1.783-.093-3.543-.24-5.289h17.395V314.887H41.992V274.139a7.324,7.324,0,1,0-14.648,0v40.748h-12.7Zm458.009,213.1V111.477a7.324,7.324,0,0,0-7.324-7.324H437.578a62.313,62.313,0,0,0-5.935-12.692h43.377a10.344,10.344,0,0,1,10.332,10.332v213.1h-12.7Z" fill="#fff"/>
      <path id="Path_24" data-name="Path 24" d="M246.478,363a7.324,7.324,0,1,0,0,14.648h18.256a7.324,7.324,0,0,0,0-14.648Z" transform="translate(-5.605 -8.507)" fill="#fff"/>
      <path id="Path_25" data-name="Path 25" d="M251.249,32.049a9.329,9.329,0,0,0-15.73,6.771V87.627a9.336,9.336,0,0,0,15.73,6.773l25.8-24.4a9.331,9.331,0,0,0,0-13.545h0Zm-1.082,43.209V51.189l12.721,12.034Z" transform="translate(-5.519 -0.691)" fill="#fff"/>
      <path id="Path_26" data-name="Path 26" d="M376.459,158.627a17.113,17.113,0,0,0,17.039-18.6c.145-1.067.043.7.075-31.174,4.118.752,5.508,3.052,6.979,5.486a7.283,7.283,0,0,0,10.031,2.441,7.364,7.364,0,0,0,2.459-10.095c-2.62-4.337-8.746-14.493-27.582-12.453a7.324,7.324,0,0,0-6.534,7.282V124.6a17.105,17.105,0,1,0-2.467,34.03Zm0-19.581a2.466,2.466,0,1,1-2.465,2.466A2.468,2.468,0,0,1,376.459,139.046Z" transform="translate(-8.421 -2.202)" fill="#fff"/>
      <path id="Path_27" data-name="Path 27" d="M329.369,310.032A62.532,62.532,0,1,0,266.837,247.5,62.6,62.6,0,0,0,329.369,310.032Zm0-110.415A47.883,47.883,0,1,1,281.485,247.5,47.938,47.938,0,0,1,329.369,199.616Z" transform="translate(-6.253 -4.335)" fill="#fff"/>
      <path id="Path_28" data-name="Path 28" d="M321.053,274.251h41.535a7.325,7.325,0,0,0,5.921-11.637L347.741,234.1a7.326,7.326,0,0,0-11.842,0l-5.99,8.223-5.99-8.223a7.326,7.326,0,0,0-11.842,0l-20.768,28.51a7.325,7.325,0,0,0,5.921,11.637ZM348.191,259.6H335.449l.323-.444.039-.053,6.01-8.25ZM318,250.856l2.849,3.911-3.522,4.836h-5.7Z" transform="translate(-6.794 -5.416)" fill="#fff"/>
      <path id="Path_29" data-name="Path 29" d="M353.187,229.415a7.324,7.324,0,0,0,7.324-7.324v-.052a7.324,7.324,0,1,0-7.324,7.376Z" transform="translate(-8.105 -5.033)" fill="#fff"/>
      <path id="Path_30" data-name="Path 30" d="M108.869,112.9h30.377a7.324,7.324,0,0,0,0-14.648H108.869a7.324,7.324,0,1,0,0,14.648Z" transform="translate(-2.38 -2.303)" fill="#fff"/>
      <path id="Path_31" data-name="Path 31" d="M108.869,134.216h30.377a7.324,7.324,0,0,0,0-14.648H108.869a7.324,7.324,0,1,0,0,14.648Z" transform="translate(-2.38 -2.802)" fill="#fff"/>
      <path id="Path_32" data-name="Path 32" d="M108.869,155.534h30.377a7.324,7.324,0,1,0,0-14.648H108.869a7.324,7.324,0,0,0,0,14.648Z" transform="translate(-2.38 -3.302)" fill="#fff"/>
      <path id="Path_33" data-name="Path 33" d="M179.63,310.032A62.532,62.532,0,1,0,117.1,247.5,62.6,62.6,0,0,0,179.63,310.032Zm0-110.415A47.883,47.883,0,1,1,131.746,247.5,47.938,47.938,0,0,1,179.63,199.616Z" transform="translate(-2.744 -4.335)" fill="#fff"/>
      <path id="Path_34" data-name="Path 34" d="M156.4,241.074a7.324,7.324,0,0,0,7.324-7.324V230.6h9.329v42.58a7.324,7.324,0,0,0,14.648,0V230.6h9.329v3.151a7.324,7.324,0,0,0,14.648,0V223.274a7.324,7.324,0,0,0-7.324-7.324H156.4a7.324,7.324,0,0,0-7.324,7.324V233.75a7.323,7.323,0,0,0,7.323,7.324Z" transform="translate(-3.494 -5.061)" fill="#fff"/>
    </g>
  </g>
</svg>
