<svg width="154" height="154" viewBox="0 0 154 154" fill="none" xmlns="http://www.w3.org/2000/svg">
<rect width="154" height="154" fill="url(#paint0_linear_69_681)"/>
<circle cx="77" cy="77" r="43" fill="white"/>
<circle cx="91" cy="62" r="4" fill="#BCBBF5"/>
<circle cx="85" cy="75" r="4" fill="#BCBBF5"/>
<circle cx="78" cy="56" r="4" fill="#BCBBF5"/>
<circle cx="64" cy="62" r="4" fill="#BCBBF5"/>
<circle cx="70" cy="75" r="4" fill="#BCBBF5"/>
<path d="M100.66 58.2559H94.7138C93.5063 57.2083 91.9614 56.6315 90.3629 56.6315C88.7643 56.6315 87.2194 57.2083 86.0119 58.2559H83.178C83.4963 56.9066 83.3846 55.4916 82.8586 54.2089C82.7733 54.0283 82.6221 53.8872 82.4359 53.8148C82.2498 53.7423 82.043 53.744 81.8581 53.8195C81.6732 53.895 81.5242 54.0385 81.442 54.2205C81.3597 54.4025 81.3503 54.6091 81.4158 54.7978C81.8843 55.94 81.9227 57.2134 81.5237 58.3818C81.1248 59.5501 80.3157 60.5342 79.2464 61.1514C78.1771 61.7685 76.9203 61.977 75.7091 61.738C74.4978 61.4991 73.4144 60.8289 72.6596 59.8519C71.9048 58.8749 71.53 57.6573 71.6047 56.425C71.6794 55.1926 72.1984 54.0292 73.0656 53.1505C73.9328 52.2717 75.0893 51.7373 76.3205 51.6463C77.5518 51.5554 78.7742 51.914 79.7611 52.6558C79.8415 52.7282 79.9361 52.7831 80.0388 52.817C80.1415 52.8509 80.2501 52.8631 80.3578 52.8527C80.4655 52.8424 80.5698 52.8098 80.6642 52.757C80.7586 52.7042 80.841 52.6323 80.9062 52.546C80.9713 52.4596 81.0178 52.3607 81.0427 52.2554C81.0675 52.1501 81.0702 52.0408 81.0506 51.9345C81.031 51.8281 80.9894 51.727 80.9286 51.6375C80.8678 51.548 80.7891 51.4722 80.6974 51.4148C79.6046 50.5921 78.2848 50.1261 76.9176 50.0802C75.5505 50.0344 74.2024 50.4109 73.0569 51.1585C71.9113 51.9062 71.024 52.9886 70.5156 54.2586C70.0072 55.5285 69.9025 56.9243 70.2157 58.2559H67.3848C66.1772 57.2079 64.632 56.6309 63.0331 56.6309C61.4342 56.6309 59.889 57.2079 58.6814 58.2559H52.7368C52.0316 58.2566 51.3554 58.5372 50.8567 59.0359C50.358 59.5346 50.0774 60.2108 50.0767 60.916V90.9406C50.077 91.6461 50.3574 92.3227 50.8561 92.8217C51.3549 93.3207 52.0313 93.6015 52.7368 93.6022H71.4037C71.6596 94.6013 71.6027 95.6548 71.2407 96.6205C70.8787 97.5861 70.2291 98.4174 69.3795 99.0021H68.2254C67.7186 98.9807 67.2174 99.1147 66.789 99.3863C66.3606 99.6578 66.0255 100.054 65.8287 100.521L65.3591 101.808C65.297 101.978 65.277 102.161 65.3006 102.34C65.3242 102.52 65.3907 102.691 65.4946 102.84C65.5985 102.988 65.7366 103.109 65.8973 103.193C66.058 103.276 66.2364 103.32 66.4176 103.32H86.9717C87.1529 103.32 87.3313 103.276 87.492 103.193C87.6527 103.109 87.7908 102.988 87.8947 102.84C87.9986 102.691 88.0651 102.52 88.0887 102.34C88.1123 102.161 88.0923 101.978 88.0302 101.808L87.5606 100.521C87.3642 100.055 87.0303 99.6599 86.6033 99.3884C86.1764 99.117 85.6768 98.9822 85.1713 99.0021H84.0171C83.1676 98.4174 82.5179 97.5861 82.1559 96.6205C81.794 95.6548 81.7371 94.6013 81.9929 93.6022H89.8469C90.0538 93.6022 90.2523 93.52 90.3986 93.3737C90.5449 93.2274 90.6271 93.0289 90.6271 92.822C90.6271 92.6151 90.5449 92.4166 90.3986 92.2703C90.2523 92.124 90.0538 92.0418 89.8469 92.0418H52.7368C52.4452 92.041 52.1657 91.9247 51.9596 91.7183C51.7535 91.5119 51.6375 91.2323 51.6371 90.9406V85.1683H101.76V90.9406C101.759 91.2323 101.643 91.5119 101.437 91.7183C101.231 91.9247 100.951 92.041 100.66 92.0418H92.9649C92.7579 92.0418 92.5595 92.124 92.4132 92.2703C92.2668 92.4166 92.1846 92.6151 92.1846 92.822C92.1846 93.0289 92.2668 93.2274 92.4132 93.3737C92.5595 93.52 92.7579 93.6022 92.9649 93.6022H100.66C101.365 93.6015 102.042 93.3207 102.541 92.8217C103.039 92.3227 103.32 91.6461 103.32 90.9406V60.916C103.319 60.2108 103.039 59.5346 102.54 59.0359C102.041 58.5372 101.365 58.2566 100.66 58.2559V58.2559ZM86.0958 101.056L86.3534 101.759H67.0447L67.3023 101.056C67.3917 100.892 67.5267 100.759 67.6909 100.671C67.8551 100.583 68.0413 100.545 68.2268 100.561H85.1713C85.3566 100.545 85.5425 100.583 85.7064 100.671C85.8703 100.759 86.0051 100.893 86.0943 101.056H86.0958ZM80.403 93.6008C80.2073 94.5462 80.2294 95.5237 80.4676 96.4593C80.7059 97.3949 81.154 98.264 81.778 99.0006H71.6201C72.2442 98.264 72.6923 97.3949 72.9305 96.4593C73.1687 95.5237 73.1908 94.5462 72.9951 93.6008H80.403ZM95.4617 63.2906C95.4617 64.2992 95.1626 65.2852 94.6022 66.1238C94.0419 66.9624 93.2454 67.616 92.3136 68.002C91.3818 68.388 90.3565 68.4889 89.3672 68.2922C88.378 68.0954 87.4694 67.6097 86.7562 66.8965C86.043 66.1834 85.5573 65.2747 85.3606 64.2855C85.1638 63.2963 85.2648 62.2709 85.6508 61.3391C86.0367 60.4073 86.6903 59.6109 87.529 59.0505C88.3676 58.4902 89.3535 58.1911 90.3621 58.1911C91.7142 58.1923 93.0106 58.7299 93.9667 59.686C94.9228 60.6421 95.4605 61.9385 95.4617 63.2906V63.2906ZM84.6855 59.8163C84.4248 60.2416 84.2129 60.695 84.0539 61.1678H81.6617C82.0282 60.7575 82.3426 60.3036 82.598 59.8163H84.6855ZM71.7306 61.1678H69.3442C69.1851 60.695 68.9733 60.2417 68.7126 59.8163H70.7972C71.0525 60.3037 71.3669 60.7576 71.7335 61.1678H71.7306ZM68.1326 63.2906C68.1326 64.2992 67.8336 65.285 67.2733 66.1236C66.713 66.9622 65.9167 67.6158 64.9849 68.0018C64.0532 68.3879 63.0279 68.4889 62.0387 68.2923C61.0496 68.0956 60.1409 67.6101 59.4277 66.8971C58.7144 66.184 58.2286 65.2755 58.0317 64.2864C57.8348 63.2973 57.9355 62.272 58.3213 61.3401C58.707 60.4083 59.3604 59.6118 60.1989 59.0512C61.0373 58.4907 62.0231 58.1914 63.0316 58.1911C64.3837 58.1923 65.6801 58.7299 66.6362 59.686C67.5923 60.6421 68.13 61.9385 68.1311 63.2906H68.1326ZM51.6371 60.916C51.6375 60.6245 51.7535 60.345 51.9597 60.1389C52.1658 59.9327 52.4453 59.8167 52.7368 59.8163H57.3565C57.0957 60.2416 56.8839 60.695 56.7249 61.1678H53.7688C53.5619 61.1678 53.3634 61.25 53.2171 61.3963C53.0708 61.5426 52.9886 61.7411 52.9886 61.948V76.1514C52.9886 76.3583 53.0708 76.5567 53.2171 76.7031C53.3634 76.8494 53.5619 76.9316 53.7688 76.9316C53.9758 76.9316 54.1742 76.8494 54.3205 76.7031C54.4669 76.5567 54.5491 76.3583 54.5491 76.1514V62.7268H56.4069C56.3907 62.9123 56.3819 63.1007 56.3819 63.2906C56.3819 65.0566 57.0834 66.7502 58.3321 67.9989C59.5809 69.2476 61.2745 69.9492 63.0404 69.9492C64.8064 69.9492 66.5 69.2476 67.7487 67.9989C68.9975 66.7502 69.699 65.0566 69.699 63.2906C69.699 63.1007 69.6887 62.9138 69.674 62.7268H73.796C74.7009 63.1662 75.6938 63.3945 76.6998 63.3945C77.7058 63.3945 78.6987 63.1662 79.6036 62.7268H83.7257C83.7095 62.9123 83.7006 63.1007 83.7006 63.2906C83.7006 65.0566 84.4021 66.7502 85.6509 67.9989C86.8996 69.2476 88.5932 69.9492 90.3592 69.9492C92.1251 69.9492 93.8188 69.2476 95.0675 67.9989C96.3162 66.7502 97.0177 65.0566 97.0177 63.2906C97.0177 63.1007 97.0074 62.9138 96.9927 62.7268H98.8447V83.6078H54.5476V79.2679C54.5476 79.061 54.4654 78.8625 54.3191 78.7162C54.1727 78.5699 53.9743 78.4877 53.7673 78.4877C53.5604 78.4877 53.362 78.5699 53.2156 78.7162C53.0693 78.8625 52.9871 79.061 52.9871 79.2679V83.6063H51.6371V60.916ZM100.408 83.6078V61.948C100.408 61.8456 100.388 61.7441 100.349 61.6494C100.309 61.5548 100.252 61.4688 100.18 61.3963C100.107 61.3239 100.021 61.2664 99.9264 61.2272C99.8318 61.188 99.7303 61.1678 99.6278 61.1678H96.6732C96.5142 60.695 96.3023 60.2417 96.0417 59.8163H100.66C100.951 59.8167 101.231 59.9327 101.437 60.1389C101.643 60.345 101.759 60.6245 101.76 60.916V83.6078H100.408Z" fill="#656CD0"/>
<path d="M75.726 87.8298C75.5191 87.8298 75.3206 87.9121 75.1743 88.0584C75.028 88.2047 74.9458 88.4031 74.9458 88.6101C74.9458 88.817 75.028 89.0154 75.1743 89.1618C75.3206 89.3081 75.5191 89.3903 75.726 89.3903H77.6634C77.8703 89.3903 78.0688 89.3081 78.2151 89.1618C78.3614 89.0154 78.4436 88.817 78.4436 88.6101C78.4436 88.4031 78.3614 88.2047 78.2151 88.0584C78.0688 87.9121 77.8703 87.8298 77.6634 87.8298H75.726Z" fill="#656CD0"/>
<path d="M76.2439 53.4153C76.1028 53.2823 75.9259 53.1935 75.735 53.1598C75.544 53.1261 75.3474 53.149 75.1693 53.2257C74.9912 53.3024 74.8395 53.4295 74.7327 53.5914C74.626 53.7532 74.5689 53.9428 74.5686 54.1367V59.3334C74.5689 59.5273 74.626 59.7168 74.7327 59.8787C74.8395 60.0406 74.9912 60.1677 75.1693 60.2443C75.3474 60.321 75.544 60.3439 75.735 60.3102C75.9259 60.2766 76.1028 60.1877 76.2439 60.0547L78.9909 57.4564C79.089 57.3635 79.167 57.2517 79.2203 57.1277C79.2737 57.0036 79.3012 56.87 79.3012 56.735C79.3012 56.6 79.2737 56.4664 79.2203 56.3424C79.167 56.2184 79.089 56.1065 78.9909 56.0137V56.0137L76.2439 53.4153ZM76.1291 58.0158V55.4543L77.4835 56.735L76.1291 58.0158Z" fill="#656CD0"/>
<path d="M89.2685 66.7325C89.5211 66.7322 89.7709 66.6795 90.002 66.5776C90.2331 66.4756 90.4405 66.3268 90.611 66.1405C90.7816 65.9542 90.9115 65.7344 90.9926 65.4952C91.0738 65.256 91.1043 65.0026 91.0822 64.751C91.0984 64.6376 91.0822 64.826 91.0896 61.4313C91.2513 61.4612 91.4031 61.5306 91.5315 61.6333C91.6599 61.7361 91.761 61.8689 91.8257 62.0201C91.8785 62.1076 91.9482 62.1838 92.0306 62.2443C92.113 62.3048 92.2066 62.3484 92.3059 62.3726C92.4052 62.3968 92.5083 62.4012 92.6093 62.3854C92.7103 62.3696 92.8072 62.334 92.8944 62.2807C93.0712 62.1725 93.1979 61.9987 93.247 61.7974C93.2961 61.596 93.2636 61.3835 93.1565 61.206C92.8787 60.693 92.4401 60.2855 91.9082 60.0461C91.3762 59.8068 90.7803 59.7488 90.2122 59.8811C90.0209 59.9018 89.844 59.9924 89.7154 60.1356C89.5869 60.2788 89.5158 60.4645 89.5159 60.6569V63.1154C89.2688 63.0808 89.0173 63.0972 88.777 63.1638C88.5366 63.2304 88.3124 63.3456 88.1184 63.5024C87.9244 63.6592 87.7647 63.8542 87.6491 64.0752C87.5336 64.2963 87.4646 64.5387 87.4466 64.7875C87.4286 65.0363 87.462 65.2861 87.5445 65.5215C87.6271 65.7569 87.7571 65.9728 87.9265 66.1558C88.096 66.3389 88.3012 66.4852 88.5295 66.5856C88.7579 66.6861 89.0044 66.7386 89.2538 66.7398L89.2685 66.7325ZM89.2685 64.6479C89.3204 64.6479 89.371 64.6633 89.4141 64.6921C89.4572 64.7209 89.4908 64.7618 89.5106 64.8097C89.5304 64.8576 89.5356 64.9103 89.5255 64.9611C89.5154 65.0119 89.4905 65.0586 89.4538 65.0952C89.4172 65.1319 89.3705 65.1569 89.3196 65.167C89.2688 65.1771 89.2161 65.1719 89.1682 65.1521C89.1203 65.1322 89.0794 65.0986 89.0506 65.0555C89.0219 65.0125 89.0065 64.9618 89.0065 64.91C89.0069 64.8406 89.0346 64.7742 89.0837 64.7251C89.1327 64.676 89.1992 64.6483 89.2685 64.6479V64.6479Z" fill="#656CD0"/>
<path d="M84.484 82.6288C85.8009 82.6288 87.0883 82.2382 88.1833 81.5066C89.2782 80.7749 90.1317 79.735 90.6357 78.5183C91.1396 77.3016 91.2715 75.9628 91.0146 74.6712C90.7576 73.3796 90.1235 72.1931 89.1923 71.2619C88.2611 70.3307 87.0746 69.6965 85.783 69.4396C84.4914 69.1827 83.1525 69.3145 81.9359 69.8185C80.7192 70.3225 79.6793 71.1759 78.9476 72.2709C78.216 73.3659 77.8254 74.6533 77.8254 75.9702C77.8274 77.7356 78.5295 79.428 79.7778 80.6763C81.0261 81.9246 82.7186 82.6268 84.484 82.6288V82.6288ZM84.484 70.8707C85.4925 70.8707 86.4785 71.1698 87.3171 71.7301C88.1557 72.2904 88.8094 73.0869 89.1954 74.0187C89.5813 74.9505 89.6823 75.9759 89.4855 76.9651C89.2888 77.9543 88.8031 78.8629 88.0899 79.5761C87.3767 80.2893 86.4681 80.775 85.4789 80.9718C84.4896 81.1685 83.4643 81.0675 82.5325 80.6816C81.6007 80.2956 80.8042 79.642 80.2439 78.8034C79.6835 77.9647 79.3844 76.9788 79.3844 75.9702C79.3864 74.6185 79.9243 73.3227 80.8803 72.367C81.8363 71.4113 83.1322 70.8737 84.484 70.8721V70.8707Z" fill="#656CD0"/>
<path d="M83.5417 78.704H87.9582C88.1021 78.7039 88.2432 78.664 88.3658 78.5886C88.4884 78.5133 88.5879 78.4056 88.6531 78.2773C88.7183 78.149 88.7468 78.0052 88.7353 77.8617C88.7239 77.7183 88.673 77.5808 88.5883 77.4644L86.38 74.4289C86.3076 74.3294 86.2127 74.2485 86.1031 74.1927C85.9935 74.1369 85.8722 74.1078 85.7492 74.1078C85.6262 74.1078 85.5049 74.1369 85.3953 74.1927C85.2857 74.2485 85.1908 74.3294 85.1184 74.4289L84.481 75.3048L83.8435 74.4289C83.7711 74.3294 83.6762 74.2485 83.5666 74.1927C83.457 74.1369 83.3357 74.1078 83.2127 74.1078C83.0897 74.1078 82.9684 74.1369 82.8588 74.1927C82.7492 74.2485 82.6543 74.3294 82.5819 74.4289L80.3736 77.4644C80.2889 77.5808 80.238 77.7183 80.2266 77.8617C80.2151 78.0052 80.2436 78.149 80.3088 78.2773C80.3741 78.4056 80.4735 78.5133 80.5961 78.5886C80.7187 78.664 80.8598 78.7039 81.0037 78.704H83.5417ZM86.4316 77.1435H85.0743L85.1081 77.0964L85.7485 76.2131L86.4316 77.1435ZM83.2164 76.2116L83.5197 76.6282L83.1443 77.1435H82.5377L83.2164 76.2116Z" fill="#656CD0"/>
<path d="M86.8232 73.9667C87.0301 73.9667 87.2286 73.8844 87.3749 73.7381C87.5212 73.5918 87.6034 73.3933 87.6034 73.1864V73.1864C87.6023 73.0324 87.5555 72.8821 87.469 72.7545C87.3826 72.627 87.2604 72.5279 87.1177 72.4698C86.975 72.4116 86.8183 72.397 86.6674 72.4278C86.5164 72.4585 86.3779 72.5333 86.2694 72.6427C86.1609 72.752 86.0872 72.891 86.0575 73.0422C86.0279 73.1934 86.0437 73.35 86.1029 73.4922C86.1621 73.6345 86.2621 73.756 86.3903 73.8414C86.5185 73.9269 86.6691 73.9725 86.8232 73.9725V73.9667Z" fill="#656CD0"/>
<path d="M61.4167 61.8538H64.6555C64.8624 61.8538 65.0608 61.7716 65.2072 61.6252C65.3535 61.4789 65.4357 61.2804 65.4357 61.0735C65.4357 60.8666 65.3535 60.6681 65.2072 60.5218C65.0608 60.3755 64.8624 60.2933 64.6555 60.2933H61.4167C61.2098 60.2933 61.0113 60.3755 60.865 60.5218C60.7187 60.6681 60.6365 60.8666 60.6365 61.0735C60.6365 61.2804 60.7187 61.4789 60.865 61.6252C61.0113 61.7716 61.2098 61.8538 61.4167 61.8538V61.8538Z" fill="#656CD0"/>
<path d="M61.4167 64.0709H64.6555C64.8624 64.0709 65.0608 63.9886 65.2072 63.8423C65.3535 63.696 65.4357 63.4975 65.4357 63.2906C65.4357 63.0837 65.3535 62.8852 65.2072 62.7389C65.0608 62.5926 64.8624 62.5104 64.6555 62.5104H61.4167C61.2098 62.5104 61.0113 62.5926 60.865 62.7389C60.7187 62.8852 60.6365 63.0837 60.6365 63.2906C60.6365 63.4975 60.7187 63.696 60.865 63.8423C61.0113 63.9886 61.2098 64.0709 61.4167 64.0709V64.0709Z" fill="#656CD0"/>
<path d="M61.4167 66.2878H64.6555C64.8624 66.2878 65.0608 66.2056 65.2072 66.0593C65.3535 65.913 65.4357 65.7145 65.4357 65.5076C65.4357 65.3007 65.3535 65.1022 65.2072 64.9559C65.0608 64.8096 64.8624 64.7274 64.6555 64.7274H61.4167C61.2098 64.7274 61.0113 64.8096 60.865 64.9559C60.7187 65.1022 60.6365 65.3007 60.6365 65.5076C60.6365 65.7145 60.7187 65.913 60.865 66.0593C61.0113 66.2056 61.2098 66.2878 61.4167 66.2878V66.2878Z" fill="#656CD0"/>
<path d="M68.9127 82.6288C70.2296 82.6288 71.517 82.2382 72.612 81.5066C73.707 80.7749 74.5604 79.735 75.0644 78.5183C75.5684 77.3016 75.7002 75.9628 75.4433 74.6712C75.1864 73.3796 74.5522 72.1931 73.621 71.2619C72.6898 70.3307 71.5033 69.6965 70.2117 69.4396C68.9201 69.1827 67.5813 69.3145 66.3646 69.8185C65.1479 70.3225 64.108 71.1759 63.3763 72.2709C62.6447 73.3659 62.2542 74.6533 62.2542 75.9702C62.2561 77.7356 62.9582 79.428 64.2065 80.6763C65.4548 81.9246 67.1473 82.6268 68.9127 82.6288V82.6288ZM68.9127 70.8707C69.9213 70.8707 70.9072 71.1698 71.7458 71.7301C72.5845 72.2904 73.2381 73.0869 73.6241 74.0187C74.01 74.9505 74.111 75.9759 73.9142 76.9651C73.7175 77.9543 73.2318 78.8629 72.5186 79.5761C71.8054 80.2893 70.8968 80.775 69.9076 80.9718C68.9184 81.1685 67.893 81.0675 66.9612 80.6816C66.0294 80.2956 65.2329 79.642 64.6726 78.8034C64.1122 77.9647 63.8132 76.9788 63.8132 75.9702C63.8147 74.6183 64.3525 73.3223 65.3086 72.3665C66.2646 71.4108 67.5608 70.8733 68.9127 70.8721V70.8707Z" fill="#656CD0"/>
<path d="M66.3601 75.2076C66.567 75.2076 66.7655 75.1254 66.9118 74.9791C67.0581 74.8328 67.1403 74.6343 67.1403 74.4274V74.0917H68.134V78.626C68.134 78.8329 68.2162 79.0313 68.3625 79.1777C68.5089 79.324 68.7073 79.4062 68.9142 79.4062C69.1212 79.4062 69.3196 79.324 69.466 79.1777C69.6123 79.0313 69.6945 78.8329 69.6945 78.626V74.0917H70.6882V74.4274C70.6882 74.6343 70.7704 74.8328 70.9167 74.9791C71.0631 75.1254 71.2615 75.2076 71.4684 75.2076C71.6754 75.2076 71.8738 75.1254 72.0201 74.9791C72.1665 74.8328 72.2487 74.6343 72.2487 74.4274V73.3115C72.2487 73.1046 72.1665 72.9061 72.0201 72.7598C71.8738 72.6134 71.6754 72.5312 71.4684 72.5312H66.3615C66.1546 72.5313 65.9561 72.6134 65.8098 72.7598C65.6635 72.9061 65.5813 73.1046 65.5813 73.3115V74.4274C65.5813 74.6343 65.6635 74.8328 65.8098 74.9791C65.9561 75.1254 66.1546 75.2076 66.3615 75.2076H66.3601Z" fill="#656CD0"/>
<defs>
<linearGradient id="paint0_linear_69_681" x1="0" y1="0" x2="154" y2="154" gradientUnits="userSpaceOnUse">
<stop stop-color="#589DDB"/>
<stop offset="1" stop-color="#723BC5"/>
</linearGradient>
</defs>
</svg>
