<svg width="154" height="154" viewBox="0 0 154 154" fill="none" xmlns="http://www.w3.org/2000/svg">
<rect width="154" height="154" fill="url(#paint0_linear_501_39)"/>
<circle cx="77" cy="77" r="43" fill="white"/>
<path fill-rule="evenodd" clip-rule="evenodd" d="M61.5 70.5L90.5 54L91.5884 55.833C90.034 56.8049 89 58.5317 89 60.5C89 63.5376 91.4624 66 94.5 66C95.4828 66 96.4054 65.7422 97.2038 65.2906L100 70L61.5 70.5Z" fill="#BCBBF5"/>
<g clip-path="url(#clip0_501_39)">
<path fill-rule="evenodd" clip-rule="evenodd" d="M85.1791 95.431C85.4607 95.648 85.8063 95.7655 86.1617 95.765H96.608C96.8068 95.765 96.9975 95.686 97.1381 95.5454C97.2788 95.4048 97.3578 95.2141 97.3578 95.0152C97.3578 94.8163 97.2788 94.6256 97.1381 94.485C96.9975 94.3444 96.8068 94.2654 96.608 94.2654H86.1616C86.1314 94.2654 86.1024 94.2534 86.0811 94.2321C86.0597 94.2107 86.0477 94.1817 86.0477 94.1515C86.0478 94.1067 86.0438 94.062 86.0358 94.0179C86.0438 93.9458 86.0478 93.8734 86.0477 93.8009C86.0477 93.602 85.9687 93.4113 85.8281 93.2707C85.6875 93.1301 85.4968 93.0511 85.2979 93.0511C85.0991 93.0511 84.9084 93.1301 84.7678 93.2707C84.6272 93.4113 84.5482 93.602 84.5482 93.8009C84.5481 93.924 84.4991 94.0421 84.412 94.1292C84.325 94.2163 84.2069 94.2652 84.0837 94.2653H81.2555C81.0567 94.2653 80.866 94.3443 80.7254 94.4849C80.5848 94.6255 80.5058 94.8162 80.5058 95.0151C80.5058 95.214 80.5848 95.4047 80.7254 95.5453C80.866 95.6859 81.0567 95.7649 81.2555 95.7649H84.0837C84.474 95.7654 84.8555 95.6491 85.1791 95.431V95.431ZM97.0033 84.6644C97.3443 85.72 97.9781 86.6571 98.8309 87.3665C99.6837 88.076 100.72 88.5288 101.82 88.6721V94.1514C101.82 94.1816 101.808 94.2105 101.787 94.2319C101.766 94.2532 101.737 94.2653 101.707 94.2653H99.7321C99.5332 94.2653 99.3425 94.3443 99.2019 94.4849C99.0613 94.6255 98.9823 94.8162 98.9823 95.0151C98.9823 95.214 99.0613 95.4047 99.2019 95.5453C99.3425 95.6859 99.5332 95.7649 99.7321 95.7649H101.707C102.134 95.7647 102.545 95.5946 102.847 95.2921C103.15 94.9896 103.32 94.5793 103.32 94.1515V87.9701C103.32 87.8717 103.301 87.7742 103.263 87.6832C103.225 87.5922 103.17 87.5096 103.1 87.4399C103.031 87.3703 102.948 87.3151 102.857 87.2774C102.766 87.2397 102.669 87.2203 102.57 87.2203C101.65 87.2199 100.754 86.9278 100.01 86.386C99.2662 85.8442 98.7133 85.0806 98.4307 84.2049C98.4009 84.1107 98.3528 84.0233 98.2891 83.9478C98.2254 83.8722 98.1475 83.81 98.0597 83.7647C97.9719 83.7194 97.876 83.6918 97.7775 83.6837C97.6791 83.6756 97.58 83.6869 97.4859 83.7172C97.3919 83.7475 97.3048 83.7961 97.2296 83.8601C97.1544 83.9242 97.0925 84.0025 97.0477 84.0905C97.0028 84.1786 96.9758 84.2746 96.9682 84.3731C96.9606 84.4716 96.9725 84.5706 97.0033 84.6645V84.6644ZM78.1316 94.2653H51.9641C51.841 94.2652 51.7229 94.2163 51.6358 94.1292C51.5487 94.0421 51.4998 93.924 51.4997 93.8009V88.6721C52.6978 88.518 53.8184 87.9954 54.7066 87.1765C54.779 87.1099 54.8377 87.0296 54.8791 86.9403C54.9206 86.8509 54.944 86.7543 54.9481 86.656C54.9522 86.5576 54.9369 86.4593 54.9031 86.3669C54.8692 86.2744 54.8175 86.1895 54.7508 86.1171C54.6842 86.0446 54.6039 85.9859 54.5146 85.9445C54.4252 85.9031 54.3286 85.8796 54.2302 85.8755C54.1319 85.8714 54.0336 85.8867 53.9412 85.9206C53.8487 85.9544 53.7638 86.0061 53.6913 86.0728C52.8902 86.8118 51.8398 87.2215 50.7499 87.2202C50.6514 87.2202 50.5539 87.2396 50.4629 87.2773C50.3719 87.315 50.2892 87.3702 50.2196 87.4399C50.15 87.5095 50.0947 87.5922 50.0571 87.6831C50.0194 87.7741 50 87.8717 50 87.9701V93.8009C50.0002 94.3217 50.2072 94.8212 50.5755 95.1895C50.9438 95.5578 51.4433 95.7648 51.9641 95.765H78.1316C78.3305 95.765 78.5212 95.686 78.6618 95.5454C78.8024 95.4048 78.8814 95.2141 78.8814 95.0152C78.8814 94.8163 78.8024 94.6256 78.6618 94.485C78.5212 94.3444 78.3305 94.2654 78.1316 94.2654V94.2653ZM84.5485 89.9396V91.4394C84.5485 91.6382 84.6275 91.8289 84.7681 91.9695C84.9087 92.1101 85.0994 92.1891 85.2983 92.1891C85.4971 92.1891 85.6878 92.1101 85.8284 91.9695C85.9691 91.8289 86.0481 91.6382 86.0481 91.4394V89.9397C86.0481 89.7408 85.9691 89.5501 85.8284 89.4095C85.6878 89.2689 85.4971 89.1899 85.2983 89.1899C85.0994 89.1899 84.9087 89.2689 84.7681 89.4095C84.6275 89.5501 84.5485 89.7408 84.5485 89.9397V89.9396ZM75.2921 90.8699H78.1316C78.3305 90.8699 78.5212 90.7909 78.6618 90.6503C78.8024 90.5097 78.8814 90.319 78.8814 90.1201C78.8814 89.9213 78.8024 89.7305 78.6618 89.5899C78.5212 89.4493 78.3305 89.3703 78.1316 89.3703H75.2921C75.0933 89.3703 74.9026 89.4493 74.7619 89.5899C74.6213 89.7305 74.5423 89.9213 74.5423 90.1201C74.5423 90.319 74.6213 90.5097 74.7619 90.6503C74.9026 90.7909 75.0933 90.8699 75.2921 90.8699V90.8699ZM60.2613 90.8699H63.6243C63.8232 90.8699 64.0139 90.7909 64.1545 90.6503C64.2951 90.5097 64.3741 90.319 64.3741 90.1201C64.3741 89.9213 64.2951 89.7305 64.1545 89.5899C64.0139 89.4493 63.8232 89.3703 63.6243 89.3703H60.2613C60.0625 89.3703 59.8718 89.4493 59.7311 89.5899C59.5905 89.7305 59.5115 89.9213 59.5115 90.1201C59.5115 90.319 59.5905 90.5097 59.7311 90.6503C59.8718 90.7909 60.0625 90.8699 60.2613 90.8699V90.8699ZM66.7486 90.8699H72.1679C72.3668 90.8699 72.5575 90.7909 72.6981 90.6503C72.8387 90.5097 72.9177 90.319 72.9177 90.1201C72.9177 89.9213 72.8387 89.7305 72.6981 89.5899C72.5575 89.4493 72.3668 89.3703 72.1679 89.3703H66.7486C66.5497 89.3703 66.359 89.4493 66.2184 89.5899C66.0778 89.7305 65.9988 89.9213 65.9988 90.1201C65.9988 90.319 66.0778 90.5097 66.2184 90.6503C66.359 90.7909 66.5497 90.8699 66.7486 90.8699V90.8699ZM84.5482 85.4407V86.9403C84.5482 87.1392 84.6272 87.3299 84.7678 87.4705C84.9084 87.6111 85.0991 87.6901 85.2979 87.6901C85.4968 87.6901 85.6875 87.6111 85.8281 87.4705C85.9687 87.3299 86.0477 87.1392 86.0477 86.9403V85.4407C86.0477 85.2419 85.9687 85.0512 85.8281 84.9106C85.6875 84.77 85.4968 84.691 85.2979 84.691C85.0991 84.691 84.9084 84.77 84.7678 84.9106C84.6272 85.0512 84.5482 85.2419 84.5482 85.4407ZM72.4398 86.2381H78.1316C78.3305 86.2381 78.5212 86.1591 78.6618 86.0185C78.8024 85.8779 78.8814 85.6872 78.8814 85.4883C78.8814 85.2894 78.8024 85.0987 78.6618 84.9581C78.5212 84.8175 78.3305 84.7385 78.1316 84.7385H72.4399C72.2411 84.7385 72.0504 84.8175 71.9098 84.9581C71.7691 85.0987 71.6901 85.2894 71.6901 85.4883C71.6901 85.6872 71.7691 85.8779 71.9098 86.0185C72.0504 86.1591 72.2411 86.2381 72.4399 86.2381H72.4398ZM63.6243 86.2381H69.3157C69.5146 86.2381 69.7053 86.1591 69.8459 86.0185C69.9865 85.8779 70.0655 85.6872 70.0655 85.4883C70.0655 85.2894 69.9865 85.0987 69.8459 84.9581C69.7053 84.8175 69.5146 84.7385 69.3157 84.7385H63.6243C63.4255 84.7385 63.2348 84.8175 63.0941 84.9581C62.9535 85.0987 62.8745 85.2894 62.8745 85.4883C62.8745 85.6872 62.9535 85.8779 63.0941 86.0185C63.2348 86.1591 63.4255 86.2381 63.6243 86.2381V86.2381ZM56.4656 84.1099C56.5532 83.7034 56.5973 83.2887 56.5971 82.8729C56.5963 81.4521 56.0786 80.0802 55.1407 79.0131C54.2027 77.9459 52.9086 77.2565 51.4997 77.0733V71.9444C51.4998 71.8212 51.5487 71.7032 51.6358 71.6161C51.7229 71.529 51.841 71.4801 51.9641 71.48H55.1819C55.3807 71.48 55.5714 71.401 55.712 71.2604C55.8526 71.1197 55.9316 70.929 55.9316 70.7302C55.9316 70.5313 55.8526 70.3406 55.712 70.2C55.5714 70.0594 55.3807 69.9804 55.1819 69.9804H51.9641C51.4433 69.9806 50.9438 70.1876 50.5756 70.5559C50.2073 70.9241 50.0003 71.4236 50 71.9444V77.7751C50 77.8736 50.0193 77.9712 50.057 78.0622C50.0947 78.1532 50.1499 78.2358 50.2195 78.3055C50.2892 78.3751 50.3718 78.4304 50.4628 78.4681C50.5538 78.5058 50.6513 78.5252 50.7498 78.5252C51.3987 78.5257 52.0394 78.6714 52.6247 78.9515C53.2101 79.2316 53.7254 79.6392 54.1329 80.1443C54.5404 80.6493 54.8297 81.2392 54.9797 81.8706C55.1296 82.502 55.1365 83.1589 54.9997 83.7933C54.9789 83.8895 54.9773 83.9889 54.995 84.0858C55.0126 84.1827 55.0491 84.2751 55.1025 84.3579C55.1559 84.4406 55.225 84.512 55.306 84.5681C55.387 84.6241 55.4782 84.6636 55.5744 84.6844C55.6707 84.7052 55.7701 84.7068 55.867 84.6891C55.9638 84.6715 56.0563 84.635 56.139 84.5816C56.2218 84.5282 56.2932 84.4591 56.3493 84.3781C56.4053 84.2971 56.4448 84.2059 56.4656 84.1097V84.1099ZM84.5482 80.9419V82.4415C84.5482 82.6403 84.6272 82.8311 84.7678 82.9717C84.9084 83.1123 85.0991 83.1913 85.2979 83.1913C85.4968 83.1913 85.6875 83.1123 85.8281 82.9717C85.9687 82.8311 86.0477 82.6403 86.0477 82.4415V80.9419C86.0477 80.7431 85.9687 80.5524 85.8281 80.4117C85.6875 80.2711 85.4968 80.1921 85.2979 80.1921C85.0991 80.1921 84.9084 80.2711 84.7678 80.4117C84.6272 80.5524 84.5482 80.7431 84.5482 80.9419V80.9419ZM93.9341 71.4799H101.707C101.721 71.4798 101.736 71.4828 101.75 71.4885C101.764 71.4942 101.776 71.5026 101.787 71.5131C101.798 71.5237 101.806 71.5363 101.812 71.5501C101.817 71.5639 101.82 71.5787 101.82 71.5936V77.0731C100.72 77.2164 99.6837 77.6692 98.8309 78.3787C97.9781 79.0881 97.3443 80.0252 97.0033 81.0808C96.9725 81.1746 96.9606 81.2737 96.9682 81.3722C96.9758 81.4707 97.0028 81.5667 97.0477 81.6547C97.0925 81.7428 97.1544 81.8211 97.2296 81.8851C97.3048 81.9492 97.3919 81.9978 97.4859 82.028C97.58 82.0583 97.6791 82.0697 97.7775 82.0616C97.876 82.0534 97.9719 82.0259 98.0597 81.9806C98.1475 81.9353 98.2254 81.8731 98.2891 81.7975C98.3528 81.722 98.4009 81.6346 98.4307 81.5404C98.7133 80.6647 99.2662 79.9012 100.01 79.3595C100.754 78.8177 101.65 78.5257 102.57 78.5252C102.669 78.5252 102.766 78.5058 102.857 78.4681C102.948 78.4304 103.031 78.3752 103.101 78.3055C103.17 78.2358 103.225 78.1531 103.263 78.0621C103.301 77.9711 103.32 77.8735 103.32 77.775V71.5936C103.32 71.1658 103.15 70.7556 102.847 70.453C102.545 70.1505 102.134 69.9805 101.707 69.9803H93.9342C93.7353 69.9803 93.5446 70.0593 93.404 70.1999C93.2634 70.3405 93.1844 70.5312 93.1844 70.7301C93.1844 70.9289 93.2634 71.1196 93.404 71.2603C93.5446 71.4009 93.7353 71.4799 93.9342 71.4799H93.9341ZM63.6243 81.6061H66.0721C66.271 81.6061 66.4617 81.5271 66.6023 81.3865C66.7429 81.2459 66.8219 81.0551 66.8219 80.8563C66.8219 80.6574 66.7429 80.4667 66.6023 80.3261C66.4617 80.1855 66.271 80.1065 66.0721 80.1065H63.6243C63.4255 80.1065 63.2348 80.1855 63.0941 80.3261C62.9535 80.4667 62.8745 80.6574 62.8745 80.8563C62.8745 81.0551 62.9535 81.2459 63.0941 81.3865C63.2348 81.5271 63.4255 81.6061 63.6243 81.6061ZM75.292 81.6061H78.1316C78.3305 81.6061 78.5212 81.5271 78.6618 81.3865C78.8024 81.2459 78.8814 81.0551 78.8814 80.8563C78.8814 80.6574 78.8024 80.4667 78.6618 80.3261C78.5212 80.1855 78.3305 80.1065 78.1316 80.1065H75.2921C75.0933 80.1065 74.9026 80.1855 74.7619 80.3261C74.6213 80.4667 74.5423 80.6574 74.5423 80.8563C74.5423 81.0551 74.6213 81.2459 74.7619 81.3865C74.9026 81.5271 75.0933 81.6061 75.2921 81.6061H75.292ZM69.1964 81.6061H72.1679C72.3668 81.6061 72.5575 81.5271 72.6981 81.3865C72.8387 81.2459 72.9177 81.0551 72.9177 80.8563C72.9177 80.6574 72.8387 80.4667 72.6981 80.3261C72.5575 80.1855 72.3668 80.1065 72.1679 80.1065H69.1964C68.9975 80.1065 68.8068 80.1855 68.6662 80.3261C68.5256 80.4667 68.4466 80.6574 68.4466 80.8563C68.4466 81.0551 68.5256 81.2459 68.6662 81.3865C68.8068 81.5271 68.9975 81.6061 69.1964 81.6061V81.6061ZM84.5482 76.4431V77.9427C84.5482 78.1415 84.6272 78.3322 84.7678 78.4728C84.9084 78.6135 85.0991 78.6925 85.2979 78.6925C85.4968 78.6925 85.6875 78.6135 85.8281 78.4728C85.9687 78.3322 86.0477 78.1415 86.0477 77.9427V76.4431C86.0477 76.2442 85.9687 76.0535 85.8281 75.9129C85.6875 75.7723 85.4968 75.6933 85.2979 75.6933C85.0991 75.6933 84.9084 75.7723 84.7678 75.9129C84.6272 76.0535 84.5482 76.2442 84.5482 76.4431V76.4431ZM60.2612 76.9742H70.6053C70.8042 76.9742 70.9949 76.8952 71.1355 76.7546C71.2761 76.6139 71.3551 76.4232 71.3551 76.2244C71.3551 76.0255 71.2761 75.8348 71.1355 75.6942C70.9949 75.5536 70.8042 75.4746 70.6053 75.4746H60.2612C60.0624 75.4746 59.8717 75.5536 59.731 75.6942C59.5904 75.8348 59.5114 76.0255 59.5114 76.2244C59.5114 76.4232 59.5904 76.6139 59.731 76.7546C59.8717 76.8952 60.0624 76.9742 60.2612 76.9742ZM73.7299 76.9742H78.1316C78.3305 76.9742 78.5212 76.8952 78.6618 76.7546C78.8024 76.6139 78.8814 76.4232 78.8814 76.2244C78.8814 76.0255 78.8024 75.8348 78.6618 75.6942C78.5212 75.5536 78.3305 75.4746 78.1316 75.4746H73.73C73.5311 75.4746 73.3404 75.5536 73.1998 75.6942C73.0592 75.8348 72.9802 76.0255 72.9802 76.2244C72.9802 76.4232 73.0592 76.6139 73.1998 76.7546C73.3404 76.8952 73.5311 76.9742 73.73 76.9742H73.7299ZM84.5481 71.9443V73.4438C84.5481 73.6427 84.627 73.8334 84.7677 73.974C84.9083 74.1146 85.099 74.1936 85.2978 74.1936C85.4967 74.1936 85.6874 74.1146 85.828 73.974C85.9686 73.8334 86.0476 73.6427 86.0476 73.4438V71.9395C86.0475 71.8685 86.0435 71.7977 86.0357 71.7272C86.0437 71.6831 86.0477 71.6383 86.0476 71.5935C86.0476 71.5786 86.0506 71.5638 86.0563 71.55C86.0621 71.5362 86.0705 71.5237 86.081 71.5131C86.0916 71.5026 86.1042 71.4942 86.118 71.4885C86.1318 71.4828 86.1466 71.4798 86.1615 71.4799H90.8097C91.0086 71.4799 91.1993 71.4009 91.3399 71.2603C91.4805 71.1196 91.5595 70.9289 91.5595 70.7301C91.5595 70.5312 91.4805 70.3405 91.3399 70.1999C91.1993 70.0593 91.0086 69.9803 90.8097 69.9803H86.1616C85.8062 69.9797 85.4607 70.0971 85.1791 70.314C84.8556 70.0957 84.474 69.9794 84.0837 69.98H80.586C80.3871 69.98 80.1964 70.059 80.0558 70.1996C79.9152 70.3402 79.8362 70.5309 79.8362 70.7298C79.8362 70.9286 79.9152 71.1193 80.0558 71.2599C80.1964 71.4005 80.3871 71.4795 80.586 71.4795H84.0837C84.2069 71.4796 84.325 71.5286 84.412 71.6157C84.4991 71.7027 84.5481 71.8208 84.5482 71.944L84.5481 71.9443ZM58.3061 71.4799H77.4613C77.6601 71.4799 77.8509 71.4009 77.9915 71.2603C78.1321 71.1196 78.2111 70.9289 78.2111 70.7301C78.2111 70.5312 78.1321 70.3405 77.9915 70.1999C77.8509 70.0593 77.6601 69.9803 77.4613 69.9803H58.3061C58.1072 69.9803 57.9165 70.0593 57.7759 70.1999C57.6353 70.3405 57.5563 70.5312 57.5563 70.7301C57.5563 70.9289 57.6353 71.1196 57.7759 71.2603C57.9165 71.4009 58.1072 71.4799 58.3061 71.4799ZM77.9698 67.9146L78.7195 69.2132C78.8192 69.3849 78.9829 69.5101 79.1748 69.5612C79.3666 69.6124 79.5709 69.5853 79.7428 69.4861C79.9148 69.3868 80.0403 69.2234 80.0919 69.0317C80.1436 68.84 80.117 68.6356 80.0182 68.4634L79.2684 67.1648C79.2193 67.0793 79.1538 67.0043 79.0757 66.9441C78.9976 66.8839 78.9083 66.8397 78.8131 66.8141C78.7179 66.7884 78.6185 66.7818 78.5207 66.7946C78.423 66.8075 78.3287 66.8394 78.2433 66.8887C78.1579 66.938 78.083 67.0037 78.023 67.082C77.963 67.1603 77.9191 67.2496 77.8937 67.3449C77.8683 67.4402 77.8619 67.5396 77.875 67.6373C77.888 67.7351 77.9202 67.8293 77.9698 67.9146V67.9146ZM67.9938 69.0926L70.4287 67.6867C70.5142 67.6376 70.5892 67.5721 70.6494 67.494C70.7096 67.4158 70.7538 67.3266 70.7794 67.2314C70.8051 67.1361 70.8117 67.0368 70.7988 66.939C70.786 66.8412 70.7541 66.7469 70.7047 66.6615C70.6554 66.5761 70.5898 66.5013 70.5115 66.4413C70.4332 66.3813 70.3439 66.3374 70.2486 66.3119C70.1533 66.2865 70.0539 66.2802 69.9562 66.2932C69.8584 66.3063 69.7642 66.3385 69.6789 66.388L67.2437 67.7937C67.1582 67.8428 67.0832 67.9083 67.023 67.9865C66.9628 68.0646 66.9186 68.1538 66.893 68.249C66.8673 68.3443 66.8607 68.4436 66.8736 68.5414C66.8864 68.6392 66.9183 68.7335 66.9676 68.8189C67.017 68.9043 67.0826 68.9791 67.1609 69.0391C67.2392 69.0991 67.3285 69.1431 67.4238 69.1685C67.5191 69.1939 67.6185 69.2002 67.7162 69.1872C67.814 69.1741 67.9082 69.1419 67.9935 69.0924L67.9938 69.0926ZM57.0051 69.0926L67.1013 63.2637C67.2722 63.1635 67.3965 62.9999 67.4471 62.8085C67.4977 62.617 67.4706 62.4133 67.3716 62.2418C67.2726 62.0703 67.1098 61.945 66.9187 61.8931C66.7276 61.8412 66.5237 61.8669 66.3515 61.9648L56.2552 67.7937C56.0835 67.8934 55.9583 68.0571 55.9072 68.249C55.856 68.4408 55.8831 68.6451 55.9823 68.817C56.0816 68.989 56.245 69.1145 56.4367 69.1661C56.6284 69.2178 56.8328 69.1912 57.005 69.0924L57.0051 69.0926ZM90.6174 64.9109C91.4405 65.6545 92.458 66.1491 93.5512 66.3372C94.6445 66.5252 95.7687 66.3989 96.793 65.9731L98.1053 68.2451C98.1544 68.3307 98.2199 68.4057 98.298 68.4659C98.3761 68.526 98.4654 68.5702 98.5606 68.5959C98.6558 68.6215 98.7552 68.6281 98.853 68.6153C98.9508 68.6025 99.045 68.5705 99.1305 68.5212C99.2159 68.4719 99.2907 68.4062 99.3507 68.3279C99.4107 68.2497 99.4546 68.1603 99.48 68.065C99.5054 67.9697 99.5118 67.8704 99.4987 67.7726C99.4857 67.6749 99.4535 67.5806 99.404 67.4954L97.7412 64.6152C97.692 64.5299 97.6265 64.4552 97.5483 64.3952C97.4702 64.3353 97.3811 64.2913 97.2859 64.2658C97.1908 64.2404 97.0916 64.2339 96.994 64.2467C96.8964 64.2596 96.8022 64.2916 96.717 64.3408C95.9198 64.8005 94.9976 64.9957 94.0826 64.8984C93.1676 64.8011 92.307 64.4163 91.6244 63.7992C91.4769 63.6658 91.2825 63.5964 91.0839 63.6062C90.8853 63.6161 90.6987 63.7045 90.5653 63.852C90.4318 63.9994 90.3624 64.1938 90.3723 64.3924C90.3822 64.591 90.4706 64.7776 90.618 64.911L90.6174 64.9109ZM75.7203 64.0186C75.9656 64.443 76.2178 64.8801 76.4701 65.3172C76.5695 65.4895 76.7334 65.6152 76.9255 65.6667C77.1176 65.7181 77.3224 65.6911 77.4946 65.5917C77.6669 65.4922 77.7926 65.3284 77.844 65.1362C77.8955 64.9441 77.8685 64.7394 77.7691 64.5671C77.5167 64.1299 77.2644 63.6927 77.0193 63.2685C76.9702 63.1829 76.9047 63.1079 76.8266 63.0478C76.7484 62.9876 76.6592 62.9434 76.564 62.9178C76.4687 62.8921 76.3694 62.8855 76.2716 62.8983C76.1738 62.9111 76.0795 62.9431 75.9941 62.9924C75.9087 63.0417 75.8339 63.1074 75.7739 63.1857C75.7139 63.264 75.6699 63.3533 75.6445 63.4486C75.6191 63.5439 75.6128 63.6433 75.6258 63.741C75.6389 63.8388 75.6711 63.933 75.7206 64.0183L75.7203 64.0186ZM81.3672 55.0272L88.0983 51.1409C88.1245 51.1259 88.1555 51.1218 88.1847 51.1296C88.2138 51.1374 88.2387 51.1565 88.2538 51.1826L90.9934 55.9281C90.1124 56.6023 89.441 57.5128 89.0572 58.5536C88.6734 59.5944 88.5931 60.7228 88.8255 61.8075C88.8673 62.0019 88.9847 62.1717 89.1518 62.2796C89.3188 62.3874 89.5219 62.4245 89.7163 62.3827C89.9107 62.3408 90.0805 62.2234 90.1884 62.0564C90.2962 61.8893 90.3333 61.6863 90.2915 61.4919C90.0983 60.5921 90.1953 59.6543 90.5686 58.8132C90.9418 57.9721 91.572 57.2709 92.3687 56.8104C92.5409 56.7109 92.6666 56.5471 92.7181 56.3551C92.7695 56.163 92.7426 55.9583 92.6432 55.7861L89.5528 50.4325C89.3387 50.062 88.9862 49.7917 88.5729 49.681C88.1596 49.5702 87.7192 49.6281 87.3485 49.842L80.6174 53.7282C80.5319 53.7773 80.4569 53.8428 80.3967 53.921C80.3365 53.9991 80.2923 54.0883 80.2667 54.1836C80.2411 54.2788 80.2345 54.3781 80.2473 54.4759C80.2601 54.5737 80.2921 54.668 80.3414 54.7534C80.3907 54.8388 80.4564 54.9136 80.5346 54.9736C80.6129 55.0336 80.7022 55.0776 80.7975 55.103C80.8928 55.1284 80.9922 55.1347 81.0899 55.1217C81.1877 55.1086 81.2819 55.0764 81.3672 55.0269V55.0272ZM73.2022 58.395C72.8129 58.3678 72.4243 58.4578 72.0866 58.6534L69.057 60.4023C68.8862 60.5024 68.7619 60.6661 68.7112 60.8575C68.6606 61.049 68.6878 61.2527 68.7868 61.4242C68.8857 61.5957 69.0486 61.721 69.2397 61.7729C69.4308 61.8248 69.6346 61.799 69.8068 61.7012L72.8364 59.9523C72.9432 59.8908 73.07 59.8743 73.1889 59.9063C73.3079 59.9382 73.4093 60.0162 73.4708 60.1229C73.4708 60.1229 73.764 60.6304 74.2206 61.4216C74.3203 61.5933 74.484 61.7184 74.6759 61.7696C74.8677 61.8207 75.072 61.7937 75.2439 61.6944C75.4158 61.5951 75.5414 61.4317 75.593 61.24C75.6446 61.0483 75.6181 60.844 75.5193 60.6718C75.0625 59.8806 74.7695 59.3731 74.7695 59.3731C74.7333 59.3103 74.6937 59.2495 74.6508 59.1911C74.6356 59.1489 74.6167 59.1082 74.5943 59.0694C74.5792 59.0433 74.5751 59.0122 74.5829 58.983C74.5908 58.9539 74.6098 58.929 74.636 58.9139L78.6615 56.5894C78.7471 56.5403 78.8221 56.4748 78.8822 56.3967C78.9424 56.3186 78.9866 56.2293 79.0122 56.1341C79.0379 56.0389 79.0445 55.9395 79.0317 55.8417C79.0188 55.7439 78.9869 55.6497 78.9376 55.5642C78.8883 55.4788 78.8226 55.404 78.7443 55.344C78.666 55.284 78.5767 55.2401 78.4814 55.2147C78.3861 55.1893 78.2867 55.1829 78.189 55.196C78.0912 55.209 77.997 55.2412 77.9117 55.2907L73.8862 57.6145C73.5781 57.7918 73.3375 58.0663 73.2022 58.395V58.395Z" fill="#656CD0"/>
</g>
<defs>
<linearGradient id="paint0_linear_501_39" x1="0" y1="0" x2="154" y2="154" gradientUnits="userSpaceOnUse">
<stop stop-color="#589DDB"/>
<stop offset="1" stop-color="#723BC5"/>
</linearGradient>
<clipPath id="clip0_501_39">
<rect width="53.32" height="53.32" fill="white" transform="translate(50 46)"/>
</clipPath>
</defs>
</svg>
