<svg id="Ticket-DQ" xmlns="http://www.w3.org/2000/svg" width="500" height="500" viewBox="0 0 500 500">
  <path id="TicketDQ" d="M329.887,429.531a15.056,15.056,0,0,0,9.214,3.132h97.958a7.031,7.031,0,0,0,0-14.062H339.1a1.068,1.068,0,0,1-1.068-1.068,6.968,6.968,0,0,0-.112-1.253,18.426,18.426,0,0,0,.112-2.035,7.031,7.031,0,0,0-14.062,0,4.358,4.358,0,0,1-4.355,4.355H293.094a7.031,7.031,0,1,0,0,14.062h26.521A18.333,18.333,0,0,0,329.887,429.531ZM440.766,328.569a54.931,54.931,0,0,0,45.172,37.582v51.381a1.068,1.068,0,0,1-1.066,1.068H466.355a7.031,7.031,0,0,0,0,14.062h18.516A15.137,15.137,0,0,0,500,417.533V359.568a7.03,7.03,0,0,0-7.031-7.031,40.812,40.812,0,0,1-38.818-28.277,7.031,7.031,0,1,0-13.385,4.31ZM263.8,418.6H18.418a4.358,4.358,0,0,1-4.355-4.355V366.151a54.653,54.653,0,0,0,30.072-14.025,7.031,7.031,0,0,0-9.52-10.35,40.615,40.615,0,0,1-27.583,10.76A7.031,7.031,0,0,0,0,359.568v54.677a18.426,18.426,0,0,0,18.418,18.418H263.8a7.031,7.031,0,0,0,0-14.062Zm60.173-40.564V392.1a7.031,7.031,0,0,0,14.062,0V378.037a7.031,7.031,0,0,0-14.062,0Zm-86.8,8.724H263.8a7.031,7.031,0,0,0,0-14.062H237.173a7.031,7.031,0,1,0,0,14.062Zm-140.949,0H127.76a7.031,7.031,0,1,0,0-14.062H96.224a7.031,7.031,0,1,0,0,14.062Zm60.833,0h50.819a7.031,7.031,0,1,0,0-14.062H157.057a7.031,7.031,0,1,0,0,14.062ZM323.97,335.849v14.062a7.031,7.031,0,0,0,14.062,0V335.849a7.031,7.031,0,0,0-14.062,0Zm-113.544,7.477H263.8a7.031,7.031,0,0,0,0-14.062H210.427a7.031,7.031,0,0,0,0,14.062Zm-82.666,0h53.37a7.031,7.031,0,0,0,0-14.062H127.76a7.031,7.031,0,0,0,0,14.062ZM60.63,323.369a54.954,54.954,0,0,0,1.233-11.6,54.873,54.873,0,0,0-47.8-54.384V209.289a4.358,4.358,0,0,1,4.355-4.355H48.592a7.031,7.031,0,1,0,0-14.062H18.418A18.426,18.426,0,0,0,0,209.289v54.677A7.032,7.032,0,0,0,7.031,271a40.8,40.8,0,0,1,39.853,49.4,7.031,7.031,0,0,0,13.746,2.967Zm263.34-29.707v14.062a7.031,7.031,0,0,0,14.062,0V293.662a7.031,7.031,0,0,0-14.062,0Zm88.015-88.729h72.885A1.067,1.067,0,0,1,485.938,206v51.383a54.929,54.929,0,0,0-45.172,37.581,7.031,7.031,0,1,0,13.385,4.31A40.81,40.81,0,0,1,492.969,271,7.031,7.031,0,0,0,500,263.965V206a15.136,15.136,0,0,0-15.129-15.129H411.986a7.031,7.031,0,1,0,0,14.062ZM127.76,299.89h22.954a7.031,7.031,0,1,0,0-14.062H127.76a7.031,7.031,0,1,0,0,14.062Zm109.412,0H263.8a7.031,7.031,0,0,0,0-14.062H237.173a7.031,7.031,0,1,0,0,14.062Zm-57.161,0h27.865a7.031,7.031,0,1,0,0-14.062H180.011a7.031,7.031,0,0,0,0,14.062Zm143.959-48.415v14.062a7.031,7.031,0,1,0,14.062,0V251.475a7.031,7.031,0,0,0-14.062,0Zm-227.747,4.98h97a7.031,7.031,0,1,0,0-14.062h-97a7.031,7.031,0,1,0,0,14.062Zm126.3,0H263.8a7.031,7.031,0,1,0,0-14.062H222.524a7.031,7.031,0,1,0,0,14.062Zm101.446-47.167v14.062a7.031,7.031,0,1,0,14.062,0V209.243a18.275,18.275,0,0,0-.112-1.991,6.96,6.96,0,0,0,.112-1.253,1.067,1.067,0,0,1,1.068-1.066h43.588a7.031,7.031,0,1,0,0-14.062H339.1A15.056,15.056,0,0,0,329.887,194a18.323,18.323,0,0,0-10.272-3.132h-32.8a7.031,7.031,0,0,0,0,14.062h32.8a4.358,4.358,0,0,1,4.355,4.355ZM77.889,204.933H257.514a7.031,7.031,0,0,0,0-14.062H77.889a7.031,7.031,0,1,0,0,14.062ZM262.282,171.5l7.031,12.178a7.031,7.031,0,0,0,12.178-7.031l-7.031-12.178a7.031,7.031,0,1,0-12.178,7.031Zm-93.548,11.047,22.833-13.184a7.031,7.031,0,1,0-7.031-12.178L161.7,170.367a7.031,7.031,0,1,0,7.031,12.178Zm-103.045,0,94.676-54.66a7.032,7.032,0,0,0-7.031-12.18L58.657,170.367a7.031,7.031,0,0,0,7.031,12.178Zm315.194-39.213a54.933,54.933,0,0,0,57.911,9.96L451.1,174.6a7.031,7.031,0,1,0,12.178-7.031l-15.592-27.008a7.03,7.03,0,0,0-9.605-2.573,40.812,40.812,0,0,1-47.755-5.079,7.031,7.031,0,1,0-9.437,10.426Zm-139.695-8.368c2.3,3.98,4.665,8.079,7.031,12.178A7.031,7.031,0,0,0,260.4,140.11c-2.366-4.1-4.732-8.2-7.031-12.178a7.031,7.031,0,1,0-12.178,7.031Zm52.953-84.315,63.12-36.443a1.068,1.068,0,0,1,1.458.391l25.69,44.5a54.933,54.933,0,0,0-20.329,55.133,7.031,7.031,0,1,0,13.747-2.96,40.812,40.812,0,0,1,19.479-43.9,7.032,7.032,0,0,0,2.574-9.605L370.9,7.565A15.137,15.137,0,0,0,350.23,2.027L287.11,38.47a7.031,7.031,0,1,0,7.031,12.178ZM217.575,82.232a18.323,18.323,0,0,0-10.461,2.423l-28.41,16.4a7.032,7.032,0,0,0,7.031,12.18l28.41-16.4a4.357,4.357,0,0,1,5.949,1.6s2.749,4.759,7.031,12.178a7.031,7.031,0,0,0,12.178-7.031c-4.283-7.419-7.031-12.178-7.031-12.178a18.4,18.4,0,0,0-1.113-1.707,7.105,7.105,0,0,0-.53-1.141,1.068,1.068,0,0,1,.391-1.458L268.769,65.3a7.031,7.031,0,1,0-7.031-12.178L223.989,74.913a15.06,15.06,0,0,0-6.414,7.319Z" transform="translate(0 34)" fill="#fff" fill-rule="evenodd"/>
  <rect id="Rectangle_2" data-name="Rectangle 2" width="500" height="500" fill="#c8c8c8" opacity="0"/>
</svg>
