<svg xmlns="http://www.w3.org/2000/svg" width="500" height="501.359" viewBox="0 0 500 501.359">
  <g id="WorkList-DQ" transform="translate(0 1.359)">
    <g id="TaskList-DQ">
      <g id="Layer1" transform="translate(-0.152 -0.753)">
        <path id="Path_58" data-name="Path 58" d="M184.3,390.77a54.537,54.537,0,0,0,3.151,108.983H318.929a54.536,54.536,0,1,0,0-109.073h-104.9a7.04,7.04,0,1,0,0,14.08h104.9a40.456,40.456,0,0,1,0,80.913H187.453a40.457,40.457,0,0,1-2.347-80.846,7.04,7.04,0,1,0-.8-14.056ZM77.414,476A38.981,38.981,0,1,1,91.1,455.319a7.04,7.04,0,1,0,13.6,3.633,53.215,53.215,0,1,0-18.6,28.126A7.04,7.04,0,0,0,77.414,476Zm324.532-28.267L432.318,478.1a7.038,7.038,0,0,0,9.955,0l55.818-55.818a7.04,7.04,0,0,0-9.955-9.956L437.3,463.17,411.9,437.776a7.04,7.04,0,1,0-9.956,9.955ZM282.525,369.324h36.4a54.537,54.537,0,0,0,0-109.074H187.453a54.537,54.537,0,0,0,0,109.074h65.739a7.04,7.04,0,0,0,0-14.08H187.453a40.457,40.457,0,0,1,0-80.914H318.929a40.457,40.457,0,0,1,0,80.914h-36.4a7.04,7.04,0,0,0,0,14.08ZM29.1,284.116a38.971,38.971,0,1,1-13.562,20.63,7.04,7.04,0,0,0-13.609-3.611,53.223,53.223,0,1,0,18.433-28.058,7.04,7.04,0,1,0,8.739,11.04ZM401.946,317.3l30.372,30.371a7.038,7.038,0,0,0,9.955,0l55.818-55.818a7.039,7.039,0,0,0-9.955-9.955L437.3,332.74,411.9,307.347a7.04,7.04,0,0,0-9.956,9.956ZM144.7,150.511A54.529,54.529,0,0,0,187.453,238.9H318.929a54.537,54.537,0,0,0,0-109.074H187.453a54.5,54.5,0,0,0-15.013,2.1,7.04,7.04,0,1,0,3.875,13.536,40.425,40.425,0,0,1,11.139-1.554H318.929a40.457,40.457,0,0,1,0,80.914H187.453a40.448,40.448,0,0,1-31.719-65.558,7.04,7.04,0,0,0-11.033-8.748ZM40.9,221.434a39.094,39.094,0,1,1,24.877-.008,7.04,7.04,0,0,0,4.487,13.346,53.173,53.173,0,1,0-33.843.01A7.04,7.04,0,1,0,40.9,221.434Zm361.048-34.56,30.372,30.371a7.038,7.038,0,0,0,9.955,0l55.818-55.818a7.039,7.039,0,0,0-9.955-9.955L437.3,202.312,411.9,176.918a7.04,7.04,0,0,0-9.956,9.956ZM367.48,78.777A54.542,54.542,0,0,0,318.929-.606H187.453a54.536,54.536,0,1,0,0,109.072H318.929a54.285,54.285,0,0,0,24.847-5.984,7.04,7.04,0,0,0-6.427-12.529,40.233,40.233,0,0,1-18.42,4.433H187.453a40.456,40.456,0,0,1,0-80.913H318.929A40.463,40.463,0,0,1,354.953,72.35a7.04,7.04,0,0,0,12.527,6.427ZM88.313,36.483A39.078,39.078,0,1,1,70.772,18.942a7.04,7.04,0,1,0,6.3-12.591,53.159,53.159,0,1,0,23.834,23.833,7.04,7.04,0,0,0-12.592,6.3ZM401.946,56.446l30.372,30.371a7.038,7.038,0,0,0,9.955,0L498.091,31a7.04,7.04,0,0,0-9.955-9.956L437.3,71.883,411.9,46.49a7.04,7.04,0,0,0-9.956,9.956Z" fill="#fff" fill-rule="evenodd"/>
      </g>
      <rect id="Rectangle_2" data-name="Rectangle 2" width="500" height="500" fill="#c8c8c8" opacity="0"/>
    </g>
  </g>
</svg>
