<svg width="154" height="154" viewBox="0 0 154 154" fill="none" xmlns="http://www.w3.org/2000/svg">
<rect width="154" height="154" fill="url(#paint0_linear_80_6)"/>
<circle cx="77" cy="77" r="43" fill="white"/>
<g clip-path="url(#clip0_80_6)">
<circle cx="57.5" cy="55.5" r="3.5" fill="#BCBBF5"/>
<circle cx="57.5" cy="69.5" r="3.5" fill="#BCBBF5"/>
<circle cx="57.5" cy="83.5" r="3.5" fill="#BCBBF5"/>
<circle cx="57.5" cy="97.5" r="3.5" fill="#BCBBF5"/>
<path fill-rule="evenodd" clip-rule="evenodd" d="M69.6303 91.6076C68.12 91.6947 66.7032 92.3655 65.6809 93.4776C64.6585 94.5896 64.1111 96.0553 64.1548 97.5634C64.1985 99.0714 64.8299 100.503 65.915 101.554C67.0001 102.606 68.4534 103.194 69.9662 103.194H83.9817C85.5236 103.194 87.0023 102.583 88.0926 101.496C89.1828 100.408 89.7953 98.9335 89.7953 97.3959C89.7953 95.8582 89.1828 94.3835 88.0926 93.2962C87.0023 92.2089 85.5236 91.598 83.9817 91.598H72.7994C72.6004 91.598 72.4095 91.6769 72.2687 91.8172C72.128 91.9576 72.0489 92.148 72.0489 92.3465C72.0489 92.5449 72.128 92.7353 72.2687 92.8757C72.4095 93.016 72.6004 93.0949 72.7994 93.0949H83.9817C85.1255 93.0949 86.2225 93.548 87.0312 94.3546C87.84 95.1612 88.2944 96.2552 88.2944 97.3959C88.2944 98.5365 87.84 99.6305 87.0312 100.437C86.2225 101.244 85.1255 101.697 83.9817 101.697H69.9664C68.8442 101.697 67.7662 101.261 66.9613 100.481C66.1563 99.7012 65.6878 98.6393 65.6552 97.5206C65.6227 96.4019 66.0286 95.3147 66.7869 94.4897C67.5451 93.6646 68.5959 93.1669 69.7162 93.102C69.8155 93.0977 69.913 93.0737 70.0029 93.0316C70.0929 92.9894 70.1735 92.9298 70.2402 92.8563C70.3068 92.7828 70.3582 92.6968 70.3913 92.6033C70.4243 92.5098 70.4385 92.4107 70.4328 92.3118C70.4272 92.2128 70.4019 92.1159 70.3584 92.0268C70.3149 91.9377 70.2541 91.858 70.1795 91.7925C70.1049 91.727 70.018 91.677 69.9238 91.6452C69.8296 91.6135 69.7301 91.6007 69.6309 91.6077L69.6303 91.6076ZM58.2362 100.668C57.4588 101.273 56.4911 101.583 55.5059 101.541C54.5208 101.5 53.5825 101.111 52.8587 100.443C52.1349 99.7754 51.6727 98.8728 51.5548 97.8965C51.4369 96.9202 51.671 95.934 52.2151 95.114C52.7592 94.2939 53.578 93.6936 54.5251 93.4202C55.4723 93.1468 56.486 93.2182 57.3852 93.6217C58.2844 94.0251 59.0104 94.7342 59.4336 95.6224C59.8568 96.5105 59.9495 97.5198 59.6952 98.4699C59.6674 98.5655 59.659 98.6658 59.6705 98.7647C59.6821 98.8637 59.7133 98.9593 59.7624 99.0461C59.8115 99.1328 59.8775 99.2089 59.9564 99.2699C60.0354 99.3309 60.1258 99.3755 60.2223 99.4013C60.3188 99.427 60.4195 99.4332 60.5184 99.4196C60.6174 99.406 60.7126 99.3729 60.7985 99.3221C60.8844 99.2713 60.9593 99.2039 61.0188 99.1239C61.0783 99.0439 61.1212 98.9528 61.1449 98.8561C61.4936 97.5589 61.3682 96.1802 60.791 94.9668C60.2139 93.7533 59.2227 92.7842 57.9948 92.2328C56.7668 91.6814 55.3822 91.5836 54.0886 91.957C52.7951 92.3303 51.6768 93.1505 50.934 94.2707C50.1912 95.3909 49.8722 96.7382 50.0341 98.0715C50.196 99.4047 50.8282 100.637 51.8177 101.548C52.8072 102.459 54.0894 102.989 55.435 103.044C56.7806 103.099 58.1017 102.674 59.1622 101.846C59.3143 101.722 59.4117 101.544 59.4334 101.349C59.4551 101.154 59.3993 100.959 59.2781 100.805C59.1569 100.65 58.9798 100.55 58.785 100.524C58.5903 100.499 58.3932 100.551 58.2362 100.668ZM92.8314 97.6634L96.069 100.892C96.1387 100.961 96.2214 101.016 96.3124 101.054C96.4035 101.092 96.5011 101.111 96.5996 101.111C96.6982 101.111 96.7957 101.092 96.8868 101.054C96.9778 101.016 97.0605 100.961 97.1302 100.892L103.08 94.9577C103.219 94.8168 103.296 94.6272 103.295 94.4301C103.294 94.233 103.215 94.0443 103.075 93.9049C102.935 93.7655 102.746 93.6867 102.548 93.6857C102.351 93.6846 102.16 93.7613 102.019 93.8992L96.6001 99.3045L93.8924 96.6048C93.823 96.5341 93.7403 96.4778 93.6489 96.4392C93.5575 96.4006 93.4594 96.3805 93.3602 96.38C93.261 96.3794 93.1626 96.3985 93.0708 96.4361C92.9791 96.4738 92.8957 96.5292 92.8255 96.5991C92.7553 96.6691 92.6998 96.7523 92.6621 96.8438C92.6243 96.9353 92.6052 97.0334 92.6057 97.1323C92.6062 97.2313 92.6264 97.3291 92.6651 97.4203C92.7038 97.5114 92.7602 97.5939 92.8311 97.6632L92.8314 97.6634ZM80.1011 89.3276H83.9813C85.5232 89.3276 87.0019 88.7168 88.0922 87.6295C89.1824 86.5422 89.795 85.0674 89.795 83.5298C89.795 81.9921 89.1824 80.5173 88.0922 79.43C87.0019 78.3427 85.5232 77.7319 83.9813 77.7319H69.9664C68.4245 77.7319 66.9458 78.3427 65.8555 79.43C64.7653 80.5173 64.1528 81.9921 64.1528 83.5298C64.1528 85.0674 64.7653 86.5422 65.8555 87.6295C66.9458 88.7168 68.4245 89.3276 69.9664 89.3276H76.9742C77.1732 89.3276 77.3641 89.2488 77.5048 89.1084C77.6456 88.9681 77.7246 88.7777 77.7246 88.5792C77.7246 88.3807 77.6456 88.1903 77.5048 88.05C77.3641 87.9096 77.1732 87.8308 76.9742 87.8308H69.9664C68.8226 87.8308 67.7256 87.3776 66.9168 86.571C66.1081 85.7644 65.6537 84.6705 65.6537 83.5298C65.6537 82.3891 66.1081 81.2951 66.9168 80.4885C67.7256 79.6819 68.8226 79.2287 69.9664 79.2287H83.9817C85.1255 79.2287 86.2225 79.6819 87.0313 80.4885C87.8401 81.2951 88.2945 82.3891 88.2945 83.5298C88.2945 84.6705 87.8401 85.7644 87.0313 86.571C86.2225 87.3776 85.1255 87.8308 83.9817 87.8308H80.1015C79.9025 87.8308 79.7116 87.9096 79.5708 88.05C79.4301 88.1903 79.351 88.3807 79.351 88.5792C79.351 88.7777 79.4301 88.9681 79.5708 89.1084C79.7116 89.2488 79.9025 89.3276 80.1015 89.3276H80.1011ZM53.086 80.2691C53.8609 79.6607 54.8276 79.347 55.8131 79.3843C56.7986 79.4216 57.7387 79.8073 58.4652 80.4724C59.1917 81.1376 59.6573 82.0389 59.7785 83.015C59.8998 83.9911 59.6689 84.9784 59.1271 85.8002C58.5854 86.6221 57.7681 87.225 56.8214 87.501C55.8748 87.777 54.8606 87.7081 53.9603 87.3067C53.0599 86.9052 52.3321 86.1975 51.907 85.3099C51.482 84.4224 51.3874 83.413 51.6403 82.4623C51.6906 82.2707 51.6626 82.067 51.5626 81.8959C51.4626 81.7248 51.2987 81.6002 51.1067 81.5494C50.9148 81.4986 50.7104 81.5257 50.5385 81.6249C50.3666 81.724 50.2411 81.8871 50.1895 82.0784C49.8426 83.3771 49.9705 84.7565 50.5503 85.9697C51.1301 87.1829 52.1241 88.1507 53.3541 88.6997C54.5842 89.2487 55.97 89.3432 57.2635 88.9661C58.557 88.5891 59.6737 87.7652 60.4137 86.6419C61.1536 85.5187 61.4685 84.1694 61.3019 82.8357C61.1353 81.5021 60.4982 80.2711 59.5045 79.3632C58.5109 78.4553 57.2256 77.9298 55.8789 77.8807C54.5322 77.8317 53.2119 78.2623 52.1545 79.0955C51.9984 79.2187 51.8978 79.3987 51.8748 79.5959C51.8518 79.793 51.9083 79.9912 52.0319 80.1469C52.1554 80.3025 52.3359 80.4028 52.5336 80.4258C52.7313 80.4487 52.93 80.3924 53.0861 80.2692L53.086 80.2691ZM92.8314 83.7969L96.069 87.0257C96.1387 87.0952 96.2214 87.1503 96.3124 87.188C96.4035 87.2256 96.5011 87.2449 96.5996 87.2449C96.6982 87.2449 96.7957 87.2256 96.8868 87.188C96.9778 87.1503 97.0605 87.0952 97.1302 87.0257L103.08 81.0916C103.221 80.9513 103.3 80.7609 103.3 80.5625C103.3 80.364 103.221 80.1736 103.08 80.0333C102.94 79.893 102.749 79.8141 102.55 79.8141C102.351 79.8141 102.16 79.893 102.019 80.0333L96.6001 85.4384L93.8924 82.7388C93.7515 82.5993 93.5609 82.5211 93.3623 82.5215C93.1638 82.5218 92.9734 82.6007 92.833 82.7407C92.6926 82.8807 92.6136 83.0705 92.6132 83.2686C92.6129 83.4666 92.6912 83.6567 92.8311 83.7972L92.8314 83.7969ZM65.4089 66.0654C64.7304 66.9196 64.3071 67.9472 64.1874 69.0303C64.0678 70.1135 64.2567 71.2083 64.7325 72.1893C65.2082 73.1703 65.9516 73.9977 66.8774 74.5765C67.8031 75.1554 68.8737 75.4623 69.9664 75.4621H83.9817C85.5236 75.4621 87.0023 74.8513 88.0926 73.764C89.1829 72.6767 89.7954 71.2019 89.7954 69.6642C89.7954 68.1266 89.1829 66.6518 88.0926 65.5645C87.0023 64.4772 85.5236 63.8664 83.9817 63.8664H69.9664C69.4251 63.8661 68.8864 63.9412 68.366 64.0896C68.2707 64.1162 68.1816 64.1613 68.1039 64.2223C68.0262 64.2834 67.9613 64.3591 67.913 64.4453C67.8648 64.5314 67.834 64.6262 67.8226 64.7242C67.8113 64.8222 67.8194 64.9215 67.8466 65.0164C67.8739 65.1112 67.9196 65.1998 67.9813 65.2769C68.043 65.3541 68.1194 65.4183 68.206 65.4659C68.2927 65.5135 68.3879 65.5436 68.4863 65.5544C68.5846 65.5651 68.6841 65.5564 68.7791 65.5286C69.1652 65.4187 69.5649 65.3631 69.9665 65.3634H83.9817C85.1255 65.3634 86.2225 65.8166 87.0313 66.6232C87.8401 67.4298 88.2945 68.5238 88.2945 69.6645C88.2945 70.8052 87.8401 71.8991 87.0313 72.7057C86.2225 73.5123 85.1255 73.9655 83.9817 73.9655H69.9664C69.156 73.9657 68.3619 73.738 67.6752 73.3087C66.9885 72.8794 66.4371 72.2658 66.0841 71.5382C65.7311 70.8107 65.5909 69.9986 65.6795 69.1952C65.7682 68.3918 66.082 67.6296 66.5851 66.9959C66.7088 66.8404 66.7655 66.6422 66.7426 66.4451C66.7198 66.2479 66.6193 66.0678 66.4634 65.9445C66.3074 65.8211 66.1087 65.7647 65.911 65.7874C65.7132 65.8102 65.5327 65.9104 65.409 66.0659L65.4089 66.0654ZM54.3438 73.6053C53.4063 73.2918 52.6111 72.6561 52.1003 71.8118C51.5894 70.9674 51.3963 69.9694 51.5554 68.9961C51.7145 68.0228 52.2154 67.1376 52.9686 66.4988C53.7219 65.8599 54.6784 65.5089 55.6672 65.5086C56.656 65.5083 57.6127 65.8586 58.3664 66.497C59.12 67.1354 59.6215 68.0203 59.7812 68.9935C59.9409 69.9667 59.7484 70.9648 59.2382 71.8095C58.7279 72.6542 57.9331 73.2904 56.9957 73.6045C56.8071 73.6677 56.6513 73.8031 56.5628 73.9809C56.4742 74.1587 56.4601 74.3642 56.5235 74.5524C56.587 74.7405 56.7228 74.8958 56.901 74.9841C57.0793 75.0725 57.2854 75.0865 57.474 75.0233C58.7489 74.5961 59.8299 73.7307 60.5239 72.5818C61.2179 71.433 61.4797 70.0754 61.2624 68.7518C61.0452 67.4281 60.3631 66.2246 59.3381 65.3564C58.3131 64.4881 57.0118 64.0115 55.667 64.0119C54.3221 64.0123 53.0211 64.4896 51.9966 65.3585C50.9721 66.2274 50.2907 67.4313 50.0743 68.7551C49.8578 70.0788 50.1204 71.4362 50.8151 72.5847C51.5098 73.7332 52.5913 74.5979 53.8664 75.0243C53.9601 75.0566 54.0592 75.0701 54.1582 75.0639C54.2571 75.0578 54.3538 75.0322 54.4427 74.9885C54.5317 74.9449 54.6111 74.8841 54.6763 74.8097C54.7416 74.7353 54.7914 74.6488 54.823 74.555C54.8545 74.4613 54.8671 74.3623 54.86 74.2637C54.853 74.1651 54.8264 74.0689 54.7819 73.9806C54.7373 73.8923 54.6757 73.8137 54.6005 73.7492C54.5253 73.6848 54.4381 73.6359 54.3438 73.6053ZM92.8316 69.9312L96.0692 73.16C96.1389 73.2295 96.2216 73.2846 96.3126 73.3222C96.4037 73.3598 96.5013 73.3792 96.5998 73.3792C96.6984 73.3792 96.7959 73.3598 96.887 73.3222C96.978 73.2846 97.0607 73.2295 97.1304 73.16L103.081 67.2259C103.221 67.0856 103.3 66.8952 103.3 66.6967C103.3 66.4983 103.221 66.3079 103.081 66.1676C102.94 66.0272 102.749 65.9484 102.55 65.9484C102.351 65.9484 102.16 66.0272 102.019 66.1676L96.6001 71.5724L93.8924 68.8728C93.7515 68.7332 93.5609 68.6551 93.3623 68.6554C93.1638 68.6558 92.9734 68.7346 92.833 68.8746C92.6926 69.0147 92.6136 69.2045 92.6132 69.4025C92.6129 69.6006 92.6912 69.7907 92.8311 69.9312H92.8316ZM89.1573 58.4393C89.6107 57.5554 89.8289 56.5702 89.7911 55.578C89.7533 54.5859 89.4606 53.6201 88.9412 52.7731C88.4217 51.9261 87.6929 51.2263 86.8245 50.7407C85.9562 50.2551 84.9773 50.0001 83.9817 50H69.9664C68.4245 50 66.9459 50.6108 65.8556 51.6981C64.7654 52.7854 64.1529 54.2601 64.1529 55.7978C64.1529 57.3354 64.7654 58.8101 65.8556 59.8974C66.9459 60.9847 68.4245 61.5956 69.9664 61.5956H83.9817C84.9028 61.5968 85.8109 61.3787 86.6304 60.9594C86.8075 60.8688 86.9413 60.7117 87.0023 60.5228C87.0633 60.3338 87.0465 60.1284 86.9557 59.9518C86.8648 59.7751 86.7073 59.6417 86.5178 59.5809C86.3284 59.5201 86.1224 59.5368 85.9453 59.6274C85.3377 59.9382 84.6645 60.0997 83.9817 60.0987H69.9664C68.8226 60.0987 67.7257 59.6456 66.9169 58.839C66.1081 58.0324 65.6537 56.9384 65.6537 55.7977C65.6537 54.657 66.1081 53.5631 66.9169 52.7565C67.7257 51.9499 68.8226 51.4968 69.9664 51.4968H83.9817C84.7201 51.4969 85.4462 51.686 86.0903 52.0461C86.7344 52.4062 87.275 52.9252 87.6604 53.5533C88.0457 54.1815 88.263 54.8978 88.2913 55.6337C88.3195 56.3695 88.1579 57.1003 87.8219 57.756C87.733 57.9324 87.7177 58.1367 87.7791 58.3243C87.8405 58.512 87.9738 58.6678 88.1499 58.7579C88.326 58.848 88.5307 58.8651 88.7194 58.8054C88.908 58.7457 89.0654 58.6141 89.1573 58.4393ZM59.3981 53.943C59.8391 54.8254 59.9511 55.8356 59.7139 56.7928C59.4768 57.7501 58.9059 58.592 58.1035 59.168C57.3011 59.7441 56.3193 60.0167 55.3338 59.9372C54.3484 59.8576 53.4234 59.4311 52.7242 58.7339C52.0251 58.0367 51.5974 57.1142 51.5177 56.1314C51.438 55.1486 51.7113 54.1695 52.2889 53.3692C52.8665 52.569 53.7107 51.9997 54.6706 51.7632C55.6304 51.5266 56.6433 51.6383 57.5282 52.0782C57.6165 52.1234 57.7128 52.1507 57.8118 52.1586C57.9107 52.1664 58.0102 52.1546 58.1045 52.1239C58.1988 52.0931 58.2861 52.044 58.3612 51.9794C58.4364 51.9148 58.498 51.8359 58.5424 51.7474C58.5868 51.6589 58.6131 51.5625 58.6199 51.4638C58.6267 51.365 58.6138 51.2659 58.582 51.1722C58.5501 51.0785 58.4999 50.992 58.4343 50.9177C58.3687 50.8435 58.289 50.7829 58.1998 50.7396C56.9961 50.1407 55.6181 49.9883 54.3121 50.3098C53.0061 50.6312 51.8574 51.4055 51.0713 52.4941C50.2853 53.5828 49.9132 54.9148 50.0216 56.2519C50.13 57.5891 50.7118 58.8442 51.663 59.7928C52.6142 60.7413 53.8727 61.3215 55.2135 61.4296C56.5543 61.5376 57.8899 61.1665 58.9815 60.3825C60.073 59.5985 60.8494 58.4529 61.1716 57.1504C61.4939 55.848 61.3411 54.4737 60.7405 53.2733C60.6514 53.0958 60.4953 52.9608 60.3065 52.8981C60.1176 52.8354 59.9115 52.85 59.7335 52.9389C59.5555 53.0277 59.4202 53.1834 59.3573 53.3717C59.2944 53.56 59.3091 53.7656 59.3982 53.9431L59.3981 53.943ZM92.8314 56.0653L96.069 59.294C96.1387 59.3635 96.2214 59.4187 96.3124 59.4563C96.4035 59.4939 96.5011 59.5133 96.5996 59.5133C96.6982 59.5133 96.7957 59.4939 96.8868 59.4563C96.9778 59.4187 97.0605 59.3635 97.1302 59.294L103.08 53.3601C103.219 53.2192 103.296 53.0297 103.295 52.8325C103.294 52.6354 103.215 52.4467 103.075 52.3073C102.935 52.1679 102.746 52.0891 102.548 52.0881C102.351 52.087 102.16 52.1637 102.019 52.3016L96.6001 57.7064L93.8924 55.0068C93.7515 54.8673 93.5609 54.7891 93.3623 54.7895C93.1638 54.7899 92.9734 54.8687 92.833 55.0087C92.6926 55.1487 92.6136 55.3386 92.6132 55.5366C92.6129 55.7346 92.6912 55.9247 92.8311 56.0653H92.8314Z" fill="#656CD0"/>
</g>
<defs>
<linearGradient id="paint0_linear_80_6" x1="0" y1="0" x2="154" y2="154" gradientUnits="userSpaceOnUse">
<stop stop-color="#589DDB"/>
<stop offset="1" stop-color="#723BC5"/>
</linearGradient>
<clipPath id="clip0_80_6">
<rect width="53.3" height="53.3" fill="white" transform="translate(50 50)"/>
</clipPath>
</defs>
</svg>
